<?xml version="1.0" encoding="iso-8859-1"?>
<!-- Generator: Adobe Illustrator 19.0.0, SVG Export Plug-In . SVG Version: 6.00 Build 0)  -->
<svg version="1.1" id="Capa_1" xmlns="http://www.w3.org/2000/svg" xmlns:xlink="http://www.w3.org/1999/xlink" x="0px" y="0px"
	 viewBox="0 0 436.681 436.681" style="enable-background:new 0 0 436.681 436.681;" xml:space="preserve">
<g>
	<g>
		<path d="M239.411,253.037c-3.693-0.372-6.868,2.263-7.247,5.888c-9.12,88.334-31.481,163.092-49.073,164.536
			c-4.779-4.052-9.492-30.996-12.633-48.947c-7.141-40.786-14.513-82.964-38.526-83.05c-20.248,0.089-27.481,36.478-35.854,78.612
			c-3.919,19.739-9.813,49.411-15.193,53.391C55.665,421.82,29.331,282.542,29.331,220.89c0-35.854,12.08-65.918,31.532-78.473
			c3.058-1.973,3.939-6.062,1.966-9.12c-1.987-3.062-6.072-3.949-9.127-1.966c-23.173,14.954-37.574,49.271-37.574,89.559
			c0,30.761,18.794,215.791,65.208,215.791c14.298,0,19.326-21.958,27.686-64.031c4.721-23.747,13.5-67.946,22.907-67.987
			c12.916,0.048,20.808,45.169,25.528,72.124c6.304,36.069,10.479,59.894,25.119,59.894c43.254,0,60.853-158.348,62.723-176.404
			C245.671,256.655,243.033,253.409,239.411,253.037z"/>
	</g>
</g>
<g>
	<g>
		<path d="M412.822,332.244L295.707,215.129c-2.666-2.666-6.987-2.666-9.653,0c-2.666,2.666-2.666,6.987,0,9.653l117.115,117.111
			c4.98,4.983,4.98,13.09,0,18.07c-4.973,4.973-13.08,4.98-18.067,0L265.803,240.664c-2.666-2.666-6.987-2.666-9.653,0
			s-2.666,6.987,0,9.653L375.446,369.62c5.154,5.151,11.923,7.724,18.688,7.724c6.769,0,13.541-2.577,18.688-7.724
			C423.13,359.318,423.13,342.552,412.822,332.244z"/>
	</g>
</g>
<g>
	<g>
		<path d="M186.569,0C111.281,0,50.036,61.249,50.036,136.533s61.245,136.533,136.533,136.533s136.533-61.249,136.533-136.533
			S261.857,0,186.569,0z M186.569,259.413c-67.755,0-122.88-55.122-122.88-122.88c0-67.758,55.125-122.88,122.88-122.88
			s122.88,55.122,122.88,122.88S254.324,259.413,186.569,259.413z"/>
	</g>
</g>
<g>
	<g>
		<path d="M143.52,90.317c-2.014-3.174-6.226-4.12-9.421-2.109c-3.185,2.021-4.134,6.236-2.113,9.424
			c0.608,0.949,2.761,5.461,1.447,8.537c-1.072,2.519-4.792,4.547-10.486,5.707c-12.141,2.482-20.419,7.216-24.607,14.077
			c-4.134,6.786-2.553,13.029-2.359,13.718c0.846,3.011,3.587,4.98,6.567,4.98c0.611,0,1.239-0.082,1.85-0.263
			c3.635-1.021,5.748-4.792,4.727-8.421c-0.007-0.01-0.051-1.393,0.874-2.908c1.195-1.966,4.826-5.594,15.681-7.806
			c10.513-2.147,17.353-6.769,20.32-13.739C150.275,101.461,144.22,91.43,143.52,90.317z"/>
	</g>
</g>
<g>
	<g>
		<path d="M193.191,152.443c-5.468-5.861-12.175-8.998-19.388-9.076c-0.099-0.003-0.201-0.003-0.294-0.003
			c-13.81,0-24.75,10.796-25.958,12.035c-2.635,2.7-2.58,7.021,0.12,9.653c1.324,1.297,3.045,1.939,4.765,1.939
			c1.771,0,3.546-0.69,4.888-2.062c2.014-2.062,9.281-7.916,16.193-7.916c0.041,0,0.085,0,0.133,0
			c3.488,0.041,6.615,1.591,9.554,4.741c2.574,2.755,6.885,2.915,9.653,0.335C195.611,159.519,195.765,155.201,193.191,152.443z"/>
	</g>
</g>
<g>
	<g>
		<path d="M237.356,139.913c-2.553-2.113-2.912-3.959-2.946-5.332c-0.154-6.134,6.987-14.063,9.486-16.346
			c2.796-2.529,3.014-6.847,0.481-9.643c-2.526-2.799-6.847-3.011-9.639-0.485c-1.461,1.324-14.275,13.312-13.981,26.757
			c0.133,6.021,2.857,11.404,7.892,15.568c9.834,8.134-4.867,30.426-5.021,30.648c-2.14,3.096-1.365,7.349,1.727,9.492
			c1.188,0.823,2.546,1.215,3.888,1.215c2.161,0,4.28-1.021,5.608-2.922C243.21,176.835,253.15,152.989,237.356,139.913z"/>
	</g>
</g>
<g>
	<g>
		<path d="M198.659,96.246c-0.594-3.372-6.301-32.911-25.382-33.167c-0.031,0-0.065,0-0.092,0c-3.727,0-6.772,2.997-6.827,6.738
			c-0.044,3.768,2.966,6.864,6.734,6.915c5.321,0.068,10.54,12.977,12.121,21.869c0.587,3.308,3.468,5.639,6.714,5.639
			c0.393,0,0.788-0.034,1.184-0.102C196.826,103.485,199.305,99.956,198.659,96.246z"/>
	</g>
</g>
<g>
	<g>
		<path d="M272.719,86.193c-7.892-24.245-36.721-27.846-37.939-27.986c-3.727-0.44-7.134,2.253-7.567,5.997
			c-0.434,3.744,2.253,7.134,5.994,7.564c0.212,0.027,21.32,2.645,26.525,18.654c0.939,2.884,3.611,4.717,6.492,4.717
			c0.7,0,1.413-0.109,2.116-0.341C271.927,93.631,273.886,89.781,272.719,86.193z"/>
	</g>
</g>
<g>
	<g>
		<path d="M220.689,215.364c-0.266-3.762-3.56-6.55-7.281-6.339c-16.674,1.167-39.216-2.328-39.441-2.365
			c-3.744-0.591-7.212,1.966-7.799,5.69c-0.58,3.724,1.966,7.212,5.693,7.796c0.833,0.136,17.879,2.768,34.161,2.768
			c2.826,0,5.635-0.082,8.322-0.27C218.109,222.385,220.942,219.126,220.689,215.364z"/>
	</g>
</g>
<g>
	<g>
		<path d="M181.327,34.772c-1.396-3.499-5.369-5.205-8.868-3.816L137.83,44.742c-3.499,1.399-5.212,5.369-3.813,8.871
			c1.058,2.673,3.625,4.304,6.339,4.304c0.84,0,1.7-0.157,2.529-0.488l34.628-13.786C181.013,42.243,182.726,38.274,181.327,34.772z
			"/>
	</g>
</g>
<g>
	<g>
		<path d="M283.907,131.304c-1.717-3.342-5.82-4.666-9.178-2.939c-3.352,1.714-4.673,5.83-2.959,9.182
			c3.086,6.038,6.84,17.783,3.785,23.593c-1.761,3.335-0.474,7.465,2.86,9.219c1.014,0.536,2.103,0.785,3.174,0.785
			c2.454,0,4.826-1.328,6.045-3.645C294.967,153.566,285.061,133.54,283.907,131.304z"/>
	</g>
</g>
<g>
	<g>
		<path d="M125.129,170.697c-3.779-0.3-7.072,2.447-7.4,6.202c-1.615,18.367-4.106,23.706-4.594,24.593
			c-2.127,2.458-2.253,6.164-0.126,8.776c1.348,1.655,3.314,2.516,5.301,2.516c1.512,0,3.034-0.498,4.297-1.529
			c4.154-3.376,7.086-14.534,8.721-33.161C131.663,174.336,128.884,171.029,125.129,170.697z"/>
	</g>
</g>
<g>
</g>
<g>
</g>
<g>
</g>
<g>
</g>
<g>
</g>
<g>
</g>
<g>
</g>
<g>
</g>
<g>
</g>
<g>
</g>
<g>
</g>
<g>
</g>
<g>
</g>
<g>
</g>
<g>
</g>
</svg>
