<?xml version="1.0" encoding="iso-8859-1"?>
<!-- Generator: Adobe Illustrator 19.0.0, SVG Export Plug-In . SVG Version: 6.00 Build 0)  -->
<svg version="1.1" id="Capa_1" xmlns="http://www.w3.org/2000/svg" xmlns:xlink="http://www.w3.org/1999/xlink" x="0px" y="0px"
	 viewBox="0 0 396.425 396.425" style="enable-background:new 0 0 396.425 396.425;" xml:space="preserve">
<g>
	<g>
		<path d="M263.607,0.239H133.9c-3.772,0-6.827,3.058-6.827,6.827s3.055,6.827,6.827,6.827h129.707c3.775,0,6.827-3.058,6.827-6.827
			S267.378,0.239,263.607,0.239z"/>
	</g>
</g>
<g>
	<g>
		<path d="M344.759,122.061c-0.239-32.891-8.12-63.222-22.2-85.402C307.543,13.005,286.285,0,262.651,0c-0.154,0-0.314,0-0.468,0
			c-12.295,0.092-23.927,5.704-35.174,11.131c-10.394,5.014-20.207,9.748-29.532,9.817c-0.068,0-0.137,0.003-0.208,0.003
			c-9.267,0-19.081-4.564-29.467-9.393c-11.329-5.263-23.17-10.831-35.328-10.619C85.14,1.28,51.161,53.111,51.666,124.177
			c0.232,32.014,7.987,98.423,21.886,158.447c17.493,75.513,38.226,113.797,61.621,113.797c0.055,0,0.099,0,0.157,0.003
			c16.821-0.123,23.214-29.085,33.068-80.261c6.752-35.072,16.954-88.067,30.553-88.224c0.007,0,0.021,0,0.034,0
			c18.08,0,27.955,53.777,35.161,93.044c8.243,44.848,13.681,74.503,30.788,74.503c0.034,0,0.072,0,0.106,0
			c23.46-0.171,43.687-38.755,60.126-114.681C338.205,220.576,344.991,154.064,344.759,122.061z M312.26,278.013
			c-16.613,76.752-35.338,104.189-47.186,104.294c-6.694-2.42-13.742-40.783-17.947-63.706
			c-9.38-51.063-19.067-103.861-48.193-103.861c-0.024,0-0.058,0-0.085,0c-24.422,0.28-33.649,48.196-43.414,98.925
			c-4.847,25.156-12.954,67.26-20.2,69.557c-0.024,0-0.044,0-0.072,0c-35.895,0-69.769-186.47-70.294-259.137
			c-0.454-63.423,28.013-109.66,67.7-109.947c0.065,0,0.133-0.003,0.205,0c9.267,0,19.081,4.564,29.467,9.393
			c11.233,5.219,22.849,10.619,35.028,10.619c0.099,0,0.201,0,0.3,0c12.295-0.092,23.927-5.704,35.174-11.131
			c10.394-5.014,20.207-9.748,29.532-9.817c0.133-0.003,0.259-0.003,0.386-0.003c24.259,0,39.892,16.582,48.753,30.536
			c12.766,20.122,19.92,47.971,20.139,78.421C331.788,153.894,324.633,220.867,312.26,278.013z"/>
	</g>
</g>
<g>
	<g>
		<path d="M177.164,82.77l14.954-54.46c1-3.632-1.14-7.39-4.772-8.39c-3.645-1.004-7.393,1.14-8.387,4.775L164.494,77.37
			l-49.712,48.507c-1.539,1.502-2.28,3.642-2,5.775c0.28,2.133,1.546,4.004,3.42,5.059l56.692,31.853l-29.174,31.317
			c-2.574,2.758-2.42,7.079,0.341,9.646c1.311,1.225,2.987,1.833,4.652,1.833c1.826,0,3.652-0.73,4.994-2.174L188.8,171.52
			c1.427-1.533,2.075-3.635,1.754-5.704c-0.328-2.072-1.58-3.878-3.4-4.902l-56.313-31.638l44.51-43.428
			C176.218,85.002,176.843,83.941,177.164,82.77z"/>
	</g>
</g>
<g>
</g>
<g>
</g>
<g>
</g>
<g>
</g>
<g>
</g>
<g>
</g>
<g>
</g>
<g>
</g>
<g>
</g>
<g>
</g>
<g>
</g>
<g>
</g>
<g>
</g>
<g>
</g>
<g>
</g>
</svg>
