<?xml version="1.0" encoding="iso-8859-1"?>
<!-- Generator: Adobe Illustrator 19.0.0, SVG Export Plug-In . SVG Version: 6.00 Build 0)  -->
<svg version="1.1" id="Capa_1" xmlns="http://www.w3.org/2000/svg" xmlns:xlink="http://www.w3.org/1999/xlink" x="0px" y="0px"
	 viewBox="0 0 480.006 480.006" style="enable-background:new 0 0 480.006 480.006;" xml:space="preserve">
<g>
	<g>
		<path d="M474.192,288.309l-77.6-22.168c-11.337-3.239-23.447-2.445-34.264,2.248c6.235-19.779,10.377-40.157,12.36-60.8
			l-15.92-1.496c-2.336,24.653-7.92,48.89-16.608,72.08l-5.656,15.056c-0.283,0.771-0.448,1.58-0.488,2.4l-6.608,118.92
			c-0.565,10.235-9.32,18.074-19.555,17.509c-8.792-0.485-16.032-7.081-17.333-15.789l-17.04-113.648
			c-2.951-19.595-21.228-33.088-40.823-30.137c-15.57,2.345-27.793,14.567-30.137,30.137l-17.04,113.648
			c-1.515,10.138-10.961,17.128-21.099,15.613c-8.708-1.301-15.304-8.542-15.789-17.333L144,295.557
			c-0.04-0.82-0.205-1.629-0.488-2.4l-5.656-15.056c-11.819-31.446-17.868-64.766-17.856-98.36
			c0.013-28.586,23.198-51.749,51.784-51.736c6.994,0.003,13.914,1.424,20.344,4.176c30.581,13.048,65.163,13.048,95.744,0
			c18.898-7.898,40.665-4.078,55.744,9.784l10.936-11.672c-19.628-18.375-48.267-23.398-72.976-12.8
			c-26.56,11.328-56.592,11.328-83.152,0c-34.384-14.739-74.205,1.185-88.945,35.569c-3.615,8.433-5.479,17.512-5.479,26.687
			c-0.01,30.064,4.577,59.954,13.6,88.632c-10.806-4.669-22.894-5.461-34.216-2.24l-77.6,22.168
			c-3.429,0.988-5.788,4.128-5.784,7.696v176c0,4.418,3.582,8,8,8h464c4.418,0,8-3.582,8-8v-176
			C480.001,292.43,477.63,289.289,474.192,288.309z M464,464.005H16V302.037l71.8-20.512c15.732-4.464,32.461,2.54,40.32,16.88
			l6.504,116.96c1.074,19.057,17.394,33.634,36.451,32.56c16.339-0.921,29.793-13.177,32.229-29.36l17.048-113.648
			c1.613-10.851,11.718-18.34,22.569-16.727c8.649,1.286,15.44,8.077,16.727,16.727l17.048,113.648
			c2.842,18.874,20.446,31.871,39.32,29.029c16.183-2.437,28.438-15.89,29.36-32.229l6.504-116.96
			c7.859-14.34,24.588-21.344,40.32-16.88l71.8,20.512V464.005z"/>
	</g>
</g>
<g>
	<g>
		<path d="M472,88.005h-34.52l41.544-76.168c2.119-3.877,0.694-8.738-3.183-10.857c-2.577-1.409-5.719-1.292-8.185,0.305l-136,88
			c-2.978,1.926-4.333,5.583-3.328,8.984c1.004,3.401,4.126,5.736,7.672,5.736h42.608l-49.656,92.208
			c-2.092,3.892-0.633,8.742,3.259,10.834c2.767,1.487,6.149,1.217,8.645-0.69l136-104c3.508-2.686,4.175-7.707,1.489-11.215
			C476.832,89.167,474.488,88.007,472,88.005z M360.664,171.077l38.4-71.28c2.094-3.89,0.638-8.742-3.252-10.836
			c-1.171-0.631-2.482-0.959-3.812-0.956h-28.912l86.792-56.136l-32.904,60.336c-2.099,3.888-0.648,8.741,3.24,10.84
			c1.163,0.628,2.463,0.957,3.784,0.96h24.368L360.664,171.077z"/>
	</g>
</g>
<g>
	<g>
		<path d="M164,145.061c-16.868,8.937-27.58,26.3-28,45.384v9.56h16v-9.6c0.48-13.343,8.128-25.387,20-31.496L164,145.061z"/>
	</g>
</g>
<g>
</g>
<g>
</g>
<g>
</g>
<g>
</g>
<g>
</g>
<g>
</g>
<g>
</g>
<g>
</g>
<g>
</g>
<g>
</g>
<g>
</g>
<g>
</g>
<g>
</g>
<g>
</g>
<g>
</g>
</svg>
