<?xml version="1.0" encoding="iso-8859-1"?>
<!-- Generator: Adobe Illustrator 19.0.0, SVG Export Plug-In . SVG Version: 6.00 Build 0)  -->
<svg version="1.1" id="Capa_1" xmlns="http://www.w3.org/2000/svg" xmlns:xlink="http://www.w3.org/1999/xlink" x="0px" y="0px"
	 viewBox="0 0 423.253 423.253" style="enable-background:new 0 0 423.253 423.253;" xml:space="preserve">
<g>
	<g>
		<path d="M358.465,152.187c-3.721-0.191-6.922,2.83-7.049,6.598c-1.171,35.342-9.083,99.71-21.934,154.358
			c-16.725,71.117-34.819,96.457-45.957,96.495c-6.622-2.775-13.076-39.41-17.347-63.659
			c-9.032-51.275-18.371-104.294-47.756-104.397c-24.607,0.102-34.191,48.043-44.346,98.796
			c-4.983,24.921-13.326,66.628-20.477,69.222c-21.569,0-47.561-76.878-61.798-182.798c-0.505-3.741-3.929-6.345-7.677-5.857
			c-3.738,0.502-6.356,3.939-5.857,7.677c23.62,175.664,60.549,194.632,75.332,194.632c16.995,0,23.62-28.979,33.864-80.196
			c6.567-32.826,17.555-87.764,30.966-87.822c17.913,0.061,27.778,56.061,34.304,93.112c7.943,45.107,13.193,74.906,30.573,74.906
			c23.088,0,42.537-34.993,59.467-106.987c13.056-55.514,21.094-121.016,22.289-157.03
			C365.186,155.467,362.233,152.313,358.465,152.187z"/>
	</g>
</g>
<g>
	<g>
		<path d="M87.637,190.597c-0.928-9.936-1.591-19.043-1.959-27.078c-0.177-3.765-3.359-6.649-7.137-6.502
			c-3.765,0.174-6.676,3.369-6.502,7.137c0.382,8.243,1.058,17.565,2.007,27.716c0.328,3.536,3.304,6.188,6.789,6.188
			c0.208,0,0.427-0.01,0.642-0.027C85.231,197.68,87.989,194.352,87.637,190.597z"/>
	</g>
</g>
<g>
	<g>
		<path d="M283.307,27.307c-12.343,0-24.04,5.54-35.348,10.895c-10.404,4.932-20.231,9.585-29.505,9.585
			c-3.768,0-6.827,3.058-6.827,6.827c0,3.768,3.058,6.827,6.827,6.827c12.343,0,24.04-5.54,35.349-10.895
			c10.404-4.932,20.231-9.585,29.505-9.585c3.768,0,6.827-3.058,6.827-6.827S287.075,27.307,283.307,27.307z"/>
	</g>
</g>
<g>
	<g>
		<path d="M110.578,104.219c-2.355-2.953-6.642-3.434-9.595-1.092c-2.949,2.352-3.441,6.646-1.092,9.595
			c3.874,4.871,5.922,10.742,5.922,16.985c0,15.056-12.25,27.307-27.307,27.307S51.2,144.763,51.2,129.707
			c0-6.345,2.113-12.298,6.106-17.213c2.379-2.925,1.932-7.226-0.99-9.602c-2.922-2.372-7.229-1.932-9.602,0.99
			c-5.912,7.27-9.168,16.445-9.168,25.825c0,22.586,18.374,40.96,40.96,40.96c22.586,0,40.96-18.374,40.96-40.96
			C119.467,120.48,116.309,111.428,110.578,104.219z"/>
	</g>
</g>
<g>
	<g>
		<path d="M119.467,27.307c-22.586,0-40.96,18.374-40.96,40.96c0,22.586,18.374,40.96,40.96,40.96
			c22.586,0,40.96-18.374,40.96-40.96C160.427,45.681,142.053,27.307,119.467,27.307z M119.467,95.573
			c-15.056,0-27.307-12.25-27.307-27.307s12.25-27.307,27.307-27.307s27.307,12.25,27.307,27.307S134.523,95.573,119.467,95.573z"/>
	</g>
</g>
<g>
	<g>
		<path d="M170.667,0c-20.623,0-39.141,12.274-47.172,31.266c-1.471,3.471,0.15,7.479,3.625,8.946
			c3.475,1.464,7.479-0.15,8.946-3.625c5.895-13.933,19.473-22.934,34.601-22.934c20.702,0,37.547,16.845,37.547,37.547
			c0,20.702-16.845,37.547-37.547,37.547c-6.451,0-12.807-1.659-18.388-4.806c-3.294-1.843-7.455-0.69-9.301,2.601
			c-1.85,3.287-0.683,7.451,2.601,9.301c7.622,4.291,16.299,6.557,25.088,6.557c28.232,0,51.2-22.968,51.2-51.2
			C221.867,22.968,198.898,0,170.667,0z"/>
	</g>
</g>
<g>
	<g>
		<path d="M358.25,67.751c-2.017-26.508-24.44-47.271-51.05-47.271c-28.232,0-51.2,22.968-51.2,51.2s22.968,51.2,51.2,51.2
			c1.328,0,2.635-0.051,3.936-0.15c3.762-0.29,6.574-3.567,6.284-7.328c-0.29-3.755-3.587-6.581-7.328-6.284
			c-0.956,0.072-1.918,0.109-2.891,0.109c-20.702,0-37.547-16.845-37.547-37.547c0-20.702,16.845-37.547,37.547-37.547
			c19.514,0,35.956,15.22,37.434,34.652c0.287,3.758,3.615,6.578,7.325,6.291C355.721,74.79,358.536,71.509,358.25,67.751z"/>
	</g>
</g>
<g>
	<g>
		<path d="M111.015,94.396c-3.185-2.014-7.404-1.075-9.421,2.113c-5.045,7.963-13.677,12.718-23.088,12.718
			c-15.056,0-27.307-12.25-27.307-27.307s12.25-27.307,27.307-27.307c2.69,0,5.338,0.386,7.881,1.154
			c3.598,1.085,7.421-0.952,8.506-4.567c1.085-3.608-0.956-7.421-4.567-8.506c-3.82-1.15-7.796-1.734-11.82-1.734
			c-22.586,0-40.96,18.374-40.96,40.96c0,22.586,18.374,40.96,40.96,40.96c14.118,0,27.057-7.127,34.621-19.063
			C115.145,100.632,114.2,96.413,111.015,94.396z"/>
	</g>
</g>
<g>
	<g>
		<path d="M344.747,61.44c-22.586,0-40.96,18.374-40.96,40.96c0,19.374,13.756,36.25,32.71,40.127
			c0.461,0.096,0.922,0.14,1.376,0.14c3.178,0,6.021-2.225,6.683-5.458c0.754-3.693-1.625-7.301-5.318-8.055
			c-12.629-2.587-21.798-13.838-21.798-26.754c0-15.056,12.25-27.307,27.307-27.307s27.307,12.25,27.307,27.307
			c0,7.468-2.959,14.445-8.335,19.64c-2.714,2.618-2.785,6.943-0.167,9.653c2.618,2.71,6.943,2.782,9.653,0.167
			c8.062-7.789,12.503-18.255,12.503-29.461C385.707,79.814,367.333,61.44,344.747,61.44z"/>
	</g>
</g>
<g>
	<g>
		<path d="M81.92,184.32c-13.172,0-23.893,10.721-23.893,23.893s10.721,23.893,23.893,23.893s23.893-10.721,23.893-23.893
			S95.092,184.32,81.92,184.32z M81.92,218.453c-5.646,0-10.24-4.594-10.24-10.24s4.594-10.24,10.24-10.24s10.24,4.594,10.24,10.24
			S87.566,218.453,81.92,218.453z"/>
	</g>
</g>
<g>
	<g>
		<path d="M354.987,116.053c-13.172,0-23.893,10.721-23.893,23.893s10.721,23.893,23.893,23.893s23.893-10.721,23.893-23.893
			S368.159,116.053,354.987,116.053z M354.987,150.187c-5.646,0-10.24-4.594-10.24-10.24s4.594-10.24,10.24-10.24
			c5.646,0,10.24,4.594,10.24,10.24S360.632,150.187,354.987,150.187z"/>
	</g>
</g>
<g>
</g>
<g>
</g>
<g>
</g>
<g>
</g>
<g>
</g>
<g>
</g>
<g>
</g>
<g>
</g>
<g>
</g>
<g>
</g>
<g>
</g>
<g>
</g>
<g>
</g>
<g>
</g>
<g>
</g>
</svg>
