<?xml version="1.0" encoding="iso-8859-1"?>
<!-- Generator: Adobe Illustrator 19.0.0, SVG Export Plug-In . SVG Version: 6.00 Build 0)  -->
<svg version="1.1" id="Capa_1" xmlns="http://www.w3.org/2000/svg" xmlns:xlink="http://www.w3.org/1999/xlink" x="0px" y="0px"
	 viewBox="0 0 402.548 402.548" style="enable-background:new 0 0 402.548 402.548;" xml:space="preserve">
<g>
	<g>
		<path d="M300.146,0c-52.698,0-95.573,42.875-95.573,95.573c0,52.698,42.875,95.573,95.573,95.573
			c52.698,0,95.573-42.875,95.573-95.573C395.72,42.875,352.845,0,300.146,0z M300.146,177.493c-45.172,0-81.92-36.751-81.92-81.92
			s36.748-81.92,81.92-81.92s81.92,36.751,81.92,81.92S345.318,177.493,300.146,177.493z"/>
	</g>
</g>
<g>
	<g>
		<path d="M300.146,20.483c-11.295,0-20.48,9.161-20.48,20.422v75.206c0,11.257,9.185,20.422,20.48,20.422
			c11.291,0,20.48-9.161,20.48-20.422V40.905C320.626,29.648,311.441,20.483,300.146,20.483z M306.973,116.111
			c0,3.796-3,6.769-6.827,6.769c-3.768,0-6.827-3.034-6.827-6.769V40.902c0-3.796,3-6.769,6.827-6.769
			c3.765,0,6.827,3.038,6.827,6.772V116.111z"/>
	</g>
</g>
<g>
	<g>
		<path d="M300.146,129.707c-11.295,0-20.48,9.185-20.48,20.48c0,11.295,9.185,20.48,20.48,20.48c11.291,0,20.48-9.185,20.48-20.48
			C320.626,138.892,311.441,129.707,300.146,129.707z M300.146,157.013c-3.768,0-6.827-3.062-6.827-6.827s3.058-6.827,6.827-6.827
			c3.765,0,6.827,3.062,6.827,6.827S303.915,157.013,300.146,157.013z"/>
	</g>
</g>
<g>
	<g>
		<path d="M191.312,179.268c-1.44-3.355-5.328-4.888-8.673-3.451c-3.349,1.44-4.888,5.325-3.447,8.67
			c4.953,11.506,7.574,25.443,7.574,40.305c0,53.484-22.17,160.911-40.735,164.465c-3.471-4.529-6.625-25.057-8.745-38.837
			c-5.216-33.929-10.602-69.014-31.481-69.086c-17.507,0.079-24.214,30.229-31.986,65.143c-3.441,15.456-8.588,38.571-12.861,42.813
			c-18.606-2.836-40.926-110.824-40.926-164.495c0-38.772,17.913-68.007,41.673-68.007c5.553,0,12.588,3.116,19.395,6.134
			c8.059,3.574,16.394,7.267,24.733,7.267c8.585,0,16.094-3.97,22.712-7.468c5.775-3.048,11.233-5.932,16.548-5.932
			c2.004,0,3.997,0.198,5.912,0.584c3.56,0.707,7.052-1.591,7.772-5.164c0.727-3.574-1.587-7.052-5.161-7.776
			c-2.772-0.56-5.639-0.843-8.527-0.843c-8.585,0-16.094,3.97-22.712,7.468c-5.775,3.048-11.233,5.932-16.548,5.932
			c-5.547,0-12.582-3.116-19.388-6.134c-8.059-3.57-16.394-7.267-24.74-7.267c-31.792,0-54.873,34.154-54.873,81.207
			c0,26.368,15.125,177.753,54.873,177.753c13.152,0,17.859-21.166,24.992-53.2c3.656-16.394,12.196-54.784,19.108-54.815
			c9.544,0.034,15.326,37.67,18.432,57.89c4.639,30.184,7.697,50.125,20.852,50.125c39.748,0,54.873-151.385,54.88-177.756
			C199.965,208.152,196.972,192.413,191.312,179.268z"/>
	</g>
</g>
<g>
	<g>
		<path d="M69.258,163.84c-22.586,0-40.96,18.374-40.96,40.96c0,3.768,3.055,6.827,6.827,6.827c3.775,0,6.827-3.055,6.827-6.827
			c0-15.056,12.247-27.307,27.307-27.307c3.772,0,6.827-3.058,6.827-6.827S73.03,163.84,69.258,163.84z"/>
	</g>
</g>
<g>
	<g>
		<path d="M208.672,161.676l-22.781-12.459l-12.466-22.787c-2.386-4.372-9.588-4.372-11.974,0l-12.466,22.787l-22.781,12.459
			c-2.195,1.198-3.553,3.492-3.553,5.99s1.359,4.792,3.553,5.99l22.781,12.462l12.466,22.784c1.195,2.191,3.495,3.55,5.987,3.55
			c2.492,0,4.792-1.358,5.987-3.55l12.465-22.784l22.781-12.462c2.195-1.198,3.553-3.492,3.553-5.99
			C212.226,165.168,210.867,162.874,208.672,161.676z M177.587,175.101c-1.147,0.628-2.086,1.57-2.714,2.714l-7.434,13.585
			l-7.434-13.585c-0.628-1.143-1.567-2.086-2.714-2.714l-13.585-7.434l13.585-7.431c1.147-0.628,2.086-1.57,2.714-2.714
			l7.434-13.589l7.434,13.589c0.628,1.143,1.567,2.086,2.714,2.714l13.585,7.431L177.587,175.101z"/>
	</g>
</g>
<g>
	<g>
		<path d="M143.406,204.134l-14.927-8.165l-8.168-14.93c-2.386-4.379-9.588-4.379-11.974,0l-8.168,14.93l-14.927,8.165
			c-2.195,1.198-3.553,3.492-3.553,5.99s1.358,4.792,3.553,5.99l14.927,8.165l8.168,14.93c1.195,2.191,3.495,3.55,5.987,3.55
			c2.495,0,4.796-1.359,5.987-3.55l8.168-14.93l14.927-8.165c2.195-1.198,3.553-3.492,3.553-5.99S145.601,205.333,143.406,204.134z
			 M120.182,213.262c-1.147,0.628-2.086,1.57-2.714,2.714l-3.14,5.738l-3.14-5.738c-0.628-1.143-1.567-2.086-2.714-2.714
			l-5.728-3.133l5.728-3.133c1.147-0.628,2.086-1.57,2.714-2.714l3.14-5.738l3.14,5.738c0.628,1.143,1.567,2.086,2.714,2.714
			l5.728,3.133L120.182,213.262z"/>
	</g>
</g>
<g>
</g>
<g>
</g>
<g>
</g>
<g>
</g>
<g>
</g>
<g>
</g>
<g>
</g>
<g>
</g>
<g>
</g>
<g>
</g>
<g>
</g>
<g>
</g>
<g>
</g>
<g>
</g>
<g>
</g>
</svg>
