<?xml version="1.0" encoding="iso-8859-1"?>
<!-- Generator: Adobe Illustrator 19.0.0, SVG Export Plug-In . SVG Version: 6.00 Build 0)  -->
<svg version="1.1" id="Capa_1" xmlns="http://www.w3.org/2000/svg" xmlns:xlink="http://www.w3.org/1999/xlink" x="0px" y="0px"
	 viewBox="0 0 480 480" style="enable-background:new 0 0 480 480;" xml:space="preserve">
<g>
	<g>
		<path d="M480,188.001v-16h-17.088c0.664-7.32,1.088-14.672,1.088-22.064c-0.003-23.165-18.785-41.941-41.95-41.938
			c-11.121,0.002-21.786,4.419-29.65,12.282c-4.645,4.626-12.155,4.626-16.8,0c-16.299-16.342-42.76-16.377-59.103-0.078
			c-1.644,1.639-3.148,3.413-4.497,5.302c-13.414-18.783-39.515-23.135-58.298-9.721c-1.889,1.349-3.663,2.853-5.302,4.497
			c-4.645,4.626-12.155,4.626-16.8,0c-16.299-16.342-42.76-16.377-59.103-0.078c-1.644,1.639-3.148,3.413-4.497,5.302
			c-13.414-18.783-39.515-23.135-58.298-9.721c-1.889,1.349-3.663,2.853-5.302,4.497c-4.645,4.626-12.155,4.626-16.8,0
			c-16.382-16.379-42.939-16.376-59.318,0.006c-7.863,7.864-12.281,18.529-12.282,29.65c0,7.392,0.424,14.744,1.088,22.064H0v16
			h19.032c1.759,10.735,4.237,21.34,7.416,31.744c-0.8-0.08-1.6-0.304-2.448-0.304c-9.104-0.006-17.608,4.543-22.656,12.12
			c-0.874,1.316-1.341,2.86-1.344,4.44v128c0,4.418,3.582,8,8,8h464c4.418,0,8-3.582,8-8v-128c-0.003-1.58-0.47-3.124-1.344-4.44
			c-5.048-7.577-13.552-12.126-22.656-12.12c-0.8,0-1.6,0.224-2.448,0.304c3.179-10.404,5.657-21.009,7.416-31.744H480z
			 M345.944,124.001c6.884-0.017,13.489,2.719,18.344,7.6c10.896,10.863,28.528,10.863,39.424,0
			c10.132-10.131,26.559-10.13,36.69,0.002c4.862,4.863,7.595,11.457,7.598,18.334c0,7.392-0.48,14.744-1.192,22.064H408v-8
			c0-4.418-3.582-8-8-8h-32c-4.418,0-8,3.582-8,8v8h-38.808c-0.712-7.32-1.192-14.672-1.192-22.064
			C320.018,135.618,331.624,124.015,345.944,124.001z M368,204.001h32c4.418,0,8-3.582,8-8v-8h36.72
			c-1.919,11.397-4.709,22.63-8.344,33.6l-4,11.896c-0.2,0.604-0.329,1.23-0.384,1.864l-7.008,84.144
			c-0.247,2.75-2.676,4.78-5.427,4.533c-2.408-0.216-4.317-2.125-4.533-4.533l-5.848-76.064
			c-1.044-13.945-13.196-24.403-27.14-23.358c-12.441,0.932-22.349,10.787-23.348,23.222c-1.664,20.272-4.64,57.136-5.904,76.184
			c-0.176,2.716-2.521,4.775-5.237,4.599c-2.452-0.159-4.413-2.1-4.596-4.551l-6.952-84.2c-0.055-0.634-0.184-1.26-0.384-1.864
			l-4-11.896c-3.631-10.963-6.418-22.188-8.336-33.576H360v8C360,200.42,363.582,204.001,368,204.001z M376,188.001v-16h16v16H376z
			 M307.552,226.641c1.696-5.072,3.096-10.208,4.448-15.368c1.352,5.16,2.752,10.328,4.448,15.368l0.616,1.856
			c-3.353-0.552-6.775-0.552-10.128,0L307.552,226.641z M201.944,124.001c6.884-0.017,13.489,2.719,18.344,7.6
			c10.896,10.863,28.528,10.863,39.424,0c10.132-10.131,26.559-10.13,36.69,0.002c4.862,4.863,7.595,11.457,7.598,18.334
			c0,7.392-0.48,14.744-1.192,22.064H264v-8c0-4.418-3.582-8-8-8h-32c-4.418,0-8,3.582-8,8v8h-38.808
			c-0.712-7.32-1.192-14.672-1.192-22.064C176.018,135.618,187.624,124.015,201.944,124.001z M224,204.001h32c4.418,0,8-3.582,8-8
			v-8h36.72c-1.919,11.397-4.709,22.63-8.344,33.6l-4,11.896c-0.2,0.604-0.329,1.23-0.384,1.864l-7.008,84.144
			c-0.247,2.75-2.676,4.78-5.427,4.533c-2.408-0.216-4.317-2.125-4.533-4.533l-5.848-76.064
			c-1.044-13.945-13.196-24.403-27.14-23.358c-12.441,0.932-22.349,10.787-23.348,23.222c-1.664,20.272-4.64,57.136-5.904,76.184
			c-0.176,2.716-2.521,4.775-5.237,4.599c-2.452-0.159-4.413-2.1-4.595-4.551l-6.952-84.2c-0.055-0.634-0.184-1.26-0.384-1.864
			l-3.992-11.872c-3.635-10.97-6.425-22.203-8.344-33.6H216v8C216,200.42,219.582,204.001,224,204.001z M232,188.001v-16h16v16H232z
			 M163.552,226.641c1.696-5.04,3.096-10.208,4.448-15.368c1.352,5.16,2.752,10.296,4.448,15.368l1.088,3.28
			c-3.66-0.672-7.412-0.672-11.072,0L163.552,226.641z M57.954,124.004c6.877,0.003,13.471,2.735,18.334,7.598
			c10.896,10.863,28.528,10.863,39.424,0c10.132-10.131,26.559-10.13,36.69,0.002c4.862,4.863,7.595,11.457,7.598,18.334
			c0,7.392-0.48,14.744-1.192,22.064H120v-8c0-4.418-3.582-8-8-8H80c-4.418,0-8,3.582-8,8v8H33.192
			C32.48,164.681,32,157.329,32,149.937C32.006,135.609,43.626,123.998,57.954,124.004z M80,204.001h32c4.418,0,8-3.582,8-8v-8
			h36.72c-1.919,11.397-4.709,22.63-8.344,33.6l-4,11.896c-0.2,0.604-0.329,1.23-0.384,1.864l-7.008,84.144
			c-0.247,2.75-2.676,4.78-5.427,4.533c-2.409-0.216-4.317-2.125-4.533-4.533l-5.848-76.064
			c-1.044-13.945-13.196-24.403-27.14-23.358c-12.441,0.932-22.349,10.787-23.348,23.222c-1.664,20.272-4.64,57.136-5.904,76.184
			c-0.176,2.716-2.521,4.775-5.237,4.599c-2.452-0.159-4.413-2.1-4.595-4.551L48,235.337c-0.055-0.634-0.184-1.26-0.384-1.864
			l-4-11.896c-3.631-10.963-6.418-22.188-8.336-33.576H72v8C72,200.42,75.582,204.001,80,204.001z M88,188.001v-16h16v16H88z
			 M464,238.777v117.224H16V238.777c4.603-4.335,11.835-4.167,16.232,0.376l6.808,81.648c0.956,11.519,11.07,20.081,22.588,19.124
			c10.309-0.856,18.446-9.116,19.148-19.436c1.264-18.944,4.232-55.704,5.888-75.944c0.444-5.133,4.964-8.934,10.097-8.49
			c4.541,0.393,8.134,4.01,8.495,8.554l5.848,76.064c0.924,11.561,11.044,20.185,22.606,19.261
			c10.23-0.817,18.371-8.908,19.25-19.133l6.024-72.232c5.285-4.176,12.747-4.176,18.032,0l6.024,72.232
			c0.956,11.519,11.069,20.081,22.588,19.124c10.309-0.856,18.446-9.116,19.148-19.436c1.264-18.944,4.232-55.704,5.888-75.944
			c0.444-5.133,4.964-8.934,10.097-8.49c4.542,0.393,8.134,4.01,8.495,8.554l5.848,76.064c0.924,11.561,11.045,20.185,22.606,19.261
			c10.23-0.817,18.37-8.908,19.25-19.133l6.144-73.712c5.243-4.039,12.549-4.039,17.792,0l6.144,73.712
			c0.956,11.519,11.07,20.081,22.588,19.124c10.309-0.856,18.446-9.116,19.148-19.436c1.264-18.944,4.232-55.704,5.888-75.944
			c0.444-5.133,4.964-8.934,10.097-8.49c4.542,0.393,8.134,4.01,8.495,8.554l5.848,76.064c0.924,11.561,11.045,20.185,22.606,19.261
			c10.23-0.817,18.37-8.908,19.25-19.133l6.808-81.656C452.168,234.604,459.399,234.44,464,238.777z"/>
	</g>
</g>
<g>
</g>
<g>
</g>
<g>
</g>
<g>
</g>
<g>
</g>
<g>
</g>
<g>
</g>
<g>
</g>
<g>
</g>
<g>
</g>
<g>
</g>
<g>
</g>
<g>
</g>
<g>
</g>
<g>
</g>
</svg>
