<?xml version="1.0" encoding="iso-8859-1"?>
<!-- Generator: Adobe Illustrator 19.0.0, SVG Export Plug-In . SVG Version: 6.00 Build 0)  -->
<svg version="1.1" id="Capa_1" xmlns="http://www.w3.org/2000/svg" xmlns:xlink="http://www.w3.org/1999/xlink" x="0px" y="0px"
	 viewBox="0 0 423.028 423.028" style="enable-background:new 0 0 423.028 423.028;" xml:space="preserve">
<g>
	<g>
		<path d="M314.409,40.209c-2.014-1.478-4.676-1.69-6.888-0.567c-2.222,1.123-3.622,3.4-3.622,5.888v91.016
			c0,15.176-12.36,27.518-27.546,27.518H146.674c-15.186,0-27.546-12.346-27.546-27.518v-91.02c0-2.488-1.403-4.765-3.622-5.888
			c-2.215-1.123-4.867-0.911-6.888,0.567c-27.334,20.057-43.653,61.17-43.653,109.978c0,32.01,7.274,98.471,20.739,158.597
			c16.985,75.807,37.492,114.244,60.952,114.244c16.818,0,23.419-28.911,33.638-80.015c7.008-35.021,17.596-87.945,31.188-88.003
			c18.108,0.065,27.6,53.955,34.533,93.303c7.922,44.995,13.162,74.718,30.348,74.718c55.419,0,81.695-218.846,81.698-272.841
			C358.062,101.379,341.743,60.266,314.409,40.209z M276.504,409.846c-6.68-2.464-13.186-39.393-17.493-63.826
			c-9.015-51.183-18.333-104.11-47.527-104.212c-24.426,0.102-33.993,47.957-44.131,98.615
			c-5.024,25.115-13.431,67.161-20.698,69.403c-35.925,0-68.492-186.914-68.492-259.639c0-37.004,10.394-69.833,27.761-89.624
			v75.988c0,22.449,18.282,40.718,40.748,40.718h129.676c22.47,0,40.748-18.268,40.748-40.718V60.563
			c17.367,19.79,27.761,52.62,27.761,89.624C344.856,222.908,312.289,409.825,276.504,409.846z"/>
	</g>
</g>
<g>
	<g>
		<path d="M290.017,0H133.004c-3.772,0-6.827,3.058-6.827,6.827v95.611c0,18.801,15.333,34.096,34.174,34.096H262.67
			c18.842,0,34.174-15.295,34.174-34.096V6.827C296.844,3.058,293.789,0,290.017,0z M283.194,102.438
			c0,11.271-9.209,20.442-20.521,20.442H160.352c-11.315,0-20.521-9.168-20.521-20.442V13.653h143.363V102.438z"/>
	</g>
</g>
<g>
	<g>
		<path d="M239.483,90.822l-23.579-27.037c-1.301-1.488-3.174-2.342-5.147-2.342c-0.014,0-0.021,0-0.034,0
			c-1.98,0.01-3.867,0.881-5.154,2.386l-23.139,27.037c-2.454,2.867-2.12,7.171,0.747,9.626c1.287,1.099,2.867,1.638,4.441,1.638
			c1.918,0,3.833-0.809,5.188-2.383l17.999-21.033l18.388,21.081c2.485,2.84,6.792,3.13,9.632,0.655S241.958,93.662,239.483,90.822z
			"/>
	</g>
</g>
<g>
	<g>
		<path d="M239.483,56.689l-23.579-27.037c-1.301-1.488-3.174-2.342-5.147-2.342c-0.014,0-0.021,0-0.034,0
			c-1.98,0.01-3.867,0.881-5.154,2.386l-23.139,27.037c-2.454,2.867-2.12,7.171,0.747,9.626c1.287,1.099,2.867,1.638,4.441,1.638
			c1.918,0,3.833-0.809,5.188-2.383l17.999-21.033l18.388,21.081c2.485,2.84,6.792,3.13,9.632,0.655
			C241.664,63.843,241.958,59.529,239.483,56.689z"/>
	</g>
</g>
<g>
</g>
<g>
</g>
<g>
</g>
<g>
</g>
<g>
</g>
<g>
</g>
<g>
</g>
<g>
</g>
<g>
</g>
<g>
</g>
<g>
</g>
<g>
</g>
<g>
</g>
<g>
</g>
<g>
</g>
</svg>
