<?xml version="1.0" encoding="iso-8859-1"?>
<!-- Generator: Adobe Illustrator 19.0.0, SVG Export Plug-In . SVG Version: 6.00 Build 0)  -->
<svg version="1.1" id="Capa_1" xmlns="http://www.w3.org/2000/svg" xmlns:xlink="http://www.w3.org/1999/xlink" x="0px" y="0px"
	 viewBox="0 0 395.947 395.947" style="enable-background:new 0 0 395.947 395.947;" xml:space="preserve">
<g>
	<g>
		<path d="M301.114,23.528c-5.024,0-10.404,1.044-16.445,3.195c-3.441,1.222-5.233,4.994-4.014,8.427
			c1.215,3.434,5.001,5.226,8.427,4.007c4.598-1.635,8.54-2.427,12.032-2.427c34.379,0,59.334,40.079,59.334,95.3
			c0,27.826-6.7,86.511-17.906,136.55c-14.974,66.816-31.215,90.624-40.974,90.716c-5.506-2.942-11.172-34.543-13.305-46.435
			c-0.638-3.587-4.065-5.973-7.659-5.332c-3.587,0.642-5.973,4.072-5.328,7.66c6.192,34.563,11.339,57.218,25.839,57.218
			c49.207,0,72.533-192.802,72.533-240.381C373.647,69.157,343.139,23.528,301.114,23.528z"/>
	</g>
</g>
<g>
	<g>
		<path d="M208.466,313.279c-3.547-0.775-7.066,1.516-7.827,5.076c-7.093,33.28-11.694,39.926-13.421,40.854
			c-9.772,0-25.433-22.248-40.059-84.685c-0.833-3.546-4.39-5.734-7.933-4.919c-3.546,0.833-5.748,4.383-4.919,7.933
			c14.961,63.836,32.266,94.87,52.913,94.87c12.94,0,19.238-18.029,26.324-51.299C214.306,317.542,212.033,314.04,208.466,313.279z"
			/>
	</g>
</g>
<g>
	<g>
		<path d="M233.926,0c-12.346,0-24.04,5.54-35.345,10.895c-10.407,4.932-20.234,9.585-29.508,9.585s-19.098-4.652-29.505-9.585
			C128.259,5.54,116.562,0,104.219,0c-47.466,0-81.92,51.681-81.92,122.88c0,54.04,26.348,273.067,81.92,273.067
			c16.998,0,23.62-28.979,33.864-80.196c6.567-32.826,17.555-87.764,30.966-87.822c17.91,0.061,27.778,56.057,34.304,93.109
			c7.946,45.111,13.193,74.909,30.573,74.909c55.572,0,81.92-219.027,81.92-273.067C315.846,51.681,281.392,0,233.926,0z
			 M234.144,382.327c-6.625-2.775-13.08-39.414-17.347-63.659c-9.032-51.275-18.374-104.294-47.756-104.397
			c-24.607,0.106-34.191,48.046-44.346,98.799c-4.983,24.921-13.326,66.628-20.477,69.222c-35.809,0-68.267-186.754-68.267-259.413
			c0-63.29,28.71-109.227,68.267-109.227c9.274,0,19.101,4.652,29.505,9.585c11.308,5.356,23.006,10.895,35.348,10.895
			c12.346,0,24.04-5.54,35.342-10.895c10.407-4.932,20.234-9.585,29.508-9.585c39.554,0,68.267,45.937,68.267,109.227
			c0,31.724-7.639,98.625-20.412,155.662C264.639,355.034,245.818,382.29,234.144,382.327z"/>
	</g>
</g>
<g>
	<g>
		<path d="M117.873,27.307c-33.877,0-61.44,27.563-61.44,61.44c0,3.768,3.058,6.827,6.827,6.827c3.772,0,6.827-3.058,6.827-6.827
			c0-26.351,21.436-47.787,47.787-47.787c3.768,0,6.827-3.058,6.827-6.827C124.699,30.365,121.641,27.307,117.873,27.307z"/>
	</g>
</g>
<g>
</g>
<g>
</g>
<g>
</g>
<g>
</g>
<g>
</g>
<g>
</g>
<g>
</g>
<g>
</g>
<g>
</g>
<g>
</g>
<g>
</g>
<g>
</g>
<g>
</g>
<g>
</g>
<g>
</g>
</svg>
