<?xml version="1.0" encoding="iso-8859-1"?>
<!-- Generator: Adobe Illustrator 19.0.0, SVG Export Plug-In . SVG Version: 6.00 Build 0)  -->
<svg version="1.1" id="Capa_1" xmlns="http://www.w3.org/2000/svg" xmlns:xlink="http://www.w3.org/1999/xlink" x="0px" y="0px"
	 viewBox="0 0 403.665 403.665" style="enable-background:new 0 0 403.665 403.665;" xml:space="preserve">
<g>
	<g>
		<path d="M235.658,143.798c-8.486,0-16.261,3.68-23.774,7.24c-6.434,3.048-12.506,5.926-17.92,5.926
			c-5.414,0-11.493-2.877-17.927-5.926c-7.513-3.56-15.281-7.24-23.767-7.24c-31.928,0-55.101,34.246-55.101,81.432
			c0,26.406,15.196,177.981,55.101,177.981c13.452,0,17.712-21.292,24.16-53.514c2.98-14.899,10.892-54.473,17.507-54.501
			c9.482,0.031,16.101,37.635,19.661,57.836c5.321,30.215,8.841,50.176,22.06,50.176c39.909,0,55.101-151.579,55.101-177.978
			C290.759,178.044,267.586,143.798,235.658,143.798z M236.637,389.452c-3.567-4.57-7.175-25.04-9.595-38.793
			c-5.98-33.942-12.158-69.048-33.106-69.12c-17.814,0.078-23.873,30.385-30.894,65.475c-3.041,15.196-7.574,37.867-11.66,42.458
			c-18.473-3.369-40.561-110.79-40.561-164.246c0-38.639,17.821-67.779,41.448-67.779c5.414,0,11.496,2.877,17.923,5.926
			c7.513,3.56,15.281,7.24,23.767,7.24c8.479,0,16.254-3.68,23.767-7.24c6.434-3.045,12.513-5.926,17.927-5.926
			c23.627,0,41.448,29.14,41.448,67.779C277.102,278.59,255.097,385.728,236.637,389.452z"/>
	</g>
</g>
<g>
	<g>
		<path d="M159.831,164.274c-22.586,0-40.96,18.374-40.96,40.96c0,3.768,3.055,6.827,6.827,6.827c3.775,0,6.827-3.058,6.827-6.827
			c0-15.056,12.247-27.307,27.307-27.307c3.772,0,6.827-3.058,6.827-6.827S163.602,164.274,159.831,164.274z"/>
	</g>
</g>
<g>
	<g>
		<path d="M42.845,8.708c-12.759,0-24.757,4.97-33.785,13.998c-2.666,2.662-2.666,6.987,0,9.653c2.666,2.666,6.987,2.666,9.653,0
			c6.444-6.448,15.019-9.998,24.132-9.998c18.821,0,34.133,15.312,34.133,34.133S61.667,90.628,42.845,90.628
			c-3.772,0-6.827,3.058-6.827,6.827v35.929c0,3.768,3.055,6.827,6.827,6.827c3.772,0,6.827-3.058,6.827-6.83v-29.587
			c23.125-3.321,40.96-23.265,40.96-47.299C90.632,30.144,69.193,8.708,42.845,8.708z"/>
	</g>
</g>
<g>
	<g>
		<path d="M70.07,164.271H15.631c-3.772,0-6.827,3.058-6.827,6.827v198.519c0,18.773,15.275,34.048,34.048,34.048
			c18.773,0,34.045-15.271,34.045-34.048V171.098C76.897,167.329,73.842,164.271,70.07,164.271z M63.247,369.621
			c0,11.243-9.148,20.395-20.395,20.395c-11.247,0-20.395-9.151-20.395-20.395V177.928h40.789V369.621z"/>
	</g>
</g>
<g>
	<g>
		<path d="M69.865,130.141H15.252c-3.772,0-6.827,3.058-6.827,6.827v34.133c0,3.768,3.055,6.827,6.827,6.827h54.613
			c3.772,0,6.827-3.058,6.827-6.827v-34.133C76.692,133.199,73.637,130.141,69.865,130.141z M63.039,164.274h-40.96v-20.48h40.96
			V164.274z"/>
	</g>
</g>
<g>
	<g>
		<path d="M342.932,82.354c-3.772,0-6.827,3.058-6.827,6.827v47.787c0,3.768,3.055,6.827,6.827,6.827
			c3.772,0,6.827-3.058,6.827-6.827V89.181C349.759,85.413,346.704,82.354,342.932,82.354z"/>
	</g>
</g>
<g>
	<g>
		<path d="M380.704,15.9c-21.214-21.2-55.712-21.2-76.913,0c-10.274,10.274-15.933,23.931-15.933,38.458
			c0,14.531,5.659,28.187,15.933,38.458c10.274,10.274,23.927,15.93,38.455,15.93s28.187-5.656,38.458-15.933
			C401.904,71.609,401.904,37.107,380.704,15.9z M371.372,83.481c-7.779,7.779-18.128,12.066-29.126,12.066
			s-21.34-4.287-29.119-12.066s-12.066-18.118-12.066-29.123c0-10.998,4.287-21.344,12.066-29.123
			c8.025-8.028,18.572-12.042,29.119-12.042s21.098,4.018,29.126,12.042C387.432,41.295,387.432,67.424,371.372,83.481z"/>
	</g>
</g>
<g>
	<g>
		<path d="M370.239,130.141h-54.613c-3.772,0-6.827,3.058-6.827,6.827v34.133c0,3.768,3.055,6.827,6.827,6.827h54.613
			c3.772,0,6.827-3.058,6.827-6.827v-34.133C377.065,133.199,374.01,130.141,370.239,130.141z M363.412,164.274h-40.96v-20.48h40.96
			V164.274z"/>
	</g>
</g>
<g>
	<g>
		<path d="M370.061,164.274h-54.439c-3.772,0-6.827,3.058-6.827,6.827V369.16c0,18.773,15.275,34.048,34.048,34.048
			c18.773,0,34.048-15.275,34.045-34.048V171.101C376.888,167.333,373.833,164.274,370.061,164.274z M363.241,369.16
			c0,11.244-9.148,20.395-20.395,20.395c-11.247,0-20.395-9.151-20.395-20.395V177.928h40.789V369.16z"/>
	</g>
</g>
<g>
</g>
<g>
</g>
<g>
</g>
<g>
</g>
<g>
</g>
<g>
</g>
<g>
</g>
<g>
</g>
<g>
</g>
<g>
</g>
<g>
</g>
<g>
</g>
<g>
</g>
<g>
</g>
<g>
</g>
</svg>
