<?xml version="1.0" encoding="iso-8859-1"?>
<!-- Generator: Adobe Illustrator 19.0.0, SVG Export Plug-In . SVG Version: 6.00 Build 0)  -->
<svg version="1.1" id="Capa_1" xmlns="http://www.w3.org/2000/svg" xmlns:xlink="http://www.w3.org/1999/xlink" x="0px" y="0px"
	 viewBox="0 0 480.039 480.039" style="enable-background:new 0 0 480.039 480.039;" xml:space="preserve">
<g>
	<g>
		<path d="M472.012,24.02h-328c-4.418,0-8,3.582-8,8v112c-0.001,3.032,1.712,5.805,4.424,7.16l32,16
			c2.251,1.125,4.901,1.125,7.152,0l28.424-14.216l28.424,14.256c2.251,1.125,4.901,1.125,7.152,0l28.424-14.256l28.424,14.256
			c2.251,1.125,4.901,1.125,7.152,0l32-16c2.725-1.362,4.441-4.153,4.424-7.2v-72h128c4.418,0,8-3.582,8-8v-32
			C480.012,27.601,476.43,24.02,472.012,24.02z M168.012,147.076l-16-8V72.02h16V147.076z M200.012,139.076l-16,8V72.02h16V139.076z
			 M232.012,147.076l-16-8V72.02h16V147.076z M264.012,139.076l-16,8V72.02h16V139.076z M296.012,147.076l-16-8V72.02h16V147.076z
			 M328.012,139.076l-16,8V72.02h16V139.076z M464.012,56.02h-312v-16h312V56.02z"/>
	</g>
</g>
<g>
	<g>
		<path d="M54.299,122.241c-1.166,1.162-2.271,2.383-3.311,3.659c-3.563-1.057-7.26-1.595-10.976-1.6
			C17.921,124.293,0.007,142.196,0,164.288c-0.004,14.3,7.626,27.514,20.012,34.66l8-13.856
			c-11.488-6.613-15.439-21.286-8.827-32.773c4.288-7.449,12.232-12.036,20.827-12.027c3.612,0.034,7.168,0.89,10.4,2.504
			c3.71,1.803,8.182,0.49,10.328-3.032c9.041-15.083,28.597-19.98,43.679-10.94c2.256,1.352,4.336,2.979,6.193,4.844l11.32-11.312
			C103.287,103.648,73.007,103.596,54.299,122.241z"/>
	</g>
</g>
<g>
	<g>
		<path d="M456.012,303.46c-0.728,0-1.416,0.208-2.136,0.264l0.224-0.664c6.57-19.699,9.917-40.33,9.912-61.096
			c-0.042-9.729-3.499-19.135-9.768-26.576c17.286-3.394,28.547-20.158,25.153-37.444c-0.795-4.049-2.368-7.906-4.633-11.356
			c10.335-16.892,5.019-38.964-11.874-49.298c-5.681-3.476-12.218-5.3-18.878-5.27c-7.516,0.019-14.836,2.398-20.928,6.8
			c-13.912-17.161-39.101-19.795-56.262-5.884c-3.805,3.084-7.011,6.841-9.458,11.084l13.856,8
			c6.621-11.483,21.297-15.424,32.78-8.803c4.528,2.611,8.08,6.629,10.116,11.443c1.123,2.628,3.562,4.458,6.4,4.8
			c2.859,0.364,5.689-0.863,7.376-3.2c3.729-5.187,9.732-8.256,16.12-8.24c11.046-0.001,20.001,8.953,20.001,19.999
			c0,2.619-0.514,5.213-1.513,7.633c-4.469-2.354-9.437-3.6-14.488-3.632c-17.673,0-32,14.327-32,32
			c0.029,5.694,1.596,11.275,4.536,16.152c-10.581,0.318-20.643,4.658-28.136,12.136c-4.702,4.486-12.098,4.486-16.8,0
			c-16.291-16.345-42.747-16.389-59.091-0.098c-1.648,1.643-3.156,3.42-4.509,5.314c-13.41-18.781-39.505-23.134-58.286-9.725
			c-1.894,1.352-3.671,2.86-5.314,4.509c-4.702,4.486-12.098,4.486-16.8,0c-16.291-16.345-42.747-16.389-59.091-0.098
			c-1.648,1.643-3.156,3.42-4.509,5.314c-13.41-18.781-39.505-23.134-58.286-9.725c-1.894,1.352-3.671,2.86-5.314,4.509
			c-4.702,4.486-12.098,4.486-16.8,0c-16.371-16.383-42.923-16.393-59.306-0.022c-7.874,7.869-12.297,18.546-12.294,29.678
			c-0.005,20.769,3.342,41.402,9.912,61.104l0.224,0.656c-0.72-0.056-1.408-0.264-2.136-0.264
			c-9.104-0.006-17.608,4.543-22.656,12.12c-0.874,1.316-1.341,2.86-1.344,4.44v128c0,4.418,3.582,8,8,8h464c4.418,0,8-3.582,8-8
			v-128c-0.003-1.58-0.47-3.124-1.344-4.44C473.621,308.003,465.117,303.453,456.012,303.46z M448.012,168.02
			c8.837,0,16,7.163,16,16s-7.163,16-16,16s-16-7.163-16-16S439.176,168.02,448.012,168.02z M345.956,216.02
			c6.884-0.019,13.49,2.718,18.344,7.6c10.893,10.872,28.531,10.872,39.424,0c10.132-10.131,26.559-10.13,36.69,0.002
			c4.864,4.865,7.597,11.462,7.598,18.342c0.002,19.035-3.069,37.945-9.096,56l-6.496,19.488c-0.186,0.561-0.31,1.14-0.368,1.728
			l-6.808,68.096c-0.276,2.872-2.828,4.976-5.7,4.7c-2.49-0.24-4.46-2.21-4.7-4.7l-5.6-59.928
			c-1.015-13.92-13.122-24.383-27.042-23.368c-12.457,0.908-22.383,10.78-23.358,23.232l-5.648,60.072
			c-0.276,2.872-2.828,4.976-5.7,4.7c-2.49-0.24-4.46-2.21-4.7-4.7l-6.784-68.064c-0.058-0.588-0.182-1.167-0.368-1.728
			l-6.496-19.48c-6.044-18.069-9.129-36.995-9.136-56.048C320.03,227.642,331.635,216.037,345.956,216.02z M310.1,303.06
			c0.728-2.184,1.264-4.408,1.912-6.616c0.648,2.208,1.184,4.44,1.912,6.624l3.24,9.72c-3.415-0.552-6.897-0.552-10.312,0
			L310.1,303.06z M201.956,216.02c6.884-0.019,13.49,2.718,18.344,7.6c10.893,10.872,28.531,10.872,39.424,0
			c10.132-10.131,26.559-10.13,36.69,0.002c4.864,4.865,7.597,11.462,7.598,18.342c0.002,19.035-3.069,37.945-9.096,56
			l-6.496,19.488c-0.186,0.561-0.31,1.14-0.368,1.728l-6.808,68.096c-0.276,2.872-2.828,4.976-5.7,4.7c-2.49-0.24-4.46-2.21-4.7-4.7
			l-5.6-59.928c-1.015-13.92-13.122-24.383-27.042-23.368c-12.457,0.908-22.383,10.78-23.358,23.232l-5.648,60.072
			c-0.276,2.872-2.828,4.976-5.7,4.7c-2.49-0.24-4.46-2.21-4.7-4.7l-6.784-68.064c-0.058-0.588-0.182-1.167-0.368-1.728
			l-6.496-19.48c-6.044-18.069-9.129-36.995-9.136-56.048C176.03,227.642,187.635,216.037,201.956,216.02z M166.1,303.06
			c0.728-2.184,1.264-4.408,1.912-6.616c0.648,2.208,1.184,4.44,1.912,6.624l3.624,10.864c-3.661-0.664-7.411-0.664-11.072,0
			L166.1,303.06z M57.956,216.02c6.884-0.019,13.49,2.718,18.344,7.6c10.893,10.872,28.531,10.872,39.424,0
			c10.132-10.131,26.559-10.13,36.69,0.002c4.864,4.865,7.597,11.462,7.598,18.342c0.002,19.035-3.069,37.945-9.096,56
			l-6.496,19.488c-0.186,0.561-0.31,1.14-0.368,1.728l-6.808,68.096c-0.276,2.872-2.828,4.976-5.7,4.7c-2.49-0.24-4.46-2.21-4.7-4.7
			l-5.64-59.928c-1.015-13.92-13.122-24.383-27.042-23.368c-12.457,0.908-22.383,10.78-23.358,23.232l-5.648,60.072
			c-0.276,2.872-2.828,4.976-5.7,4.7c-2.49-0.239-4.46-2.21-4.7-4.7l-6.744-68.064c-0.058-0.588-0.182-1.167-0.368-1.728
			l-6.496-19.48c-6.044-18.069-9.129-36.995-9.136-56.048C32.03,227.642,43.635,216.037,57.956,216.02z M464.012,440.02h-448
			V322.796c4.621-4.361,11.897-4.168,16.28,0.432l6.568,65.68c1.146,11.661,11.528,20.185,23.189,19.039
			c10.122-0.995,18.113-9.032,19.051-19.159l5.664-60.2c0.404-5.109,4.873-8.924,9.983-8.52c4.6,0.364,8.233,4.051,8.529,8.656
			l5.648,60.056c1.078,11.668,11.409,20.253,23.077,19.175c10.127-0.935,18.166-8.926,19.163-19.047l5.6-56.136
			c5.366-4.408,13.099-4.408,18.464,0l5.6,56.136c1.146,11.661,11.528,20.185,23.189,19.039
			c10.122-0.995,18.113-9.032,19.051-19.159l5.664-60.2c0.404-5.109,4.873-8.924,9.983-8.52c4.599,0.364,8.233,4.051,8.529,8.656
			l5.648,60.056c1.078,11.668,11.409,20.253,23.077,19.175c10.127-0.935,18.166-8.926,19.163-19.047l5.76-57.6
			c5.366-4.097,12.81-4.097,18.176,0l5.76,57.6c1.146,11.661,11.528,20.185,23.189,19.039c10.121-0.995,18.113-9.032,19.051-19.159
			l5.664-60.2c0.404-5.109,4.873-8.924,9.983-8.52c4.599,0.364,8.233,4.051,8.529,8.656l5.648,60.056
			c1.078,11.668,11.409,20.253,23.077,19.175c10.127-0.935,18.166-8.926,19.163-19.047l6.568-65.688
			c4.393-4.61,11.686-4.799,16.312-0.424V440.02z"/>
	</g>
</g>
<g>
	<g>
		<path d="M48.012,24.02c-17.673,0-32,14.327-32,32s14.327,32,32,32s32-14.327,32-32S65.685,24.02,48.012,24.02z M48.012,72.02
			c-8.837,0-16-7.163-16-16s7.163-16,16-16s16,7.163,16,16S56.849,72.02,48.012,72.02z"/>
	</g>
</g>
<g>
	<g>
		<path d="M96.012,144.02c-13.255,0-24,10.745-24,24s10.745,24,24,24s24-10.745,24-24S109.267,144.02,96.012,144.02z M96.012,176.02
			c-4.418,0-8-3.582-8-8s3.582-8,8-8s8,3.582,8,8S100.43,176.02,96.012,176.02z"/>
	</g>
</g>
<g>
	<g>
		<path d="M67.604,247.18l-7.168-14.36c-12.705,6.41-18.823,21.139-14.4,34.664l2.384,7.064l15.2-5.056l-2.344-7.032
			C59.317,256.502,62.006,250.007,67.604,247.18z"/>
	</g>
</g>
<g>
	<g>
		<path d="M211.604,247.18l-7.152-14.32c-12.705,6.41-18.823,21.139-14.4,34.664l2.368,7.024l15.2-5.056l-2.344-7.032
			C203.317,256.502,206.006,250.007,211.604,247.18z"/>
	</g>
</g>
<g>
	<g>
		<path d="M355.604,247.18l-7.152-14.32c-12.689,6.424-18.789,21.149-14.36,34.664l2.328,7.024l15.2-5.056l-2.344-7.032
			C347.317,256.502,350.006,250.007,355.604,247.18z"/>
	</g>
</g>
<g>
</g>
<g>
</g>
<g>
</g>
<g>
</g>
<g>
</g>
<g>
</g>
<g>
</g>
<g>
</g>
<g>
</g>
<g>
</g>
<g>
</g>
<g>
</g>
<g>
</g>
<g>
</g>
<g>
</g>
</svg>
