<?xml version="1.0" encoding="iso-8859-1"?>
<!-- Generator: Adobe Illustrator 19.0.0, SVG Export Plug-In . SVG Version: 6.00 Build 0)  -->
<svg version="1.1" id="Capa_1" xmlns="http://www.w3.org/2000/svg" xmlns:xlink="http://www.w3.org/1999/xlink" x="0px" y="0px"
	 viewBox="0 0 395.496 395.496" style="enable-background:new 0 0 395.496 395.496;" xml:space="preserve">
<g>
	<g>
		<path d="M330.066,53.026c-3.553-1.256-7.455,0.618-8.701,4.178c-1.253,3.56,0.621,7.455,4.181,8.704
			c28.983,10.179,46.281,23.736,46.281,36.267c0,3.768,3.055,6.827,6.827,6.827s6.827-3.058,6.827-6.827
			C385.481,82.756,366.322,65.758,330.066,53.026z"/>
	</g>
</g>
<g>
	<g>
		<path d="M75.616,56.74c-1.225-3.567-5.106-5.461-8.673-4.239c-37.24,12.78-56.928,29.962-56.928,49.674
			c0,3.768,3.055,6.827,6.827,6.827s6.827-3.058,6.827-6.827c0-12.766,17.835-26.508,47.701-36.762
			C74.936,64.191,76.834,60.307,75.616,56.74z"/>
	</g>
</g>
<g>
	<g>
		<path d="M262.601,0c-12.291,0-23.965,5.533-35.253,10.878c-10.428,4.939-20.272,9.602-29.6,9.602s-19.173-4.663-29.6-9.602
			C156.86,5.53,145.19,0,132.895,0C85.559,0,51.2,51.586,51.2,122.655c0,32.01,7.274,98.475,20.743,158.597
			c16.985,75.803,37.492,114.241,60.952,114.241c16.818,0,23.419-28.911,33.638-80.012c7.008-35.024,17.596-87.948,31.188-88.006
			c18.108,0.065,27.6,53.955,34.533,93.303c7.922,44.995,13.162,74.718,30.348,74.718c55.419,0,81.695-218.849,81.695-272.841
			C344.296,51.582,309.934,0,262.601,0z M262.741,382.314c-6.68-2.464-13.186-39.393-17.493-63.826
			c-9.015-51.183-18.333-104.107-47.527-104.212c-24.426,0.106-33.993,47.957-44.128,98.615
			c-5.024,25.119-13.431,67.161-20.698,69.403c-35.925,0-68.492-186.914-68.492-259.639c0-63.423,28.805-109.452,68.492-109.452
			c9.325,0,19.173,4.663,29.6,9.602c11.288,5.349,22.961,10.878,35.253,10.878s23.965-5.533,35.253-10.878
			c10.428-4.939,20.275-9.602,29.6-9.602c39.687,0,68.492,46.029,68.492,109.452C331.093,195.376,298.527,382.293,262.741,382.314z"
			/>
	</g>
</g>
<g>
	<g>
		<g>
			<path d="M185.436,156.648c-96.768-2.239-161.768-29.972-161.768-54.473c0-3.768-3.055-6.827-6.827-6.827
				s-6.827,3.058-6.827,6.827c0,31.84,60.146,65.464,175.101,68.12c0.055,0.003,0.106,0.003,0.16,0.003
				c3.7,0,6.738-2.953,6.827-6.67C192.191,159.86,189.204,156.733,185.436,156.648z"/>
			<path d="M378.655,95.348c-3.772,0-6.827,3.058-6.827,6.827c0,16.159-26.986,32.768-70.424,43.342
				c-3.669,0.894-5.915,4.584-5.021,8.247c0.758,3.123,3.553,5.212,6.625,5.212c0.532,0,1.079-0.065,1.618-0.195
				c51.388-12.506,80.855-33.137,80.855-56.607C385.481,98.406,382.427,95.348,378.655,95.348z"/>
		</g>
	</g>
</g>
<g>
	<g>
		<path d="M252.737,157.935l-61.44-40.96c-2.096-1.403-4.796-1.529-7.008-0.341c-2.222,1.191-3.608,3.505-3.608,6.021v81.92
			c0,2.516,1.386,4.83,3.608,6.021c1.007,0.539,2.113,0.806,3.219,0.806c1.328,0,2.645-0.386,3.785-1.147l61.44-40.96
			c1.901-1.266,3.041-3.396,3.041-5.68C255.775,161.331,254.635,159.201,252.737,157.935z M194.335,191.816V135.41l42.308,28.204
			L194.335,191.816z"/>
	</g>
</g>
<g>
	<g>
		<path d="M146.548,27.081c-33.881,0-61.44,27.563-61.44,61.44c0,3.768,3.055,6.827,6.827,6.827s6.827-3.058,6.827-6.827
			c0-26.351,21.439-47.787,47.787-47.787c3.772,0,6.827-3.058,6.827-6.827C153.375,30.14,150.32,27.081,146.548,27.081z"/>
	</g>
</g>
<g>
</g>
<g>
</g>
<g>
</g>
<g>
</g>
<g>
</g>
<g>
</g>
<g>
</g>
<g>
</g>
<g>
</g>
<g>
</g>
<g>
</g>
<g>
</g>
<g>
</g>
<g>
</g>
<g>
</g>
</svg>
