<?xml version="1.0" encoding="iso-8859-1"?>
<!-- Generator: Adobe Illustrator 19.0.0, SVG Export Plug-In . SVG Version: 6.00 Build 0)  -->
<svg version="1.1" id="Capa_1" xmlns="http://www.w3.org/2000/svg" xmlns:xlink="http://www.w3.org/1999/xlink" x="0px" y="0px"
	 viewBox="0 0 477.656 477.656" style="enable-background:new 0 0 477.656 477.656;" xml:space="preserve">
<g>
	<g>
		<path d="M368,379.656c-0.075-21.021-17.147-38.018-38.168-38h-20.12c-9.25-0.006-18.187,3.352-25.144,9.448
			c-6.955-6.095-15.888-9.453-25.136-9.448h-20.12c-7.118,0.013-14.089,2.031-20.112,5.824c-6.023-3.793-12.994-5.811-20.112-5.824
			h-20.112c-6.092-0.007-12.093,1.476-17.48,4.32c-4.206-4.301-9.383-7.53-15.096-9.416l-20.984-6.952
			c-5.989-2.008-12.38-2.508-18.608-1.456c-1.784-5.503-4.855-10.5-8.96-14.576l-15.8-15.728c-2.314-2.294-4.93-4.261-7.776-5.848
			c1.38-3.969,2.083-8.142,2.08-12.344v-20c-0.041-6.334-1.693-12.553-4.8-18.072c28.246-28.19,66.542-43.993,106.448-43.928h30v-16
			h-30c-36.821-0.12-72.617,12.12-101.656,34.76v-16.76c0.003-4.202-0.7-8.375-2.08-12.344c2.845-1.585,5.458-3.552,7.768-5.848
			l15.808-15.72c4.107-4.081,7.179-9.084,8.96-14.592c6.221,1.064,12.609,0.57,18.592-1.44l20.992-6.952
			c5.716-1.892,10.898-5.123,15.112-9.424c5.387,2.844,11.388,4.327,17.48,4.32h20.112c7.118-0.013,14.089-2.031,20.112-5.824
			c6.023,3.793,12.994,5.811,20.112,5.824h20.12c5.446,0.008,10.829-1.157,15.784-3.416l-6.608-14.56
			c-2.882,1.308-6.011,1.982-9.176,1.976h-20.12c-5.469-0.032-10.732-2.087-14.776-5.768c-3.039-2.724-7.641-2.724-10.68,0
			c-4.044,3.675-9.304,5.727-14.768,5.76h-20.112c-5.142-0.032-10.111-1.86-14.048-5.168c-3.408-2.812-8.45-2.329-11.262,1.079
			c-0.196,0.238-0.378,0.487-0.546,0.745c-2.741,4.347-6.897,7.616-11.768,9.256l-21.016,6.96c-5.403,1.82-11.297,1.511-16.48-0.864
			c-4.032-1.807-8.765-0.003-10.572,4.028c-0.412,0.92-0.647,1.909-0.692,2.916c-0.171,5.209-2.329,10.156-6.032,13.824
			l-15.808,15.728c-2.626,2.58-5.893,4.414-9.464,5.312c-4.272,1.128-6.82,5.506-5.691,9.778c0.225,0.85,0.588,1.658,1.075,2.39
			c2.39,3.567,3.668,7.763,3.672,12.056v20c-0.036,5.424-2.096,10.639-5.776,14.624c-2.767,3.05-2.767,7.702,0,10.752
			c3.68,3.985,5.74,9.2,5.776,14.624v20c-0.006,4.296-1.284,8.493-3.672,12.064c-2.445,3.68-1.443,8.646,2.237,11.09
			c0.729,0.484,1.533,0.846,2.379,1.07c3.571,0.898,6.838,2.732,9.464,5.312l15.816,15.736c3.698,3.665,5.853,8.605,6.024,13.808
			c0.118,2.643,1.534,5.056,3.784,6.448c2.246,1.408,5.049,1.597,7.464,0.504c5.191-2.396,11.101-2.716,16.52-0.896l21.008,6.96
			c4.861,1.645,9.01,4.91,11.752,9.248c2.4,3.709,7.353,4.77,11.063,2.37c0.259-0.167,0.508-0.35,0.745-0.546
			c3.932-3.32,8.902-5.159,14.048-5.2h20.112c5.464,0.033,10.724,2.085,14.768,5.76c3.039,2.724,7.641,2.724,10.68,0
			c4.045-3.678,9.308-5.73,14.776-5.76h20.12c7.432-0.001,14.37,3.72,18.48,9.912c2.735,3.676,7.932,4.439,11.608,1.704
			c0.648-0.482,1.222-1.056,1.704-1.704c4.115-6.191,11.055-9.912,18.488-9.912h20.12c12.15,0,22,9.85,22,22s-9.85,22-22,22h-20.12
			c-7.442,0.008-14.393-3.714-18.512-9.912c-2.735-3.676-7.932-4.439-11.608-1.704c-0.648,0.482-1.222,1.056-1.704,1.704
			c-4.11,6.192-11.048,9.913-18.48,9.912h-20.096c-5.469-0.032-10.732-2.087-14.776-5.768c-3.039-2.724-7.641-2.724-10.68,0
			c-4.044,3.675-9.304,5.727-14.768,5.76h-20.112c-7.369,0.008-14.262-3.639-18.4-9.736c-1.275-1.872-3.284-3.117-5.528-3.424
			c-2.244-0.33-4.52,0.329-6.24,1.808c-6.062,5.105-14.338,6.701-21.864,4.216l-21.008-6.96
			c-8.897-3.021-15.007-11.219-15.36-20.608c-0.177-4.415-3.899-7.85-8.314-7.673c-1.099,0.044-2.176,0.314-3.166,0.793
			c-8.8,4.367-19.454,2.016-25.6-5.648l-14.064-17.44c-5.595-6.858-6.169-16.529-1.424-24c2.328-3.755,1.172-8.686-2.583-11.015
			c-0.732-0.454-1.532-0.786-2.369-0.985c-9.665-2.217-16.635-10.651-16.992-20.56C16,276.648,16,272.992,16,269.656v-10
			c0.036-5.424,2.096-10.639,5.776-14.624c2.767-3.05,2.767-7.702,0-10.752c-3.68-3.985-5.74-9.2-5.776-14.624v-20
			c0.024-10.214,7.097-19.059,17.056-21.328c4.299-1.02,6.957-5.332,5.937-9.631c-0.199-0.838-0.531-1.638-0.985-2.369
			c-4.737-7.472-4.167-17.136,1.416-24l14.048-17.472c6.141-7.673,16.801-10.024,25.6-5.648c3.977,1.925,8.761,0.263,10.687-3.714
			c0.479-0.99,0.749-2.067,0.793-3.166c0.357-9.395,6.473-17.595,15.376-20.616l21.016-6.96c7.522-2.443,15.772-0.848,21.84,4.224
			c1.718,1.482,3.996,2.143,6.24,1.808c2.244-0.307,4.253-1.552,5.528-3.424c4.15-6.092,11.053-9.727,18.424-9.704h20.112
			c5.464,0.033,10.724,2.085,14.768,5.76c3.039,2.724,7.641,2.724,10.68,0c4.045-3.678,9.308-5.73,14.776-5.76h20.12
			c7.432-0.001,14.37,3.72,18.48,9.912c2.735,3.676,7.932,4.439,11.608,1.704c0.648-0.482,1.222-1.056,1.704-1.704
			c4.115-6.191,11.055-9.912,18.488-9.912h20.12c2.964-0.004,5.9,0.586,8.632,1.736l6.2-14.752
			c-4.694-1.978-9.738-2.992-14.832-2.984h-20.12c-9.25-0.006-18.187,3.352-25.144,9.448c-6.955-6.095-15.888-9.453-25.136-9.448
			h-20.12c-7.118,0.013-14.089,2.031-20.112,5.824c-6.023-3.793-12.994-5.811-20.112-5.824h-20.112
			c-9.861-0.008-19.343,3.796-26.464,10.616c-9.404-5.034-20.458-6-30.592-2.672l-20.984,6.952
			c-11.74,3.949-20.877,13.283-24.576,25.104c-13.309-2.374-26.855,2.684-35.352,13.2L26.96,132.32
			c-6.479,8.068-9.268,18.487-7.688,28.712c0.265,1.704,0.655,3.386,1.168,5.032C7.873,172.549-0.016,185.514,0,199.656v20
			c0.014,7.084,2.036,14.019,5.832,20c-3.796,5.981-5.818,12.916-5.832,20v20c0,0.28,0.048,0.552,0.056,0.8
			c-0.289,16.917,0.671,33.832,2.872,50.608C17.978,415.939,91.801,477.753,178,477.656h134c30.913-0.035,55.965-25.087,56-56v-40
			h-0.2C367.8,380.976,368,380.344,368,379.656z M352,421.656c-0.026,22.08-17.92,39.974-40,40H178
			C99.293,461.639,31.997,405.03,18.504,327.488c-0.953-5.412-1.488-10.89-1.6-16.384c1.135,0.778,2.313,1.491,3.528,2.136
			c-0.506,1.645-0.894,3.324-1.16,5.024c-1.584,10.234,1.209,20.663,7.696,28.736l14.04,17.456
			c8.495,10.517,22.043,15.575,35.352,13.2c3.703,11.804,12.834,21.122,24.56,25.064l20.976,6.952
			c10.139,3.347,21.208,2.384,30.616-2.664c7.116,6.832,16.599,10.647,26.464,10.648h20.112c7.118-0.013,14.089-2.031,20.112-5.824
			c6.023,3.793,12.994,5.811,20.112,5.824h20.12c9.248,0.005,18.181-3.353,25.136-9.448c6.957,6.096,15.894,9.454,25.144,9.448
			h20.12c7.961-0.017,15.716-2.536,22.168-7.2V421.656z"/>
	</g>
</g>
<g>
	<g>
		<path d="M453.656,56l-32-32l-24-24l-11.312,11.312l18.344,18.344L328,106.344L325.656,104l-16-16l-11.312,11.312l10.344,10.344
			L178.344,240c-3.123,3.124-3.123,8.188,0,11.312l3.36,3.36l-28.36,42.544c-2.116,3.173-1.697,7.399,1,10.096l16,16
			c2.697,2.697,6.923,3.116,10.096,1l42.544-28.36l3.36,3.36c3.124,3.123,8.188,3.123,11.312,0L368,168.968l10.344,10.344
			L389.656,168l-16-16l-2.344-2.344L448,72.968l18.344,18.344L477.656,80L453.656,56z M177.04,307.36l-6.72-6.72l22.944-34.4
			l18.176,18.176L177.04,307.36z M232,282.344L229.656,280l-32-32l-2.344-2.344L256,184.968l36.688,36.688L232,282.344z
			 M304,210.344l-36.688-36.688L320,120.968l2.344,2.344l32,32l2.344,2.344L304,210.344z M360,138.344l-20.688-20.688L416,40.968
			l20.688,20.688L360,138.344z"/>
	</g>
</g>
<g>
</g>
<g>
</g>
<g>
</g>
<g>
</g>
<g>
</g>
<g>
</g>
<g>
</g>
<g>
</g>
<g>
</g>
<g>
</g>
<g>
</g>
<g>
</g>
<g>
</g>
<g>
</g>
<g>
</g>
</svg>
