<?xml version="1.0" encoding="iso-8859-1"?>
<!-- Generator: Adobe Illustrator 19.0.0, SVG Export Plug-In . SVG Version: 6.00 Build 0)  -->
<svg version="1.1" id="Capa_1" xmlns="http://www.w3.org/2000/svg" xmlns:xlink="http://www.w3.org/1999/xlink" x="0px" y="0px"
	 viewBox="0 0 479.991 479.991" style="enable-background:new 0 0 479.991 479.991;" xml:space="preserve">
<g>
	<g>
		<path d="M244.044,327.12l-13.728,123.576c-0.994,8.207-8.452,14.054-16.659,13.06c-6.542-0.792-11.797-5.77-12.941-12.26
			L183.828,350.4c-3.304-19.789-22.025-33.154-41.815-29.849c-15.303,2.555-27.294,14.546-29.849,29.849L95.308,451.496
			c-1.405,8.142-9.145,13.603-17.286,12.198c-6.53-1.127-11.541-6.416-12.314-12.998L51.948,327.12
			c-0.107-0.939-0.378-1.851-0.8-2.696l-11.6-23.2c-12.826-25.728-19.518-54.076-19.552-82.824
			c0.006-32.253,26.157-58.395,58.41-58.39c7.895,0.001,15.707,1.604,22.966,4.71c6.737,2.886,13.727,5.141,20.88,6.736
			l3.488-15.616c-6.19-1.383-12.239-3.333-18.072-5.824c-37.776-16.167-81.505,1.352-97.672,39.128
			c-3.957,9.246-5.998,19.199-6,29.256c0.039,31.233,7.311,62.033,21.248,89.984l10.96,21.92l13.6,122.16
			c1.901,16.993,17.218,29.227,34.21,27.326c13.751-1.539,24.811-12.014,27.094-25.662l16.856-101.144
			c1.857-11.077,12.342-18.55,23.419-16.693c8.555,1.435,15.258,8.138,16.693,16.693l16.856,101.152
			c2.822,16.864,18.781,28.248,35.645,25.426c13.647-2.284,24.122-13.346,25.659-27.098l13.712-123.584L244.044,327.12z"/>
	</g>
</g>
<g>
	<g>
		<path d="M63.556,177.344c-17.236,11.462-27.583,30.797-27.56,51.496V240h16v-11.16c-0.017-15.349,7.658-29.686,20.44-38.184
			L63.556,177.344z"/>
	</g>
</g>
<g>
	<g>
		<path d="M467.996,128h-38.504c-1.987-6.039-4.421-11.922-7.28-17.6l27.2-27.2c3.126-3.122,3.129-8.188,0.006-11.314
			c-0.002-0.002-0.004-0.004-0.006-0.006l-45.248-45.304c-3.178-2.998-8.142-2.998-11.32,0l-27.2,27.2
			c-5.693-2.862-11.592-5.293-17.648-7.272V8c0-4.418-3.582-8-8-8h-64c-4.418,0-8,3.582-8,8v38.504
			c-6.057,1.985-11.956,4.421-17.648,7.288l-27.2-27.2c-3.122-3.126-8.188-3.129-11.314-0.006c-0.002,0.002-0.004,0.004-0.006,0.006
			l-45.256,45.256c-3.126,3.122-3.129,8.188-0.006,11.314c0.002,0.002,0.004,0.004,0.006,0.006l27.2,27.2
			c-2.858,5.689-5.289,11.582-7.272,17.632h-38.504c-4.418,0-8,3.582-8,8v64c0,4.418,3.582,8,8,8H186.5
			c1.987,6.039,4.421,11.922,7.28,17.6l-27.2,27.2c-3.126,3.122-3.129,8.188-0.006,11.314c0.002,0.002,0.004,0.004,0.006,0.006
			l45.256,45.256c3.178,2.998,8.142,2.998,11.32,0l27.2-27.2c5.689,2.878,11.585,5.325,17.64,7.32V328c0,4.418,3.582,8,8,8h64
			c4.418,0,8-3.582,8-8v-38.504c6.057-1.985,11.956-4.421,17.648-7.288l27.2,27.2c3.122,3.126,8.188,3.129,11.314,0.006
			c0.002-0.002,0.004-0.004,0.006-0.006l45.256-45.256c3.126-3.122,3.129-8.188,0.006-11.314c-0.002-0.002-0.004-0.004-0.006-0.006
			l-27.2-27.2c2.859-5.678,5.293-11.561,7.28-17.6h38.496c4.418,0,8-3.582,8-8V136C475.996,131.582,472.414,128,467.996,128z
			 M459.996,192h-36.448c-3.597-0.001-6.752,2.398-7.712,5.864c-2.409,8.826-5.902,17.32-10.4,25.288
			c-1.773,3.129-1.239,7.057,1.304,9.6l25.752,25.744l-33.952,33.952l-25.744-25.744c-2.545-2.541-6.472-3.071-9.6-1.296
			c-7.973,4.493-16.469,7.986-25.296,10.4c-3.466,0.96-5.865,4.115-5.864,7.712V320h-48.04v-36.448
			c0.001-3.597-2.398-6.752-5.864-7.712c-8.827-2.414-17.323-5.907-25.296-10.4c-3.128-1.775-7.055-1.245-9.6,1.296l-25.744,25.752
			l-33.952-33.952l25.752-25.736c2.543-2.543,3.077-6.471,1.304-9.6c-4.498-7.968-7.991-16.462-10.4-25.288
			c-0.946-3.499-4.127-5.925-7.752-5.912h-36.448v-48h36.448c3.597,0.001,6.752-2.398,7.712-5.864
			c2.409-8.826,5.902-17.32,10.4-25.288c1.773-3.129,1.239-7.057-1.304-9.6L183.5,77.504l33.952-33.952l25.744,25.752
			c2.545,2.541,6.472,3.071,9.6,1.296c7.973-4.493,16.469-7.986,25.296-10.4c3.496-0.949,5.918-4.129,5.904-7.752V16h48v36.448
			c-0.001,3.597,2.398,6.752,5.864,7.712c8.827,2.414,17.323,5.907,25.296,10.4c3.128,1.775,7.055,1.245,9.6-1.296L398.5,43.512
			l33.952,33.952L406.7,103.208c-2.543,2.543-3.077,6.471-1.304,9.6c4.498,7.968,7.991,16.462,10.4,25.288
			c0.96,3.466,4.115,5.865,7.712,5.864h36.488V192z"/>
	</g>
</g>
<g>
	<g>
		<path d="M307.996,88c-44.183,0-80,35.817-80,80s35.817,80,80,80c44.183,0,80-35.817,80-80
			C387.947,123.837,352.158,88.049,307.996,88z M307.996,232c-35.346,0-64-28.654-64-64c0-35.346,28.654-64,64-64
			c35.346,0,64,28.654,64,64C371.956,203.33,343.325,231.96,307.996,232z"/>
	</g>
</g>
<g>
</g>
<g>
</g>
<g>
</g>
<g>
</g>
<g>
</g>
<g>
</g>
<g>
</g>
<g>
</g>
<g>
</g>
<g>
</g>
<g>
</g>
<g>
</g>
<g>
</g>
<g>
</g>
<g>
</g>
</svg>
