<?xml version="1.0" encoding="iso-8859-1"?>
<!-- Generator: Adobe Illustrator 19.0.0, SVG Export Plug-In . SVG Version: 6.00 Build 0)  -->
<svg version="1.1" id="Capa_1" xmlns="http://www.w3.org/2000/svg" xmlns:xlink="http://www.w3.org/1999/xlink" x="0px" y="0px"
	 viewBox="0 0 436.91 436.91" style="enable-background:new 0 0 436.91 436.91;" xml:space="preserve">
<g>
	<g>
		<path d="M428.602,329.369c-5.345-4.656-12.387-6.673-19.859-5.618l-113.135,17.586H20.487C9.192,341.336,0,350.521,0,361.816
			c0,11.295,9.195,20.48,20.5,20.48h389.093c15.06,0,27.314-12.274,27.317-27.365v-6.707
			C436.91,340.732,433.954,334.035,428.602,329.369z M423.253,354.928c0,7.56-6.127,13.715-13.66,13.715H20.501
			c-3.84,0-6.847-3-6.847-6.827c0-3.765,3.065-6.827,6.833-6.827v-0.003h275.644c0.355,0,0.7-0.024,1.048-0.078l113.541-17.65
			c3.406-0.495,6.577,0.375,8.912,2.403c2.335,2.034,3.622,5.076,3.622,8.561V354.928z"/>
	</g>
</g>
<g>
	<g>
		<path d="M27.307,292.986c-3.772,0-6.827,3.058-6.827,6.827v41.523c0,3.768,3.055,6.827,6.827,6.827s6.827-3.055,6.827-6.827
			v-41.523C34.133,296.044,31.078,292.986,27.307,292.986z"/>
	</g>
</g>
<g>
	<g>
		<path d="M54.613,292.986c-3.772,0-6.827,3.058-6.827,6.827v41.523c0,3.768,3.055,6.827,6.827,6.827
			c3.772,0,6.827-3.055,6.827-6.827v-41.523C61.44,296.044,58.385,292.986,54.613,292.986z"/>
	</g>
</g>
<g>
	<g>
		<path d="M81.92,292.986c-3.772,0-6.827,3.058-6.827,6.827v41.523c0,3.768,3.055,6.827,6.827,6.827s6.827-3.055,6.827-6.827
			v-41.523C88.747,296.044,85.692,292.986,81.92,292.986z"/>
	</g>
</g>
<g>
	<g>
		<path d="M109.227,292.986c-3.772,0-6.827,3.058-6.827,6.827v41.523c0,3.768,3.055,6.827,6.827,6.827s6.827-3.055,6.827-6.827
			v-41.523C116.053,296.044,112.998,292.986,109.227,292.986z"/>
	</g>
</g>
<g>
	<g>
		<path d="M136.533,292.986c-3.772,0-6.827,3.058-6.827,6.827v41.523c0,3.768,3.055,6.827,6.827,6.827s6.827-3.055,6.827-6.827
			v-41.523C143.36,296.044,140.305,292.986,136.533,292.986z"/>
	</g>
</g>
<g>
	<g>
		<path d="M393.762,56.439c-1.393-1.294-3.181-1.939-5.154-1.802l-273.067,20.48c-3.56,0.266-6.315,3.232-6.315,6.806v116.053
			c0,3.509,2.659,6.444,6.147,6.793l273.067,27.307c0.225,0.024,0.454,0.034,0.679,0.034c1.686,0,3.321-0.621,4.581-1.768
			c1.434-1.29,2.246-3.13,2.246-5.059V61.443C395.947,59.545,395.155,57.729,393.762,56.439z M382.293,217.743L122.88,191.801
			V88.258l259.413-19.456V217.743z"/>
	</g>
</g>
<g>
	<g>
		<path d="M424.591,61.576l-34.133-6.827c-2.014-0.406-4.093,0.116-5.666,1.413c-1.577,1.297-2.499,3.232-2.499,5.28v163.84
			c0,2.048,0.922,3.983,2.499,5.28c1.229,1.01,2.761,1.546,4.328,1.546c0.447,0,0.894-0.041,1.341-0.133l34.133-6.827
			c3.185-0.638,5.485-3.441,5.485-6.694V68.269C430.08,65.016,427.779,62.214,424.591,61.576z M416.427,212.861l-20.48,4.096V69.771
			l20.48,4.096V212.861z"/>
	</g>
</g>
<g>
	<g>
		<path d="M120.634,104.171c-1.427-1.294-3.345-1.925-5.26-1.734l-68.267,6.827c-3.488,0.348-6.147,3.287-6.147,6.793v47.787
			c0,3.509,2.659,6.444,6.147,6.793l68.267,6.827c0.225,0.024,0.454,0.034,0.679,0.034c1.686,0,3.321-0.621,4.581-1.768
			c1.434-1.29,2.246-3.13,2.246-5.059v-61.44C122.88,107.301,122.068,105.464,120.634,104.171z M109.227,163.129l-54.613-5.461
			v-35.434l54.613-5.461V163.129z"/>
	</g>
</g>
<g>
	<g>
		<path d="M389.12,75.096c-3.772,0-6.827,3.058-6.827,6.827s3.055,6.827,6.827,6.827c7.526,0,13.653,6.124,13.653,13.653
			c0,7.53-6.127,13.653-13.653,13.653c-3.772,0-6.827,3.058-6.827,6.827c0,3.768,3.055,6.827,6.827,6.827
			c15.06,0,27.307-12.25,27.307-27.307S404.18,75.096,389.12,75.096z"/>
	</g>
</g>
<g>
	<g>
		<path d="M389.12,116.056c-3.772,0-6.827,3.058-6.827,6.827c0,3.768,3.055,6.827,6.827,6.827c7.526,0,13.653,6.123,13.653,13.653
			c0,7.53-6.127,13.653-13.653,13.653c-3.772,0-6.827,3.058-6.827,6.827s3.055,6.827,6.827,6.827
			c15.06,0,27.307-12.25,27.307-27.307S404.18,116.056,389.12,116.056z"/>
	</g>
</g>
<g>
	<g>
		<path d="M389.12,157.016c-3.772,0-6.827,3.058-6.827,6.827s3.055,6.827,6.827,6.827c7.526,0,13.653,6.124,13.653,13.653
			c0,7.53-6.127,13.653-13.653,13.653c-3.772,0-6.827,3.058-6.827,6.827s3.055,6.827,6.827,6.827
			c15.06,0,27.307-12.25,27.307-27.307C416.427,169.266,404.18,157.016,389.12,157.016z"/>
	</g>
</g>
<g>
</g>
<g>
</g>
<g>
</g>
<g>
</g>
<g>
</g>
<g>
</g>
<g>
</g>
<g>
</g>
<g>
</g>
<g>
</g>
<g>
</g>
<g>
</g>
<g>
</g>
<g>
</g>
<g>
</g>
</svg>
