<?xml version="1.0" encoding="iso-8859-1"?>
<!-- Generator: Adobe Illustrator 19.0.0, SVG Export Plug-In . SVG Version: 6.00 Build 0)  -->
<svg version="1.1" id="Capa_1" xmlns="http://www.w3.org/2000/svg" xmlns:xlink="http://www.w3.org/1999/xlink" x="0px" y="0px"
	 viewBox="0 0 436.685 436.685" style="enable-background:new 0 0 436.685 436.685;" xml:space="preserve">
<g>
	<g>
		<path d="M255.889,0h-68.267c-3.649,0-6.601,2.959-6.601,6.601v81.92c0,3.645,2.956,6.601,6.601,6.601h68.267
			c3.645,0,6.601-2.956,6.601-6.601V6.601C262.49,2.956,259.535,0,255.889,0z M249.291,81.923h-55.067V13.203h55.067V81.923z"/>
	</g>
</g>
<g>
	<g>
		<path d="M289.859,148.483l-13.653-61.44c-0.7-3.123-3.464-5.345-6.666-5.345h-95.573c-3.198,0-5.966,2.222-6.666,5.345
			l-13.653,61.44c-0.444,2.021,0.048,4.137,1.341,5.751c1.3,1.618,3.256,2.557,5.328,2.557h122.88c2.072,0,4.028-0.942,5.321-2.557
			C289.811,152.62,290.306,150.504,289.859,148.483z M168.829,143.138l10.615-47.787h84.627l10.612,47.787H168.829z"/>
	</g>
</g>
<g>
	<g>
		<path d="M310.475,388.314l-20.48-238.933c-0.3-3.529-3.253-6.243-6.799-6.243h-122.88c-3.471,0-6.386,2.601-6.779,6.048
			L126.23,388.12c-0.229,1.935,0.393,3.871,1.686,5.321c1.294,1.454,3.147,2.284,5.093,2.284h170.667
			c1.915,0,3.734-0.806,5.024-2.212C309.994,392.103,310.642,390.223,310.475,388.314z M140.662,382.071l25.747-225.28h110.52
			l19.306,225.28H140.662z"/>
	</g>
</g>
<g>
	<g>
		<path d="M255.889,211.405h-68.267c-3.772,0-6.827,3.058-6.827,6.827v109.227c0,3.768,3.055,6.827,6.827,6.827h68.267
			c3.772,0,6.827-3.058,6.827-6.827V218.231C262.716,214.463,259.661,211.405,255.889,211.405z M249.062,320.631h-54.613v-95.573
			h54.613V320.631z"/>
	</g>
</g>
<g>
	<g>
		<path d="M303.676,382.071H133.009c-3.772,0-6.827,3.058-6.827,6.827v40.96c0,3.768,3.055,6.827,6.827,6.827h170.667
			c3.772,0,6.827-3.058,6.827-6.827v-40.96C310.502,385.13,307.448,382.071,303.676,382.071z M296.849,423.031H139.836v-27.307
			h157.013V423.031z"/>
	</g>
</g>
<g>
	<g>
		<path d="M228.582,20.258h-34.133c-3.772,0-6.827,3.058-6.827,6.827c0,3.768,3.055,6.827,6.827,6.827h34.133
			c3.772,0,6.827-3.058,6.827-6.827C235.409,23.316,232.354,20.258,228.582,20.258z"/>
	</g>
</g>
<g>
	<g>
		<path d="M214.929,40.738h-20.48c-3.772,0-6.827,3.058-6.827,6.827s3.055,6.827,6.827,6.827h20.48c3.772,0,6.827-3.058,6.827-6.827
			S218.701,40.738,214.929,40.738z"/>
	</g>
</g>
<g>
</g>
<g>
</g>
<g>
</g>
<g>
</g>
<g>
</g>
<g>
</g>
<g>
</g>
<g>
</g>
<g>
</g>
<g>
</g>
<g>
</g>
<g>
</g>
<g>
</g>
<g>
</g>
<g>
</g>
</svg>
