<?xml version="1.0" encoding="iso-8859-1"?>
<!-- Generator: Adobe Illustrator 19.0.0, SVG Export Plug-In . SVG Version: 6.00 Build 0)  -->
<svg version="1.1" id="Capa_1" xmlns="http://www.w3.org/2000/svg" xmlns:xlink="http://www.w3.org/1999/xlink" x="0px" y="0px"
	 viewBox="0 0 396.846 396.846" style="enable-background:new 0 0 396.846 396.846;" xml:space="preserve">
<g>
	<g>
		<path d="M143.36,335.414H23.839C10.694,335.414,0,346.135,0,359.307v17.067c0,3.768,3.055,6.827,6.827,6.827h119.521
			c13.145,0,23.839-10.721,23.839-23.893v-17.067C150.187,338.472,147.132,335.414,143.36,335.414z M136.533,359.307
			c0,5.646-4.567,10.24-10.185,10.24H13.653v-10.24c0-5.646,4.567-10.24,10.185-10.24h112.695V359.307z"/>
	</g>
</g>
<g>
	<g>
		<path d="M369.777,170.106l-81.92-141.889c-0.952-1.642-2.54-2.819-4.393-3.243c-1.867-0.42-3.792-0.051-5.366,1.017
			L51.859,180.261c-2.953,2.014-3.85,5.96-2.065,9.052l58.027,100.502c1.253,2.174,3.546,3.413,5.919,3.413
			c0.942,0,1.894-0.195,2.799-0.604L366.67,179.742c1.761-0.792,3.099-2.294,3.693-4.13
			C370.951,173.776,370.736,171.775,369.777,170.106z M116.552,277.64l-51.767-89.668L279.712,41.413L354.178,170.4L116.552,277.64z
			"/>
	</g>
</g>
<g>
	<g>
		<path d="M395.93,147.124L320.836,17.063c-1.628-2.819-5.021-4.103-8.1-3.055l-32.98,11.155c-1.939,0.655-3.478,2.14-4.198,4.055
			s-0.546,4.052,0.474,5.823l81.92,141.889c1.027,1.772,2.785,2.99,4.806,3.325c0.365,0.058,0.741,0.089,1.106,0.089
			c1.649,0,3.256-0.594,4.506-1.7l26.153-22.979C396.971,153.518,397.558,149.94,395.93,147.124z M365.616,162.894L292.021,35.426
			l19.797-6.694l69.492,120.371L365.616,162.894z"/>
	</g>
</g>
<g>
	<g>
		<path d="M105.793,259.46l-30.72-53.214c-0.935-1.615-2.502-2.761-4.328-3.151c-1.84-0.403-3.727,0-5.24,1.092L9.8,244.234
			c-2.755,1.976-3.56,5.721-1.86,8.656l23.893,41.383c1.215,2.099,3.427,3.301,5.721,3.301c0.908,0,1.826-0.188,2.707-0.58
			l62.532-28.221c1.7-0.768,2.993-2.212,3.567-3.99C106.933,263.007,106.725,261.075,105.793,259.46z M40.274,282.504l-17.92-31.041
			l44.94-32.307l23.426,40.581L40.274,282.504z"/>
	</g>
</g>
<g>
	<g>
		<path d="M326.076,53.452c-3.645-6.318-9.533-10.837-16.579-12.725c-7.045-1.884-14.404-0.922-20.726,2.727
			c-3.267,1.884-4.386,6.059-2.499,9.325c1.884,3.267,6.059,4.376,9.325,2.499c3.168-1.823,6.84-2.297,10.366-1.365
			c3.523,0.942,6.468,3.202,8.288,6.362c1.826,3.157,2.304,6.837,1.365,10.359c-0.945,3.526-3.205,6.468-6.366,8.291
			c-3.267,1.884-4.386,6.059-2.499,9.325c1.266,2.191,3.56,3.413,5.919,3.413c1.161,0,2.335-0.294,3.403-0.911
			c6.321-3.645,10.841-9.537,12.728-16.582S329.721,59.77,326.076,53.452z"/>
	</g>
</g>
<g>
	<g>
		<path d="M346.559,88.924c-7.526-13.036-24.248-17.524-37.308-9.998c-3.267,1.881-4.386,6.059-2.499,9.322
			c1.884,3.267,6.065,4.383,9.325,2.502c6.506-3.755,14.886-1.533,18.654,4.997c1.826,3.161,2.304,6.84,1.365,10.363
			c-0.945,3.523-3.205,6.465-6.366,8.288c-3.267,1.881-4.386,6.059-2.499,9.322c1.266,2.195,3.56,3.417,5.919,3.417
			c1.16,0,2.335-0.294,3.406-0.911c6.322-3.645,10.841-9.533,12.728-16.579C351.174,102.601,350.205,95.245,346.559,88.924z"/>
	</g>
</g>
<g>
	<g>
		<path d="M367.039,124.395c-7.526-13.039-24.255-17.521-37.308-9.998c-3.267,1.881-4.386,6.059-2.499,9.322
			c1.884,3.27,6.065,4.379,9.325,2.502c6.513-3.755,14.882-1.526,18.654,4.997c1.826,3.161,2.304,6.84,1.365,10.363
			c-0.945,3.523-3.205,6.465-6.366,8.288c-3.267,1.881-4.386,6.059-2.499,9.322c1.266,2.195,3.56,3.417,5.919,3.417
			c1.161,0,2.335-0.294,3.406-0.911c6.321-3.645,10.841-9.533,12.728-16.579C371.654,138.072,370.685,130.716,367.039,124.395z"/>
	</g>
</g>
<g>
	<g>
		<path d="M268.124,152.384c-3.789-6.557-9.513-11.629-16.234-14.541c0.84-7.281-0.696-14.773-4.475-21.326
			c-10.144-17.555-28.314-22.811-45.199-13.056c-10.322,5.96-17.869,24.846-22.388,39.642c-2.219,7.294-9.148,31.665-4.833,39.134
			c4.574,7.912,40.52,19.074,64.686,19.074c7.093,0,13.179-0.963,17.149-3.253C273.719,188.303,278.258,169.949,268.124,152.384z
			 M249.999,186.231c-10.66,6.154-54.013-5.533-62.874-11.001c-0.307-10.397,11.254-53.787,21.917-59.942
			c14.831-8.557,23.497,2.782,26.545,8.055c3.021,5.233,3.693,11.411,1.847,16.944c-0.621,1.853-0.413,3.888,0.56,5.577
			c0.98,1.693,2.635,2.888,4.553,3.277c5.711,1.164,10.725,4.833,13.746,10.066C259.338,164.484,264.82,177.677,249.999,186.231z"/>
	</g>
</g>
<g>
</g>
<g>
</g>
<g>
</g>
<g>
</g>
<g>
</g>
<g>
</g>
<g>
</g>
<g>
</g>
<g>
</g>
<g>
</g>
<g>
</g>
<g>
</g>
<g>
</g>
<g>
</g>
<g>
</g>
</svg>
