<?xml version="1.0" encoding="iso-8859-1"?>
<!-- Generator: Adobe Illustrator 19.0.0, SVG Export Plug-In . SVG Version: 6.00 Build 0)  -->
<svg version="1.1" id="Capa_1" xmlns="http://www.w3.org/2000/svg" xmlns:xlink="http://www.w3.org/1999/xlink" x="0px" y="0px"
	 viewBox="0 0 480 480" style="enable-background:new 0 0 480 480;" xml:space="preserve">
<g>
	<g>
		<path d="M474.192,288.312l-77.6-22.176c-11.317-3.238-23.406-2.452-34.208,2.224c9.026-28.675,13.617-58.562,13.616-88.624
			c-0.077-35.566-27.588-65.045-63.064-67.576l-1.096,16c27.079,1.935,48.082,24.428,48.16,51.576
			c0.021,33.606-6.022,66.94-17.84,98.4l-5.656,15.064c-0.286,0.77-0.45,1.58-0.488,2.4l-6.608,118.92
			c-0.418,6.921-4.665,13.03-11.008,15.832l-6.28-163.264l0.072-0.2c10.468-27.863,15.824-57.387,15.808-87.152
			c-0.013-10.894-8.842-19.723-19.736-19.736v16c2.063,0,3.736,1.673,3.736,3.736c0.013,23.891-3.676,47.639-10.936,70.4
			c-32.139-33.725-85.532-35.01-119.257-2.871c-0.98,0.934-1.937,1.891-2.871,2.871c-7.259-22.761-10.948-46.509-10.936-70.4
			c0.071-2.111,1.84-3.764,3.951-3.693c0.434,0.015,0.861,0.103,1.265,0.261c21.096,9.067,43.822,13.731,66.784,13.704
			c8.424,0.001,16.836-0.619,25.168-1.856l-2.352-15.824c-28.228,4.192-57.066,0.479-83.312-10.728
			c-10.02-4.29-21.621,0.355-25.911,10.375c-1.05,2.453-1.592,5.093-1.593,7.761c-0.016,29.765,5.34,59.289,15.808,87.152l0.072,0.2
			l-6.28,163.264c-6.357-2.81-10.608-8.941-11.008-15.88L144,295.552c-0.038-0.82-0.202-1.63-0.488-2.4l-5.656-15.064
			c-11.817-31.444-17.866-64.761-17.856-98.352c0.004-28.577,23.174-51.74,51.752-51.736c7.005,0.001,13.937,1.425,20.376,4.184
			c23.042,9.939,48.607,12.455,73.144,7.2l-3.328-15.648c-21.306,4.565-43.505,2.39-63.52-6.224
			c-34.383-14.739-74.205,1.185-88.945,35.569c-3.611,8.423-5.475,17.491-5.479,26.655c-0.007,30.062,4.579,59.948,13.6,88.624
			c-10.802-4.676-22.891-5.462-34.208-2.224l-77.6,22.176C2.363,289.297,0.001,292.433,0,296v176c0,4.418,3.582,8,8,8h464
			c4.418,0,8-3.582,8-8V296C479.997,292.428,477.627,289.291,474.192,288.312z M160.304,464H16V302.032l71.8-20.512
			c15.732-4.47,32.465,2.535,40.32,16.88l6.504,116.96c0.872,15.17,11.566,27.983,26.336,31.552L160.304,464z M183.76,269.768
			C196.345,251.06,217.453,239.887,240,240c22.538-0.104,43.636,11.067,56.216,29.768L302.4,429.84
			c-5.276-2.715-8.938-7.786-9.856-13.648l-17.04-113.648c-2.951-19.595-21.228-33.088-40.823-30.137
			c-15.57,2.345-27.793,14.567-30.137,30.137l-17.04,113.648c-0.929,5.872-4.61,10.945-9.904,13.648L183.76,269.768z M176.312,464
			l0.656-17.024c13.733-3.243,24.14-14.469,26.336-28.408l17.048-113.648c1.613-10.851,11.718-18.34,22.569-16.727
			c8.649,1.286,15.441,8.077,16.727,16.727l17.048,113.6c2.193,13.942,12.601,25.172,26.336,28.416L303.688,464H176.312z M464,464
			H319.696l-0.656-17.088c14.77-3.569,25.464-16.382,26.336-31.552l6.504-116.96c7.853-14.347,24.588-21.353,40.32-16.88
			l71.8,20.512V464z"/>
	</g>
</g>
<g>
	<g>
		<path d="M472,24H328V8c0-4.418-3.582-8-8-8h-64c-4.418,0-8,3.582-8,8v80c0,4.418,3.582,8,8,8h24v120h16V96h24c4.418,0,8-3.582,8-8
			V72h144c4.418,0,8-3.582,8-8V32C480,27.582,476.418,24,472,24z M312,80h-48V16h48V80z M464,56H328V40h136V56z"/>
	</g>
</g>
<g>
</g>
<g>
</g>
<g>
</g>
<g>
</g>
<g>
</g>
<g>
</g>
<g>
</g>
<g>
</g>
<g>
</g>
<g>
</g>
<g>
</g>
<g>
</g>
<g>
</g>
<g>
</g>
<g>
</g>
</svg>
