<?xml version="1.0" encoding="iso-8859-1"?>
<!-- Generator: Adobe Illustrator 19.0.0, SVG Export Plug-In . SVG Version: 6.00 Build 0)  -->
<svg version="1.1" id="Capa_1" xmlns="http://www.w3.org/2000/svg" xmlns:xlink="http://www.w3.org/1999/xlink" x="0px" y="0px"
	 viewBox="0 0 480.024 480.024" style="enable-background:new 0 0 480.024 480.024;" xml:space="preserve">
<g>
	<g>
		<path d="M476.924,241.704l-37.472-29.136c-13.189-10.193-30.443-13.497-46.464-8.896c15.132-32.131,22.993-67.204,23.024-102.72
			C416.011,45.211,370.823,0.025,315.082,0.026c-13.666,0-27.189,2.776-39.75,8.158c-22.565,9.616-48.075,9.616-70.64,0
			C153.457-13.77,94.125,9.967,72.17,61.202c-5.382,12.561-8.158,26.084-8.158,39.75c0.033,37.069,8.601,73.632,25.04,106.856
			c-13.419-3.33-27.611-1.194-39.456,5.936L3.892,241.168c-2.407,1.446-3.879,4.048-3.88,6.856v224c0,4.418,3.582,8,8,8h464
			c4.418,0,8-3.582,8-8v-224C480.014,245.554,478.874,243.221,476.924,241.704z M80.012,100.952
			c0.053-46.883,38.045-84.875,84.928-84.928c11.5-0.013,22.882,2.323,33.448,6.864c26.59,11.344,56.658,11.344,83.248,0
			c43.114-18.473,93.039,1.502,111.512,44.616c4.529,10.57,6.864,21.949,6.864,33.448c0.014,42.335-11.885,83.82-34.336,119.712
			l-4.448,7.12c-0.615,0.986-1.009,2.094-1.152,3.248l-20.984,167.84c-1.35,10.727-11.141,18.328-21.867,16.978
			c-8.668-1.091-15.563-7.793-16.901-16.426l-24.76-160.896c-3.127-19.635-21.579-33.017-41.214-29.89
			c-15.38,2.449-27.441,14.51-29.89,29.89l-24.8,160.896c-1.655,10.684-11.658,18.004-22.342,16.349
			c-8.633-1.337-15.335-8.233-16.426-16.901l-20.984-167.84c-0.143-1.154-0.537-2.262-1.152-3.248l-4.448-7.12
			C91.871,184.768,79.986,143.283,80.012,100.952z M464.012,464.024h-448V252.552l41.816-25.088c15.358-9.226,35.155-5.824,46.552,8
			l20.672,165.36c2.435,19.497,20.215,33.327,39.711,30.892c15.78-1.971,28.335-14.175,30.753-29.892l24.752-160.896
			c1.762-10.904,12.029-18.316,22.934-16.554c8.509,1.375,15.18,8.046,16.554,16.554l24.752,160.896
			c2.988,19.42,21.152,32.74,40.572,29.753c15.717-2.418,27.921-14.973,29.892-30.753l20.696-165.6l3.264-4.072
			c12.459-15.456,34.989-18.115,50.704-5.984l34.376,26.768V464.024z"/>
	</g>
</g>
<g>
	<g>
		<path d="M152.012,48.024l-1.6-7.84c-16,3.208-46.4,20.68-46.4,63.84h16c0-40.568,32.24-47.872,33.6-48.168L152.012,48.024z"/>
	</g>
</g>
<g>
	<g>
		<rect x="168.012" y="40.024" width="16" height="16"/>
	</g>
</g>
<g>
	<g>
		<polygon points="464.012,160.024 464.012,144.024 448.012,144.024 448.012,160.024 432.012,160.024 432.012,176.024 
			448.012,176.024 448.012,192.024 464.012,192.024 464.012,176.024 480.012,176.024 480.012,160.024 		"/>
	</g>
</g>
<g>
	<g>
		<polygon points="32.012,16.024 32.012,0.024 16.012,0.024 16.012,16.024 0.012,16.024 0.012,32.024 16.012,32.024 16.012,48.024 
			32.012,48.024 32.012,32.024 48.012,32.024 48.012,16.024 		"/>
	</g>
</g>
<g>
</g>
<g>
</g>
<g>
</g>
<g>
</g>
<g>
</g>
<g>
</g>
<g>
</g>
<g>
</g>
<g>
</g>
<g>
</g>
<g>
</g>
<g>
</g>
<g>
</g>
<g>
</g>
<g>
</g>
</svg>
