<?xml version="1.0" encoding="iso-8859-1"?>
<!-- Generator: Adobe Illustrator 19.0.0, SVG Export Plug-In . SVG Version: 6.00 Build 0)  -->
<svg version="1.1" id="Capa_1" xmlns="http://www.w3.org/2000/svg" xmlns:xlink="http://www.w3.org/1999/xlink" x="0px" y="0px"
	 viewBox="0 0 423.253 423.253" style="enable-background:new 0 0 423.253 423.253;" xml:space="preserve">
<g>
	<g>
		<path d="M211.627,0C94.932,0,0,94.935,0,211.627s94.932,211.627,211.627,211.627s211.627-94.935,211.627-211.627
			S328.322,0,211.627,0z M211.627,409.6c-109.158,0-197.973-88.812-197.973-197.973S102.468,13.653,211.627,13.653
			S409.6,102.465,409.6,211.627S320.785,409.6,211.627,409.6z"/>
	</g>
</g>
<g>
	<g>
		<path d="M211.627,27.307c-101.632,0-184.32,82.688-184.32,184.32s82.688,184.32,184.32,184.32s184.32-82.688,184.32-184.32
			S313.259,27.307,211.627,27.307z M211.627,382.293c-94.106,0-170.667-76.561-170.667-170.667S117.521,40.96,211.627,40.96
			s170.667,76.561,170.667,170.667S305.732,382.293,211.627,382.293z"/>
	</g>
</g>
<g>
	<g>
		<path d="M253.321,82.149c-8.434,0-16.183,3.669-23.675,7.219c-6.451,3.058-12.554,5.946-18.019,5.946s-11.564-2.888-18.019-5.946
			c-7.496-3.55-15.241-7.219-23.675-7.219c-31.792,0-54.873,34.154-54.873,81.207c0,26.368,15.124,177.753,54.873,177.753
			c13.268,0,17.514-21.217,23.941-53.333c2.987-14.947,10.926-54.654,17.729-54.682c9.673,0.034,16.319,37.765,19.886,58.033
			c5.297,30.099,8.806,49.981,21.832,49.981c39.745,0,54.873-151.385,54.873-177.753C308.193,116.303,285.112,82.149,253.321,82.149
			z M254.201,327.827c-3.622-4.386-7.267-25.098-9.714-38.991c-5.966-33.86-12.134-68.871-32.887-68.943
			c-17.626,0.078-23.671,30.297-30.672,65.294c-3.065,15.34-7.653,38.267-11.786,42.656
			c-18.603-3.014-40.881-110.865-40.881-164.489c0-38.772,17.913-68.007,41.673-68.007c5.468,0,11.568,2.884,18.019,5.943
			c7.496,3.55,15.241,7.219,23.675,7.219s16.183-3.669,23.675-7.219c6.451-3.058,12.551-5.946,18.019-5.946
			c23.76,0,41.673,29.239,41.673,68.007C294.994,216.89,272.787,324.482,254.201,327.827z"/>
	</g>
</g>
<g>
	<g>
		<path d="M177.493,102.4c-22.586,0-40.96,18.374-40.96,40.96c0,3.768,3.055,6.827,6.827,6.827s6.827-3.058,6.827-6.827
			c0-15.056,12.247-27.307,27.307-27.307c3.772,0,6.827-3.058,6.827-6.827C184.32,105.458,181.265,102.4,177.493,102.4z"/>
	</g>
</g>
<g>
</g>
<g>
</g>
<g>
</g>
<g>
</g>
<g>
</g>
<g>
</g>
<g>
</g>
<g>
</g>
<g>
</g>
<g>
</g>
<g>
</g>
<g>
</g>
<g>
</g>
<g>
</g>
<g>
</g>
</svg>
