<?xml version="1.0" encoding="iso-8859-1"?>
<!-- Generator: Adobe Illustrator 19.0.0, SVG Export Plug-In . SVG Version: 6.00 Build 0)  -->
<svg version="1.1" id="Capa_1" xmlns="http://www.w3.org/2000/svg" xmlns:xlink="http://www.w3.org/1999/xlink" x="0px" y="0px"
	 viewBox="0 0 395.496 395.496" style="enable-background:new 0 0 395.496 395.496;" xml:space="preserve">
<g>
	<g>
		<path d="M330.895,53.316c-3.546-1.26-7.462,0.591-8.721,4.147c-1.26,3.55,0.594,7.455,4.147,8.721
			c28.921,10.288,45.507,23.402,45.507,35.99c0,3.768,3.055,6.827,6.827,6.827s6.827-3.058,6.827-6.827
			C385.481,82.917,366.609,66.021,330.895,53.316z"/>
	</g>
</g>
<g>
	<g>
		<path d="M69.301,58.788c-1.331-3.529-5.301-5.294-8.8-3.963c-33.027,12.53-50.487,28.904-50.487,47.35
			c0,3.768,3.055,6.827,6.827,6.827s6.827-3.058,6.827-6.827c0-11.93,15.186-24.535,41.673-34.584
			C68.867,66.256,70.642,62.31,69.301,58.788z"/>
	</g>
</g>
<g>
	<g>
		<path d="M262.601,0c-12.291,0-23.965,5.533-35.253,10.878c-10.428,4.939-20.272,9.602-29.6,9.602s-19.173-4.663-29.6-9.602
			C156.86,5.53,145.19,0,132.895,0C85.559,0,51.2,51.586,51.2,122.655c0,32.01,7.274,98.475,20.743,158.597
			c16.985,75.803,37.492,114.241,60.952,114.241c16.818,0,23.419-28.911,33.638-80.012c7.008-35.024,17.596-87.948,31.188-88.006
			c18.108,0.065,27.6,53.955,34.533,93.303c7.922,44.995,13.162,74.718,30.348,74.718c55.419,0,81.695-218.849,81.695-272.841
			C344.296,51.582,309.934,0,262.601,0z M262.741,382.314c-6.68-2.464-13.186-39.393-17.493-63.826
			c-9.015-51.183-18.333-104.107-47.527-104.212c-24.426,0.106-33.993,47.957-44.128,98.615
			c-5.024,25.119-13.431,67.161-20.698,69.403c-35.925,0-68.492-186.914-68.492-259.639c0-63.423,28.805-109.452,68.492-109.452
			c9.325,0,19.173,4.663,29.6,9.602c11.288,5.349,22.961,10.878,35.253,10.878s23.965-5.533,35.253-10.878
			c10.428-4.939,20.275-9.602,29.6-9.602c39.687,0,68.492,46.029,68.492,109.452C331.093,195.376,298.527,382.293,262.741,382.314z"
			/>
	</g>
</g>
<g>
	<g>
		<path d="M146.548,27.081c-33.881,0-61.44,27.563-61.44,61.44c0,3.768,3.055,6.827,6.827,6.827s6.827-3.058,6.827-6.827
			c0-26.351,21.439-47.787,47.787-47.787c3.772,0,6.827-3.058,6.827-6.827C153.375,30.14,150.32,27.081,146.548,27.081z"/>
	</g>
</g>
<g>
	<g>
		<g>
			<path d="M378.655,95.348c-3.772,0-6.827,3.058-6.827,6.827c0,24.149-64.048,51.777-159.396,54.412
				c-3.772,0.106-6.738,3.246-6.639,7.014c0.106,3.703,3.14,6.635,6.82,6.635c0.068,0,0.136,0,0.195-0.003
				c85.808-2.372,172.674-26.511,172.674-68.058C385.481,98.406,382.427,95.348,378.655,95.348z"/>
			<path d="M94.095,145.514c-43.441-10.571-70.427-27.18-70.427-43.339c0-3.768-3.055-6.827-6.827-6.827s-6.827,3.058-6.827,6.827
				c0,23.47,29.467,44.1,80.852,56.607c0.543,0.133,1.089,0.195,1.621,0.195c3.072,0,5.868-2.092,6.629-5.216
				C100.007,150.098,97.761,146.408,94.095,145.514z"/>
		</g>
	</g>
</g>
<g>
	<g>
		<path d="M211.21,116.634c-2.222-1.184-4.915-1.051-7.008,0.341l-61.44,40.96c-1.901,1.266-3.041,3.396-3.041,5.68
			c0,2.284,1.14,4.413,3.041,5.68l61.44,40.96c1.14,0.765,2.458,1.147,3.785,1.147c1.106,0,2.212-0.266,3.219-0.806
			c2.222-1.191,3.608-3.505,3.608-6.021v-81.92C214.815,120.139,213.429,117.825,211.21,116.634z M201.161,191.819l-42.308-28.204
			l42.308-28.204V191.819z"/>
	</g>
</g>
<g>
</g>
<g>
</g>
<g>
</g>
<g>
</g>
<g>
</g>
<g>
</g>
<g>
</g>
<g>
</g>
<g>
</g>
<g>
</g>
<g>
</g>
<g>
</g>
<g>
</g>
<g>
</g>
<g>
</g>
</svg>
