<?xml version="1.0" encoding="iso-8859-1"?>
<!-- Generator: Adobe Illustrator 19.0.0, SVG Export Plug-In . SVG Version: 6.00 Build 0)  -->
<svg version="1.1" id="Capa_1" xmlns="http://www.w3.org/2000/svg" xmlns:xlink="http://www.w3.org/1999/xlink" x="0px" y="0px"
	 viewBox="0 0 436.91 436.91" style="enable-background:new 0 0 436.91 436.91;" xml:space="preserve">
<g>
	<g>
		<path d="M428.602,237.208c-5.345-4.659-12.373-6.676-19.859-5.618l-113.135,17.586H20.487C9.192,249.175,0,258.36,0,269.655
			s9.192,20.48,20.5,20.48h389.093c15.06,0,27.314-12.278,27.317-27.365v-6.707C436.91,248.571,433.954,241.874,428.602,237.208z
			 M423.253,262.767c0,7.561-6.127,13.715-13.66,13.715H20.501c-3.84,0-6.847-3-6.847-6.827c0-3.765,3.065-6.827,6.833-6.827
			h275.647c0.352,0,0.7-0.027,1.044-0.082l113.541-17.65c3.42-0.481,6.584,0.372,8.912,2.403c2.335,2.034,3.622,5.076,3.622,8.561
			V262.767z"/>
	</g>
</g>
<g>
	<g>
		<path d="M27.307,200.825c-3.772,0-6.827,3.058-6.827,6.827v41.523c0,3.768,3.055,6.827,6.827,6.827s6.827-3.058,6.827-6.827
			v-41.523C34.133,203.883,31.078,200.825,27.307,200.825z"/>
	</g>
</g>
<g>
	<g>
		<path d="M54.613,200.825c-3.772,0-6.827,3.058-6.827,6.827v41.523c0,3.768,3.055,6.827,6.827,6.827
			c3.772,0,6.827-3.058,6.827-6.827v-41.523C61.44,203.883,58.385,200.825,54.613,200.825z"/>
	</g>
</g>
<g>
	<g>
		<path d="M81.92,200.825c-3.772,0-6.827,3.058-6.827,6.827v41.523c0,3.768,3.055,6.827,6.827,6.827s6.827-3.058,6.827-6.827
			v-41.523C88.747,203.883,85.692,200.825,81.92,200.825z"/>
	</g>
</g>
<g>
	<g>
		<path d="M109.227,200.825c-3.772,0-6.827,3.058-6.827,6.827v41.523c0,3.768,3.055,6.827,6.827,6.827s6.827-3.058,6.827-6.827
			v-41.523C116.053,203.883,112.998,200.825,109.227,200.825z"/>
	</g>
</g>
<g>
	<g>
		<path d="M136.533,200.825c-3.772,0-6.827,3.058-6.827,6.827v41.523c0,3.768,3.055,6.827,6.827,6.827s6.827-3.058,6.827-6.827
			v-41.523C143.36,203.883,140.305,200.825,136.533,200.825z"/>
	</g>
</g>
<g>
	<g>
		<path d="M157.013,146.775H37.492c-13.145,0-23.839,10.721-23.839,23.893v17.067c0,3.768,3.055,6.827,6.827,6.827h119.521
			c13.145,0,23.839-10.721,23.839-23.893v-17.067C163.84,149.833,160.785,146.775,157.013,146.775z M150.187,170.668
			c0,5.646-4.567,10.24-10.185,10.24H27.307v-10.24c0-5.646,4.567-10.24,10.185-10.24h112.695V170.668z"/>
	</g>
</g>
<g>
</g>
<g>
</g>
<g>
</g>
<g>
</g>
<g>
</g>
<g>
</g>
<g>
</g>
<g>
</g>
<g>
</g>
<g>
</g>
<g>
</g>
<g>
</g>
<g>
</g>
<g>
</g>
<g>
</g>
</svg>
