<?xml version="1.0" encoding="iso-8859-1"?>
<!-- Generator: Adobe Illustrator 19.0.0, SVG Export Plug-In . SVG Version: 6.00 Build 0)  -->
<svg version="1.1" id="Capa_1" xmlns="http://www.w3.org/2000/svg" xmlns:xlink="http://www.w3.org/1999/xlink" x="0px" y="0px"
	 viewBox="0 0 480 480" style="enable-background:new 0 0 480 480;" xml:space="preserve">
<g>
	<g>
		<path d="M456.188,214.912c-0.404-0.001-0.808,0.008-1.212,0.028l3.2-8.088c3.847-9.562,5.824-19.773,5.824-30.08
			c0.003-23.161-18.77-41.938-41.93-41.942c-11.125-0.001-21.795,4.418-29.662,12.286c-4.65,4.612-12.15,4.612-16.8,0
			c-16.281-16.348-42.732-16.402-59.08-0.121c-1.656,1.649-3.171,3.434-4.528,5.337c-13.406-18.778-39.496-23.133-58.274-9.728
			c-1.895,1.353-3.674,2.862-5.318,4.512c-4.65,4.613-12.15,4.613-16.8,0c-16.367-16.387-42.919-16.404-59.306-0.037
			c-7.881,7.871-12.307,18.555-12.302,29.693c-0.007,10.297,1.959,20.499,5.792,30.056l0.512,1.296
			c-5.66-0.654-11.388,0.332-16.504,2.84c-5.055,2.529-10.628,3.852-16.28,3.864H32c-17.673,0-32,14.327-32,32v168h16v-39.52
			c1.168,0.328,2.362,0.558,3.568,0.688l75.872,7.456l26.088,10c9.251,3.559,19.08,5.381,28.992,5.376h1.184
			c23.162-0.351,41.655-19.412,41.304-42.575c-0.168-11.101-4.731-21.683-12.688-29.425c-4.703-4.575-4.807-12.096-0.233-16.799
			c0,0,0,0,0.001-0.001c1.514-1.616,2.897-3.349,4.136-5.184c4.32,11.271,16.959,16.907,28.23,12.587
			c7.029-2.694,12.177-8.816,13.626-16.203l12.192-60.968c0.336-0.954,1.382-1.456,2.336-1.12c0.523,0.184,0.935,0.596,1.12,1.12
			l12.192,60.968c2.376,11.866,13.921,19.56,25.787,17.184c9.439-1.89,16.539-9.718,17.501-19.296l6.64-66.344L312,212.38
			l8.152,20.376l6.64,66.344c1.206,12.041,11.946,20.825,23.987,19.619c9.579-0.96,17.41-8.059,19.301-17.499l12.192-60.968
			c0.336-0.954,1.382-1.456,2.336-1.12c0.523,0.184,0.935,0.596,1.12,1.12l12.192,60.976c2.376,11.866,13.921,19.56,25.787,17.184
			c9.439-1.89,16.539-9.718,17.501-19.296l6.32-63.112l2.816-2.816c3.125-3.124,8.19-3.123,11.314,0.002
			c1.495,1.496,2.338,3.523,2.342,5.638v176h16v-176C480.029,225.648,469.368,214.941,456.188,214.912z M16,304.276
			c0.6,0.176,1.184,0.392,1.808,0.512l69.256,13.24c0.97,0.198,1.596,1.144,1.398,2.114c-0.113,0.553-0.48,1.021-0.99,1.262
			l-69.36,11.632c-0.736,0.128-1.408,0.36-2.112,0.552V304.276z M177.032,356.516c0.218,14.314-11.209,26.094-25.523,26.311
			c-0.012,0-0.025,0-0.037,0.001c-8.272,0.153-16.495-1.309-24.208-4.304l-27.096-10.4c-0.67-0.257-1.373-0.422-2.088-0.488
			l-76.944-7.56c-3.127-0.304-5.415-3.085-5.111-6.212c0.249-2.562,2.188-4.637,4.727-5.06l69.72-11.704
			c9.587-2.053,15.694-11.49,13.64-21.076c-1.5-7.001-7.058-12.416-14.096-13.732L20.8,289.068
			c-2.649-0.504-4.581-2.799-4.624-5.496v-0.248c0.043-2.935,2.307-5.357,5.232-5.6l74.944-6.176c0.825-0.075,1.634-0.275,2.4-0.592
			l26.792-11.2c7.644-3.166,15.823-4.839,24.096-4.928h0.368c14.328,0.016,25.931,11.645,25.914,25.974
			c-0.008,6.73-2.63,13.194-7.314,18.026c-10.73,11.044-10.475,28.694,0.568,39.424C174.14,343.039,176.971,349.62,177.032,356.516z
			 M150.016,238.828h-0.608c-10.303,0.141-20.484,2.254-29.992,6.224l-25.6,10.68l-73.68,6.072c-1.4,0.116-2.785,0.367-4.136,0.752
			v-15.728c0-8.837,7.163-16,16-16h101.52c8.133-0.007,16.154-1.899,23.432-5.528c6.836-3.44,15.166-0.688,18.606,6.148
			c0.222,0.441,0.42,0.894,0.594,1.356l1.68,16.8C170.208,242.701,160.3,238.863,150.016,238.828z M299.352,200.916v-0.008
			l-10.784,26.96c-0.27,0.696-0.448,1.425-0.528,2.168l-6.752,67.472c-0.326,3.249-3.224,5.618-6.472,5.293
			c-2.586-0.259-4.699-2.176-5.208-4.725l-12.192-60.968c-1.921-9.619-11.276-15.859-20.895-13.937
			c-7.034,1.405-12.532,6.903-13.937,13.937L210.4,298.084c-0.641,3.202-3.756,5.277-6.958,4.636
			c-2.549-0.51-4.465-2.626-4.722-5.212l-6.72-67.48c-0.078-0.587-0.22-1.164-0.424-1.72h0.056c-0.038-0.095-0.081-0.189-0.128-0.28
			v-0.152l-10.784-26.952c-3.103-7.675-4.705-15.874-4.72-24.152c-0.011-14.32,11.588-25.937,25.908-25.948
			c6.889-0.005,13.496,2.731,18.364,7.604c10.905,10.866,28.543,10.866,39.448,0c10.115-10.135,26.532-10.152,36.668-0.036
			c4.88,4.871,7.62,11.485,7.612,18.38C304.007,185.043,302.429,193.239,299.352,200.916z M443.352,200.916l-10.784,26.952
			c-0.27,0.696-0.448,1.425-0.528,2.168l-6.752,67.472c-0.326,3.249-3.224,5.618-6.472,5.293c-2.586-0.259-4.699-2.176-5.208-4.725
			l-12.192-60.968c-1.921-9.619-11.276-15.859-20.895-13.937c-7.034,1.405-12.532,6.903-13.937,13.937L354.4,298.084
			c-0.641,3.202-3.756,5.277-6.958,4.636c-2.549-0.51-4.465-2.626-4.722-5.212l-6.72-67.48c-0.08-0.743-0.258-1.472-0.528-2.168
			l-10.784-26.952c-3.09-7.672-4.681-15.865-4.688-24.136c-0.011-14.32,11.588-25.937,25.908-25.948
			c6.889-0.005,13.496,2.731,18.364,7.604c10.905,10.866,28.543,10.866,39.448,0c10.115-10.135,26.532-10.152,36.668-0.036
			c4.88,4.871,7.62,11.485,7.612,18.38C448.007,185.043,446.429,193.239,443.352,200.916z"/>
	</g>
</g>
<g>
	<g>
		<path d="M93.504,129.004l22.072-10.976c2.312-1.159,3.922-3.364,4.32-5.92c0.411-2.538-0.422-5.118-2.24-6.936l-40-40
			L66.344,76.484l32.152,32.152l-22.072,11.032c-3.95,1.98-5.546,6.787-3.566,10.737c0.382,0.763,0.884,1.459,1.486,2.063l40,40
			l11.312-11.312L93.504,129.004z"/>
	</g>
</g>
<g>
	<g>
		<path d="M184,182.828v8h16v-8c0-4.418,3.582-8,8-8v-16C194.745,158.828,184,169.573,184,182.828z"/>
	</g>
</g>
<g>
	<g>
		<path d="M328,182.828v8h16v-8c0-4.418,3.582-8,8-8v-16C338.745,158.828,328,169.573,328,182.828z"/>
	</g>
</g>
<g>
</g>
<g>
</g>
<g>
</g>
<g>
</g>
<g>
</g>
<g>
</g>
<g>
</g>
<g>
</g>
<g>
</g>
<g>
</g>
<g>
</g>
<g>
</g>
<g>
</g>
<g>
</g>
<g>
</g>
</svg>
