<?xml version="1.0" encoding="iso-8859-1"?>
<!-- Generator: Adobe Illustrator 19.0.0, SVG Export Plug-In . SVG Version: 6.00 Build 0)  -->
<svg version="1.1" id="Capa_1" xmlns="http://www.w3.org/2000/svg" xmlns:xlink="http://www.w3.org/1999/xlink" x="0px" y="0px"
	 viewBox="0 0 436.907 436.907" style="enable-background:new 0 0 436.907 436.907;" xml:space="preserve">
<g>
	<g>
		<path d="M338.034,27.532c-12.291,0-23.965,5.533-35.253,10.878c-10.428,4.939-20.272,9.602-29.6,9.602s-19.173-4.663-29.6-9.602
			c-11.288-5.349-22.958-10.878-35.253-10.878c-47.336,0-81.695,51.586-81.695,122.655c0,32.01,7.27,98.471,20.739,158.594
			c16.985,75.807,37.492,114.244,60.952,114.244c16.817,0,23.419-28.911,33.638-80.015c7.008-35.021,17.596-87.945,31.188-88.003
			c18.108,0.065,27.6,53.955,34.533,93.303c7.922,44.995,13.162,74.718,30.348,74.718c55.422,0,81.695-218.849,81.698-272.841
			C419.729,79.114,385.367,27.532,338.034,27.532z M338.171,409.846c-6.68-2.464-13.186-39.393-17.493-63.826
			c-9.015-51.183-18.333-104.11-47.527-104.212c-24.426,0.102-33.993,47.957-44.124,98.615
			c-5.024,25.115-13.431,67.161-20.698,69.403c-35.925,0-68.492-186.914-68.492-259.639c0-63.423,28.805-109.452,68.492-109.452
			c9.329,0,19.173,4.663,29.6,9.602c11.288,5.349,22.961,10.878,35.253,10.878c12.291,0,23.965-5.533,35.253-10.878
			c10.428-4.939,20.275-9.602,29.6-9.602c39.687,0,68.492,46.029,68.492,109.452C406.526,222.911,373.96,409.825,338.171,409.846z"
			/>
	</g>
</g>
<g>
	<g>
		<path d="M221.978,54.613c-33.881,0-61.44,27.563-61.44,61.44c0,3.768,3.055,6.827,6.827,6.827c3.775,0,6.827-3.058,6.827-6.827
			c0-26.351,21.439-47.787,47.787-47.787c3.772,0,6.827-3.058,6.827-6.827C228.804,57.672,225.749,54.613,221.978,54.613z"/>
	</g>
</g>
<g>
	<g>
		<path d="M75.723,408.743L58.138,295.612V20.49C58.138,9.192,48.952,0,37.658,0c-11.295,0-20.48,9.199-20.48,20.504v389.089
			c0,15.06,12.274,27.314,27.368,27.314h6.707c7.492,0,14.186-2.949,18.852-8.301C74.757,423.267,76.757,416.253,75.723,408.743z
			 M59.814,419.632c-2.034,2.335-5.076,3.622-8.561,3.622h-6.707c-7.56,0-13.715-6.127-13.715-13.66V20.504
			c0-3.84,3-6.851,6.827-6.851c3.768,0,6.827,3.065,6.83,6.837v275.644c0,0.352,0.024,0.703,0.078,1.051L62.22,410.723
			C62.694,414.15,61.834,417.311,59.814,419.632z"/>
	</g>
</g>
<g>
	<g>
		<path d="M99.664,20.48H58.138c-3.772,0-6.827,3.058-6.827,6.827s3.055,6.827,6.827,6.827h41.527c3.775,0,6.827-3.058,6.827-6.827
			S103.436,20.48,99.664,20.48z"/>
	</g>
</g>
<g>
	<g>
		<path d="M99.664,47.787H58.138c-3.772,0-6.827,3.058-6.827,6.827c0,3.768,3.055,6.827,6.827,6.827h41.527
			c3.775,0,6.827-3.058,6.827-6.827C106.491,50.845,103.436,47.787,99.664,47.787z"/>
	</g>
</g>
<g>
	<g>
		<path d="M99.664,75.093H58.138c-3.772,0-6.827,3.058-6.827,6.827s3.055,6.827,6.827,6.827h41.527c3.775,0,6.827-3.058,6.827-6.827
			S103.436,75.093,99.664,75.093z"/>
	</g>
</g>
<g>
	<g>
		<path d="M99.664,102.4H58.138c-3.772,0-6.827,3.058-6.827,6.827c0,3.768,3.055,6.827,6.827,6.827h41.527
			c3.775,0,6.827-3.058,6.827-6.827C106.491,105.458,103.436,102.4,99.664,102.4z"/>
	</g>
</g>
<g>
	<g>
		<path d="M99.664,129.707H58.138c-3.772,0-6.827,3.058-6.827,6.827s3.055,6.827,6.827,6.827h41.527
			c3.775,0,6.827-3.058,6.827-6.827S103.436,129.707,99.664,129.707z"/>
	</g>
</g>
<g>
</g>
<g>
</g>
<g>
</g>
<g>
</g>
<g>
</g>
<g>
</g>
<g>
</g>
<g>
</g>
<g>
</g>
<g>
</g>
<g>
</g>
<g>
</g>
<g>
</g>
<g>
</g>
<g>
</g>
</svg>
