<?xml version="1.0" encoding="iso-8859-1"?>
<!-- Generator: Adobe Illustrator 19.0.0, SVG Export Plug-In . SVG Version: 6.00 Build 0)  -->
<svg version="1.1" id="Capa_1" xmlns="http://www.w3.org/2000/svg" xmlns:xlink="http://www.w3.org/1999/xlink" x="0px" y="0px"
	 viewBox="0 0 480 480" style="enable-background:new 0 0 480 480;" xml:space="preserve">
<g>
	<g>
		<path d="M440,0H80C40.329,0.068,6.693,29.181,0.936,68.432C0.344,69.53,0.023,70.753,0,72v216c0,4.418,3.582,8,8,8h384
			c4.418,0,8-3.582,8-8v-41.44l47.84-9.6c18.668-3.773,32.108-20.155,32.16-39.2V40C479.974,17.92,462.08,0.026,440,0z M64,280H16
			v-40c0-13.255,10.745-24,24-24s24,10.745,24,24V280z M128,280H80v-40c0-13.255,10.745-24,24-24s24,10.745,24,24V280z M192,280h-48
			v-40c0-13.255,10.745-24,24-24s24,10.745,24,24V280z M256,280h-48v-40c0-13.255,10.745-24,24-24s24,10.745,24,24V280z M320,280
			h-48v-40c0-13.255,10.745-24,24-24s24,10.745,24,24V280z M384,280h-48v-40c0-13.255,10.745-24,24-24s24,10.745,24,24V280z
			 M464,197.768c-0.03,11.431-8.093,21.265-19.296,23.536l-45.968,9.192c-5.123-21.357-26.589-34.519-47.946-29.396
			c-9.149,2.194-17.224,7.562-22.79,15.148c-12.913-17.673-37.708-21.532-55.382-8.618c-3.3,2.411-6.207,5.318-8.618,8.618
			c-12.913-17.673-37.708-21.532-55.382-8.618c-3.3,2.411-6.207,5.318-8.618,8.618c-12.913-17.673-37.708-21.532-55.382-8.618
			c-3.3,2.411-6.207,5.318-8.618,8.618c-12.913-17.673-37.708-21.532-55.382-8.618c-3.3,2.411-6.207,5.318-8.618,8.618
			c-12.831-17.613-37.511-21.489-55.124-8.657c-0.295,0.215-0.587,0.434-0.876,0.657v-80.296c0.32,0.416,0.696,0.8,1.016,1.208
			c1.128,1.432,2.312,2.84,3.528,4.176c0.68,0.76,1.352,1.528,2.064,2.264c1.44,1.496,2.968,2.904,4.528,4.288
			c0.56,0.496,1.088,1.024,1.656,1.504c2.168,1.813,4.43,3.512,6.776,5.088c0.512,0.344,1.064,0.632,1.6,0.96
			c1.872,1.192,3.776,2.336,5.744,3.376c0.888,0.464,1.808,0.872,2.712,1.304c1.688,0.8,3.384,1.6,5.128,2.264
			c1.024,0.4,2.056,0.8,3.096,1.128c1.736,0.608,3.488,1.144,5.28,1.6c1.048,0.288,2.096,0.576,3.2,0.8
			c1.944,0.44,3.92,0.8,5.912,1.08c0.936,0.136,1.864,0.32,2.816,0.432C74.025,159.78,77.01,159.972,80,160h384V197.768z M464,96H80
			c-8.837,0-16-7.163-16-16s7.163-16,16-16h384V96z M464,48H80c-17.673,0-32,14.327-32,32s14.327,32,32,32h384v32H80
			c-35.346,0-64-28.654-64-64c0-35.346,28.654-64,64-64h360c13.255,0,24,10.745,24,24V48z"/>
	</g>
</g>
<g>
	<g>
		<path d="M447.84,387.032L400,377.44V336c0-4.418-3.582-8-8-8H8c-4.418,0-8,3.582-8,8v104c0.026,22.08,17.92,39.974,40,40h432
			c4.418,0,8-3.582,8-8v-45.768C479.948,407.187,466.508,390.805,447.84,387.032z M336,344h48v40c0,13.255-10.745,24-24,24
			s-24-10.745-24-24V344z M272,344h48v40c0,13.255-10.745,24-24,24s-24-10.745-24-24V344z M208,344h48v40c0,13.255-10.745,24-24,24
			s-24-10.745-24-24V344z M144,344h48v40c0,13.255-10.745,24-24,24s-24-10.745-24-24V344z M80,344h48v40c0,13.255-10.745,24-24,24
			s-24-10.745-24-24V344z M16,344h48v40c0,13.255-10.745,24-24,24s-24-10.745-24-24V344z M464,464H40c-13.255,0-24-10.745-24-24
			v-24.208c17.25,13.315,42.027,10.126,55.343-7.124c0.223-0.289,0.442-0.581,0.657-0.876c12.913,17.673,37.708,21.532,55.382,8.618
			c3.3-2.411,6.207-5.318,8.618-8.618c12.913,17.673,37.708,21.532,55.382,8.618c3.3-2.411,6.207-5.318,8.618-8.618
			c12.913,17.673,37.708,21.532,55.382,8.618c3.3-2.411,6.207-5.318,8.618-8.618c12.913,17.673,37.708,21.532,55.382,8.618
			c3.3-2.411,6.207-5.318,8.618-8.618c12.992,17.709,37.879,21.533,55.588,8.542c7.586-5.565,12.953-13.64,15.148-22.789v-0.04
			l45.968,9.192c11.203,2.271,19.266,12.105,19.296,23.536V464z"/>
	</g>
</g>
<g>
</g>
<g>
</g>
<g>
</g>
<g>
</g>
<g>
</g>
<g>
</g>
<g>
</g>
<g>
</g>
<g>
</g>
<g>
</g>
<g>
</g>
<g>
</g>
<g>
</g>
<g>
</g>
<g>
</g>
</svg>
