<?xml version="1.0" encoding="iso-8859-1"?>
<!-- Generator: Adobe Illustrator 19.0.0, SVG Export Plug-In . SVG Version: 6.00 Build 0)  -->
<svg version="1.1" id="Capa_1" xmlns="http://www.w3.org/2000/svg" xmlns:xlink="http://www.w3.org/1999/xlink" x="0px" y="0px"
	 viewBox="0 0 424.617 424.617" style="enable-background:new 0 0 424.617 424.617;" xml:space="preserve">
<g>
	<g>
		<path d="M335.12,87.977c-1.294-3.41-5.134-5.12-8.506-3.826c-3.406,1.294-5.12,5.106-3.826,8.513
			c6.564,17.289,10.032,37.724,10.032,59.098c0,72.721-32.567,259.639-68.352,259.659c-6.687-2.464-13.186-39.397-17.493-63.829
			c-9.015-51.183-18.34-104.107-47.527-104.209c-24.422,0.106-33.993,47.954-44.128,98.611
			c-5.024,25.119-13.431,67.168-20.698,69.41c-35.925,0-68.492-186.914-68.492-259.639c0-63.423,28.805-109.452,68.492-109.452
			c9.329,0,19.173,4.663,29.6,9.602c11.288,5.349,22.961,10.878,35.253,10.878c12.291,0,23.965-5.533,35.253-10.878
			c10.428-4.939,20.275-9.602,29.6-9.602c5.359,0,10.605,0.836,15.585,2.478c3.465,1.14,7.192-0.734,8.332-4.195
			c1.14-3.461-0.737-7.192-4.198-8.335c-6.311-2.086-12.947-3.144-19.719-3.144c-12.291,0-23.965,5.533-35.253,10.878
			c-10.428,4.939-20.272,9.602-29.6,9.602c-9.329,0-19.173-4.663-29.6-9.602c-11.288-5.349-22.958-10.878-35.253-10.878
			c-47.336,0-81.695,51.586-81.695,122.655c0,32.01,7.274,98.471,20.739,158.597c16.985,75.807,37.492,114.244,60.952,114.244
			c16.818,0,23.419-28.914,33.645-80.019c7.001-35.021,17.589-87.941,31.181-87.999c18.104,0.065,27.6,53.951,34.526,93.297
			c7.929,44.998,13.169,74.725,30.355,74.725c55.422,0,81.695-218.849,81.695-272.852C346.019,128.807,342.254,106.75,335.12,87.977
			z"/>
	</g>
</g>
<g>
	<g>
		<path d="M148.271,56.202c-33.881,0-61.44,27.563-61.44,61.44c0,3.768,3.055,6.827,6.827,6.827c3.775,0,6.827-3.058,6.827-6.827
			c0-26.351,21.439-47.787,47.787-47.787c3.772,0,6.827-3.058,6.827-6.827C155.098,59.261,152.043,56.202,148.271,56.202z"/>
	</g>
</g>
<g>
	<g>
		<path d="M368.137,62.008l-37.96-20.763L309.411,3.282c-2.386-4.379-9.588-4.372-11.974,0L276.67,41.245l-37.96,20.763
			c-2.195,1.198-3.553,3.492-3.553,5.99c0,2.499,1.359,4.792,3.553,5.99l37.96,20.763l20.767,37.963
			c1.195,2.188,3.495,3.55,5.987,3.55c2.495,0,4.796-1.359,5.987-3.55l20.767-37.963l37.96-20.763
			c2.195-1.198,3.553-3.492,3.553-5.99S370.332,63.206,368.137,62.008z M321.876,83.731c-1.147,0.628-2.086,1.57-2.714,2.714
			l-15.739,28.768l-15.732-28.768c-0.628-1.143-1.567-2.086-2.714-2.714l-28.768-15.732l28.768-15.732
			c1.147-0.628,2.086-1.57,2.714-2.714l15.732-28.768l15.739,28.768c0.628,1.143,1.567,2.086,2.714,2.714l28.761,15.732
			L321.876,83.731z"/>
	</g>
</g>
<g>
	<g>
		<path d="M254.77,142.785l-22.781-12.459l-12.466-22.787c-2.386-4.372-9.588-4.372-11.974,0l-12.466,22.787l-22.781,12.459
			c-2.195,1.198-3.553,3.492-3.553,5.99c0,2.499,1.359,4.792,3.553,5.99l22.781,12.462l12.466,22.784
			c1.195,2.191,3.495,3.55,5.987,3.55c2.495,0,4.796-1.359,5.987-3.55l12.466-22.784l22.781-12.462
			c2.195-1.198,3.553-3.492,3.553-5.99C258.324,146.277,256.965,143.983,254.77,142.785z M223.685,156.209
			c-1.147,0.628-2.086,1.57-2.714,2.714l-7.434,13.585l-7.434-13.585c-0.628-1.143-1.567-2.086-2.714-2.714l-13.585-7.434
			l13.585-7.431c1.147-0.628,2.086-1.57,2.714-2.714l7.434-13.588l7.434,13.588c0.628,1.143,1.567,2.086,2.714,2.714l13.585,7.431
			L223.685,156.209z"/>
	</g>
</g>
<g>
</g>
<g>
</g>
<g>
</g>
<g>
</g>
<g>
</g>
<g>
</g>
<g>
</g>
<g>
</g>
<g>
</g>
<g>
</g>
<g>
</g>
<g>
</g>
<g>
</g>
<g>
</g>
<g>
</g>
</svg>
