<?xml version="1.0" encoding="iso-8859-1"?>
<!-- Generator: Adobe Illustrator 19.0.0, SVG Export Plug-In . SVG Version: 6.00 Build 0)  -->
<svg version="1.1" id="Capa_1" xmlns="http://www.w3.org/2000/svg" xmlns:xlink="http://www.w3.org/1999/xlink" x="0px" y="0px"
	 viewBox="0 0 480 480" style="enable-background:new 0 0 480 480;" xml:space="preserve">
<g>
	<g>
		<path d="M366.728,302.632l-71.8-19.576c-0.344-0.096-0.694-0.168-1.048-0.216c-7.937-1.079-13.861-7.846-13.88-15.856v-21.808
			c24.719-14.272,39.962-40.633,40-69.176c17.673,0,32-14.327,32-32c-0.026-7.723-2.871-15.17-8-20.944V83.2
			c-0.065-19.651-10.375-37.846-27.2-48l-13.168-7.904C301.286,11.628,287.842,0.027,272,0H168
			c-4.418-0.001-8.001,3.581-8.001,7.999c0,1.581,0.468,3.126,1.345,4.441l11.344,17.016L163.2,35.2
			c-16.825,10.154-27.135,28.349-27.2,48v39.88c-5.124,5.767-7.968,13.205-8,20.92c0,17.673,14.327,32,32,32
			c0.038,28.543,15.281,54.904,40,69.176v21.808c-0.019,8.009-5.943,14.777-13.88,15.856c-0.354,0.048-0.704,0.12-1.048,0.216
			l-71.8,19.576C88.928,309.311,72.04,331.421,72,356.664V480h16v-72h40v72h16V368h-16v24H88v-35.336
			c0.033-18.029,12.095-33.819,29.48-38.592l71.2-19.424L232,378.04V480h16V378.04l43.304-79.392l71.2,19.424
			c17.392,4.767,29.461,20.559,29.496,38.592V392h-40v-24h-16v112h16v-72h40v72h16V356.664
			C407.96,331.421,391.072,309.311,366.728,302.632z M304,160H176v-38.704L189.768,80h100.464L304,121.296V160z M336,144
			c0,8.837-7.163,16-16,16v-32C328.837,128,336,135.163,336,144z M160,160c-8.837,0-16-7.163-16-16s7.163-16,16-16V160z M160,112
			c-2.704,0.034-5.393,0.416-8,1.136V83.2c0.035-14.05,7.398-27.063,19.424-34.328l16.696-10.016
			c3.787-2.275,5.013-7.19,2.738-10.977c-0.065-0.108-0.132-0.214-0.202-0.319L182.944,16H272c8.837,0,16,7.163,16,16
			c0.001,2.808,1.473,5.41,3.88,6.856l16.696,10.016C320.602,56.137,327.965,69.15,328,83.2v29.96c-2.606-0.729-5.295-1.118-8-1.16
			h-2.24l-14.176-42.528c-1.088-3.266-4.142-5.469-7.584-5.472H184c-3.442,0.003-6.496,2.206-7.584,5.472L162.24,112H160z M176,176
			h128c0,35.346-28.654,64-64,64C204.654,240,176,211.346,176,176z M240,359.296l-36.552-67.016
			c7.879-6.03,12.516-15.374,12.552-25.296v-14.672c7.765,2.445,15.859,3.689,24,3.688c8.141,0.001,16.235-1.243,24-3.688v14.672
			c0.036,9.922,4.673,19.266,12.552,25.296L240,359.296z"/>
	</g>
</g>
<g>
	<g>
		<circle cx="208" cy="136" r="16"/>
	</g>
</g>
<g>
	<g>
		<circle cx="272" cy="136" r="16"/>
	</g>
</g>
<g>
	<g>
		<rect x="264" y="408" width="56" height="16"/>
	</g>
</g>
<g>
</g>
<g>
</g>
<g>
</g>
<g>
</g>
<g>
</g>
<g>
</g>
<g>
</g>
<g>
</g>
<g>
</g>
<g>
</g>
<g>
</g>
<g>
</g>
<g>
</g>
<g>
</g>
<g>
</g>
</svg>
