<?xml version="1.0" encoding="iso-8859-1"?>
<!-- Generator: Adobe Illustrator 19.0.0, SVG Export Plug-In . SVG Version: 6.00 Build 0)  -->
<svg version="1.1" id="Capa_1" xmlns="http://www.w3.org/2000/svg" xmlns:xlink="http://www.w3.org/1999/xlink" x="0px" y="0px"
	 viewBox="0 0 480.948 480.948" style="enable-background:new 0 0 480.948 480.948;" xml:space="preserve">
<g>
	<g>
		<path d="M174.442,450.796c-16.996-21.267-18.603-50.984-4-73.96l-13.512-8.576c-17.688,27.869-16.375,63.755,3.304,90.256
			l-0.04,21.28h16v-24C176.195,453.978,175.577,452.215,174.442,450.796z"/>
	</g>
</g>
<g>
	<g>
		<path d="M372.058,368.26l-13.512,8.576c14.592,22.985,12.969,52.701-4.04,73.96c-1.135,1.419-1.753,3.183-1.752,5v24h16v-21.28
			C388.432,432.015,389.746,396.128,372.058,368.26z"/>
	</g>
</g>
<g>
	<g>
		<path d="M375.874,290.308l-57.512-7.664c-7.938-1.078-13.865-7.845-13.888-15.856v-21.816
			c11.749-6.829,21.577-16.522,28.568-28.176c10.463,28.206,37.348,46.944,67.432,47c4.418,0,8-3.582,8-8v-112
			c0.003-31.392-20.351-59.161-50.288-68.608C346.68,23.432,295.396-9.197,243.641,2.308c-43.838,9.745-75.062,48.58-75.167,93.487
			v20.448c-15.274,8.776-20.542,28.272-11.766,43.546c5.708,9.935,16.308,16.045,27.766,16.006
			c0.038,28.543,15.281,54.904,40,69.176v21.816c-0.023,8.011-5.95,14.778-13.888,15.856l-24.64,3.288l-1.16-0.336l-0.144,0.504
			l-31.568,4.208l2.112,15.864l24.656-3.288l-11.056,38.712c-1.113,3.934,0.919,8.074,4.712,9.6l33,13.192l-5.6,16.848
			c-1.314,3.947,0.616,8.242,4.44,9.88l51.136,21.952v66.728h16v-66.728l51.152-21.92c3.824-1.638,5.754-5.933,4.44-9.88
			l-5.808-17.424l25.792-12.848c3.084-1.54,4.835-4.884,4.344-8.296l-5.728-40.104l27.096,3.616
			c19.83,2.697,34.639,19.596,34.712,39.608v133.976h16V345.82C424.395,317.781,403.656,294.092,375.874,290.308z M392.474,143.796
			v103.432c-27.535-4.013-47.965-27.606-48-55.432v-8h-0.408c0.269-2.658,0.406-5.328,0.408-8
			c17.616,0.061,31.945-14.17,32.006-31.786c0.039-11.459-6.07-22.058-16.006-27.766V95.796c0-0.88-0.112-1.728-0.128-2.6
			C379.949,102.419,392.466,122.131,392.474,143.796z M360.474,143.796c0,8.837-7.163,16-16,16v-32
			C353.31,127.796,360.474,134.959,360.474,143.796z M240.474,19.484c42.148-13.255,87.06,10.167,100.315,52.315
			c2.442,7.765,3.685,15.857,3.685,23.997v16h-2.312c-7.459-19.279-26-31.992-46.672-32h-55.016V19.484z M295.49,95.796
			c15.436-0.003,28.957,10.346,32.984,25.248v38.752h-128v-38.752c4.027-14.902,17.548-25.251,32.984-25.248H295.49z
			 M184.474,159.796c-8.837,0-16-7.163-16-16s7.163-16,16-16V159.796z M186.786,111.796h-2.312v-16
			c0.038-28.543,15.281-54.904,40-69.176v54.016C207.346,83.759,193.072,95.56,186.786,111.796z M200.474,175.796h128
			c-0.04,35.33-28.67,63.96-64,64C229.144,239.756,200.513,211.125,200.474,175.796z M301.898,292.684l-17.24,43.112H244.29
			l-17.24-43.112c8.377-5.972,13.372-15.608,13.424-25.896v-14.68c15.622,4.917,32.378,4.917,48,0v14.68
			C288.525,277.076,293.521,286.711,301.898,292.684z M218.394,379.34l5.672-17.016c1.341-4.019-0.683-8.386-4.616-9.96
			l-33.304-13.312l10.992-38.456l15.032-2.008l37.704,94.248L218.394,379.34z M265.458,383.796h-1.968l-12.8-32h27.568
			L265.458,383.796z M308.898,352.636c-3.558,1.785-5.262,5.913-4,9.688l5.672,17.016l-31.496,13.496l37.704-94.264l13.408,1.792
			l5.552,38.856L308.898,352.636z"/>
	</g>
</g>
<g>
	<g>
		<circle cx="232.474" cy="135.796" r="16"/>
	</g>
</g>
<g>
	<g>
		<circle cx="296.474" cy="135.796" r="16"/>
	</g>
</g>
<g>
	<g>
		<rect x="288.474" y="423.796" width="16" height="16"/>
	</g>
</g>
<g>
	<g>
		<path d="M121.194,303.916c-0.798-0.08-1.599-0.12-2.4-0.12h-38.32c-13.255,0-24,10.745-24,24v152h16v-152c0-4.418,3.582-8,8-8
			h38.32c4.418-0.022,8.018,3.542,8.04,7.96c0.001,0.281-0.012,0.561-0.04,0.84l-4.8,48c-0.411,4.088-3.852,7.2-7.96,7.2h-25.56v16
			h20.28l11.8,81.152l15.84-2.304l-11.824-81.248c7.471-3.652,12.508-10.923,13.304-19.2l4.8-48
			C143.999,317.007,134.383,305.241,121.194,303.916z"/>
	</g>
</g>
<g>
	<g>
		<path d="M118.13,250.14l-13.656-13.656v-60.688c0-2.122-0.844-4.156-2.344-5.656l-11.872-11.872
			c-2.379-2.382-2.377-6.242,0.005-8.621c0.672-0.672,1.493-1.177,2.395-1.475l14.4-4.8l-5.056-15.2l-14.36,4.8
			c-11.578,3.855-17.839,16.367-13.984,27.945c1.085,3.258,2.915,6.219,5.344,8.647l9.472,9.544v57.376L74.818,250.14
			c-1.5,1.5-2.344,3.534-2.344,5.656v32h16v-28.688l8-8l8,8v28.688h16v-32C120.473,253.674,119.63,251.64,118.13,250.14z"/>
	</g>
</g>
<g>
</g>
<g>
</g>
<g>
</g>
<g>
</g>
<g>
</g>
<g>
</g>
<g>
</g>
<g>
</g>
<g>
</g>
<g>
</g>
<g>
</g>
<g>
</g>
<g>
</g>
<g>
</g>
<g>
</g>
</svg>
