<?xml version="1.0" encoding="iso-8859-1"?>
<!-- Generator: Adobe Illustrator 19.0.0, SVG Export Plug-In . SVG Version: 6.00 Build 0)  -->
<svg version="1.1" id="Capa_1" xmlns="http://www.w3.org/2000/svg" xmlns:xlink="http://www.w3.org/1999/xlink" x="0px" y="0px"
	 viewBox="0 0 480.224 480.224" style="enable-background:new 0 0 480.224 480.224;" xml:space="preserve">
<g>
	<g>
		<path d="M472,0.112H8c-4.418,0-8,3.582-8,8v144c0,4.418,3.582,8,8,8h248v-16h-8v-56c0-13.255,10.745-24,24-24h16
			c13.255,0,24,10.745,24,24v24h16v-24c0-13.255,10.745-24,24-24h16c13.255,0,24,10.745,24,24v56h-8v16h88c4.418,0,8-3.582,8-8v-144
			C480,3.694,476.418,0.112,472,0.112z M72,144.112H16v-60c0-11.046,8.954-20,20-20h16c11.046,0,20,8.954,20,20V144.112z
			 M152,144.112H88v-56c0-13.255,10.745-24,24-24h16c13.255,0,24,10.745,24,24V144.112z M232,144.112h-64v-56
			c0-13.255,10.745-24,24-24h16c13.255,0,24,10.745,24,24V144.112z M464,144.112h-56v-60c0-11.046,8.954-20,20-20h16
			c11.046,0,20,8.954,20,20V144.112z M464,54.208c-5.911-3.977-12.875-6.1-20-6.096h-16c-11.529,0.027-22.344,5.589-29.072,14.952
			c-7.512-9.412-18.886-14.911-30.928-14.952h-16c-12.64,0.035-24.513,6.064-32,16.248c-7.487-10.184-19.36-16.213-32-16.248h-16
			c-12.64,0.035-24.513,6.064-32,16.248c-7.487-10.184-19.36-16.213-32-16.248h-16c-12.64,0.035-24.513,6.064-32,16.248
			c-7.487-10.184-19.36-16.213-32-16.248h-16c-12.042,0.041-23.416,5.54-30.928,14.952C74.344,53.701,63.529,48.139,52,48.112H36
			c-7.125-0.004-14.089,2.119-20,6.096V16.112h448V54.208z"/>
	</g>
</g>
<g>
	<g>
		<path d="M16,464.112v-38.096c5.911,3.977,12.875,6.1,20,6.096h16c11.529-0.027,22.344-5.589,29.072-14.952
			c7.512,9.412,18.886,14.911,30.928,14.952h16c12.64-0.035,24.513-6.064,32-16.248c7.487,10.184,19.36,16.213,32,16.248h16
			c12.64-0.035,24.513-6.064,32-16.248c7.487,10.184,19.36,16.213,32,16.248h16c12.64-0.035,24.513-6.064,32-16.248
			c7.487,10.184,19.36,16.213,32,16.248h16c7.022,0.003,13.921-1.845,20-5.36l-8-13.84c-3.651,2.099-7.789,3.202-12,3.2h-16
			c-13.255,0-24-10.745-24-24v-56h16v-16H8c-4.418,0-8,3.582-8,8v144c0,4.418,3.582,8,8,8h392v-16H16z M248,336.112h64v56
			c0,13.255-10.745,24-24,24h-16c-13.255,0-24-10.745-24-24V336.112z M168,336.112h64v56c0,13.255-10.745,24-24,24h-16
			c-13.255,0-24-10.745-24-24V336.112z M88,336.112h64v56c0,13.255-10.745,24-24,24h-16c-13.255,0-24-10.745-24-24V336.112z
			 M16,336.112h56v60c0,11.046-8.954,20-20,20H36c-11.046,0-20-8.954-20-20V336.112z"/>
	</g>
</g>
<g>
	<g>
		<path d="M360,208.112h-27.056l-8-16h54.488l87.016,147.4l13.776-8.136l-89.336-151.328c-1.438-2.438-4.057-3.935-6.888-3.936h-16
			v-8c-0.026-22.08-17.92-39.974-40-40h-16c-22.08,0.026-39.974,17.92-40,40v80c0,4.418,3.582,8,8,8h50.728l93.92,219.152
			l14.704-6.304l-91.224-212.848H360c3.908-0.029,7.205-2.915,7.752-6.784l96.432,191.712l14.304-7.2L367.152,212.52
			C365.793,209.816,363.026,208.111,360,208.112z M352,240.112h-64v-72c0-13.255,10.745-24,24-24h16c13.255,0,24,10.745,24,24v8h-40
			c-4.418-0.024-8.019,3.538-8.044,7.956c-0.007,1.256,0.282,2.496,0.844,3.62l16,32c1.362,2.725,4.153,4.441,7.2,4.424h24V240.112z
			"/>
	</g>
</g>
<g>
</g>
<g>
</g>
<g>
</g>
<g>
</g>
<g>
</g>
<g>
</g>
<g>
</g>
<g>
</g>
<g>
</g>
<g>
</g>
<g>
</g>
<g>
</g>
<g>
</g>
<g>
</g>
<g>
</g>
</svg>
