<?xml version="1.0" encoding="iso-8859-1"?>
<!-- Generator: Adobe Illustrator 19.0.0, SVG Export Plug-In . SVG Version: 6.00 Build 0)  -->
<svg version="1.1" id="Capa_1" xmlns="http://www.w3.org/2000/svg" xmlns:xlink="http://www.w3.org/1999/xlink" x="0px" y="0px"
	 viewBox="0 0 403.285 403.285" style="enable-background:new 0 0 403.285 403.285;" xml:space="preserve">
<g>
	<g>
		<path d="M111.019,8.704c-12.629,0-24.917,5.12-33.792,13.995c-2.731,2.731-2.731,6.827,0,9.557c2.731,2.731,6.827,2.731,9.557,0
			c6.485-6.485,15.019-9.899,24.235-9.899c18.773,0,34.133,15.36,34.133,34.133c0,18.773-15.36,34.133-34.133,34.133
			c-3.755,0-6.827,3.072-6.827,6.827v35.499l-0.341,3.413c-0.341,3.755,2.389,7.168,6.144,7.509c0.341,0,0.341,0,0.683,0
			c3.755,0,6.485-2.731,6.827-6.144l0.341-33.792c23.211-3.413,40.96-23.552,40.96-47.445
			C158.805,30.208,137.301,8.704,111.019,8.704z"/>
	</g>
</g>
<g>
	<g>
		<path d="M137.984,130.219H83.371c-3.755,0-6.827,3.072-6.827,6.827v34.133c0,3.755,3.072,6.827,6.827,6.827h54.613
			c3.755,0,6.827-3.072,6.827-6.827v-34.133C144.811,133.291,141.739,130.219,137.984,130.219z M131.157,164.352h-40.96v-20.48
			h40.96V164.352z"/>
	</g>
</g>
<g>
	<g>
		<path d="M274.517,82.432c-3.755,0-6.827,3.072-6.827,6.827v47.787c0,3.755,3.072,6.827,6.827,6.827
			c3.755,0,6.827-3.072,6.827-6.827V89.259C281.344,85.504,278.272,82.432,274.517,82.432z"/>
	</g>
</g>
<g>
	<g>
		<path d="M312.064,15.872c-21.163-21.163-55.637-21.163-76.8,0s-21.163,55.637,0,76.8c10.24,10.24,23.893,16.043,38.571,16.043
			c14.677,0,28.331-5.461,38.229-15.701c10.24-10.24,16.043-23.893,16.043-38.571S322.304,26.112,312.064,15.872z M302.848,83.456
			c-7.509,7.509-18.091,11.947-29.013,11.947c-10.923,0-21.163-4.096-29.013-11.947c-16.043-16.043-16.043-42.325,0-58.368
			c7.851-7.851,18.432-11.947,29.013-11.947c10.581,0,21.163,4.096,29.013,12.288c7.509,7.509,11.947,18.091,11.947,29.013
			S310.699,75.605,302.848,83.456z"/>
	</g>
</g>
<g>
	<g>
		<path d="M301.824,130.219h-54.613c-3.755,0-6.827,3.072-6.827,6.827v34.133c0,3.755,3.072,6.827,6.827,6.827h54.613
			c3.755,0,6.827-3.072,6.827-6.827v-34.133C308.651,133.291,305.579,130.219,301.824,130.219z M294.997,164.352h-40.96v-20.48
			h40.96V164.352z"/>
	</g>
</g>
<g>
	<g>
		<path d="M301.483,164.352h-54.272c-3.755,0-6.827,3.072-6.827,6.827v197.973c0,18.773,15.36,34.133,34.133,34.133
			c18.773,0,34.133-15.36,33.792-34.133V171.179C308.309,167.424,305.237,164.352,301.483,164.352z M294.997,369.152
			c0,11.264-9.216,20.48-20.48,20.48c-11.264,0-20.48-9.216-20.48-20.48V178.005h40.96V369.152z"/>
	</g>
</g>
<g>
	<g>
		<path d="M137.643,164.352H83.371c-3.755,0-6.827,3.072-6.827,6.827v197.973c0,18.773,15.36,34.133,34.133,34.133
			c18.773,0,34.133-15.36,33.792-34.133V171.179C144.469,167.424,141.397,164.352,137.643,164.352z M131.499,369.152
			c0,11.264-9.216,20.48-20.48,20.48c-11.264,0-20.48-9.216-20.48-20.48V178.005h40.96V369.152z"/>
	</g>
</g>
<g>
</g>
<g>
</g>
<g>
</g>
<g>
</g>
<g>
</g>
<g>
</g>
<g>
</g>
<g>
</g>
<g>
</g>
<g>
</g>
<g>
</g>
<g>
</g>
<g>
</g>
<g>
</g>
<g>
</g>
</svg>
