<?xml version="1.0" encoding="iso-8859-1"?>
<!-- Generator: Adobe Illustrator 19.0.0, SVG Export Plug-In . SVG Version: 6.00 Build 0)  -->
<svg version="1.1" id="Capa_1" xmlns="http://www.w3.org/2000/svg" xmlns:xlink="http://www.w3.org/1999/xlink" x="0px" y="0px"
	 viewBox="0 0 399.372 399.372" style="enable-background:new 0 0 399.372 399.372;" xml:space="preserve">
<g>
	<g>
		<path d="M379.002,24.19c-9.025-9.028-21.026-13.998-33.785-13.998c-3.772,0-6.827,3.058-6.827,6.827
			c0,3.768,3.055,6.827,6.827,6.827c9.114,0,17.685,3.55,24.132,9.998c13.305,13.312,13.305,34.966,0,48.275
			c-6.444,6.448-15.019,9.998-24.132,9.998c-9.12,0-17.691-3.55-24.139-9.998c-2.666-2.666-6.987-2.666-9.653,0l-16.06,16.06
			c-2.666,2.666-2.666,6.987,0,9.653c1.335,1.335,3.079,2,4.826,2s3.495-0.666,4.823-1.997l11.575-11.575
			c8.219,6.171,18.169,9.51,28.628,9.51c12.766,0,24.757-4.97,33.785-13.998C397.629,73.137,397.629,42.823,379.002,24.19z"/>
	</g>
</g>
<g>
	<g>
		<path d="M103.567,296.116c-2.666-2.666-6.987-2.666-9.653,0l-14.421,14.414c-8.213-6.171-18.162-9.51-28.621-9.51
			c-12.766,0-24.764,4.97-33.792,13.998c-18.627,18.633-18.627,48.947,0,67.581c9.025,9.028,21.033,13.998,33.792,13.998
			c3.775,0,6.83-3.062,6.83-6.83s-3.055-6.827-6.827-6.827c-9.12,0-17.691-3.55-24.139-9.998c-13.305-13.312-13.305-34.966,0-48.275
			c6.444-6.448,15.019-9.998,24.139-9.998c9.114,0,17.685,3.55,24.132,9.998c2.666,2.666,6.987,2.666,9.653,0l18.906-18.9
			C106.232,303.107,106.232,298.782,103.567,296.116z"/>
	</g>
</g>
<g>
	<g>
		<path d="M321.774,118.449l-38.502-38.496c-2.666-2.666-6.987-2.666-9.653,0L75.686,277.892c-2.666,2.666-2.666,6.987,0,9.653
			l38.492,38.496c1.28,1.28,3.014,2,4.826,2c1.816,0,3.546-0.72,4.83-2.004l197.939-197.936c1.28-1.28,2-3.017,2-4.826
			S323.054,119.729,321.774,118.449z M119.005,311.558l-28.839-28.843L278.445,94.433l28.846,28.843L119.005,311.558z"/>
	</g>
</g>
<g>
	<g>
		<path d="M199.433,160.815l-72.154-72.154c-2.666-2.666-6.987-2.666-9.653,0L88.66,117.623c-1.28,1.28-2,3.017-2,4.826
			c0,1.809,0.72,3.547,2,4.826l73.653,73.649c1.335,1.335,3.079,2,4.826,2s3.492-0.666,4.826-2c2.666-2.666,2.666-6.987,0-9.653
			l-68.826-68.823l19.313-19.309l67.328,67.328c2.666,2.666,6.987,2.666,9.653,0C202.099,167.802,202.099,163.481,199.433,160.815z"
			/>
	</g>
</g>
<g>
	<g>
		<path d="M310.715,272.097l-69.021-69.024c-2.666-2.666-6.987-2.666-9.653,0s-2.666,6.987,0,9.653l64.191,64.198l-19.313,19.309
			l-64.894-64.898c-2.666-2.666-6.987-2.666-9.653,0c-2.666,2.666-2.666,6.987,0,9.653l69.721,69.724c1.335,1.335,3.079,2,4.826,2
			c1.748,0,3.492-0.669,4.83-2l28.966-28.962c1.28-1.28,2-3.017,2-4.826C312.715,275.114,311.995,273.377,310.715,272.097z"/>
	</g>
</g>
<g>
	<g>
		<path d="M129.255,92.876c-0.181-2.017-1.249-3.847-2.915-5.001L63.586,44.431c-2.707-1.87-6.373-1.553-8.714,0.785l-9.653,9.653
			c-2.331,2.335-2.666,6.001-0.785,8.714l43.438,62.751c1.154,1.666,2.987,2.731,5.001,2.915c0.208,0.017,0.406,0.027,0.614,0.027
			c1.799,0,3.54-0.713,4.83-1.997l28.966-28.962C128.716,96.887,129.436,94.893,129.255,92.876z M94.446,111.841L58.9,60.497
			L60.5,58.9l51.34,35.543L94.446,111.841z"/>
	</g>
</g>
<g>
	<g>
		<path d="M354.945,335.789l-43.448-62.754c-1.154-1.666-2.987-2.731-5.001-2.915c-2.007-0.177-4.007,0.539-5.441,1.973
			l-28.966,28.962c-1.434,1.43-2.154,3.424-1.973,5.441c0.181,2.017,1.249,3.847,2.915,5l62.754,43.445
			c1.181,0.812,2.536,1.212,3.888,1.212c1.758,0,3.506-0.679,4.826-1.993l9.66-9.653
			C356.491,342.172,356.826,338.503,354.945,335.789z M338.871,340.473l-51.34-35.546l17.394-17.398l35.546,51.343L338.871,340.473z
			"/>
	</g>
</g>
<g>
	<g>
		<path d="M65.464,46.84L41.324,3.392c-1.007-1.813-2.799-3.041-4.854-3.331c-2.048-0.27-4.113,0.403-5.581,1.87L1.931,30.893
			c-1.468,1.464-2.154,3.529-1.867,5.584c0.287,2.051,1.522,3.847,3.328,4.854L46.84,65.467c1.003,0.556,2.106,0.829,3.205,0.829
			c1.707,0,3.393-0.662,4.666-1.929l9.653-9.653C66.443,52.629,66.897,49.418,65.464,46.84z M48.899,51.51L17.452,34.041
			L34.04,17.448l17.473,31.447L48.899,51.51z"/>
	</g>
</g>
<g>
	<g>
		<path d="M399.308,362.884c-0.287-2.051-1.522-3.847-3.328-4.854l-43.441-24.132c-2.574-1.427-5.782-0.983-7.875,1.102l-9.66,9.653
			c-2.079,2.086-2.533,5.297-1.099,7.875l24.139,43.445c1.007,1.813,2.799,3.041,4.854,3.331c0.307,0.041,0.608,0.065,0.915,0.065
			c1.741,0,3.42-0.686,4.67-1.939l28.959-28.962C398.909,367.004,399.595,364.939,399.308,362.884z M365.332,381.917l-17.473-31.444
			l2.618-2.611l31.44,17.466L365.332,381.917z"/>
	</g>
</g>
<g>
</g>
<g>
</g>
<g>
</g>
<g>
</g>
<g>
</g>
<g>
</g>
<g>
</g>
<g>
</g>
<g>
</g>
<g>
</g>
<g>
</g>
<g>
</g>
<g>
</g>
<g>
</g>
<g>
</g>
</svg>
