<?xml version="1.0" encoding="iso-8859-1"?>
<!-- Generator: Adobe Illustrator 19.0.0, SVG Export Plug-In . SVG Version: 6.00 Build 0)  -->
<svg version="1.1" id="Capa_1" xmlns="http://www.w3.org/2000/svg" xmlns:xlink="http://www.w3.org/1999/xlink" x="0px" y="0px"
	 viewBox="0 0 480.009 480.009" style="enable-background:new 0 0 480.009 480.009;" xml:space="preserve">
<g>
	<g>
		<path d="M213.565,144.04c-10.049,0.005-19.993,2.047-29.232,6c-25.765,10.976-54.891,10.976-80.656,0
			c-37.776-16.167-81.505,1.352-97.672,39.128c-3.954,9.239-5.995,19.183-6,29.232c0.042,31.233,7.314,62.032,21.248,89.984
			l10.952,21.92l13.6,122.32c1.875,16.893,17.09,29.068,33.983,27.193c13.872-1.54,24.971-12.222,27.041-26.025l17.528-116.872
			c1.613-10.851,11.718-18.34,22.569-16.727c8.649,1.286,15.441,8.077,16.727,16.727l17.528,116.872
			c2.52,16.809,18.19,28.393,34.999,25.873c13.803-2.069,24.485-13.169,26.025-27.041l13.6-122.32l10.952-21.92
			c13.934-27.952,21.206-58.751,21.248-89.984C287.983,177.31,254.655,144.018,213.565,144.04z M252.445,301.256l-11.6,23.2
			c-0.419,0.846-0.69,1.758-0.8,2.696l-13.744,123.704c-0.888,8.108-8.181,13.96-16.289,13.071
			c-6.673-0.731-12.013-5.871-12.999-12.511l-17.528-116.872c-2.951-19.595-21.228-33.088-40.823-30.137
			c-15.57,2.345-27.793,14.567-30.137,30.137L90.997,451.416c-1.198,8.068-8.709,13.637-16.777,12.439
			c-6.64-0.986-11.78-6.326-12.511-12.999L47.957,327.12c-0.111-0.938-0.381-1.85-0.8-2.696l-11.6-23.2
			c-12.822-25.729-19.514-54.077-19.552-82.824c0-32.253,26.147-58.4,58.4-58.4c7.908-0.007,15.734,1.599,23,4.72
			c29.785,12.704,63.463,12.704,93.248,0c29.658-12.676,63.977,1.091,76.653,30.749c3.098,7.248,4.696,15.049,4.699,22.931
			C271.969,247.158,265.275,275.518,252.445,301.256z"/>
	</g>
</g>
<g>
	<g>
		<path d="M447.437,32h-148.12L276.693,9.376C270.682,3.391,262.551,0.021,254.069,0h-93.496
			c-17.979,0.018-32.55,14.589-32.568,32.568V136h16v-23.432c0.009-9.147,7.421-16.559,16.568-16.568h286.864
			c9.147,0.009,16.559,7.421,16.568,16.568V336h-192v16h200c4.418,0,8-3.582,8-8V64.568C479.987,46.589,465.416,32.018,447.437,32z
			 M464.005,84.688c-4.994-3.039-10.722-4.66-16.568-4.688H160.573c-5.846,0.028-11.574,1.649-16.568,4.688v-52.12
			c0.009-9.147,7.421-16.559,16.568-16.568h93.496c4.241,0.01,8.307,1.695,11.312,4.688l24.968,24.968
			c1.5,1.5,3.534,2.344,5.656,2.344h151.432c9.147,0.009,16.559,7.421,16.568,16.568V84.688z"/>
	</g>
</g>
<g>
	<g>
		<rect x="160.005" y="32" width="16" height="16"/>
	</g>
</g>
<g>
	<g>
		<rect x="192.005" y="32" width="56" height="16"/>
	</g>
</g>
<g>
	<g>
		<path d="M60.005,177.056c-16.87,8.934-27.583,26.299-28,45.384V232h16v-9.56c0.478-13.344,8.126-25.389,20-31.496L60.005,177.056z
			"/>
	</g>
</g>
<g>
</g>
<g>
</g>
<g>
</g>
<g>
</g>
<g>
</g>
<g>
</g>
<g>
</g>
<g>
</g>
<g>
</g>
<g>
</g>
<g>
</g>
<g>
</g>
<g>
</g>
<g>
</g>
<g>
</g>
</svg>
