<?xml version="1.0" encoding="iso-8859-1"?>
<!-- Generator: Adobe Illustrator 19.0.0, SVG Export Plug-In . SVG Version: 6.00 Build 0)  -->
<svg version="1.1" id="Capa_1" xmlns="http://www.w3.org/2000/svg" xmlns:xlink="http://www.w3.org/1999/xlink" x="0px" y="0px"
	 viewBox="0 0 389.876 389.876" style="enable-background:new 0 0 389.876 389.876;" xml:space="preserve">
<g>
	<g>
		<path d="M375.901,15.733c-9.025-9.028-21.026-13.998-33.789-13.998c-3.768,0-6.827,3.058-6.827,6.827s3.058,6.827,6.827,6.827
			c9.117,0,17.688,3.55,24.136,9.998c13.305,13.312,13.305,34.966,0,48.275c-13.309,13.305-34.97,13.305-48.275,0
			c-2.666-2.666-6.987-2.666-9.653,0l-17.821,17.821c-2.666,2.666-2.666,6.987,0,9.653c1.335,1.335,3.079,2,4.826,2
			c1.744,0,3.492-0.666,4.83-2.004l13.336-13.336c18.708,14.012,45.421,12.513,62.409-4.482
			C394.534,64.684,394.534,34.363,375.901,15.733z"/>
	</g>
</g>
<g>
	<g>
		<path d="M98.605,289.513c-2.666-2.666-6.987-2.666-9.653,0l-12.568,12.568c-18.695-14.002-45.414-12.51-62.409,4.482
			c-18.633,18.63-18.633,48.951,0,67.581c9.025,9.028,21.026,13.998,33.789,13.998c3.772,0,6.827-3.058,6.827-6.827
			c0-3.768-3.058-6.827-6.827-6.827c-9.117,0-17.688-3.55-24.136-9.998c-13.305-13.312-13.305-34.966,0-48.275
			c13.309-13.305,34.97-13.305,48.275,0c2.666,2.666,6.987,2.666,9.653,0l17.05-17.05C101.271,296.5,101.271,292.179,98.605,289.513
			z"/>
	</g>
</g>
<g>
	<g>
		<path d="M318.659,109.995L280.167,71.5c-1.28-1.28-3.017-2-4.826-2s-3.546,0.72-4.826,2L72.575,269.436
			c-1.28,1.28-2,3.017-2,4.826s0.72,3.546,2,4.826l38.496,38.496c1.335,1.335,3.079,2,4.826,2s3.495-0.666,4.826-2l197.936-197.936
			C321.325,116.983,321.325,112.661,318.659,109.995z M115.897,303.105l-28.843-28.843L275.341,85.979l28.839,28.843
			L115.897,303.105z"/>
	</g>
</g>
<g>
</g>
<g>
</g>
<g>
</g>
<g>
</g>
<g>
</g>
<g>
</g>
<g>
</g>
<g>
</g>
<g>
</g>
<g>
</g>
<g>
</g>
<g>
</g>
<g>
</g>
<g>
</g>
<g>
</g>
</svg>
