<?xml version="1.0" encoding="iso-8859-1"?>
<!-- Generator: Adobe Illustrator 19.0.0, SVG Export Plug-In . SVG Version: 6.00 Build 0)  -->
<svg version="1.1" id="Capa_1" xmlns="http://www.w3.org/2000/svg" xmlns:xlink="http://www.w3.org/1999/xlink" x="0px" y="0px"
	 viewBox="0 0 399.376 399.376" style="enable-background:new 0 0 399.376 399.376;" xml:space="preserve">
<g>
	<g>
		<path d="M310.708,117.629l-28.962-28.962c-2.666-2.666-6.987-2.666-9.653,0L88.664,272.096c-2.666,2.666-2.666,6.987,0,9.653
			l28.962,28.962c1.335,1.335,3.079,2,4.826,2c1.748,0,3.492-0.666,4.826-2l183.429-183.429
			C313.374,124.616,313.374,120.295,310.708,117.629z M122.453,296.232l-19.309-19.309L276.92,103.147l19.309,19.309
			L122.453,296.232z"/>
	</g>
</g>
<g>
	<g>
		<path d="M354.16,54.872l-9.656-9.656c-2.328-2.328-6.001-2.662-8.714-0.785l-62.754,43.448c-1.666,1.154-2.731,2.983-2.915,5.001
			c-0.181,2.017,0.539,4.011,1.973,5.441l28.962,28.962c1.287,1.287,3.024,2,4.826,2c0.205,0,0.406-0.01,0.614-0.027
			c2.017-0.184,3.847-1.253,5.001-2.915l43.448-62.754C356.823,60.872,356.495,57.206,354.16,54.872z M304.926,111.847
			l-17.398-17.398l51.343-35.547l1.601,1.601L304.926,111.847z"/>
	</g>
</g>
<g>
	<g>
		<path d="M127.283,301.052l-28.962-28.962c-1.43-1.43-3.393-2.147-5.441-1.973c-2.017,0.184-3.847,1.253-5,2.915l-43.448,62.754
			c-1.877,2.714-1.55,6.38,0.785,8.714l9.656,9.656c1.321,1.321,3.065,2,4.83,2c1.352,0,2.707-0.399,3.884-1.215l62.754-43.448
			c1.666-1.154,2.731-2.983,2.915-5C129.437,304.475,128.716,302.482,127.283,301.052z M60.501,340.476l-1.601-1.601l35.546-51.343
			l17.398,17.398L60.501,340.476z"/>
	</g>
</g>
<g>
	<g>
		<path d="M397.441,30.893L368.479,1.931c-1.464-1.468-3.526-2.147-5.584-1.87c-2.051,0.29-3.847,1.522-4.854,3.335L333.905,46.84
			c-1.43,2.574-0.98,5.789,1.102,7.871l9.656,9.656c1.27,1.27,2.959,1.932,4.669,1.932c1.092,0,2.195-0.273,3.198-0.833
			l43.445-24.136c1.816-1.007,3.045-2.802,3.335-4.854C399.598,34.422,398.906,32.357,397.441,30.893z M350.477,51.516l-2.618-2.618
			l17.473-31.44l16.589,16.589L350.477,51.516z"/>
	</g>
</g>
<g>
	<g>
		<path d="M64.372,344.667l-9.656-9.656c-2.082-2.082-5.301-2.533-7.871-1.102L3.399,358.044c-1.816,1.007-3.045,2.802-3.335,4.854
			c-0.287,2.055,0.406,4.12,1.87,5.584l28.962,28.962c1.246,1.246,2.929,1.932,4.666,1.932c0.304,0,0.611-0.024,0.922-0.058
			c2.051-0.29,3.847-1.522,4.854-3.335l24.136-43.445C66.904,349.965,66.454,346.749,64.372,344.667z M34.041,381.92l-16.589-16.589
			l31.44-17.473l2.618,2.618L34.041,381.92z"/>
	</g>
</g>
<g>
</g>
<g>
</g>
<g>
</g>
<g>
</g>
<g>
</g>
<g>
</g>
<g>
</g>
<g>
</g>
<g>
</g>
<g>
</g>
<g>
</g>
<g>
</g>
<g>
</g>
<g>
</g>
<g>
</g>
</svg>
