<?xml version="1.0" encoding="iso-8859-1"?>
<!-- Generator: Adobe Illustrator 19.0.0, SVG Export Plug-In . SVG Version: 6.00 Build 0)  -->
<svg version="1.1" id="Capa_1" xmlns="http://www.w3.org/2000/svg" xmlns:xlink="http://www.w3.org/1999/xlink" x="0px" y="0px"
	 viewBox="0 0 396.335 396.335" style="enable-background:new 0 0 396.335 396.335;" xml:space="preserve">
<g>
	<g>
		<path d="M300.288,125.013L271.323,96.05c-2.666-2.666-6.987-2.666-9.653,0l-57.928,57.928c-1.28,1.28-2,3.017-2,4.826
			s0.72,3.546,2,4.826l28.966,28.962c1.335,1.335,3.079,2,4.826,2s3.495-0.666,4.83-2l57.924-57.928c1.28-1.28,2-3.017,2-4.826
			C302.288,128.03,301.568,126.292,300.288,125.013z M237.534,178.114l-19.313-19.309l48.275-48.275l19.313,19.309L237.534,178.114z
			"/>
	</g>
</g>
<g>
	<g>
		<path d="M388.349,7.99c-10.639-10.643-27.959-10.66-38.612-0.01L261.67,96.05c-1.28,1.28-2,3.017-2,4.826s0.72,3.546,2,4.826
			l28.966,28.962c1.335,1.335,3.079,2,4.826,2s3.495-0.666,4.826-1.997l88.067-88.071C398.995,35.955,398.995,18.636,388.349,7.99z
			 M378.703,36.942l-83.241,83.244l-19.313-19.309l83.241-83.244c5.318-5.315,13.974-5.318,19.306,0.01
			C384.017,22.964,384.024,31.624,378.703,36.942z"/>
	</g>
</g>
<g>
	<g>
		<path d="M198.82,177.049c0.881-0.331,1.683-0.846,2.348-1.512l12.066-12.066c2.58-2.577,2.58-6.755,0-9.332
			c-2.574-2.574-6.758-2.574-9.332,0l-11.052,11.056l-166.891,62.6c-2.068,0.778-3.615,2.54-4.113,4.693L0.171,326.16
			c-0.737,3.191,0.98,6.444,4.038,7.636c0.782,0.304,1.594,0.451,2.389,0.451c2.321,0,4.543-1.225,5.748-3.345l39.363-69.509
			l146.794-55.057c3.413-1.28,5.14-5.086,3.86-8.496c-1.28-3.42-5.079-5.147-8.499-3.864l-149.03,55.904
			c-1.451,0.543-2.662,1.577-3.427,2.925l-18.115,31.986l10.612-45.879L198.82,177.049z"/>
	</g>
</g>
<g>
	<g>
		<path d="M242.2,183.104l-19.313-19.309c-2.574-2.58-6.758-2.574-9.332,0l-16.247,16.247c-0.666,0.666-1.178,1.464-1.512,2.348
			L134.943,344.63l-69.506,39.363c-2.854,1.618-4.089,5.082-2.898,8.137c1.007,2.577,3.482,4.205,6.147,4.205
			c0.492,0,0.993-0.058,1.488-0.167l93.672-21.675c2.154-0.498,3.915-2.045,4.693-4.113l62.607-166.888l11.052-11.056
			c1.239-1.236,1.932-2.915,1.932-4.666C244.132,186.019,243.439,184.34,242.2,183.104z M220.802,195.17
			c-0.666,0.666-1.178,1.464-1.512,2.348l-61.863,164.915l-45.879,10.612l31.986-18.115c1.345-0.765,2.383-1.976,2.925-3.427
			l61.198-163.144l10.564-10.568l9.981,9.977L220.802,195.17z"/>
	</g>
</g>
<g>
</g>
<g>
</g>
<g>
</g>
<g>
</g>
<g>
</g>
<g>
</g>
<g>
</g>
<g>
</g>
<g>
</g>
<g>
</g>
<g>
</g>
<g>
</g>
<g>
</g>
<g>
</g>
<g>
</g>
</svg>
