<?xml version="1.0" encoding="iso-8859-1"?>
<!-- Generator: Adobe Illustrator 19.0.0, SVG Export Plug-In . SVG Version: 6.00 Build 0)  -->
<svg version="1.1" id="Capa_1" xmlns="http://www.w3.org/2000/svg" xmlns:xlink="http://www.w3.org/1999/xlink" x="0px" y="0px"
	 viewBox="0 0 382.538 382.538" style="enable-background:new 0 0 382.538 382.538;" xml:space="preserve">
<g>
	<g>
		<path d="M268.576,121.725c-3.239-1.929-7.427-0.857-9.359,2.386l-71.086,119.794L69.121,362.915
			c-7.704,7.701-21.013,7.823-28.959-0.123c-3.854-3.854-5.973-8.974-5.973-14.421s2.12-10.568,5.973-14.421l212.04-212.05
			c2.666-2.666,2.666-6.987,0-9.653c-2.666-2.666-6.987-2.666-9.653,0L30.51,324.293c-6.434,6.431-9.974,14.981-9.974,24.074
			c0,9.093,3.54,17.643,10.093,24.197c6.434,6.431,14.981,9.974,24.074,9.974c9.093,0,17.647-3.543,24.074-9.974l119.613-119.613
			c0.403-0.406,0.754-0.853,1.048-1.345l71.523-120.528C272.884,127.835,271.815,123.647,268.576,121.725z"/>
	</g>
</g>
<g>
	<g>
		<path d="M339.297,1.856c-2.478-2.475-6.851-2.475-9.332,0L229.664,102.16c-1.239,1.236-1.932,2.915-1.932,4.666
			s0.693,3.43,1.932,4.666c14.647,14.64,34.116,22.702,54.822,22.702s40.172-8.059,54.811-22.699
			c14.64-14.64,22.706-34.109,22.706-54.815C362.002,35.969,353.937,16.503,339.297,1.856z M329.965,102.157
			c-12.145,12.151-28.3,18.842-45.479,18.842c-14.967,0-29.146-5.076-40.588-14.411l90.501-90.501
			c9.335,11.441,14.408,25.627,14.408,40.591C348.806,73.857,342.12,90.009,329.965,102.157z"/>
	</g>
</g>
<g>
	<g>
		<path d="M285.452,47.994L243.017,5.559c-2.666-2.666-6.987-2.666-9.653,0c-2.666,2.666-2.666,6.987,0,9.653l42.435,42.431
			c1.335,1.335,3.079,2,4.826,2c1.744,0,3.492-0.666,4.826-1.997C288.117,54.981,288.117,50.66,285.452,47.994z"/>
	</g>
</g>
<g>
	<g>
		<path d="M120.359,319.805l-34.133-34.133c-2.666-2.666-6.987-2.666-9.653,0s-2.666,6.987,0,9.653l34.133,34.133
			c1.335,1.335,3.079,2,4.826,2c1.744,0,3.492-0.666,4.826-2C123.025,326.792,123.025,322.47,120.359,319.805z"/>
	</g>
</g>
<g>
	<g>
		<path d="M137.425,302.738l-34.133-34.133c-2.666-2.666-6.987-2.666-9.653,0c-2.666,2.666-2.666,6.987,0,9.653l34.133,34.133
			c1.335,1.335,3.079,2,4.826,2c1.744,0,3.492-0.666,4.826-2C140.091,309.725,140.091,305.404,137.425,302.738z"/>
	</g>
</g>
<g>
	<g>
		<path d="M154.492,285.671l-34.133-34.133c-2.666-2.666-6.987-2.666-9.653,0c-2.666,2.666-2.666,6.987,0,9.653l34.133,34.133
			c1.335,1.335,3.079,2,4.826,2c1.744,0,3.492-0.666,4.826-2C157.158,292.658,157.158,288.337,154.492,285.671z"/>
	</g>
</g>
<g>
</g>
<g>
</g>
<g>
</g>
<g>
</g>
<g>
</g>
<g>
</g>
<g>
</g>
<g>
</g>
<g>
</g>
<g>
</g>
<g>
</g>
<g>
</g>
<g>
</g>
<g>
</g>
<g>
</g>
</svg>
