<?xml version="1.0" encoding="iso-8859-1"?>
<!-- Generator: Adobe Illustrator 19.0.0, SVG Export Plug-In . SVG Version: 6.00 Build 0)  -->
<svg version="1.1" id="Capa_1" xmlns="http://www.w3.org/2000/svg" xmlns:xlink="http://www.w3.org/1999/xlink" x="0px" y="0px"
	 viewBox="0 0 402.381 402.381" style="enable-background:new 0 0 402.381 402.381;" xml:space="preserve">
<g>
	<g>
		<path d="M316.227,87.91c-2.666-2.666-6.987-2.666-9.653,0l-34.56,34.56c-2.666,2.666-2.666,6.987,0,9.653
			c1.335,1.335,3.079,2,4.826,2c1.744,0,3.492-0.666,4.826-2l34.56-34.56C318.892,94.897,318.892,90.576,316.227,87.91z"/>
	</g>
</g>
<g>
	<g>
		<path d="M347.291,0c-29.99,0-54.388,24.395-54.388,54.388c0,29.993,24.402,54.388,54.388,54.388
			c29.986,0,54.388-24.395,54.388-54.388C401.679,24.395,377.281,0,347.291,0z M347.291,95.573
			c-22.712,0-41.185-18.476-41.185-41.185c0-22.709,18.473-41.185,41.185-41.185c22.716,0,41.185,18.476,41.185,41.185
			C388.477,77.097,370.004,95.573,347.291,95.573z"/>
	</g>
</g>
<g>
	<g>
		<path d="M276.106,165.489l-38.496-38.499c-2.56-2.56-7.093-2.56-9.653,0L10.675,344.272c-6.434,6.431-9.974,14.981-9.974,24.078
			c0,9.093,3.54,17.644,9.974,24.074c6.639,6.635,15.353,9.957,24.074,9.957c8.718,0,17.435-3.321,24.074-9.957l217.283-217.283
			C278.772,172.476,278.772,168.154,276.106,165.489z M49.167,382.771c-7.953,7.946-20.886,7.946-28.839,0
			c-3.854-3.854-5.973-8.974-5.973-14.421c0-5.451,2.12-10.571,5.973-14.425l212.456-212.456l28.839,28.846L49.167,382.771z"/>
	</g>
</g>
<g>
	<g>
		<path d="M300.303,141.411l-38.618-38.618c-2.56-2.56-7.093-2.56-9.653,0L227.9,126.932c-2.666,2.666-2.666,6.987,0,9.653
			l38.612,38.618c1.28,1.28,3.014,2,4.826,2c1.816,0,3.546-0.72,4.826-2l24.139-24.139
			C302.969,148.398,302.969,144.077,300.303,141.411z M271.338,160.724l-28.959-28.966l14.479-14.483l28.966,28.962L271.338,160.724
			z"/>
	</g>
</g>
<g>
	<g>
		<path d="M130.251,305.565l-30.72-30.72c-2.666-2.666-6.987-2.666-9.653,0c-2.666,2.666-2.666,6.987,0,9.653l30.72,30.72
			c1.335,1.335,3.079,2,4.826,2s3.495-0.669,4.826-2C132.917,312.552,132.917,308.231,130.251,305.565z"/>
	</g>
</g>
<g>
	<g>
		<path d="M147.318,288.498l-30.72-30.72c-2.666-2.666-6.987-2.666-9.653,0s-2.666,6.987,0,9.653l30.72,30.72
			c1.335,1.335,3.079,2,4.826,2s3.495-0.669,4.826-2C149.984,295.485,149.984,291.164,147.318,288.498z"/>
	</g>
</g>
<g>
	<g>
		<path d="M164.384,271.432l-30.72-30.72c-2.666-2.666-6.987-2.666-9.653,0c-2.666,2.666-2.666,6.987,0,9.653l30.72,30.72
			c1.335,1.335,3.079,2,4.826,2s3.495-0.669,4.826-2C167.05,278.419,167.05,274.098,164.384,271.432z"/>
	</g>
</g>
<g>
</g>
<g>
</g>
<g>
</g>
<g>
</g>
<g>
</g>
<g>
</g>
<g>
</g>
<g>
</g>
<g>
</g>
<g>
</g>
<g>
</g>
<g>
</g>
<g>
</g>
<g>
</g>
<g>
</g>
</svg>
