<?xml version="1.0" encoding="iso-8859-1"?>
<!-- Generator: Adobe Illustrator 19.0.0, SVG Export Plug-In . SVG Version: 6.00 Build 0)  -->
<svg version="1.1" id="Capa_1" xmlns="http://www.w3.org/2000/svg" xmlns:xlink="http://www.w3.org/1999/xlink" x="0px" y="0px"
	 viewBox="0 0 480.009 480.009" style="enable-background:new 0 0 480.009 480.009;" xml:space="preserve">
<g>
	<g>
		<path d="M440.005,32h-72c0-17.673-14.327-32-32-32c-17.673,0-32,14.327-32,32h-72c-22.08,0.026-39.974,17.92-40,40v55.336h16V72
			c0-13.255,10.745-24,24-24h44.456l-6,16h-38.456c-4.418,0-8,3.582-8,8v55.336h16V80h24.456l-7.952,21.184
			c-1.555,4.135,0.536,8.749,4.672,10.304c0.903,0.34,1.859,0.513,2.824,0.512h144c4.418,0.004,8.004-3.574,8.008-7.992
			c0.001-0.964-0.172-1.921-0.512-2.824L407.549,80h24.456v240h-56c-4.418,0-8,3.582-8,8v56h-104v16h176c4.418,0,8-3.582,8-8V72
			c0-4.418-3.582-8-8-8h-38.456l-6-16h44.456c13.255,0,24,10.745,24,24v320c0,13.255-10.745,24-24,24h-176v16h176
			c22.08-0.026,39.974-17.92,40-40V72C479.978,49.92,462.085,32.026,440.005,32z M384.005,336h36.688l-36.688,36.688V336z
			 M432.005,384h-36.688l36.688-36.688V384z M396.461,96H275.549l18-48h18.456c4.418,0,8-3.582,8-8v-8c0-8.837,7.163-16,16-16
			s16,7.163,16,16v8c0,4.418,3.582,8,8,8h18.456L396.461,96z"/>
	</g>
</g>
<g>
	<g>
		<path d="M213.565,144.04c-10.049,0.005-19.993,2.047-29.232,6c-25.763,10.984-54.892,10.984-80.656,0
			c-37.776-16.167-81.505,1.352-97.672,39.128c-3.954,9.239-5.995,19.183-6,29.232c0.042,31.233,7.315,62.031,21.248,89.984
			l10.952,21.92l13.6,122.32c1.875,16.893,17.09,29.068,33.983,27.193c13.872-1.54,24.971-12.222,27.041-26.025l17.528-116.872
			c1.613-10.851,11.718-18.34,22.569-16.727c8.649,1.286,15.441,8.077,16.727,16.727l17.528,116.872
			c2.52,16.809,18.19,28.393,34.999,25.873c13.803-2.069,24.485-13.169,26.025-27.041l13.6-122.32l10.952-21.92
			c13.933-27.953,21.206-58.751,21.248-89.984C287.983,177.31,254.655,144.018,213.565,144.04z M252.445,301.224l-11.6,23.2
			c-0.419,0.846-0.69,1.758-0.8,2.696l-13.744,123.736c-0.888,8.108-8.181,13.96-16.289,13.071
			c-6.673-0.731-12.013-5.871-12.999-12.511l-17.528-116.872c-2.951-19.595-21.228-33.088-40.823-30.137
			c-15.57,2.345-27.793,14.567-30.137,30.137L90.997,451.416c-1.198,8.068-8.709,13.637-16.777,12.439
			c-6.64-0.986-11.78-6.326-12.511-12.999L47.957,327.12c-0.111-0.938-0.381-1.85-0.8-2.696l-11.6-23.2
			c-12.823-25.729-19.516-54.077-19.552-82.824c0.006-32.253,26.157-58.395,58.41-58.39c7.895,0.001,15.707,1.604,22.966,4.71
			c29.785,12.704,63.463,12.704,93.248,0c29.652-12.689,63.977,1.062,76.666,30.714c3.106,7.258,4.708,15.071,4.71,22.966
			C271.966,247.148,265.271,275.496,252.445,301.224z"/>
	</g>
</g>
<g>
	<g>
		<path d="M59.565,177.344c-17.236,11.462-27.583,30.797-27.56,51.496V240h16v-11.16c-0.017-15.349,7.658-29.686,20.44-38.184
			L59.565,177.344z"/>
	</g>
</g>
<g>
	<g>
		<rect x="304.005" y="192" width="104" height="16"/>
	</g>
</g>
<g>
	<g>
		<rect x="304.005" y="240" width="104" height="16"/>
	</g>
</g>
<g>
	<g>
		<rect x="304.005" y="288" width="104" height="16"/>
	</g>
</g>
<g>
	<g>
		<rect x="280.005" y="144" width="128" height="16"/>
	</g>
</g>
<g>
	<g>
		<rect x="304.005" y="336" width="48" height="16"/>
	</g>
</g>
<g>
</g>
<g>
</g>
<g>
</g>
<g>
</g>
<g>
</g>
<g>
</g>
<g>
</g>
<g>
</g>
<g>
</g>
<g>
</g>
<g>
</g>
<g>
</g>
<g>
</g>
<g>
</g>
<g>
</g>
</svg>
