<?xml version="1.0" encoding="iso-8859-1"?>
<!-- Generator: Adobe Illustrator 19.0.0, SVG Export Plug-In . SVG Version: 6.00 Build 0)  -->
<svg version="1.1" id="Capa_1" xmlns="http://www.w3.org/2000/svg" xmlns:xlink="http://www.w3.org/1999/xlink" x="0px" y="0px"
	 viewBox="0 0 380.474 380.474" style="enable-background:new 0 0 380.474 380.474;" xml:space="preserve">
<g>
	<g>
		<path d="M366.476,14.003c-9.025-9.028-21.026-13.998-33.789-13.998c-3.768,0-6.827,3.058-6.827,6.827s3.058,6.827,6.827,6.827
			c9.117,0,17.688,3.553,24.136,9.998c6.448,6.444,9.998,15.019,9.998,24.136c0,9.12-3.553,17.688-9.998,24.136
			c-6.444,6.448-15.019,9.998-24.136,9.998s-17.688-3.55-24.136-9.998c-2.56-2.56-7.093-2.56-9.653,0l-25.402,25.405
			c-2.666,2.666-2.666,6.991,0,9.653c1.335,1.335,3.079,2,4.826,2s3.495-0.666,4.823-2l20.92-20.924
			c18.702,14.012,45.421,12.513,62.409-4.482c9.028-9.021,13.998-21.023,13.998-33.789
			C380.474,35.029,375.501,23.031,366.476,14.003z"/>
	</g>
</g>
<g>
	<g>
		<path d="M275.408,143.577l-38.499-38.499c-2.666-2.666-6.987-2.666-9.653,0L9.974,322.36C3.54,328.791,0,337.341,0,346.438
			c0,9.093,3.54,17.644,9.974,24.074c6.639,6.639,15.353,9.957,24.074,9.957c8.714,0,17.435-3.318,24.074-9.957L275.408,153.23
			c1.28-1.28,2-3.017,2-4.826S276.688,144.857,275.408,143.577z M48.466,360.863c-7.953,7.946-20.886,7.946-28.839,0
			c-3.854-3.854-5.973-8.974-5.973-14.421c0-5.451,2.12-10.571,5.973-14.425l212.456-212.456l28.843,28.846L48.466,360.863z"/>
	</g>
</g>
<g>
	<g>
		<path d="M299.599,119.499l-38.615-38.618c-2.56-2.56-7.093-2.56-9.653,0l-24.136,24.139c-2.666,2.666-2.666,6.987,0,9.653
			l38.618,38.622c1.28,1.28,3.017,2,4.826,2c1.809,0,3.546-0.72,4.826-2.004l24.132-24.139
			C302.264,126.486,302.264,122.165,299.599,119.499z M270.64,138.808l-28.965-28.962l14.483-14.486l28.962,28.966L270.64,138.808z"
			/>
	</g>
</g>
<g>
	<g>
		<path d="M122.723,283.653l-30.72-30.72c-2.666-2.666-6.987-2.666-9.653,0c-2.666,2.666-2.666,6.987,0,9.653l30.72,30.72
			c1.335,1.335,3.079,2,4.826,2c1.748,0,3.495-0.666,4.826-2C125.389,290.64,125.389,286.319,122.723,283.653z"/>
	</g>
</g>
<g>
	<g>
		<path d="M139.79,266.586l-30.72-30.72c-2.666-2.666-6.987-2.666-9.653,0c-2.666,2.666-2.666,6.987,0,9.653l30.72,30.72
			c1.335,1.335,3.079,2,4.826,2s3.495-0.666,4.826-2C142.455,273.574,142.455,269.252,139.79,266.586z"/>
	</g>
</g>
<g>
	<g>
		<path d="M156.856,249.52l-30.72-30.72c-2.666-2.666-6.987-2.666-9.653,0s-2.666,6.987,0,9.653l30.72,30.72
			c1.335,1.335,3.079,2,4.826,2s3.495-0.666,4.826-2C159.522,256.507,159.522,252.186,156.856,249.52z"/>
	</g>
</g>
<g>
</g>
<g>
</g>
<g>
</g>
<g>
</g>
<g>
</g>
<g>
</g>
<g>
</g>
<g>
</g>
<g>
</g>
<g>
</g>
<g>
</g>
<g>
</g>
<g>
</g>
<g>
</g>
<g>
</g>
</svg>
