<?xml version="1.0" encoding="iso-8859-1"?>
<!-- Generator: Adobe Illustrator 19.0.0, SVG Export Plug-In . SVG Version: 6.00 Build 0)  -->
<svg version="1.1" id="Capa_1" xmlns="http://www.w3.org/2000/svg" xmlns:xlink="http://www.w3.org/1999/xlink" x="0px" y="0px"
	 viewBox="0 0 480.009 480.009" style="enable-background:new 0 0 480.009 480.009;" xml:space="preserve">
<g>
	<g>
		<path d="M213.565,144.04c-10.049,0.005-19.993,2.047-29.232,6c-25.763,10.984-54.892,10.984-80.656,0
			c-37.776-16.167-81.505,1.352-97.672,39.128c-3.954,9.239-5.995,19.183-6,29.232c0.042,31.233,7.315,62.031,21.248,89.984
			l10.952,21.92l13.6,122.32c1.875,16.893,17.09,29.068,33.983,27.193c13.872-1.54,24.971-12.222,27.041-26.025l17.528-116.872
			c1.613-10.851,11.718-18.34,22.569-16.727c8.649,1.286,15.441,8.077,16.727,16.727l17.528,116.872
			c2.52,16.809,18.19,28.393,34.999,25.873c13.803-2.069,24.485-13.169,26.025-27.041L249.837,384l-15.912-1.768l-7.624,68.648
			c-0.888,8.108-8.181,13.96-16.289,13.071c-6.673-0.731-12.013-5.871-12.999-12.511l-17.528-116.896
			c-2.951-19.595-21.228-33.088-40.823-30.137c-15.57,2.345-27.793,14.567-30.137,30.137L90.997,451.416
			c-1.198,8.068-8.709,13.637-16.777,12.439c-6.64-0.986-11.78-6.326-12.511-12.999L47.957,327.12
			c-0.111-0.938-0.381-1.85-0.8-2.696l-11.6-23.2c-12.823-25.729-19.516-54.077-19.552-82.824
			c0.006-32.253,26.157-58.395,58.41-58.39c7.895,0.001,15.707,1.604,22.966,4.71c29.785,12.704,63.463,12.704,93.248,0
			c29.652-12.689,63.977,1.062,76.666,30.714c3.106,7.258,4.708,15.071,4.71,22.966c-0.035,28.756-6.73,57.113-19.56,82.848
			l-11.64,23.176c-0.419,0.846-0.689,1.758-0.8,2.696l-0.952,8.56l15.904,1.768l0.8-7.144l10.952-21.92
			c13.95-27.949,21.239-58.748,21.296-89.984C287.983,177.31,254.655,144.018,213.565,144.04z"/>
	</g>
</g>
<g>
	<g>
		<path d="M472.005,0h-40v16h32v72c0,48.601-39.399,88-88,88c-48.601,0-88-39.399-88-88V16h32V0h-40c-4.418,0-8,3.582-8,8v80
			c0.087,54.283,41.881,99.382,96,103.592V328c0,13.255-10.745,24-24,24h-104c-13.255,0-24-10.745-24-24v-64.8
			c21.645-4.418,35.61-25.547,31.192-47.192c-4.418-21.645-25.547-35.61-47.192-31.192c-21.645,4.418-35.61,25.547-31.192,47.192
			c3.207,15.709,15.483,27.985,31.192,31.192V328c0.026,22.08,17.92,39.974,40,40h104c22.08-0.026,39.974-17.92,40-40V191.592
			c54.119-4.21,95.913-49.309,96-103.592V8C480.005,3.582,476.423,0,472.005,0z M200.005,224v22.528
			c-9.555-3.378-15.958-12.394-16-22.528c-0.055-13.255,10.646-24.044,23.9-24.099c13.255-0.055,24.044,10.646,24.099,23.9
			c0.042,10.207-6.376,19.324-16,22.727V224H200.005z"/>
	</g>
</g>
<g>
	<g>
		<path d="M59.565,177.344c-17.236,11.462-27.583,30.797-27.56,51.496V240h16v-11.16c-0.017-15.349,7.658-29.686,20.44-38.184
			L59.565,177.344z"/>
	</g>
</g>
<g>
</g>
<g>
</g>
<g>
</g>
<g>
</g>
<g>
</g>
<g>
</g>
<g>
</g>
<g>
</g>
<g>
</g>
<g>
</g>
<g>
</g>
<g>
</g>
<g>
</g>
<g>
</g>
<g>
</g>
</svg>
