<?xml version="1.0" encoding="iso-8859-1"?>
<!-- Generator: Adobe Illustrator 19.0.0, SVG Export Plug-In . SVG Version: 6.00 Build 0)  -->
<svg version="1.1" id="Capa_1" xmlns="http://www.w3.org/2000/svg" xmlns:xlink="http://www.w3.org/1999/xlink" x="0px" y="0px"
	 viewBox="0 0 398.616 398.616" style="enable-background:new 0 0 398.616 398.616;" xml:space="preserve">
<g>
	<g>
		<path d="M363.773,0c-3.768,0-6.827,3.058-6.827,6.827v51.801l-46.548,48.213c-2.618,2.71-2.543,7.031,0.171,9.65
			c1.324,1.28,3.034,1.918,4.741,1.918c1.785,0,3.574-0.696,4.908-2.086l48.463-50.196c1.232-1.27,1.918-2.97,1.918-4.741V6.827
			C370.6,3.058,367.542,0,363.773,0z"/>
	</g>
</g>
<g>
	<g>
		<path d="M322.837,161.727l-57.928-57.924c-2.666-2.666-6.987-2.666-9.653,0L37.974,321.085c-13.278,13.271-13.278,34.874,0,48.148
			l19.429,19.425c6.639,6.635,15.357,9.957,24.078,9.957c8.718,0,17.439-3.321,24.074-9.957L322.837,171.38
			c1.28-1.28,2-3.017,2-4.826S324.117,163.007,322.837,161.727z M95.898,379.003c-7.96,7.953-20.896,7.946-28.843,0l-19.429-19.425
			c-7.95-7.953-7.95-20.89,0-28.843l212.456-212.456l48.271,48.271L95.898,379.003z"/>
	</g>
</g>
<g>
	<g>
		<path d="M337.313,127.932l-38.615-38.618c-2.56-2.56-7.093-2.56-9.653,0l-24.136,24.139c-2.666,2.666-2.666,6.987,0,9.653
			l38.622,38.622c1.28,1.28,3.017,2,4.826,2c1.809,0,3.546-0.72,4.823-2.004l24.132-24.139
			C339.979,134.919,339.979,130.598,337.313,127.932z M308.358,147.241l-28.966-28.962l14.483-14.486l28.962,28.966L308.358,147.241
			z"/>
	</g>
</g>
<g>
	<g>
		<path d="M170.681,302.326l-47.787-47.787c-2.666-2.666-6.987-2.666-9.653,0c-2.666,2.666-2.666,6.987,0,9.653l47.787,47.787
			c1.335,1.335,3.079,2,4.826,2s3.492-0.666,4.826-2C173.347,309.313,173.347,304.992,170.681,302.326z"/>
	</g>
</g>
<g>
	<g>
		<path d="M187.748,285.259l-47.787-47.787c-2.666-2.666-6.987-2.666-9.653,0c-2.666,2.666-2.666,6.987,0,9.653l47.787,47.787
			c1.335,1.335,3.079,2,4.826,2c1.748,0,3.492-0.666,4.826-2C190.414,292.246,190.414,287.925,187.748,285.259z"/>
	</g>
</g>
<g>
	<g>
		<path d="M204.814,268.192l-47.787-47.787c-2.666-2.666-6.987-2.666-9.653,0c-2.666,2.666-2.666,6.987,0,9.653l47.787,47.787
			c1.335,1.335,3.079,2,4.826,2s3.492-0.666,4.826-2C207.48,275.18,207.48,270.858,204.814,268.192z"/>
	</g>
</g>
<g>
</g>
<g>
</g>
<g>
</g>
<g>
</g>
<g>
</g>
<g>
</g>
<g>
</g>
<g>
</g>
<g>
</g>
<g>
</g>
<g>
</g>
<g>
</g>
<g>
</g>
<g>
</g>
<g>
</g>
</svg>
