<?xml version="1.0" encoding="iso-8859-1"?>
<!-- Generator: Adobe Illustrator 19.0.0, SVG Export Plug-In . SVG Version: 6.00 Build 0)  -->
<svg version="1.1" id="Capa_1" xmlns="http://www.w3.org/2000/svg" xmlns:xlink="http://www.w3.org/1999/xlink" x="0px" y="0px"
	 viewBox="0 0 406.845 406.845" style="enable-background:new 0 0 406.845 406.845;" xml:space="preserve">
<g>
	<g>
		<path d="M389.818,68.243h-54.327c-1.806,0-3.54,0.717-4.813,1.99L217.271,183.132c-2.673,2.659-2.686,6.98-0.027,9.653
			c1.335,1.341,3.086,2.01,4.84,2.01c1.741,0,3.485-0.662,4.813-1.99L338.311,81.896h51.507c3.772,0,6.827-3.058,6.827-6.827
			S393.59,68.243,389.818,68.243z"/>
	</g>
</g>
<g>
	<g>
		<path d="M396.549,0h-40.96c-3.649,0-6.601,2.959-6.601,6.601v68.267c0,3.645,2.956,6.601,6.601,6.601h40.96
			c3.645,0,6.601-2.956,6.601-6.601V6.601C403.151,2.956,400.195,0,396.549,0z M389.951,68.27h-27.761V13.203h27.761V68.27z"/>
	</g>
</g>
<g>
	<g>
		<path d="M252.483,189.508c-1.307-3.133-5.168-8.366-16.353-8.366c-0.068,0-0.133,0-0.195,0l-47.445,0.239
			c-1.799,0.01-3.519,0.727-4.792,2L12.699,354.372c-11.995,11.994-12.008,31.498-0.027,43.472
			c5.789,5.796,13.496,8.991,21.699,9.001c0.01,0,0.024,0,0.034,0c8.199,0,15.903-3.185,21.688-8.977l190.696-190.693
			C254.81,199.148,253.797,192.662,252.483,189.508z M237.133,197.526L46.437,388.219c-3.212,3.212-7.407,4.861-12.052,4.977
			c-4.56-0.007-8.841-1.782-12.059-5.001c-6.656-6.653-6.642-17.493,0.027-24.166l169.011-169.004L236,194.799
			c1.355,0.038,2.447,0.123,3.168,0.273C238.771,195.693,238.133,196.526,237.133,197.526z"/>
	</g>
</g>
<g>
</g>
<g>
</g>
<g>
</g>
<g>
</g>
<g>
</g>
<g>
</g>
<g>
</g>
<g>
</g>
<g>
</g>
<g>
</g>
<g>
</g>
<g>
</g>
<g>
</g>
<g>
</g>
<g>
</g>
</svg>
