<?xml version="1.0" encoding="iso-8859-1"?>
<!-- Generator: Adobe Illustrator 19.0.0, SVG Export Plug-In . SVG Version: 6.00 Build 0)  -->
<svg version="1.1" id="Capa_1" xmlns="http://www.w3.org/2000/svg" xmlns:xlink="http://www.w3.org/1999/xlink" x="0px" y="0px"
	 viewBox="0 0 411.467 411.467" style="enable-background:new 0 0 411.467 411.467;" xml:space="preserve">
<g>
	<g>
		<path d="M341.509,93.361c-2.86-2.464-7.165-2.15-9.632,0.713l-96.519,111.961l-28.215-28.225L315.097,84.75
			c2.854-2.458,3.174-6.772,0.713-9.626c-2.471-2.867-6.779-3.181-9.632-0.713l-113.521,97.864c-1.434,1.239-2.29,3.017-2.359,4.915
			c-0.072,1.894,0.652,3.734,1.993,5.079l38.612,38.618c1.28,1.283,3.021,2,4.826,2c0.089,0,0.167,0,0.256-0.003
			c1.891-0.068,3.68-0.925,4.919-2.365l101.318-117.531C344.684,100.134,344.363,95.823,341.509,93.361z"/>
	</g>
</g>
<g>
	<g>
		<path d="M240.516,211.19l-38.533-38.533c-3.867-3.871-9.015-6.011-14.493-6.021c-0.014,0-0.027,0-0.048,0
			c-5.472,0-10.612,2.127-14.476,5.99L7.692,337.9c-7.991,7.991-7.977,21.006,0.031,29.013l38.536,38.536
			c4.011,4.011,9.274,6.018,14.534,6.018c5.246,0,10.489-1.997,14.479-5.987L240.55,240.206
			C248.537,232.216,248.523,219.201,240.516,211.19z M230.9,230.554L65.623,395.827c-2.673,2.662-7.025,2.652-9.708-0.031
			L17.379,357.26c-2.683-2.683-2.697-7.042-0.031-9.708l165.274-165.274c1.287-1.283,2.997-1.99,4.83-1.99c0,0,0.007,0,0.01,0
			c1.84,0.003,3.567,0.72,4.867,2.021l38.537,38.533C233.593,223.573,233.607,227.84,230.9,230.554z"/>
	</g>
</g>
<g>
	<g>
		<path d="M169.273,226.837l-15.602-15.602c-2.666-2.666-6.987-2.666-9.653,0c-2.666,2.666-2.666,6.987,0,9.653l15.602,15.602
			c1.335,1.335,3.079,2,4.826,2s3.495-0.666,4.826-2C171.938,233.824,171.938,229.502,169.273,226.837z"/>
	</g>
</g>
<g>
	<g>
		<path d="M140.31,255.802L124.708,240.2c-2.666-2.666-6.987-2.666-9.653,0c-2.666,2.666-2.666,6.987,0,9.653l15.602,15.602
			c1.335,1.335,3.079,2,4.826,2s3.492-0.669,4.826-2C142.976,262.789,142.976,258.468,140.31,255.802z"/>
	</g>
</g>
<g>
	<g>
		<path d="M111.348,284.764l-15.602-15.602c-2.666-2.666-6.987-2.666-9.653,0s-2.666,6.987,0,9.653l15.602,15.602
			c1.335,1.335,3.079,2,4.826,2c1.744,0,3.492-0.666,4.826-2C114.014,291.751,114.014,287.43,111.348,284.764z"/>
	</g>
</g>
<g>
	<g>
		<path d="M82.383,313.726L66.78,298.121c-2.666-2.666-6.987-2.666-9.653,0c-2.666,2.662-2.666,6.987,0,9.653l15.602,15.606
			c1.335,1.335,3.079,2,4.826,2s3.495-0.666,4.826-2C85.049,320.717,85.049,316.392,82.383,313.726z"/>
	</g>
</g>
<g>
	<g>
		<path d="M355.371,0c-29.99,0-54.388,24.395-54.388,54.388c0,29.993,24.402,54.388,54.388,54.388s54.388-24.395,54.388-54.388
			C409.759,24.395,385.36,0,355.371,0z M355.371,95.573c-22.712,0-41.185-18.476-41.185-41.185
			c0-22.709,18.473-41.185,41.185-41.185c22.712,0,41.185,18.476,41.185,41.185C396.556,77.097,378.083,95.573,355.371,95.573z"/>
	</g>
</g>
<g>
	<g>
		<g>
			<circle cx="341.721" cy="40.738" r="6.827"/>
			<circle cx="341.721" cy="68.045" r="6.827"/>
			<circle cx="369.028" cy="40.738" r="6.827"/>
			<circle cx="369.028" cy="68.045" r="6.827"/>
		</g>
	</g>
</g>
<g>
</g>
<g>
</g>
<g>
</g>
<g>
</g>
<g>
</g>
<g>
</g>
<g>
</g>
<g>
</g>
<g>
</g>
<g>
</g>
<g>
</g>
<g>
</g>
<g>
</g>
<g>
</g>
<g>
</g>
</svg>
