<?xml version="1.0" encoding="iso-8859-1"?>
<!-- Generator: Adobe Illustrator 19.0.0, SVG Export Plug-In . SVG Version: 6.00 Build 0)  -->
<svg version="1.1" id="Capa_1" xmlns="http://www.w3.org/2000/svg" xmlns:xlink="http://www.w3.org/1999/xlink" x="0px" y="0px"
	 viewBox="0 0 416.201 416.201" style="enable-background:new 0 0 416.201 416.201;" xml:space="preserve">
<g>
	<g>
		<path d="M308.5,171.383c-1.87-3.277-6.038-4.417-9.315-2.553c-3.273,1.867-4.417,6.038-2.553,9.315
			c12.817,22.501,19.589,48.162,19.589,74.216c0,82.814-67.372,150.187-150.187,150.187S15.848,335.176,15.848,252.361
			S83.22,102.175,166.035,102.175c20.395,0,40.168,4.017,58.774,11.933c3.478,1.481,7.479-0.137,8.953-3.608
			c1.475-3.471-0.137-7.475-3.608-8.953c-20.306-8.643-41.878-13.025-64.119-13.025c-90.341,0-163.84,73.499-163.84,163.84
			s73.499,163.84,163.84,163.84s163.84-73.499,163.843-163.84C329.878,223.942,322.485,195.939,308.5,171.383z"/>
	</g>
</g>
<g>
	<g>
		<path d="M302.176,207.329c-1.178-3.577-5.042-5.526-8.622-4.338c-3.581,1.181-5.526,5.042-4.338,8.622
			c4.328,13.1,6.526,26.812,6.526,40.752c0,71.52-58.187,129.707-129.707,129.707S36.328,323.884,36.328,252.365
			c0-71.52,58.187-129.707,129.707-129.707c21.545,0,42.882,5.39,61.699,15.585c3.314,1.785,7.462,0.56,9.257-2.751
			c1.795-3.318,0.563-7.462-2.751-9.257c-20.808-11.274-44.39-17.234-68.205-17.234c-79.049,0-143.36,64.311-143.36,143.36
			s64.311,143.36,143.36,143.36s143.36-64.311,143.36-143.353C309.395,236.971,306.964,221.815,302.176,207.329z"/>
	</g>
</g>
<g>
	<g>
		<path d="M359.134,0c-8.581,0-16.09,3.97-22.709,7.468c-5.779,3.048-11.23,5.932-16.544,5.932c-5.55,0-12.588-3.116-19.391-6.134
			C292.431,3.693,284.095,0,275.75,0c-31.795,0-54.873,34.154-54.873,81.207c0,26.368,15.124,177.753,54.873,177.753
			c13.148,0,17.862-21.163,24.996-53.197c3.652-16.398,12.199-54.787,19.115-54.818c9.54,0.034,15.323,37.67,18.425,57.89
			c4.635,30.184,7.694,50.125,20.849,50.125c39.745,0,54.873-151.381,54.873-177.753C414.007,34.154,390.929,0,359.134,0z
			 M360.073,245.668c-3.475-4.529-6.625-25.054-8.742-38.837c-5.212-33.925-10.598-69.014-31.478-69.086
			c-17.507,0.078-24.221,30.232-31.993,65.147c-3.441,15.456-8.585,38.567-12.858,42.81
			c-18.609-2.836-40.926-110.824-40.926-164.495c0-38.772,17.917-68.007,41.673-68.007c5.55,0,12.585,3.116,19.395,6.13
			c8.059,3.574,16.394,7.267,24.74,7.267c8.581,0,16.09-3.97,22.709-7.468c5.779-3.048,11.23-5.932,16.544-5.932
			c23.757,0,41.673,29.239,41.673,68.007C400.811,134.687,378.644,242.115,360.073,245.668z"/>
	</g>
</g>
<g>
	<g>
		<path d="M166.035,143.135c-11.295,0-20.48,9.168-20.48,20.439v63.481c0,3.768,3.058,6.827,6.827,6.827s6.827-3.058,6.827-6.827
			v-63.481c0-3.806,3-6.786,6.827-6.786c3.765,0,6.827,3.041,6.827,6.786v65.167c0,3.768,3.058,6.827,6.827,6.827
			c3.772,0,6.827-3.058,6.827-6.827v-65.167C186.515,152.306,177.33,143.135,166.035,143.135z"/>
	</g>
</g>
<g>
	<g>
		<path d="M250.952,308.32l-52.77-52.773c-2.666-2.666-6.987-2.666-9.653,0c-2.666,2.666-2.666,6.987,0,9.653l52.77,52.774
			c1.287,1.287,1.993,2.99,1.993,4.792c0,1.813-0.717,3.529-2.021,4.83c-1.29,1.294-3.007,2.004-4.83,2.007
			c-1.792-0.143-3.516-0.696-4.796-1.976l-52.773-52.77c-2.666-2.666-6.987-2.666-9.653,0c-2.666,2.666-2.666,6.987,0,9.653
			l52.77,52.77c3.85,3.854,8.981,5.977,14.442,5.977c0.007,0,0.017,0,0.024,0.003c5.465-0.007,10.602-2.137,14.469-6.004
			C258.912,329.271,258.922,316.29,250.952,308.32z"/>
	</g>
</g>
<g>
	<g>
		<path d="M166.035,218.228c-18.821,0-34.133,15.312-34.133,34.133c0,18.821,15.312,34.133,34.133,34.133
			s34.133-15.312,34.133-34.133C200.168,233.54,184.856,218.228,166.035,218.228z M166.035,272.841
			c-11.295,0-20.48-9.185-20.48-20.48c0-11.295,9.185-20.48,20.48-20.48s20.48,9.185,20.48,20.48
			C186.515,263.656,177.33,272.841,166.035,272.841z"/>
	</g>
</g>
<g>
</g>
<g>
</g>
<g>
</g>
<g>
</g>
<g>
</g>
<g>
</g>
<g>
</g>
<g>
</g>
<g>
</g>
<g>
</g>
<g>
</g>
<g>
</g>
<g>
</g>
<g>
</g>
<g>
</g>
</svg>
