<?xml version="1.0" encoding="iso-8859-1"?>
<!-- Generator: Adobe Illustrator 19.0.0, SVG Export Plug-In . SVG Version: 6.00 Build 0)  -->
<svg version="1.1" id="Capa_1" xmlns="http://www.w3.org/2000/svg" xmlns:xlink="http://www.w3.org/1999/xlink" x="0px" y="0px"
	 viewBox="0 0 480.019 480.019" style="enable-background:new 0 0 480.019 480.019;" xml:space="preserve">
<g>
	<g>
		<path d="M478.513,267.371l-27.304-38.248c-13.36-18.829-37.853-26.096-59.32-17.6l2.168-5.208
			c14.531-34.781,21.994-72.106,21.952-109.8c-0.062-53.268-43.228-96.434-96.496-96.496c-16.794,0.005-33.297,4.389-47.88,12.72
			c-19.612,11.136-43.636,11.136-63.248,0C162.123-13.709,103.18,2.354,76.732,48.616c-8.339,14.586-12.724,31.097-12.722,47.898
			c-0.039,37.701,7.429,75.032,21.968,109.816l2.168,5.208c-21.467-8.496-45.96-1.229-59.32,17.6l-27.32,38.232
			c-0.974,1.354-1.497,2.98-1.496,4.648v200c0,4.418,3.582,8,8,8h464c4.418,0,8-3.582,8-8v-200
			C480.011,270.351,479.487,268.725,478.513,267.371z M168.361,24.091l0.072-7.552c11.257,1.078,22.16,4.516,32,10.088
			c24.537,13.951,54.607,13.951,79.144,0c9.839-5.576,20.743-9.013,32-10.088l0.072,7.552c0.155,17.478-13.889,31.772-31.367,31.927
			c-0.091,0.001-0.182,0.001-0.273,0.001c-4.418,0-8,3.582-8,8c0,13.255-10.745,24-24,24h-16c-13.255,0-24-10.745-24-24
			c0-4.418-3.582-8-8-8c-17.479,0.001-31.649-14.168-31.649-31.647C168.36,24.278,168.361,24.185,168.361,24.091z M80.009,96.515
			c0.053-41.31,31.327-75.894,72.424-80.088l-0.072,7.52c-0.206,23.656,16.968,43.884,40.344,47.52
			c3.602,18.871,20.093,32.528,39.304,32.552h16c19.212-0.024,35.702-13.681,39.304-32.552c23.376-3.636,40.55-23.864,40.344-47.52
			l-0.072-7.52c41.097,4.194,72.371,38.778,72.424,80.088c0.037,35.588-7.009,70.827-20.728,103.664l-18.656,44.8
			c-0.269,0.64-0.452,1.312-0.544,2l-20.704,151.824c-1.49,10.896-11.531,18.52-22.426,17.03
			c-8.639-1.181-15.504-7.846-16.942-16.446l-24.168-144.968c-3.304-19.789-22.025-33.154-41.815-29.849
			c-15.303,2.555-27.294,14.546-29.849,29.849l-24.168,144.968c-1.811,10.847-12.072,18.172-22.919,16.362
			c-8.6-1.436-15.266-8.299-16.449-16.938l-20.704-151.872c-0.092-0.688-0.275-1.36-0.544-2l-18.656-44.8
			C87.024,167.314,79.978,132.089,80.009,96.515z M464.009,464.019h-448v-189.44l25.832-36.16
			c11.057-15.45,32.545-19.01,47.994-7.953c4.545,3.253,8.229,7.564,10.734,12.561l3.696,7.392l20.544,150.552
			c2.68,19.647,20.779,33.403,40.426,30.723c15.593-2.127,27.983-14.159,30.566-29.683l24.168-145.008
			c1.857-11.077,12.342-18.55,23.419-16.693c8.555,1.435,15.258,8.138,16.693,16.693l24.168,145.008
			c3.256,19.56,21.752,32.777,41.312,29.521c15.524-2.584,27.555-14.976,29.68-30.57l20.512-150.544l3.696-7.392
			c8.512-16.985,29.182-23.854,46.167-15.342c4.997,2.504,9.308,6.188,12.561,10.734l25.832,36.16V464.019z"/>
	</g>
</g>
<g>
</g>
<g>
</g>
<g>
</g>
<g>
</g>
<g>
</g>
<g>
</g>
<g>
</g>
<g>
</g>
<g>
</g>
<g>
</g>
<g>
</g>
<g>
</g>
<g>
</g>
<g>
</g>
<g>
</g>
</svg>
