<?xml version="1.0" encoding="iso-8859-1"?>
<!-- Generator: Adobe Illustrator 19.0.0, SVG Export Plug-In . SVG Version: 6.00 Build 0)  -->
<svg version="1.1" id="Capa_1" xmlns="http://www.w3.org/2000/svg" xmlns:xlink="http://www.w3.org/1999/xlink" x="0px" y="0px"
	 viewBox="0 0 313.798 313.798" style="enable-background:new 0 0 313.798 313.798;" xml:space="preserve">
<g>
	<g>
		<path d="M186.644,132.212c-3.632-0.126-6.7,2.714-6.83,6.356c-2.065,57.197-22.699,155.034-40.615,158.385
			c-3.475-4.529-6.629-25.057-8.745-38.84c-5.212-33.925-10.598-69.014-31.478-69.086c-17.507,0.079-24.221,30.232-31.993,65.147
			c-3.441,15.456-8.585,38.567-12.858,42.81c-18.609-2.836-40.926-110.824-40.926-164.495c0-38.772,17.917-68.007,41.673-68.007
			c3.645,0,6.601-2.956,6.601-6.601c0-3.645-2.959-6.601-6.601-6.601C23.078,51.278,0,85.432,0,132.485
			c0,26.368,15.125,177.753,54.873,177.753c13.148,0,17.862-21.163,24.992-53.197c3.652-16.398,12.199-54.787,19.115-54.818
			c9.54,0.034,15.322,37.67,18.425,57.89c4.635,30.184,7.694,50.125,20.849,50.125c39.509,0,53.934-148.753,54.746-171.196
			C193.133,135.403,190.287,132.342,186.644,132.212z"/>
	</g>
</g>
<g>
	<g>
		<path d="M243.166,30.536c-0.003,0-0.01,0-0.017,0l-48.292,0.113l-40.574-26.01c-1.12-0.72-2.4-1.065-3.751-1.079L96.02,4.096
			c-1.911,0.02-3.724,0.836-5,2.253l-61.761,68.42c-9.247,10.243-9.312,24.607-0.154,34.925
			c9.155,10.325,23.422,11.971,34.697,4.018l41.356-29.201l68.079,72.486c1.345,1.43,3.161,2.154,4.977,2.154
			c1.676,0,3.359-0.614,4.673-1.853c2.751-2.584,2.884-6.902,0.304-9.649l-72.144-76.814c-2.328-2.485-6.13-2.867-8.912-0.905
			l-46.206,32.625c-6.762,4.782-13.175,1.956-16.609-1.922c-3.434-3.867-5.475-10.571,0.072-16.719l59.754-66.195l49.48-0.485
			l40.55,25.992c1.099,0.707,2.376,1.079,3.683,1.079c0.007,0,0.01,0,0.017,0l50.309-0.116c3.768-0.01,6.82-3.075,6.81-6.844
			C249.982,33.584,246.931,30.536,243.166,30.536z"/>
	</g>
</g>
<g>
	<g>
		<path d="M241.241,119.61l-27.614-0.096c-0.775,0.259-1.976,0.212-2.877,0.628l-40.291,18.545
			c-3.424,1.574-4.922,5.629-3.345,9.052c1.15,2.499,3.618,3.973,6.202,3.973c0.956,0,1.925-0.198,2.854-0.628l38.919-17.91
			l26.105,0.089c0.007,0,0.017,0,0.024,0c3.761,0,6.813-3.038,6.827-6.803C248.057,122.689,245.009,119.624,241.241,119.61z"/>
	</g>
</g>
<g>
	<g>
		<path d="M306.971,16.807h-61.44c-3.768,0-6.827,3.058-6.827,6.827v129.707c0,3.768,3.058,6.827,6.827,6.827h61.44
			c3.768,0,6.827-3.058,6.827-6.827V23.634C313.798,19.866,310.74,16.807,306.971,16.807z M300.145,146.514h-47.787V30.461h47.787
			V146.514z"/>
	</g>
</g>
<g>
</g>
<g>
</g>
<g>
</g>
<g>
</g>
<g>
</g>
<g>
</g>
<g>
</g>
<g>
</g>
<g>
</g>
<g>
</g>
<g>
</g>
<g>
</g>
<g>
</g>
<g>
</g>
<g>
</g>
</svg>
