<?xml version="1.0" encoding="iso-8859-1"?>
<!-- Generator: Adobe Illustrator 19.0.0, SVG Export Plug-In . SVG Version: 6.00 Build 0)  -->
<svg version="1.1" id="Capa_1" xmlns="http://www.w3.org/2000/svg" xmlns:xlink="http://www.w3.org/1999/xlink" x="0px" y="0px"
	 viewBox="0 0 480.021 480.021" style="enable-background:new 0 0 480.021 480.021;" xml:space="preserve">
<g>
	<g>
		<path d="M336.689,0.002C319.137,0.003,301.874,4.477,286.53,13c-28.903,16.19-64.145,16.19-93.048,0
			c-15.351-8.515-32.614-12.988-50.168-13C86.289,0.066,40.077,46.278,40.01,103.304V120c0.11,53.007,17.093,104.602,48.488,147.312
			l35.2,183.2c3.786,19.712,22.835,32.622,42.547,28.836c15.237-2.927,26.936-15.203,29.125-30.564l25.128-175.904
			c1.546-10.759,11.52-18.227,22.279-16.681c8.646,1.242,15.439,8.035,16.681,16.681l25.16,175.92
			c2.832,19.871,21.237,33.685,41.108,30.853c15.36-2.189,27.637-13.888,30.564-29.125l35.2-183.2
			c31.409-42.71,48.404-94.312,48.52-147.328v-16.696C440.005,46.246,393.747-0.004,336.689,0.002z M424.01,120
			c-0.105,50.181-16.376,98.992-46.4,139.2c-0.729,0.971-1.227,2.096-1.456,3.288l-35.576,185.008
			c-2.132,11.036-12.807,18.254-23.843,16.122c-8.515-1.645-15.053-8.506-16.285-17.09l-25.128-175.904
			c-2.792-19.502-20.865-33.049-40.367-30.257c-15.687,2.246-28.011,14.57-30.257,30.257L179.57,446.528
			c-1.597,11.126-11.912,18.851-23.038,17.253c-8.585-1.232-15.445-7.77-17.09-16.285l-35.576-185.008
			c-0.23-1.192-0.727-2.317-1.456-3.288c-30.024-40.208-46.295-89.019-46.4-139.2v-16.696c0.006-48.221,39.101-87.307,87.322-87.302
			c14.831,0.002,29.417,3.781,42.382,10.982c33.731,18.896,74.861,18.896,108.592,0c22.795-12.702,50.093-14.482,74.344-4.848
			l-62.832,76.8c-2.797,3.42-2.291,8.46,1.129,11.257c1.429,1.168,3.217,1.806,5.063,1.807h44.688l-66.344,66.344l11.312,11.312
			l80-80c3.124-3.125,3.123-8.19-0.002-11.314c-1.5-1.499-3.534-2.342-5.654-2.342h-47.12l54.32-66.4
			c25.353,15.933,40.757,43.76,40.8,73.704V120z"/>
	</g>
</g>
<g>
	<g>
		<path d="M128.01,56l-1.6-7.84c-16,3.208-46.4,20.68-46.4,63.84h16c0-40.568,32.24-47.872,33.6-48.168L128.01,56z"/>
	</g>
</g>
<g>
	<g>
		<rect x="144.01" y="48" width="16" height="16"/>
	</g>
</g>
<g>
</g>
<g>
</g>
<g>
</g>
<g>
</g>
<g>
</g>
<g>
</g>
<g>
</g>
<g>
</g>
<g>
</g>
<g>
</g>
<g>
</g>
<g>
</g>
<g>
</g>
<g>
</g>
<g>
</g>
</svg>
