<?xml version="1.0" encoding="iso-8859-1"?>
<!-- Generator: Adobe Illustrator 19.0.0, SVG Export Plug-In . SVG Version: 6.00 Build 0)  -->
<svg version="1.1" id="Capa_1" xmlns="http://www.w3.org/2000/svg" xmlns:xlink="http://www.w3.org/1999/xlink" x="0px" y="0px"
	 viewBox="0 0 402.548 402.548" style="enable-background:new 0 0 402.548 402.548;" xml:space="preserve">
<g>
	<g>
		<path d="M186.961,0c-8.434,0-16.183,3.669-23.675,7.219c-6.458,3.058-12.558,5.946-18.019,5.946
			c-5.465,0-11.564-2.888-18.019-5.946C119.753,3.669,112.008,0,103.574,0C71.782,0,48.701,34.154,48.701,81.207
			c0,26.368,15.124,177.753,54.873,177.753c13.268,0,17.514-21.214,23.945-53.333c2.987-14.947,10.926-54.654,17.725-54.682
			c9.673,0.034,16.319,37.765,19.886,58.034c5.297,30.099,8.806,49.981,21.832,49.981c39.748,0,54.873-151.381,54.873-177.753
			C241.834,34.154,218.753,0,186.961,0z M187.842,245.678c-3.622-4.386-7.267-25.098-9.714-38.99
			c-5.966-33.86-12.134-68.871-32.887-68.943c-17.626,0.078-23.672,30.297-30.672,65.294c-3.065,15.34-7.653,38.267-11.786,42.656
			C84.179,242.681,61.9,134.83,61.9,81.207c0-38.772,17.913-68.007,41.673-68.007c5.468,0,11.568,2.888,18.019,5.943
			c7.496,3.55,15.24,7.219,23.675,7.219c8.427,0,16.176-3.669,23.668-7.216c6.458-3.058,12.558-5.949,18.026-5.949
			c23.76,0,41.673,29.239,41.673,68.007C228.635,134.741,206.428,242.333,187.842,245.678z"/>
	</g>
</g>
<g>
	<g>
		<path d="M111.134,20.255c-22.586,0-40.96,18.374-40.96,40.96c0,3.768,3.055,6.827,6.827,6.827c3.775,0,6.827-3.058,6.827-6.827
			c0-15.056,12.247-27.307,27.307-27.307c3.772,0,6.827-3.058,6.827-6.827S114.906,20.255,111.134,20.255z"/>
	</g>
</g>
<g>
	<g>
		<path d="M139.001,320.372l-19.234-32.007c-3.468-5.772-9.226-9.841-15.8-11.165c-6.625-1.355-13.346,0.147-18.879,4.198
			c-9.841,7.206-12.401,21.402-5.84,32.317l8.953,14.899c1.28,2.13,3.54,3.311,5.861,3.311c1.195,0,2.406-0.311,3.502-0.976
			c3.236-1.939,4.28-6.134,2.342-9.366l-8.953-14.899c-2.966-4.929-1.997-11.199,2.202-14.271c2.393-1.751,5.287-2.403,8.12-1.83
			c2.86,0.577,5.274,2.287,6.786,4.813l19.234,32.007c1.932,3.232,6.127,4.28,9.366,2.335
			C139.895,327.799,140.939,323.604,139.001,320.372z"/>
	</g>
</g>
<g>
	<g>
		<path d="M328.246,367.135c-0.707-3.7-4.219-6.113-7.987-5.431c-126.348,24.088-155.221,7.793-155.293,7.759
			c-0.905-0.645-1.959-1.055-3.065-1.198l-78.333-10.131L36.83,333.537c-1.628-0.853-2.809-2.266-3.328-3.983
			c-0.509-1.683-0.314-3.468,0.532-5.024l3.475-6.339c1.809-3.311,6.195-4.615,9.574-2.871l35.086,18.108
			c1.007,0.522,2.092,0.741,3.253,0.761l70.666-1.253c1.229-0.024,2.42-0.372,3.461-1.014l21.487-13.227
			c2.133-1.311,3.372-3.69,3.232-6.192c-0.133-2.499-1.635-4.727-3.901-5.792c-14.462-6.823-35.734-20.463-37.741-29.43
			c-0.239-1.089-0.188-2.021,0.86-3.287c3.973-4.813,42.353,3.424,104.68,37.089c0.993,0.536,2.099,0.816,3.232,0.819l70.127,0.171
			c0,0,0.007,0,0.014,0c3.761,0,6.82-3.045,6.827-6.81c0.007-3.772-3.041-6.833-6.813-6.844l-68.413-0.167
			c-31.935-17.149-103.974-52.606-120.187-32.945c-3.598,4.362-4.857,9.537-3.645,14.954c2.993,13.377,21.586,25.938,34.314,33.12
			l-9.639,5.936l-67.079,1.191L53.35,303.193c-9.984-5.141-22.467-1.359-27.819,8.455l-3.468,6.339
			c-2.628,4.792-3.202,10.308-1.628,15.52c1.577,5.246,5.144,9.551,10.032,12.121l47.828,25.167c0.72,0.379,1.502,0.628,2.307,0.73
			l78.234,10.117c4.475,2.284,17.347,6.96,47.8,6.956c25.091,0,62.119-3.174,116.183-13.479
			C326.519,374.412,328.953,370.838,328.246,367.135z"/>
	</g>
</g>
<g>
	<g>
		<path d="M376.156,272.841h-54.613c-3.772,0-6.827,3.058-6.827,6.827v116.053c0,3.768,3.055,6.827,6.827,6.827h54.613
			c3.772,0,6.827-3.058,6.827-6.827V279.668C382.982,275.9,379.927,272.841,376.156,272.841z M369.329,388.895h-40.96v-102.4h40.96
			V388.895z"/>
	</g>
</g>
<g>
</g>
<g>
</g>
<g>
</g>
<g>
</g>
<g>
</g>
<g>
</g>
<g>
</g>
<g>
</g>
<g>
</g>
<g>
</g>
<g>
</g>
<g>
</g>
<g>
</g>
<g>
</g>
<g>
</g>
</svg>
