<?xml version="1.0" encoding="iso-8859-1"?>
<!-- Generator: Adobe Illustrator 19.0.0, SVG Export Plug-In . SVG Version: 6.00 Build 0)  -->
<svg version="1.1" id="Capa_1" xmlns="http://www.w3.org/2000/svg" xmlns:xlink="http://www.w3.org/1999/xlink" x="0px" y="0px"
	 viewBox="0 0 395.947 395.947" style="enable-background:new 0 0 395.947 395.947;" xml:space="preserve">
<g>
	<g>
		<path d="M262.827,0c-12.346,0-24.04,5.54-35.345,10.895c-10.407,4.932-20.234,9.585-29.508,9.585s-19.101-4.652-29.508-9.585
			C157.16,5.54,145.466,0,133.12,0C85.654,0,51.2,51.681,51.2,122.88c0,54.04,26.348,273.067,81.92,273.067
			c16.995,0,23.62-28.979,33.86-80.196c6.567-32.826,17.558-87.764,30.966-87.822c17.92,0.061,27.781,56.061,34.307,93.116
			c7.946,45.104,13.193,74.902,30.573,74.902c55.573,0,81.92-219.027,81.92-273.067C344.747,51.681,310.292,0,262.827,0z
			 M263.045,382.327c-6.625-2.775-13.073-39.41-17.347-63.655c-9.032-51.275-18.367-104.298-47.753-104.4
			c-24.614,0.106-34.198,48.046-44.353,98.799c-4.98,24.921-13.326,66.628-20.473,69.222c-11.892,0-30.713-27.255-47.855-103.752
			C72.492,221.508,64.853,154.607,64.853,122.88c0-63.29,28.713-109.227,68.267-109.227c9.274,0,19.101,4.652,29.508,9.585
			c11.305,5.356,22.999,10.895,35.345,10.895s24.04-5.54,35.345-10.895c10.407-4.932,20.234-9.585,29.508-9.585
			c39.554,0,68.267,45.937,68.267,109.227c0,31.727-7.639,98.628-20.415,155.662C293.54,355.034,274.719,382.29,263.045,382.327z"/>
	</g>
</g>
<g>
	<g>
		<path d="M194.56,75.093c-26.348,0-47.787,21.436-47.787,47.787s21.439,47.787,47.787,47.787s47.787-21.436,47.787-47.787
			S220.908,75.093,194.56,75.093z M194.56,157.013c-18.821,0-34.133-15.312-34.133-34.133s15.312-34.133,34.133-34.133
			s34.133,15.312,34.133,34.133S213.381,157.013,194.56,157.013z"/>
	</g>
</g>
<g>
	<g>
		<path d="M194.56,47.787c-3.772,0-6.827,3.058-6.827,6.827v136.533c0,3.768,3.055,6.827,6.827,6.827s6.827-3.058,6.827-6.827
			V54.613C201.387,50.845,198.332,47.787,194.56,47.787z"/>
	</g>
</g>
<g>
	<g>
		<path d="M263.001,116.053H126.293c-3.772,0-6.827,3.058-6.827,6.827s3.055,6.827,6.827,6.827h136.707
			c3.772,0,6.827-3.058,6.827-6.827S266.772,116.053,263.001,116.053z"/>
	</g>
</g>
<g>
</g>
<g>
</g>
<g>
</g>
<g>
</g>
<g>
</g>
<g>
</g>
<g>
</g>
<g>
</g>
<g>
</g>
<g>
</g>
<g>
</g>
<g>
</g>
<g>
</g>
<g>
</g>
<g>
</g>
</svg>
