<?xml version="1.0" encoding="iso-8859-1"?>
<!-- Generator: Adobe Illustrator 19.0.0, SVG Export Plug-In . SVG Version: 6.00 Build 0)  -->
<svg version="1.1" id="Capa_1" xmlns="http://www.w3.org/2000/svg" xmlns:xlink="http://www.w3.org/1999/xlink" x="0px" y="0px"
	 viewBox="0 0 479.641 479.641" style="enable-background:new 0 0 479.641 479.641;" xml:space="preserve">
<g>
	<g>
		<path d="M32,311.474c-8.837,0-16-7.163-16-16s7.163-16,16-16h8v-16h-8c-17.673,0-32,14.327-32,32c0,17.673,14.327,32,32,32h64v-16
			H32z"/>
	</g>
</g>
<g>
	<g>
		<path d="M32,359.474h64v-16H32c-17.673,0-32,14.327-32,32c0,17.673,14.327,32,32,32h8v-16h-8c-8.837,0-16-7.163-16-16
			S23.163,359.474,32,359.474z"/>
	</g>
</g>
<g>
	<g>
		<path d="M391.262,51.008c-86.811-52.825-200.009-25.274-252.834,61.538c-2.245,3.69-4.36,7.458-6.34,11.297
			C119.88,147.722,67,263.25,64.752,268.154c-1.834,4.02-0.061,8.765,3.958,10.599c1.033,0.471,2.154,0.717,3.29,0.721h40v24
			c0,4.418,3.582,8,8,8h16c13.255,0,24,10.745,24,24s-10.745,24-24,24h-16c-4.418,0-8,3.582-8,8v48c0.026,22.08,17.92,39.974,40,40
			h256c4.418,0,8-3.582,8-8c0-52.56,13.744-106.248,36.8-143.632C505.625,217.03,478.074,103.833,391.262,51.008z M444.759,285.485
			c-1.755,3.392-3.625,6.724-5.607,9.989c-23.336,37.872-37.72,91.2-39.048,144H286.872c3.255-4.25,5.619-9.112,6.952-14.296
			l25.936-103.76l-15.52-3.888l-25.944,103.768c-2.672,10.682-12.269,18.175-23.28,18.176H152c-13.255,0-24-10.745-24-24v-40h8
			c22.091,0,40-17.909,40-40c0-22.091-17.909-40-40-40h-8v-24c0-4.418-3.582-8-8-8H84.472c13.984-30.472,52-113.128,61.848-132.36
			C188.948,48.702,290.313,16.452,372.725,59.08S487.387,203.074,444.759,285.485z"/>
	</g>
</g>
<g>
	<g>
		<path d="M200,183.474c-17.673,0-32,14.327-32,32s14.327,32,32,32s32-14.327,32-32S217.673,183.474,200,183.474z M200,231.474
			c-8.837,0-16-7.163-16-16s7.163-16,16-16s16,7.163,16,16S208.837,231.474,200,231.474z"/>
	</g>
</g>
<g>
</g>
<g>
</g>
<g>
</g>
<g>
</g>
<g>
</g>
<g>
</g>
<g>
</g>
<g>
</g>
<g>
</g>
<g>
</g>
<g>
</g>
<g>
</g>
<g>
</g>
<g>
</g>
<g>
</g>
</svg>
