<?xml version="1.0" encoding="iso-8859-1"?>
<!-- Generator: Adobe Illustrator 19.0.0, SVG Export Plug-In . SVG Version: 6.00 Build 0)  -->
<svg version="1.1" id="Capa_1" xmlns="http://www.w3.org/2000/svg" xmlns:xlink="http://www.w3.org/1999/xlink" x="0px" y="0px"
	 viewBox="0 0 409.6 409.6" style="enable-background:new 0 0 409.6 409.6;" xml:space="preserve">
<g>
	<g>
		<path d="M333.152,70.652c-5.547-18.149-17.193-30.444-32.799-34.621c-8.141-2.191-16.572-0.645-24.726,0.843
			c-7.042,1.283-13.674,2.492-18.947,1.082c-5.277-1.417-10.417-5.786-15.865-10.411c-6.318-5.369-12.851-10.919-20.999-13.1
			c-30.74-8.243-61.843,18.79-74.022,64.232c-6.827,25.474-31.379,175.616,6.997,185.9c12.78,3.444,22.398-15.957,36.919-45.319
			c6.752-13.67,24.794-50.056,31.28-48.234c9.335,2.539,5.987,40.704,4.188,61.208c-2.666,30.443-4.434,50.558,8.154,53.924
			c1.13,0.304,2.7,0.724,4.755,0.724c8.653,0,25.894-7.468,54.798-62.696c18.456-35.246,34.103-75.52,39.455-95.515
			C337.923,107.826,338.21,87.22,333.152,70.652z M319.59,125.251c-5.246,19.579-21.04,59.648-38.4,92.809
			c-23.02,43.981-37.707,55.463-43.513,55.463c-0.024,0-0.051,0-0.072,0c-2.338-5.236-0.505-26.119,0.72-40.137
			c3.007-34.246,6.106-69.663-13.92-75.11c-17.067-4.492-30.706,23.149-46.52,55.132c-6.939,14.029-17.299,34.983-22.426,38.154
			c-17.183-7.724-10.793-117.671,3.079-169.472c10.032-37.441,34.888-61.061,57.859-54.9c5.277,1.417,10.417,5.786,15.865,10.411
			c6.318,5.369,12.851,10.919,20.999,13.1c8.127,2.185,16.572,0.642,24.726-0.843c7.035-1.287,13.681-2.499,18.947-1.082
			c14.159,3.792,20.647,16.087,23.593,25.73C324.878,88.742,324.543,106.761,319.59,125.251z"/>
	</g>
</g>
<g>
	<g>
		<path d="M221.87,35.965c-21.866-5.84-44.319,7.154-50.166,28.962c-0.973,3.639,1.188,7.383,4.826,8.359
			c0.594,0.16,1.188,0.236,1.775,0.236c3.014-0.003,5.768-2.014,6.584-5.062c3.901-14.544,18.913-23.214,33.447-19.309
			c3.652,0.99,7.393-1.184,8.359-4.826C227.669,40.683,225.509,36.938,221.87,35.965z"/>
	</g>
</g>
<g>
	<g>
		<path d="M404.975,238.147c-1.662-0.553-40.974-13.534-95.215,2.888c-13.988,4.239-28.153,13.667-43.155,23.654
			c-20.466,13.623-41.632,27.709-61.805,27.709c-20.169,0-41.329-14.083-61.795-27.703c-15.005-9.987-29.177-19.422-43.165-23.654
			c-54.234-16.418-93.563-3.454-95.215-2.895C1.86,239.089,0,241.69,0,244.612v145.19c0,3.768,3.055,6.827,6.827,6.827h395.947
			c3.772,0,6.827-3.055,6.827-6.827v-145.19C409.6,241.687,407.743,239.086,404.975,238.147z M395.947,382.975H13.653V249.841
			c11.387-2.649,42.694-7.707,82.227,4.267c12.066,3.652,25.419,12.541,39.567,21.955c22.146,14.742,45.053,29.99,69.352,29.99
			c24.299,0,47.213-15.251,69.373-30c14.135-9.411,27.494-18.302,39.547-21.951c39.547-11.971,70.854-6.905,82.227-4.26V382.975z"/>
	</g>
</g>
<g>
	<g>
		<path d="M140.718,331.236l-33.539-33.539c-2.666-2.666-6.987-2.666-9.653,0c-2.666,2.666-2.666,6.987,0,9.653l33.539,33.539
			c1.335,1.335,3.079,2,4.826,2s3.495-0.666,4.826-2C143.384,338.223,143.384,333.902,140.718,331.236z"/>
	</g>
</g>
<g>
	<g>
		<path d="M140.718,297.696c-2.666-2.666-6.987-2.666-9.653,0l-33.539,33.539c-2.666,2.666-2.666,6.987,0,9.653
			c1.335,1.335,3.079,2,4.826,2c1.748,0,3.495-0.666,4.826-2l33.539-33.539C143.384,304.683,143.384,300.362,140.718,297.696z"/>
	</g>
</g>
<g>
	<g>
		<path d="M236.291,351.716l-33.539-33.539c-2.666-2.666-6.987-2.666-9.653,0s-2.666,6.987,0,9.653l33.539,33.539
			c1.335,1.335,3.079,2,4.826,2c1.748,0,3.495-0.666,4.826-2C238.957,358.703,238.957,354.382,236.291,351.716z"/>
	</g>
</g>
<g>
	<g>
		<path d="M236.291,318.176c-2.666-2.666-6.987-2.666-9.653,0l-33.539,33.539c-2.666,2.666-2.666,6.987,0,9.653
			c1.335,1.335,3.079,2,4.826,2s3.495-0.666,4.826-2l33.539-33.539C238.957,325.163,238.957,320.842,236.291,318.176z"/>
	</g>
</g>
<g>
</g>
<g>
</g>
<g>
</g>
<g>
</g>
<g>
</g>
<g>
</g>
<g>
</g>
<g>
</g>
<g>
</g>
<g>
</g>
<g>
</g>
<g>
</g>
<g>
</g>
<g>
</g>
<g>
</g>
</svg>
