<?xml version="1.0" encoding="iso-8859-1"?>
<!-- Generator: Adobe Illustrator 19.0.0, SVG Export Plug-In . SVG Version: 6.00 Build 0)  -->
<svg version="1.1" id="Capa_1" xmlns="http://www.w3.org/2000/svg" xmlns:xlink="http://www.w3.org/1999/xlink" x="0px" y="0px"
	 viewBox="0 0 480.009 480.009" style="enable-background:new 0 0 480.009 480.009;" xml:space="preserve">
<g>
	<g>
		<path d="M259.345,285.696c-2.048,5.248-4.368,10.472-6.896,15.528l-11.6,23.2c-0.419,0.846-0.69,1.758-0.8,2.696l-13.744,123.736
			c-0.888,8.108-8.181,13.96-16.289,13.071c-6.673-0.731-12.013-5.871-12.999-12.511l-17.528-116.872
			c-2.951-19.595-21.228-33.088-40.823-30.137c-15.57,2.345-27.793,14.567-30.137,30.137L91.001,451.416
			c-1.198,8.068-8.709,13.637-16.777,12.439c-6.64-0.986-11.78-6.326-12.511-12.999L47.961,327.12
			c-0.111-0.938-0.381-1.85-0.8-2.696l-11.6-23.2c-12.823-25.729-19.516-54.077-19.552-82.824
			c0.008-32.253,26.16-58.394,58.414-58.386c7.891,0.002,15.699,1.603,22.954,4.706c25.937,11.106,54.987,12.59,81.92,4.184
			l-4.8-15.264c-23.295,7.262-48.416,5.977-70.848-3.624c-37.784-16.149-81.505,1.39-97.653,39.173
			c-3.946,9.233-5.983,19.17-5.987,29.211c0.042,31.233,7.315,62.031,21.248,89.984l10.952,21.92l13.6,122.32
			c1.875,16.893,17.09,29.068,33.983,27.193c13.872-1.54,24.971-12.222,27.041-26.025l17.528-116.872
			c1.413-9.751,9.795-16.97,19.648-16.92c9.853-0.05,18.235,7.169,19.648,16.92l17.528,116.872
			c2.52,16.809,18.19,28.393,34.999,25.873c13.803-2.069,24.485-13.169,26.025-27.041l13.6-122.32l10.952-21.92
			c2.744-5.496,5.264-11.2,7.488-16.864L259.345,285.696z"/>
	</g>
</g>
<g>
	<g>
		<path d="M59.569,177.344c-17.236,11.462-27.583,30.797-27.56,51.496V240h16v-11.16c-0.017-15.349,7.658-29.686,20.44-38.184
			L59.569,177.344z"/>
	</g>
</g>
<g>
	<g>
		<path d="M296.009,72h-16c0.026,22.08,17.92,39.974,40,40V96C306.754,96,296.009,85.255,296.009,72z"/>
	</g>
</g>
<g>
	<g>
		<rect x="376.009" y="96" width="16" height="16"/>
	</g>
</g>
<g>
	<g>
		<path d="M400.009,216h16c0-13.255,10.745-24,24-24v-16C417.928,176.026,400.035,193.92,400.009,216z"/>
	</g>
</g>
<g>
	<g>
		<path d="M232.009,104v16c13.255,0,24,10.745,24,24h16C271.982,121.92,254.089,104.026,232.009,104z"/>
	</g>
</g>
<g>
	<g>
		<path d="M360.009,200h-16c0.026,22.08,17.92,39.974,40,40v-16C370.754,224,360.009,213.255,360.009,200z"/>
	</g>
</g>
<g>
	<g>
		<path d="M328.009,80h16c0-13.255,10.745-24,24-24V40C345.928,40.026,328.035,57.92,328.009,80z"/>
	</g>
</g>
<g>
	<g>
		<path d="M312.009,136c0,13.255-10.745,24-24,24v16c22.08-0.026,39.974-17.92,40-40H312.009z"/>
	</g>
</g>
<g>
	<g>
		<path d="M432.009,128c0,13.255-10.745,24-24,24v16c22.08-0.026,39.974-17.92,40-40H432.009z"/>
	</g>
</g>
<g>
	<g>
		<path d="M384.009,64v16c13.255,0,24,10.745,24,24h16C423.982,81.92,406.089,64.026,384.009,64z"/>
	</g>
</g>
<g>
	<g>
		<path d="M304.009,216v16c13.255,0,24,10.745,24,24h16C343.982,233.92,326.089,216.026,304.009,216z"/>
	</g>
</g>
<g>
	<g>
		<path d="M336.009,112v16c13.255,0,24,10.745,24,24h16C375.982,129.92,358.089,112.026,336.009,112z"/>
	</g>
</g>
<g>
	<g>
		<rect x="368.009" y="168" width="16" height="16"/>
	</g>
</g>
<g>
	<g>
		<rect x="320.009" y="176" width="16" height="16"/>
	</g>
</g>
<g>
	<g>
		<rect x="304.009" y="40" width="16" height="16"/>
	</g>
</g>
<g>
	<g>
		<rect x="248.009" y="72" width="16" height="16"/>
	</g>
</g>
<g>
	<g>
		<rect x="400.009" y="120" width="16" height="16"/>
	</g>
</g>
<g>
	<g>
		<path d="M430.26,35.104C404.086,12.45,370.625-0.013,336.009,0C256.48,0.005,192.013,64.48,192.018,144.009
			c0.001,22.686,5.363,45.05,15.647,65.271l-30.504,50.584c-2.28,3.784-1.061,8.701,2.724,10.981c2.018,1.216,4.469,1.48,6.7,0.723
			l55.28-18.8c60.106,52.024,151.006,45.472,203.03-14.635C496.918,178.027,490.366,87.128,430.26,35.104z M397.692,256.163
			c-18.899,10.391-40.116,15.839-61.683,15.837c-32.228-0.01-63.256-12.22-86.848-34.176c-1.479-1.373-3.422-2.135-5.44-2.136
			c-0.877,0-1.747,0.146-2.576,0.432l-38.968,13.248l21.528-35.696c1.476-2.448,1.534-5.498,0.152-8
			c-34.061-61.946-11.455-139.775,50.491-173.835c61.946-34.061,139.775-11.455,173.835,50.491
			C482.243,144.274,459.638,222.103,397.692,256.163z"/>
	</g>
</g>
<g>
	<g>
		<path d="M248.009,168h-16c0.026,22.08,17.92,39.974,40,40v-16C258.754,192,248.009,181.255,248.009,168z"/>
	</g>
</g>
<g>
</g>
<g>
</g>
<g>
</g>
<g>
</g>
<g>
</g>
<g>
</g>
<g>
</g>
<g>
</g>
<g>
</g>
<g>
</g>
<g>
</g>
<g>
</g>
<g>
</g>
<g>
</g>
<g>
</g>
</svg>
