<?xml version="1.0" encoding="iso-8859-1"?>
<!-- Generator: Adobe Illustrator 19.0.0, SVG Export Plug-In . SVG Version: 6.00 Build 0)  -->
<svg version="1.1" id="Capa_1" xmlns="http://www.w3.org/2000/svg" xmlns:xlink="http://www.w3.org/1999/xlink" x="0px" y="0px"
	 viewBox="0 0 375.467 375.467" style="enable-background:new 0 0 375.467 375.467;" xml:space="preserve">
<g>
	<g>
		<path d="M325.39,296.212c-2.615-2.72-6.946-2.799-9.653-0.188c-44.059,42.4-108.694,53.876-164.68,29.228
			c-3.488-1.546-7.482,0.048-9.001,3.495c-1.522,3.451,0.044,7.482,3.492,8.998c21.378,9.414,43.906,13.998,66.232,13.998
			c41.452,0,82.179-15.814,113.422-45.879C327.922,303.25,328.004,298.929,325.39,296.212z"/>
	</g>
</g>
<g>
	<g>
		<path d="M105.428,293.973c-17.172-17.176-29.59-37.536-36.905-60.518c-1.147-3.594-4.973-5.574-8.581-4.437
			c-3.587,1.147-5.574,4.983-4.434,8.578c7.875,24.73,21.794,47.565,40.267,66.034c1.335,1.335,3.079,2,4.826,2
			c1.744,0,3.492-0.666,4.826-2.004C108.093,300.96,108.093,296.639,105.428,293.973z"/>
	</g>
</g>
<g>
	<g>
		<path d="M105.428,71.922c-2.666-2.666-6.987-2.666-9.653,0c-18.466,18.466-32.379,41.288-40.253,65.99
			c-1.14,3.594,0.84,7.434,4.434,8.578c0.693,0.222,1.386,0.328,2.072,0.328c2.895,0,5.581-1.853,6.506-4.758
			c7.315-22.961,19.729-43.312,36.895-60.484C108.093,78.909,108.093,74.584,105.428,71.922z"/>
	</g>
</g>
<g>
	<g>
		<path d="M327.479,71.922c-48.179-48.179-119.6-61.58-181.941-34.113c-3.444,1.522-5.011,5.547-3.492,8.998
			c1.522,3.441,5.509,5.028,9.001,3.495c57.139-25.156,122.617-12.885,166.779,31.273c1.335,1.335,3.079,2,4.826,2
			s3.495-0.666,4.826-2C330.144,78.909,330.144,74.584,327.479,71.922z"/>
	</g>
</g>
<g>
	<g>
		<path d="M54.613,133.164C24.501,133.164,0,157.665,0,187.777s24.501,54.613,54.613,54.613s54.613-24.501,54.613-54.613
			S84.726,133.164,54.613,133.164z M54.613,228.737c-22.586,0-40.96-18.374-40.96-40.96s18.374-40.96,40.96-40.96
			c22.586,0,40.96,18.374,40.96,40.96S77.199,228.737,54.613,228.737z"/>
	</g>
</g>
<g>
	<g>
		<path d="M341.333,64.897c-18.821,0-34.133,15.312-34.133,34.133c0,18.821,15.312,34.133,34.133,34.133
			c18.821,0,34.133-15.312,34.133-34.133C375.467,80.209,360.154,64.897,341.333,64.897z M341.333,119.51
			c-11.295,0-20.48-9.185-20.48-20.48c0-11.295,9.185-20.48,20.48-20.48c11.295,0,20.48,9.185,20.48,20.48
			C361.813,110.325,352.628,119.51,341.333,119.51z"/>
	</g>
</g>
<g>
	<g>
		<path d="M122.88,23.937c-18.821,0-34.133,15.312-34.133,34.133s15.312,34.133,34.133,34.133s34.133-15.312,34.133-34.133
			S141.701,23.937,122.88,23.937z M122.88,78.55c-11.295,0-20.48-9.185-20.48-20.48s9.185-20.48,20.48-20.48
			s20.48,9.185,20.48,20.48S134.175,78.55,122.88,78.55z"/>
	</g>
</g>
<g>
	<g>
		<path d="M122.88,283.35c-18.821,0-34.133,15.312-34.133,34.133s15.312,34.133,34.133,34.133s34.133-15.312,34.133-34.133
			S141.701,283.35,122.88,283.35z M122.88,337.964c-11.295,0-20.48-9.185-20.48-20.48c0-11.295,9.185-20.48,20.48-20.48
			s20.48,9.185,20.48,20.48C143.36,328.779,134.175,337.964,122.88,337.964z"/>
	</g>
</g>
<g>
	<g>
		<path d="M341.333,249.217c-18.821,0-34.133,15.312-34.133,34.133c0,18.821,15.312,34.133,34.133,34.133
			c18.821,0,34.133-15.312,34.133-34.133C375.467,264.529,360.154,249.217,341.333,249.217z M341.333,303.83
			c-11.295,0-20.48-9.185-20.48-20.48c0-11.295,9.185-20.48,20.48-20.48c11.295,0,20.48,9.185,20.48,20.48
			C361.813,294.645,352.628,303.83,341.333,303.83z"/>
	</g>
</g>
<g>
</g>
<g>
</g>
<g>
</g>
<g>
</g>
<g>
</g>
<g>
</g>
<g>
</g>
<g>
</g>
<g>
</g>
<g>
</g>
<g>
</g>
<g>
</g>
<g>
</g>
<g>
</g>
<g>
</g>
</svg>
