<?xml version="1.0" encoding="iso-8859-1"?>
<!-- Generator: Adobe Illustrator 19.0.0, SVG Export Plug-In . SVG Version: 6.00 Build 0)  -->
<svg version="1.1" id="Capa_1" xmlns="http://www.w3.org/2000/svg" xmlns:xlink="http://www.w3.org/1999/xlink" x="0px" y="0px"
	 viewBox="0 0 477.656 477.656" style="enable-background:new 0 0 477.656 477.656;" xml:space="preserve">
<g>
	<g>
		<path d="M89.912,176.988l-2.608-7.56l-2.464-7.616c-9.6,3.104-25.728,17.168-17.968,48.216l15.528-3.872
			C76.536,182.692,88.52,177.508,89.912,176.988z"/>
	</g>
</g>
<g>
	<g>
		<path d="M288,281.092v135H16v-148.16l9.064-7.248c8.947-7.205,22.041-5.792,29.246,3.156c0.794,0.986,1.496,2.043,2.098,3.156
			l20.896,111.44c2.715,14.411,16.598,23.892,31.009,21.177c11.462-2.159,20.173-11.546,21.471-23.137l12.4-111.6
			c0.62-5.421,5.517-9.313,10.939-8.693c4.567,0.522,8.171,4.126,8.693,8.693l12.4,111.6c1.632,14.573,14.769,25.064,29.343,23.431
			c11.591-1.298,20.978-10.009,23.137-21.471L247.6,266.972l4.624-7.704c12.937-21.57,19.773-46.248,19.776-71.4
			c0-33.013-26.762-59.776-59.776-59.776c-9.281,0-18.435,2.161-26.736,6.312c-21.093,10.491-45.883,10.491-66.976,0
			c-29.52-14.77-65.424-2.813-80.195,26.707c-4.156,8.307-6.319,17.469-6.317,26.757c0.03,18.008,3.562,35.837,10.4,52.496
			c-9.786-1.156-19.626,1.665-27.312,7.832L3,257.844c-1.897,1.519-3.001,3.818-3,6.248v160c0,4.418,3.582,8,8,8h288
			c4.418,0,8-3.582,8-8v-143H288z M91.776,144.092c6.797,0.011,13.5,1.593,19.584,4.624c25.604,12.716,55.684,12.716,81.288,0
			c21.625-10.812,47.92-2.046,58.731,19.579c3.038,6.077,4.62,12.778,4.621,19.573c0.005,22.263-6.042,44.109-17.496,63.2
			l-5.36,8.936c-0.488,0.814-0.829,1.708-1.008,2.64l-21.16,112.84c-1.083,5.726-6.603,9.49-12.329,8.407
			c-4.556-0.862-8.016-4.598-8.527-9.207l-12.4-111.6c-1.567-14.203-14.35-24.446-28.553-22.879
			c-12.043,1.328-21.551,10.836-22.879,22.879l-12.408,111.6c-0.641,5.792-5.857,9.968-11.649,9.327
			c-4.609-0.51-8.345-3.97-9.207-8.527l-21.16-112.872c-0.17-0.719-0.44-1.411-0.8-2.056l0.08-0.04
			c-0.064-0.128-0.16-0.224-0.224-0.344c-0.064-0.12-0.04-0.136-0.08-0.2l-5.36-8.936C54.038,231.953,47.996,210.119,48,187.868
			C48.031,163.704,67.612,144.123,91.776,144.092z"/>
	</g>
</g>
<g>
	<g>
		<path d="M461.656,106.436l-24-24l-16-16l-11.312,11.312l10.344,10.344L392,116.78l-2.344-2.344l-24-24l-11.312,11.312
			l18.344,18.344l-90.344,90.344c-3.123,3.124-3.123,8.188,0,11.312l14.344,14.344l-38.344,38.344l11.312,11.312L308,247.404
			l14.344,14.344c3.124,3.123,8.188,3.123,11.312,0L424,171.404l18.344,18.344l11.312-11.312l-24-24l-2.344-2.344L456,123.404
			l10.344,10.344l11.312-11.312L461.656,106.436z M328,244.78l-28.688-28.688L312,203.404l10.344,10.344l11.312-11.312
			l-10.344-10.344L336,179.404l10.344,10.344l11.312-11.312l-10.344-10.344L360,155.404l10.344,10.344l11.312-11.312l-10.344-10.344
			L384,131.404l2.344,2.344l24,24l2.344,2.344L328,244.78z M416,140.78l-12.688-12.688L432,99.404l12.688,12.688L416,140.78z"/>
	</g>
</g>
<g>
	<g>
		<path d="M324.016,89.164c-1.221-0.705-2.606-1.075-4.016-1.072h-36.904l12.496-37.472l-15.2-5.056l-16,48
			c-1.396,4.192,0.87,8.722,5.062,10.118c0.821,0.273,1.681,0.412,2.546,0.41h34.216l-25.16,44l13.888,8l32-56
			C329.153,96.266,327.842,91.373,324.016,89.164z"/>
	</g>
</g>
<g>
</g>
<g>
</g>
<g>
</g>
<g>
</g>
<g>
</g>
<g>
</g>
<g>
</g>
<g>
</g>
<g>
</g>
<g>
</g>
<g>
</g>
<g>
</g>
<g>
</g>
<g>
</g>
<g>
</g>
</svg>
