<?xml version="1.0" encoding="iso-8859-1"?>
<!-- Generator: Adobe Illustrator 19.0.0, SVG Export Plug-In . SVG Version: 6.00 Build 0)  -->
<svg version="1.1" id="Capa_1" xmlns="http://www.w3.org/2000/svg" xmlns:xlink="http://www.w3.org/1999/xlink" x="0px" y="0px"
	 viewBox="0 0 389.12 389.12" style="enable-background:new 0 0 389.12 389.12;" xml:space="preserve">
<g>
	<g>
		<path d="M237.469,68.267c-8.482,0-16.251,3.68-23.764,7.24c-6.434,3.045-12.51,5.926-17.923,5.926s-11.489-2.877-17.923-5.926
			c-7.516-3.56-15.288-7.24-23.77-7.24c-31.928,0-55.101,34.246-55.101,81.432c0,26.406,15.189,177.981,55.101,177.981
			c13.455,0,17.715-21.289,24.16-53.514c2.98-14.896,10.892-54.47,17.507-54.497c9.475,0.031,16.101,37.639,19.657,57.842
			c5.325,30.208,8.837,50.169,22.057,50.169c39.912,0,55.101-151.576,55.101-177.981C292.57,102.513,269.397,68.267,237.469,68.267z
			 M238.452,313.924c-3.563-4.574-7.168-25.037-9.591-38.786c-5.98-33.946-12.162-69.055-33.109-69.127
			c-17.807,0.078-23.87,30.382-30.891,65.471c-3.041,15.196-7.578,37.871-11.657,42.462c-18.48-3.369-40.564-110.79-40.564-164.246
			c0-38.639,17.818-67.779,41.448-67.779c5.414,0,11.489,2.881,17.92,5.926c7.516,3.56,15.288,7.24,23.77,7.24
			c8.482,0,16.254-3.68,23.767-7.24c6.434-3.045,12.51-5.926,17.923-5.926c23.63,0,41.448,29.14,41.448,67.779
			C278.917,203.063,256.911,310.2,238.452,313.924z"/>
	</g>
</g>
<g>
	<g>
		<path d="M161.645,88.747c-22.586,0-40.96,18.374-40.96,40.96c0,3.768,3.058,6.827,6.827,6.827c3.772,0,6.827-3.058,6.827-6.827
			c0-15.056,12.25-27.307,27.307-27.307c3.768,0,6.827-3.058,6.827-6.827C168.472,91.805,165.414,88.747,161.645,88.747z"/>
	</g>
</g>
<g>
	<g>
		<g>
			<path d="M85.948,293.519l-28.962,28.962c-2.666,2.666-2.666,6.987,0,9.653c1.335,1.335,3.079,2,4.826,2s3.495-0.669,4.826-2
				l28.962-28.962c2.666-2.666,2.666-6.987,0-9.653C92.935,290.854,88.614,290.854,85.948,293.519z"/>
			<path d="M194.56,334.507c-3.768,0-6.827,3.058-6.827,6.827v40.96c0,3.768,3.058,6.827,6.827,6.827s6.827-3.058,6.827-6.827
				v-40.96C201.387,337.565,198.328,334.507,194.56,334.507z"/>
			<path d="M47.787,187.733H6.827c-3.768,0-6.827,3.058-6.827,6.827s3.058,6.827,6.827,6.827h40.96c3.768,0,6.827-3.058,6.827-6.827
				S51.555,187.733,47.787,187.733z"/>
			<path d="M66.642,56.989c-2.666-2.666-6.987-2.666-9.653,0c-2.666,2.666-2.666,6.987,0,9.653l28.962,28.962
				c1.335,1.335,3.079,2,4.826,2c1.744,0,3.492-0.669,4.826-2c2.666-2.666,2.666-6.987,0-9.653L66.642,56.989z"/>
			<path d="M303.172,293.519c-2.666-2.666-6.987-2.666-9.653,0c-2.666,2.666-2.666,6.987,0,9.653l28.962,28.962
				c1.335,1.335,3.079,2,4.826,2c1.744,0,3.492-0.669,4.826-2c2.666-2.666,2.666-6.987,0-9.653L303.172,293.519z"/>
			<path d="M194.56,0c-3.768,0-6.827,3.058-6.827,6.827v40.96c0,3.768,3.058,6.827,6.827,6.827s6.827-3.058,6.827-6.827V6.827
				C201.387,3.058,198.328,0,194.56,0z"/>
			<path d="M382.293,187.733h-40.96c-3.768,0-6.827,3.058-6.827,6.827s3.058,6.827,6.827,6.827h40.96
				c3.768,0,6.827-3.058,6.827-6.827S386.062,187.733,382.293,187.733z"/>
			<path d="M298.342,97.604c1.748,0,3.495-0.669,4.826-2l28.962-28.962c2.666-2.666,2.666-6.987,0-9.653
				c-2.666-2.666-6.987-2.666-9.653,0l-28.962,28.962c-2.666,2.666-2.666,6.987,0,9.653
				C294.851,96.939,296.595,97.604,298.342,97.604z"/>
		</g>
	</g>
</g>
<g>
</g>
<g>
</g>
<g>
</g>
<g>
</g>
<g>
</g>
<g>
</g>
<g>
</g>
<g>
</g>
<g>
</g>
<g>
</g>
<g>
</g>
<g>
</g>
<g>
</g>
<g>
</g>
<g>
</g>
</svg>
