<?xml version="1.0" encoding="iso-8859-1"?>
<!-- Generator: Adobe Illustrator 19.0.0, SVG Export Plug-In . SVG Version: 6.00 Build 0)  -->
<svg version="1.1" id="Capa_1" xmlns="http://www.w3.org/2000/svg" xmlns:xlink="http://www.w3.org/1999/xlink" x="0px" y="0px"
	 viewBox="0 0 375.467 375.467" style="enable-background:new 0 0 375.467 375.467;" xml:space="preserve">
<g>
	<g>
		<path d="M288.672,116.053c-3.772,0-6.827,3.058-6.827,6.827s3.055,6.827,6.827,6.827c34.468,0,59.488,28.508,59.488,67.779
			c0,46.029-28.279,164.328-59.488,164.328c-3.772,0-6.827,3.058-6.827,6.827s3.055,6.827,6.827,6.827
			c20.968,0,39.363-25.214,54.668-74.943c12.001-38.994,18.473-82.193,18.473-103.038
			C361.813,150.299,331.052,116.053,288.672,116.053z"/>
	</g>
</g>
<g>
	<g>
		<path d="M281.846,116.057c-8.643,0-16.176,3.98-22.822,7.489c-5.751,3.038-11.179,5.909-16.439,5.909
			c-5.499,0-12.513-3.106-19.292-6.113c-8.079-3.584-16.439-7.287-24.832-7.287c-31.928,0-55.101,34.246-55.101,81.432
			c0,26.406,15.193,177.981,55.101,177.981c13.333,0,18.06-21.238,25.218-53.374c3.318-14.937,12.151-54.607,18.879-54.637
			c9.353,0.031,15.114,37.547,18.214,57.699c4.652,30.297,7.728,50.313,21.074,50.313c39.909,0,55.101-151.576,55.101-177.978
			C336.947,150.303,313.774,116.057,281.846,116.057z M282.887,361.697c-3.413-4.714-6.526-24.986-8.619-38.618
			c-5.226-34.024-10.633-69.209-31.706-69.28c-17.688,0.078-24.422,30.31-32.215,65.324c-3.406,15.309-8.496,38.175-12.721,42.615
			c-18.493-3.178-40.612-110.746-40.612-164.253c0-38.639,17.821-67.779,41.448-67.779c5.506,0,12.52,3.11,19.299,6.113
			c8.079,3.581,16.432,7.284,24.825,7.284c8.643,0,16.176-3.98,22.822-7.489c5.751-3.038,11.179-5.908,16.439-5.908
			c23.627,0,41.448,29.14,41.448,67.779C323.294,250.788,301.333,357.748,282.887,361.697z"/>
	</g>
</g>
<g>
	<g>
		<path d="M134.533,111.227L79.92,56.614c-2.666-2.666-6.987-2.666-9.653,0c-2.666,2.666-2.666,6.987,0,9.653l54.613,54.613
			c1.335,1.335,3.079,2,4.826,2s3.492-0.666,4.826-2C137.199,118.214,137.199,113.893,134.533,111.227z"/>
	</g>
</g>
<g>
	<g>
		<path d="M177.493,0c-3.772,0-6.827,3.058-6.827,6.827v68.267c0,3.768,3.055,6.827,6.827,6.827s6.827-3.058,6.827-6.827V6.827
			C184.32,3.058,181.265,0,177.493,0z"/>
	</g>
</g>
<g>
	<g>
		<path d="M95.573,157.013H20.48c-3.772,0-6.827,3.058-6.827,6.827s3.055,6.827,6.827,6.827h75.093c3.772,0,6.827-3.058,6.827-6.827
			S99.345,157.013,95.573,157.013z"/>
	</g>
</g>
<g>
</g>
<g>
</g>
<g>
</g>
<g>
</g>
<g>
</g>
<g>
</g>
<g>
</g>
<g>
</g>
<g>
</g>
<g>
</g>
<g>
</g>
<g>
</g>
<g>
</g>
<g>
</g>
<g>
</g>
</svg>
