<?xml version="1.0" encoding="iso-8859-1"?>
<!-- Generator: Adobe Illustrator 19.0.0, SVG Export Plug-In . SVG Version: 6.00 Build 0)  -->
<svg version="1.1" id="Capa_1" xmlns="http://www.w3.org/2000/svg" xmlns:xlink="http://www.w3.org/1999/xlink" x="0px" y="0px"
	 viewBox="0 0 395.947 395.947" style="enable-background:new 0 0 395.947 395.947;" xml:space="preserve">
<g>
	<g>
		<path d="M262.827,0c-12.346,0-24.04,5.54-35.345,10.895c-10.407,4.932-20.234,9.585-29.508,9.585s-19.101-4.652-29.508-9.585
			C157.16,5.54,145.466,0,133.12,0C85.654,0,51.2,51.681,51.2,122.88c0,54.04,26.348,273.067,81.92,273.067
			c16.995,0,23.62-28.979,33.86-80.196c6.567-32.826,17.558-87.764,30.966-87.822c17.92,0.061,27.781,56.061,34.307,93.116
			c7.946,45.104,13.193,74.902,30.573,74.902c55.573,0,81.92-219.027,81.92-273.067C344.747,51.681,310.292,0,262.827,0z
			 M263.045,382.327c-6.625-2.775-13.073-39.41-17.347-63.655c-9.032-51.275-18.367-104.298-47.753-104.4
			c-24.614,0.106-34.198,48.046-44.353,98.799c-4.98,24.921-13.326,66.628-20.473,69.222c-11.892,0-30.713-27.255-47.855-103.752
			C72.492,221.508,64.853,154.607,64.853,122.88c0-63.29,28.713-109.227,68.267-109.227c9.274,0,19.101,4.652,29.508,9.585
			c11.305,5.356,22.999,10.895,35.345,10.895s24.04-5.54,35.345-10.895c10.407-4.932,20.234-9.585,29.508-9.585
			c39.554,0,68.267,45.937,68.267,109.227c0,31.727-7.639,98.628-20.415,155.662C293.54,355.034,274.719,382.29,263.045,382.327z"/>
	</g>
</g>
<g>
	<g>
		<path d="M133.12,40.96c-22.586,0-40.96,18.374-40.96,40.96c0,22.586,18.374,40.96,40.96,40.96c22.586,0,40.96-18.374,40.96-40.96
			C174.08,59.334,155.706,40.96,133.12,40.96z M133.12,109.227c-15.06,0-27.307-12.25-27.307-27.307s12.247-27.307,27.307-27.307
			s27.307,12.25,27.307,27.307S148.18,109.227,133.12,109.227z"/>
	</g>
</g>
<g>
	<g>
		<path d="M228.693,75.093c-15.06,0-27.307,12.25-27.307,27.307s12.247,27.307,27.307,27.307S256,117.456,256,102.4
			S243.753,75.093,228.693,75.093z M228.693,116.053c-7.526,0-13.653-6.124-13.653-13.653c0-7.53,6.127-13.653,13.653-13.653
			c7.526,0,13.653,6.124,13.653,13.653C242.347,109.93,236.22,116.053,228.693,116.053z"/>
	</g>
</g>
<g>
	<g>
		<path d="M150.187,150.187c-16.94,0-30.72,13.78-30.72,30.72s13.78,30.72,30.72,30.72s30.72-13.78,30.72-30.72
			S167.127,150.187,150.187,150.187z M150.187,197.973c-9.414,0-17.067-7.656-17.067-17.067s7.653-17.067,17.067-17.067
			c9.414,0,17.067,7.656,17.067,17.067S159.601,197.973,150.187,197.973z"/>
	</g>
</g>
<g>
</g>
<g>
</g>
<g>
</g>
<g>
</g>
<g>
</g>
<g>
</g>
<g>
</g>
<g>
</g>
<g>
</g>
<g>
</g>
<g>
</g>
<g>
</g>
<g>
</g>
<g>
</g>
<g>
</g>
</svg>
