<?xml version="1.0" encoding="iso-8859-1"?>
<!-- Generator: Adobe Illustrator 19.0.0, SVG Export Plug-In . SVG Version: 6.00 Build 0)  -->
<svg version="1.1" id="Capa_1" xmlns="http://www.w3.org/2000/svg" xmlns:xlink="http://www.w3.org/1999/xlink" x="0px" y="0px"
	 viewBox="0 0 388.396 388.396" style="enable-background:new 0 0 388.396 388.396;" xml:space="preserve">
<g>
	<g>
		<path d="M148.365,27.31c-5.779,0-11.035,2.485-15.66,4.68c-3.659,1.731-7.107,3.366-9.82,3.366c-2.714,0-6.161-1.635-9.82-3.366
			c-4.628-2.191-9.882-4.68-15.66-4.68c-21.047,0-36.328,22.047-36.328,52.419c0,12.803,2.891,39.311,8.25,63.225
			c9.673,43.192,20.654,48.189,28.075,48.189c10.4,0,13.172-13.855,17.367-34.833c1.867-9.329,5.226-26.112,8.533-30.655
			c3.925,4.058,7.294,23.163,8.96,32.635c3.488,19.784,5.792,32.857,16.101,32.857c7.421,0,18.401-4.994,28.078-48.189
			c5.359-23.914,8.253-50.425,8.253-63.229C184.693,49.357,169.412,27.31,148.365,27.31z M150.102,176.312
			c-1.608-4.536-3.239-13.831-4.4-20.395c-3.84-21.818-7.813-44.38-22.852-44.435c-13.053,0.058-16.954,19.565-21.473,42.148
			c-1.478,7.4-3.594,17.954-5.526,22.74c-9.417-9.155-21.125-65.84-21.125-96.645c0-22.098,9.748-38.765,22.675-38.765
			c2.714,0,6.161,1.638,9.813,3.366c4.628,2.191,9.882,4.68,15.66,4.68c5.779,0,11.035-2.485,15.66-4.68
			c3.659-1.731,7.107-3.366,9.82-3.366c12.93,0,22.675,16.664,22.675,38.765C171.029,110.486,159.356,167.045,150.102,176.312z"/>
	</g>
</g>
<g>
	<g>
		<path d="M347.649,213.388c-2.925-2.389-7.226-1.946-9.598,0.973l-55.166,67.591l-54.333,28.194l-68.048-14.899
			c-2.867-0.621-5.81,0.652-7.315,3.154l-24.272,40.404l-52.087-40.632c-2.406-1.874-5.765-1.932-8.226-0.126l-57.873,42.312
			c-3.048,2.222-3.707,6.496-1.488,9.54c2.226,3.041,6.499,3.707,9.54,1.481l53.712-39.267l54.101,42.202
			c1.212,0.945,2.693,1.444,4.198,1.444c0.416,0,0.836-0.038,1.246-0.119c1.922-0.362,3.601-1.526,4.608-3.198l25.719-42.81
			l65.673,14.38c1.56,0.341,3.195,0.123,4.608-0.611l57.781-29.979c0.826-0.43,1.553-1.024,2.14-1.744l56.054-68.683
			C351.008,220.075,350.574,215.77,347.649,213.388z"/>
	</g>
</g>
<g>
	<g>
		<path d="M373.648,374.74H20.222V6.827C20.222,3.058,17.167,0,13.395,0S6.568,3.058,6.568,6.827V381.57
			c0,3.768,3.055,6.827,6.827,6.827h360.253c3.772,0,6.827-3.062,6.827-6.83C380.475,377.798,377.42,374.74,373.648,374.74z"/>
	</g>
</g>
<g>
	<g>
		<path d="M361.603,68.267h-150.34c-3.772,0-6.827,3.058-6.827,6.827s3.055,6.827,6.827,6.827h150.34
			c3.772,0,6.827-3.058,6.827-6.827S365.375,68.267,361.603,68.267z"/>
	</g>
</g>
<g>
	<g>
		<path d="M272.702,95.573h-61.44c-3.772,0-6.827,3.058-6.827,6.827c0,3.768,3.055,6.827,6.827,6.827h61.44
			c3.772,0,6.827-3.058,6.827-6.827C279.529,98.632,276.474,95.573,272.702,95.573z"/>
	</g>
</g>
<g>
	<g>
		<path d="M340.969,95.573h-40.96c-3.772,0-6.827,3.058-6.827,6.827c0,3.768,3.055,6.827,6.827,6.827h40.96
			c3.772,0,6.827-3.058,6.827-6.827C347.796,98.632,344.741,95.573,340.969,95.573z"/>
	</g>
</g>
<g>
	<g>
		<path d="M376.157,264.523l-103.212-16.118c-0.775-0.13-1.574-0.113-2.348,0.041l-101.96,19.698l-8.267-32.181
			c-0.468-1.812-1.662-3.359-3.301-4.27c-1.638-0.901-3.591-1.099-5.366-0.539l-70.042,22.118l-63.539-63.751
			c-2.659-2.662-6.98-2.683-9.653-0.017c-2.666,2.662-2.679,6.987-0.014,9.656l66.464,66.69c1.802,1.799,4.461,2.451,6.888,1.69
			l67.127-21.2l8.073,31.42c0.788,3.065,3.55,5.127,6.608,5.127c0.427,0,0.867-0.038,1.3-0.12l107.1-20.688l102.035,15.93
			c3.813,0.601,7.219-1.97,7.799-5.69C382.431,268.592,379.885,265.103,376.157,264.523z"/>
	</g>
</g>
<g>
</g>
<g>
</g>
<g>
</g>
<g>
</g>
<g>
</g>
<g>
</g>
<g>
</g>
<g>
</g>
<g>
</g>
<g>
</g>
<g>
</g>
<g>
</g>
<g>
</g>
<g>
</g>
<g>
</g>
</svg>
