<?xml version="1.0" encoding="iso-8859-1"?>
<!-- Generator: Adobe Illustrator 19.0.0, SVG Export Plug-In . SVG Version: 6.00 Build 0)  -->
<svg version="1.1" id="Capa_1" xmlns="http://www.w3.org/2000/svg" xmlns:xlink="http://www.w3.org/1999/xlink" x="0px" y="0px"
	 viewBox="0 0 423.028 423.028" style="enable-background:new 0 0 423.028 423.028;" xml:space="preserve">
<g>
	<g>
		<path d="M276.367,0c-12.291,0-23.965,5.533-35.253,10.878c-10.428,4.939-20.272,9.602-29.6,9.602s-19.173-4.663-29.6-9.602
			C170.626,5.53,158.956,0,146.661,0C99.325,0,64.966,51.586,64.966,122.655c0,21.098,3.055,54.63,8.168,89.699
			c0.474,3.239,3.253,5.646,6.533,5.646h263.694c3.28,0,6.059-2.406,6.533-5.646c5.113-35.069,8.168-68.598,8.168-89.699
			C358.062,51.582,323.7,0,276.367,0z M337.64,204.8H85.388c-4.54-32.382-7.219-62.768-7.219-82.149
			c0-63.423,28.805-109.452,68.492-109.452c9.325,0,19.173,4.666,29.6,9.602c11.288,5.349,22.958,10.878,35.253,10.878
			s23.965-5.53,35.253-10.875c10.428-4.939,20.275-9.602,29.6-9.602c39.687,0,68.492,46.029,68.492,109.452
			C344.859,142.029,342.18,172.418,337.64,204.8z"/>
	</g>
</g>
<g>
	<g>
		<path d="M269.541,204.575H153.487c-3.772,0-6.827,3.058-6.827,6.827v47.787c0,1.475,0.478,2.912,1.365,4.096l19.115,25.487
			v100.123c0,2.181,1.044,4.236,2.813,5.519l37.547,27.307c1.195,0.87,2.608,1.307,4.014,1.307s2.819-0.437,4.014-1.307
			l37.547-27.307c1.765-1.283,2.813-3.335,2.813-5.519V288.771l19.115-25.487c0.884-1.181,1.365-2.618,1.365-4.096v-47.787
			C276.367,207.633,273.312,204.575,269.541,204.575z M262.714,256.911l-19.115,25.487c-0.884,1.181-1.365,2.618-1.365,4.096v98.922
			l-30.72,22.344l-30.72-22.344v-98.922c0-1.475-0.478-2.912-1.365-4.096l-19.115-25.487v-38.683h102.4V256.911z"/>
	</g>
</g>
<g>
	<g>
		<path d="M160.314,27.081c-33.881,0-61.44,27.563-61.44,61.44c0,3.768,3.055,6.827,6.827,6.827s6.827-3.058,6.827-6.827
			c0-26.351,21.439-47.787,47.787-47.787c3.772,0,6.827-3.058,6.827-6.827S164.086,27.081,160.314,27.081z"/>
	</g>
</g>
<g>
	<g>
		<path d="M251.392,314.214l-75.093-27.307c-3.557-1.294-7.458,0.543-8.745,4.082c-1.294,3.543,0.539,7.458,4.079,8.748
			l75.093,27.307c0.775,0.28,1.56,0.413,2.335,0.413c2.785,0,5.407-1.724,6.41-4.495
			C256.765,319.42,254.932,315.505,251.392,314.214z"/>
	</g>
</g>
<g>
	<g>
		<path d="M251.392,348.348l-75.093-27.307c-3.557-1.283-7.458,0.539-8.745,4.082c-1.294,3.543,0.539,7.458,4.079,8.748
			l75.093,27.307c0.775,0.28,1.56,0.413,2.335,0.413c2.785,0,5.407-1.724,6.41-4.495
			C256.765,353.553,254.932,349.638,251.392,348.348z"/>
	</g>
</g>
<g>
	<g>
		<path d="M251.392,382.481l-75.093-27.307c-3.557-1.29-7.458,0.543-8.745,4.082c-1.294,3.543,0.539,7.458,4.079,8.748
			l75.093,27.307c0.775,0.28,1.56,0.413,2.335,0.413c2.785,0,5.407-1.724,6.41-4.495
			C256.765,387.686,254.932,383.771,251.392,382.481z"/>
	</g>
</g>
<g>
</g>
<g>
</g>
<g>
</g>
<g>
</g>
<g>
</g>
<g>
</g>
<g>
</g>
<g>
</g>
<g>
</g>
<g>
</g>
<g>
</g>
<g>
</g>
<g>
</g>
<g>
</g>
<g>
</g>
</svg>
