<?xml version="1.0" encoding="iso-8859-1"?>
<!-- Generator: Adobe Illustrator 19.0.0, SVG Export Plug-In . SVG Version: 6.00 Build 0)  -->
<svg version="1.1" id="Capa_1" xmlns="http://www.w3.org/2000/svg" xmlns:xlink="http://www.w3.org/1999/xlink" x="0px" y="0px"
	 viewBox="0 0 393.345 393.345" style="enable-background:new 0 0 393.345 393.345;" xml:space="preserve">
<g>
	<g>
		<path d="M101.853,291.488c-2.666-2.666-6.987-2.666-9.653,0L2,381.692c-2.666,2.666-2.666,6.987,0,9.653
			c1.335,1.335,3.079,2,4.826,2s3.492-0.666,4.826-2l90.201-90.204C104.519,298.475,104.519,294.153,101.853,291.488z"/>
	</g>
</g>
<g>
	<g>
		<path d="M338.247,113.028L280.32,55.101c-2.666-2.666-6.987-2.666-9.653,0L101.713,224.05c-1.28,1.28-2,3.017-2,4.826
			c0,1.809,0.72,3.547,2,4.826l57.924,57.924c1.335,1.335,3.079,2,4.826,2s3.495-0.666,4.83-1.997l168.953-168.95
			c1.28-1.28,2-3.017,2-4.826C340.247,116.046,339.527,114.308,338.247,113.028z M164.468,277.152l-48.275-48.275l159.3-159.297
			l48.275,48.275L164.468,277.152z"/>
	</g>
</g>
<g>
	<g>
		<path d="M174.121,190.258l-9.653-9.653c-2.666-2.666-6.987-2.666-9.653,0c-2.666,2.666-2.666,6.987,0,9.653l9.653,9.653
			c1.335,1.335,3.079,2,4.826,2c1.744,0,3.492-0.666,4.826-2C176.786,197.245,176.786,192.924,174.121,190.258z"/>
	</g>
</g>
<g>
	<g>
		<path d="M198.26,166.119l-9.66-9.653c-2.666-2.659-6.987-2.662-9.653,0.003c-2.666,2.666-2.666,6.991,0,9.656l9.66,9.653
			c1.335,1.331,3.079,1.997,4.826,1.997c1.744,0,3.492-0.666,4.826-2C200.925,173.11,200.925,168.785,198.26,166.119z"/>
	</g>
</g>
<g>
	<g>
		<path d="M222.392,141.99l-9.653-9.656c-2.666-2.666-6.987-2.666-9.653,0c-2.666,2.662-2.666,6.987,0,9.653l9.653,9.656
			c1.335,1.335,3.079,2,4.826,2c1.748,0,3.495-0.669,4.826-2C225.058,148.981,225.058,144.656,222.392,141.99z"/>
	</g>
</g>
<g>
	<g>
		<path d="M246.524,117.851l-9.653-9.656c-2.666-2.666-6.987-2.666-9.653,0c-2.666,2.662-2.666,6.987,0,9.653l9.653,9.656
			c1.335,1.335,3.079,2,4.826,2c1.748,0,3.495-0.666,4.826-2C249.19,124.842,249.19,120.517,246.524,117.851z"/>
	</g>
</g>
<g>
	<g>
		<path d="M376.709,64.914l-48.275-48.271c-2.574-2.574-6.758-2.574-9.332,0l-43.448,43.445c-1.239,1.236-1.932,2.915-1.932,4.666
			s0.693,3.43,1.932,4.666l48.271,48.275c1.287,1.287,2.98,1.932,4.666,1.932c1.69,0,3.383-0.648,4.669-1.932l43.448-43.448
			c1.239-1.236,1.932-2.915,1.932-4.666S377.948,66.15,376.709,64.914z M328.591,103.693l-38.939-38.939l34.113-34.109
			l38.939,38.936L328.591,103.693z"/>
	</g>
</g>
<g>
	<g>
		<path d="M391.345,79.236L314.112,1.999c-2.666-2.666-6.987-2.666-9.653,0c-2.666,2.666-2.666,6.987,0,9.653l77.234,77.237
			c1.335,1.335,3.079,2,4.826,2c1.748,0,3.495-0.669,4.826-2C394.011,86.223,394.011,81.902,391.345,79.236z"/>
	</g>
</g>
<g>
	<g>
		<path d="M183.773,257.839l-48.268-48.271c-2.666-2.666-6.987-2.666-9.653,0c-2.666,2.666-2.666,6.987,0,9.653l48.268,48.271
			c1.335,1.335,3.079,2,4.826,2c1.744,0,3.492-0.666,4.826-2C186.439,264.826,186.439,260.505,183.773,257.839z"/>
	</g>
</g>
<g>
	<g>
		<path d="M154.651,267.659l-28.966-28.962c-2.574-2.581-6.758-2.574-9.332,0l-33.785,33.789c-2.574,2.577-2.581,6.755,0,9.332
			l28.959,28.962c1.239,1.236,2.912,1.932,4.666,1.932c1.748,0,3.427-0.696,4.666-1.932l33.792-33.789
			c1.239-1.236,1.932-2.915,1.932-4.666C156.583,270.574,155.89,268.895,154.651,267.659z M116.193,296.778l-19.627-19.63
			l24.453-24.457l19.634,19.63L116.193,296.778z"/>
	</g>
</g>
<g>
</g>
<g>
</g>
<g>
</g>
<g>
</g>
<g>
</g>
<g>
</g>
<g>
</g>
<g>
</g>
<g>
</g>
<g>
</g>
<g>
</g>
<g>
</g>
<g>
</g>
<g>
</g>
<g>
</g>
</svg>
