<?xml version="1.0" encoding="iso-8859-1"?>
<!-- Generator: Adobe Illustrator 19.0.0, SVG Export Plug-In . SVG Version: 6.00 Build 0)  -->
<svg version="1.1" id="Capa_1" xmlns="http://www.w3.org/2000/svg" xmlns:xlink="http://www.w3.org/1999/xlink" x="0px" y="0px"
	 viewBox="0 0 409.6 409.6" style="enable-background:new 0 0 409.6 409.6;" xml:space="preserve">
<g>
	<g>
		<path d="M404.975,264.66c-1.656-0.56-40.98-13.534-95.215,2.888c-12.093,3.666-24.48,9.646-37.594,15.974
			c-14.773,7.13-30.054,14.51-45.261,18.569c-3.645,0.973-5.806,4.714-4.833,8.356c0.973,3.649,4.751,5.803,8.352,4.837
			c16.463-4.396,32.328-12.056,47.681-19.466c12.616-6.093,24.535-11.851,35.615-15.203c39.547-11.967,70.854-6.909,82.227-4.26
			v105.827H13.653V276.354c11.394-2.649,42.694-7.707,82.227,4.267c11.083,3.352,23.009,9.11,35.628,15.2
			c17.575,8.489,35.755,17.265,54.682,21.118c3.7,0.751,7.298-1.632,8.045-5.328c0.751-3.697-1.635-7.298-5.328-8.052
			c-17.254-3.512-34.645-11.909-51.466-20.029c-13.114-6.335-25.501-12.315-37.601-15.974c-54.228-16.418-93.563-3.451-95.215-2.895
			C1.86,265.602,0,268.203,0,271.124v117.883c0,3.768,3.055,6.827,6.827,6.827h395.947c3.772,0,6.827-3.058,6.827-6.827V271.124
			C409.6,268.199,407.743,265.598,404.975,264.66z"/>
	</g>
</g>
<g>
	<g>
		<path d="M225.28,175.52c-3.772,0-6.827,3.058-6.827,6.827v143.264l-10.24,16.384l-10.24-16.384V187.044
			c0-3.768-3.055-6.827-6.827-6.827s-6.827,3.058-6.827,6.827v140.524c0,1.28,0.362,2.536,1.041,3.618l17.067,27.307
			c1.246,1.997,3.434,3.208,5.786,3.208s4.54-1.215,5.786-3.209l17.067-27.307c0.683-1.085,1.041-2.338,1.041-3.618v-145.22
			C232.107,178.579,229.052,175.52,225.28,175.52z"/>
	</g>
</g>
<g>
	<g>
		<polygon points="191.147,286.607 191.147,300.261 225.28,320.741 225.28,307.087 		"/>
	</g>
</g>
<g>
	<g>
		<polygon points="191.147,252.474 191.147,266.127 225.28,286.607 225.28,272.954 		"/>
	</g>
</g>
<g>
	<g>
		<polygon points="191.147,218.341 191.147,231.994 225.28,252.474 225.28,238.821 		"/>
	</g>
</g>
<g>
	<g>
		<path d="M247.716,13.766c-8.585,0-16.094,3.97-22.712,7.468c-5.775,3.052-11.233,5.932-16.541,5.932
			c-5.554,0-12.588-3.116-19.395-6.134c-8.059-3.574-16.394-7.267-24.74-7.267c-31.792,0-54.873,34.154-54.873,81.207
			c0,26.368,15.124,177.753,54.873,177.753c13.152,0,17.859-21.163,24.992-53.193c3.656-16.394,12.203-54.787,19.115-54.818
			c9.537,0.034,15.319,37.663,18.425,57.877c4.632,30.188,7.697,50.135,20.852,50.135c39.748,0,54.873-151.381,54.876-177.753
			C302.589,47.92,279.508,13.766,247.716,13.766z M248.648,259.434c-3.471-4.526-6.625-25.061-8.745-38.851
			c-5.209-33.918-10.595-69.001-31.468-69.072c-17.507,0.078-24.221,30.235-31.993,65.15c-3.441,15.452-8.588,38.564-12.861,42.807
			c-18.606-2.836-40.926-110.824-40.926-164.495c0-38.772,17.913-68.007,41.673-68.007c5.553,0,12.585,3.116,19.395,6.13
			c8.059,3.574,16.394,7.267,24.74,7.267c8.578,0,16.087-3.97,22.705-7.465c5.775-3.052,11.233-5.936,16.548-5.936
			c23.76,0,41.673,29.239,41.673,68.007C289.389,148.453,267.22,255.884,248.648,259.434z"/>
	</g>
</g>
<g>
	<g>
		<path d="M171.885,34.021c-22.586,0-40.96,18.374-40.96,40.96c0,3.768,3.055,6.827,6.827,6.827c3.775,0,6.827-3.058,6.827-6.827
			c0-15.056,12.247-27.307,27.307-27.307c3.772,0,6.827-3.058,6.827-6.827S175.657,34.021,171.885,34.021z"/>
	</g>
</g>
<g>
</g>
<g>
</g>
<g>
</g>
<g>
</g>
<g>
</g>
<g>
</g>
<g>
</g>
<g>
</g>
<g>
</g>
<g>
</g>
<g>
</g>
<g>
</g>
<g>
</g>
<g>
</g>
<g>
</g>
</svg>
