<?xml version="1.0" encoding="iso-8859-1"?>
<!-- Generator: Adobe Illustrator 19.0.0, SVG Export Plug-In . SVG Version: 6.00 Build 0)  -->
<svg version="1.1" id="Capa_1" xmlns="http://www.w3.org/2000/svg" xmlns:xlink="http://www.w3.org/1999/xlink" x="0px" y="0px"
	 viewBox="0 0 436.905 436.905" style="enable-background:new 0 0 436.905 436.905;" xml:space="preserve">
<g>
	<g>
		<path d="M244.297,143.359c-5.779,0-11.035,2.488-15.66,4.68c-3.659,1.731-7.107,3.366-9.82,3.366c-2.714,0-6.161-1.635-9.82-3.366
			c-4.628-2.191-9.882-4.68-15.66-4.68c-21.05,0-36.325,22.047-36.325,52.419c0,12.803,2.888,39.315,8.247,63.232
			c9.677,43.192,20.661,48.189,28.078,48.189c10.4,0,13.175-13.858,17.367-34.836c1.867-9.329,5.226-26.112,8.533-30.655
			c3.925,4.058,7.294,23.163,8.96,32.635c3.488,19.784,5.792,32.857,16.101,32.857c7.421,0,18.401-4.997,28.075-48.193
			c5.359-23.914,8.253-50.425,8.253-63.229C280.625,165.406,265.344,143.359,244.297,143.359z M246.041,292.365
			c-1.608-4.536-3.239-13.831-4.4-20.395c-3.84-21.818-7.813-44.38-22.852-44.435c-13.053,0.058-16.954,19.565-21.473,42.148
			c-1.478,7.4-3.594,17.954-5.526,22.74c-9.417-9.155-21.125-65.84-21.125-96.645c0-22.098,9.745-38.765,22.671-38.765
			c2.714,0,6.161,1.635,9.817,3.366c4.628,2.191,9.882,4.68,15.66,4.68c5.779,0,11.035-2.485,15.66-4.68
			c3.659-1.731,7.107-3.366,9.82-3.366c12.93,0,22.675,16.664,22.675,38.765C266.968,226.539,255.295,283.098,246.041,292.365z"/>
	</g>
</g>
<g>
	<g>
		<g>
			<path d="M346.451,317.811c-8.1-6.014-19.681-4.816-27.508,2.884c-26.972,26.515-62.659,41.117-100.492,41.117
				c-74.926,0-137.738-58.498-143.005-133.175c-0.266-3.758-3.529-6.567-7.291-6.328c-3.758,0.266-6.591,3.529-6.328,7.291
				c5.769,81.794,74.564,145.865,156.624,145.865c41.431,0,80.517-15.995,110.066-45.039c2.54-2.505,6.912-3.796,9.786-1.655
				c1.659,1.236,2.659,3.021,2.806,5.031c0.147,1.983-0.58,3.929-1.98,5.332c-32.246,32.236-75.104,49.985-120.678,49.985
				c-90.685,0-165.54-70.885-170.417-161.369c-0.201-3.765-3.502-6.649-7.182-6.451c-3.768,0.201-6.656,3.417-6.451,7.182
				c5.267,97.731,86.112,174.292,184.05,174.292c49.22,0,95.505-19.169,130.335-53.982c4.212-4.219,6.379-10.042,5.939-15.988
				C354.292,326.86,351.271,321.399,346.451,317.811z"/>
			<path d="M218.451,34.133c-49.231,0-95.519,19.173-130.335,53.982c-4.212,4.215-6.38,10.039-5.946,15.981
				c0.437,5.946,3.454,11.411,8.277,14.998c8.127,6.031,19.692,4.816,27.508-2.884c26.969-26.515,62.659-41.117,100.495-41.117
				c78.38,0,142.684,63.754,143.353,142.121c0.034,3.751,3.079,6.769,6.827,6.769c0.02,0,0.041,0,0.061,0
				c3.765-0.034,6.799-3.116,6.765-6.885c-0.734-85.832-71.168-155.658-157.007-155.658c-41.441,0-80.531,15.995-110.07,45.042
				c-2.543,2.499-6.902,3.802-9.786,1.656c-1.662-1.236-2.659-3.021-2.806-5.031c-0.143-1.987,0.577-3.925,1.983-5.332
				c32.239-32.236,75.097-49.988,120.678-49.988c94.106,0,170.667,76.561,170.667,170.667c0,3.768,3.055,6.827,6.827,6.827
				s6.827-3.058,6.827-6.827C402.771,116.821,320.083,34.133,218.451,34.133z"/>
		</g>
	</g>
</g>
<g>
	<g>
		<path d="M108.504,222.228l-47.787-95.573c-2.314-4.625-9.899-4.625-12.213,0L0.718,222.228c-1.055,2.116-0.942,4.628,0.3,6.642
			c1.242,2.01,3.441,3.236,5.806,3.236h95.573c2.365,0,4.564-1.225,5.806-3.236C109.447,226.856,109.563,224.344,108.504,222.228z
			 M17.87,218.453l36.741-73.482l36.738,73.482H17.87z"/>
	</g>
</g>
<g>
	<g>
		<path d="M435.884,214.862c-1.246-2.01-3.441-3.236-5.806-3.236h-95.573c-2.369,0-4.56,1.225-5.806,3.239
			c-1.246,2.014-1.362,4.526-0.3,6.642l47.787,95.573c1.161,2.311,3.519,3.772,6.106,3.772c2.584,0,4.946-1.461,6.106-3.775
			l47.787-95.573C437.243,219.388,437.13,216.876,435.884,214.862z M382.291,298.762l-36.741-73.482h73.479L382.291,298.762z"/>
	</g>
</g>
<g>
</g>
<g>
</g>
<g>
</g>
<g>
</g>
<g>
</g>
<g>
</g>
<g>
</g>
<g>
</g>
<g>
</g>
<g>
</g>
<g>
</g>
<g>
</g>
<g>
</g>
<g>
</g>
<g>
</g>
</svg>
