<?xml version="1.0" encoding="iso-8859-1"?>
<!-- Generator: Adobe Illustrator 19.0.0, SVG Export Plug-In . SVG Version: 6.00 Build 0)  -->
<svg version="1.1" id="Capa_1" xmlns="http://www.w3.org/2000/svg" xmlns:xlink="http://www.w3.org/1999/xlink" x="0px" y="0px"
	 viewBox="0 0 395.496 395.496" style="enable-background:new 0 0 395.496 395.496;" xml:space="preserve">
<g>
	<g>
		<path d="M262.601,0c-12.291,0-23.962,5.533-35.249,10.878c-10.431,4.939-20.279,9.602-29.604,9.602s-19.173-4.663-29.604-9.602
			C156.86,5.53,145.19,0,132.895,0C85.555,0,51.2,51.586,51.2,122.655c0,32.01,7.27,98.475,20.743,158.594
			c16.985,75.807,37.492,114.244,60.952,114.244c16.814,0,23.419-28.911,33.642-80.015c7.004-35.024,17.592-87.945,31.188-88.003
			c18.101,0.065,27.597,53.955,34.526,93.3c7.929,44.995,13.162,74.721,30.351,74.721c55.419,0,81.695-218.849,81.695-272.841
			C344.296,51.582,309.938,0,262.601,0z M262.738,382.314c-6.68-2.464-13.182-39.393-17.49-63.829
			c-9.015-51.18-18.336-104.107-47.527-104.209c-24.422,0.102-33.993,47.954-44.128,98.611
			c-5.021,25.119-13.431,67.164-20.698,69.407c-35.929,0-68.492-186.914-68.492-259.639c0-63.423,28.805-109.452,68.492-109.452
			c9.322,0,19.173,4.663,29.604,9.602c11.284,5.349,22.958,10.878,35.249,10.878c12.291,0,23.962-5.533,35.25-10.878
			c10.431-4.939,20.282-9.602,29.604-9.602c39.687,0,68.492,46.029,68.492,109.452C331.093,195.376,298.53,382.293,262.738,382.314z
			"/>
	</g>
</g>
<g>
	<g>
		<path d="M275.77,242.995c-1.406-3.495-5.362-5.195-8.878-3.802l-136.533,54.613c-3.499,1.406-5.202,5.376-3.802,8.878
			c1.068,2.666,3.632,4.294,6.342,4.294c0.843,0,1.7-0.16,2.536-0.492l136.533-54.613
			C275.466,250.467,277.17,246.497,275.77,242.995z"/>
	</g>
</g>
<g>
	<g>
		<path d="M275.77,270.302c-1.406-3.492-5.362-5.185-8.878-3.802l-136.533,54.613c-3.499,1.406-5.202,5.376-3.802,8.878
			c1.068,2.666,3.632,4.294,6.342,4.294c0.843,0,1.7-0.16,2.536-0.492l136.533-54.613
			C275.466,277.774,277.17,273.804,275.77,270.302z"/>
	</g>
</g>
<g>
	<g>
		<path d="M275.77,297.609c-1.406-3.492-5.362-5.188-8.878-3.802l-136.533,54.613c-3.499,1.406-5.202,5.376-3.802,8.878
			c1.068,2.666,3.632,4.294,6.342,4.294c0.843,0,1.7-0.16,2.536-0.492l136.533-54.613C275.466,305.08,277.17,301.111,275.77,297.609
			z"/>
	</g>
</g>
<g>
	<g>
		<path d="M146.548,27.081c-33.877,0-61.44,27.563-61.44,61.44c0,3.768,3.058,6.827,6.827,6.827c3.768,0,6.827-3.058,6.827-6.827
			c0-26.351,21.436-47.787,47.787-47.787c3.768,0,6.827-3.058,6.827-6.827C153.375,30.14,150.316,27.081,146.548,27.081z"/>
	</g>
</g>
<g>
</g>
<g>
</g>
<g>
</g>
<g>
</g>
<g>
</g>
<g>
</g>
<g>
</g>
<g>
</g>
<g>
</g>
<g>
</g>
<g>
</g>
<g>
</g>
<g>
</g>
<g>
</g>
<g>
</g>
</svg>
