<?xml version="1.0" encoding="iso-8859-1"?>
<!-- Generator: Adobe Illustrator 19.0.0, SVG Export Plug-In . SVG Version: 6.00 Build 0)  -->
<svg version="1.1" id="Capa_1" xmlns="http://www.w3.org/2000/svg" xmlns:xlink="http://www.w3.org/1999/xlink" x="0px" y="0px"
	 viewBox="0 0 395.954 395.954" style="enable-background:new 0 0 395.954 395.954;" xml:space="preserve">
<g>
	<g>
		<path d="M262.83,0c-12.343,0-24.04,5.54-35.349,10.895c-10.404,4.932-20.231,9.585-29.505,9.585s-19.101-4.656-29.505-9.585
			C157.164,5.54,145.466,0,133.124,0c-47.466,0-81.92,51.681-81.92,122.88c0,7.642,0.403,16.995,1.201,27.805
			c0.259,3.567,3.229,6.328,6.806,6.328h277.531c3.577,0,6.547-2.761,6.806-6.328c0.799-10.81,1.201-20.163,1.201-27.805
			C344.75,51.681,310.296,0,262.83,0z M330.367,143.36H65.588c-0.485-7.817-0.73-14.688-0.731-20.48
			c0-63.29,28.71-109.227,68.267-109.227c9.274,0,19.101,4.656,29.505,9.585c11.308,5.356,23.006,10.895,35.349,10.895
			c12.343,0,24.04-5.54,35.348-10.895c10.404-4.932,20.231-9.585,29.505-9.585c39.557,0,68.267,45.937,68.267,109.227
			C331.097,128.672,330.851,135.543,330.367,143.36z"/>
	</g>
</g>
<g>
	<g>
		<path d="M146.777,27.307c-33.877,0-61.44,27.563-61.44,61.44c0,3.768,3.058,6.827,6.827,6.827c3.768,0,6.827-3.058,6.827-6.827
			c0-26.351,21.436-47.787,47.787-47.787c3.768,0,6.827-3.058,6.827-6.827C153.604,30.365,150.545,27.307,146.777,27.307z"/>
	</g>
</g>
<g>
	<g>
		<path d="M337.893,149.555c-0.324-3.509-3.27-6.195-6.796-6.195H64.857c-3.533,0-6.485,2.7-6.799,6.219
			c-0.276,3.12-6.741,77.008,0.027,131.161c6.775,54.217,26.832,108.479,27.682,110.763c1,2.686,3.564,4.444,6.393,4.444
			c0.174,0,0.352-0.007,0.529-0.021c3.038-0.236,5.55-2.447,6.164-5.431c0.106-0.515,10.885-51.835,38.342-95.457
			c21.995-34.949,50.302-57.856,60.597-65.519c10.834,8.707,41.721,34.942,60.969,65.519c23.593,37.492,38.263,95.167,38.41,95.744
			c0.727,2.895,3.249,4.98,6.229,5.151c2.997,0.242,5.721-1.611,6.775-4.403c0.843-2.236,20.777-55.443,27.692-110.79
			C344.781,225.461,338.18,152.627,337.893,149.555z M324.322,279.043c-4.174,33.41-13.5,66.724-19.999,87.252
			c-6.577-20.995-18.265-53.511-34.01-78.531c-24.859-39.503-66.482-70.919-68.243-72.236c-1.208-0.904-2.649-1.362-4.093-1.362
			c-1.311,0-2.625,0.375-3.765,1.133c-1.608,1.062-39.687,26.573-68.57,72.465c-17.411,27.662-28.293,57.661-34.27,77.52
			c-6.516-20.811-15.695-53.893-19.739-86.241c-5.478-43.814-1.874-102.932-0.464-122.033h253.635
			C326.24,175.937,329.906,234.366,324.322,279.043z"/>
	</g>
</g>
<g>
	<g>
		<path d="M92.164,150.187c-3.768,0-6.827,3.058-6.827,6.827v34.133c0,3.768,3.058,6.827,6.827,6.827
			c3.768,0,6.827-3.058,6.827-6.827v-34.133C98.99,153.245,95.932,150.187,92.164,150.187z"/>
	</g>
</g>
<g>
	<g>
		<path d="M126.297,150.187c-3.768,0-6.827,3.058-6.827,6.827v27.307c0,3.768,3.058,6.827,6.827,6.827s6.827-3.058,6.827-6.827
			v-27.307C133.124,153.245,130.065,150.187,126.297,150.187z"/>
	</g>
</g>
<g>
	<g>
		<path d="M160.43,150.187c-3.768,0-6.827,3.058-6.827,6.827v20.48c0,3.768,3.058,6.827,6.827,6.827
			c3.768,0,6.827-3.058,6.827-6.827v-20.48C167.257,153.245,164.199,150.187,160.43,150.187z"/>
	</g>
</g>
<g>
	<g>
		<path d="M235.524,150.187c-3.768,0-6.827,3.058-6.827,6.827v20.48c0,3.768,3.058,6.827,6.827,6.827s6.827-3.058,6.827-6.827
			v-20.48C242.35,153.245,239.292,150.187,235.524,150.187z"/>
	</g>
</g>
<g>
	<g>
		<path d="M269.657,150.187c-3.768,0-6.827,3.058-6.827,6.827v27.307c0,3.768,3.058,6.827,6.827,6.827s6.827-3.058,6.827-6.827
			v-27.307C276.484,153.245,273.425,150.187,269.657,150.187z"/>
	</g>
</g>
<g>
	<g>
		<path d="M303.79,150.187c-3.768,0-6.827,3.058-6.827,6.827v34.133c0,3.768,3.058,6.827,6.827,6.827s6.827-3.058,6.827-6.827
			v-34.133C310.617,153.245,307.559,150.187,303.79,150.187z"/>
	</g>
</g>
<g>
</g>
<g>
</g>
<g>
</g>
<g>
</g>
<g>
</g>
<g>
</g>
<g>
</g>
<g>
</g>
<g>
</g>
<g>
</g>
<g>
</g>
<g>
</g>
<g>
</g>
<g>
</g>
<g>
</g>
</svg>
