<?xml version="1.0" encoding="iso-8859-1"?>
<!-- Generator: Adobe Illustrator 19.0.0, SVG Export Plug-In . SVG Version: 6.00 Build 0)  -->
<svg version="1.1" id="Capa_1" xmlns="http://www.w3.org/2000/svg" xmlns:xlink="http://www.w3.org/1999/xlink" x="0px" y="0px"
	 viewBox="0 0 395.493 395.493" style="enable-background:new 0 0 395.493 395.493;" xml:space="preserve">
<g>
	<g>
		<path d="M300.259,0c-12.291,0-23.965,5.533-35.253,10.878c-10.428,4.939-20.272,9.602-29.6,9.602s-19.173-4.663-29.6-9.602
			C194.517,5.53,182.847,0,170.552,0c-30.778,0-56.579,21.456-70.793,58.87c-0.771,2.028-0.502,4.301,0.734,6.089
			c1.236,1.789,3.267,2.854,5.434,2.854h47.568c20.825,0,37.765,16.94,37.765,37.772c0,20.832-16.94,37.772-37.768,37.772H96.64
			c-1.833,0-3.584,0.761-4.833,2.106s-1.881,3.147-1.748,4.977c3.799,51.76,28.594,245.05,80.493,245.05
			c16.818,0,23.419-28.914,33.645-80.019c7.001-35.021,17.589-87.941,31.181-87.999c18.104,0.065,27.6,53.951,34.526,93.297
			c7.929,44.998,13.169,74.725,30.355,74.725c55.422,0,81.695-218.849,81.695-272.838C381.954,51.582,347.592,0,300.259,0z
			 M300.399,382.31c-6.687-2.464-13.186-39.397-17.493-63.829c-9.015-51.183-18.34-104.107-47.527-104.209
			c-24.419,0.102-33.993,47.954-44.128,98.615c-5.024,25.119-13.432,67.168-20.698,69.41c-20.139,0-55.685-87.695-66.785-225.734
			h49.729c28.102,0,50.968-22.866,50.968-50.975c0-28.109-22.869-50.975-50.968-50.975h-37.601
			c12.541-26.453,32.102-41.414,54.661-41.414c9.329,0,19.173,4.663,29.6,9.602c11.288,5.349,22.961,10.878,35.253,10.878
			s23.965-5.533,35.253-10.878c10.428-4.939,20.275-9.602,29.6-9.602c39.687,0,68.492,46.029,68.492,109.452
			C368.754,195.376,336.188,382.29,300.399,382.31z"/>
	</g>
</g>
<g>
	<g>
		<path d="M218.339,105.585c-3.772,0-6.827,3.058-6.827,6.827c0,28.232-22.968,51.2-51.2,51.2c-3.772,0-6.827,3.058-6.827,6.827
			s3.055,6.827,6.827,6.827c35.761,0,64.853-29.092,64.853-64.853C225.166,108.643,222.111,105.585,218.339,105.585z"/>
	</g>
</g>
<g>
	<g>
		<path d="M163.726,95.345H95.459c-3.772,0-6.827,3.058-6.827,6.827c0,3.768,3.055,6.827,6.827,6.827h68.267
			c3.775,0,6.827-3.058,6.827-6.827C170.552,98.403,167.497,95.345,163.726,95.345z"/>
	</g>
</g>
<g>
	<g>
		<path d="M174.645,96.713l-27.307-20.48c-3.014-2.263-7.287-1.645-9.554,1.362c-2.266,3.017-1.655,7.298,1.365,9.557l20.019,15.019
			L139.15,117.19c-3.017,2.26-3.632,6.54-1.365,9.557c1.341,1.789,3.389,2.731,5.468,2.731c1.427,0,2.86-0.444,4.086-1.362
			l27.307-20.48c1.72-1.287,2.734-3.311,2.734-5.461S176.365,98,174.645,96.713z"/>
	</g>
</g>
<g>
	<g>
		<path d="M37.432,61.211H20.366c-3.772,0-6.827,3.058-6.827,6.827v75.093c0,3.768,3.055,6.827,6.827,6.827h17.067
			c24.467,0,44.373-19.907,44.373-44.373C81.806,81.118,61.899,61.211,37.432,61.211z M37.432,136.305h-10.24v-61.44h10.24
			c16.94,0,30.72,13.78,30.72,30.72C68.152,122.525,54.373,136.305,37.432,136.305z"/>
	</g>
</g>
<g>
</g>
<g>
</g>
<g>
</g>
<g>
</g>
<g>
</g>
<g>
</g>
<g>
</g>
<g>
</g>
<g>
</g>
<g>
</g>
<g>
</g>
<g>
</g>
<g>
</g>
<g>
</g>
<g>
</g>
</svg>
