<?xml version="1.0" encoding="iso-8859-1"?>
<!-- Generator: Adobe Illustrator 19.0.0, SVG Export Plug-In . SVG Version: 6.00 Build 0)  -->
<svg version="1.1" id="Capa_1" xmlns="http://www.w3.org/2000/svg" xmlns:xlink="http://www.w3.org/1999/xlink" x="0px" y="0px"
	 viewBox="0 0 436.907 436.907" style="enable-background:new 0 0 436.907 436.907;" xml:space="preserve">
<g>
	<g>
		<path d="M401.428,131.57c-1.676-3.379-5.768-4.762-9.148-3.092c-3.379,1.676-4.765,5.769-3.092,9.148
			c13.544,27.385,20.412,56.873,20.412,87.654c0,109.162-88.815,197.973-197.973,197.973S13.653,334.442,13.653,225.28
			S102.468,27.307,211.627,27.307c30.519,0,59.781,6.755,86.965,20.077c3.4,1.666,7.482,0.259,9.141-3.127
			c1.652-3.386,0.253-7.475-3.127-9.134c-29.078-14.247-60.358-21.47-92.979-21.47C94.932,13.653,0,108.588,0,225.28
			s94.932,211.627,211.627,211.627s211.627-94.935,211.627-211.627C423.253,192.382,415.908,160.857,401.428,131.57z"/>
	</g>
</g>
<g>
	<g>
		<path d="M361.813,0c-41.407,0-75.093,33.686-75.093,75.093s33.686,75.093,75.093,75.093c41.407,0,75.093-33.686,75.093-75.093
			S403.22,0,361.813,0z M361.813,136.533c-33.881,0-61.44-27.563-61.44-61.44s27.559-61.44,61.44-61.44
			c33.881,0,61.44,27.563,61.44,61.44S395.694,136.533,361.813,136.533z"/>
	</g>
</g>
<g>
	<g>
		<path d="M395.602,41.301c-2.666-2.666-6.987-2.666-9.653,0l-57.921,57.924c-2.666,2.666-2.666,6.987,0,9.653
			c1.335,1.335,3.079,2,4.826,2c1.744,0,3.492-0.666,4.826-2l57.921-57.924C398.268,48.288,398.268,43.967,395.602,41.301z"/>
	</g>
</g>
<g>
	<g>
		<path d="M253.32,95.802c-8.434,0-16.183,3.669-23.675,7.219c-6.451,3.058-12.554,5.946-18.019,5.946s-11.564-2.888-18.019-5.946
			c-7.496-3.55-15.241-7.219-23.675-7.219c-31.792,0-54.873,34.154-54.873,81.207c0,26.368,15.124,177.753,54.873,177.753
			c13.268,0,17.514-21.217,23.941-53.333c2.987-14.947,10.926-54.654,17.729-54.682c9.673,0.034,16.319,37.765,19.886,58.033
			c5.297,30.099,8.806,49.981,21.832,49.981c39.745,0,54.873-151.385,54.873-177.753C308.193,129.956,285.112,95.802,253.32,95.802z
			 M254.201,341.48c-3.622-4.386-7.267-25.098-9.714-38.991c-5.966-33.86-12.134-68.871-32.887-68.943
			c-17.626,0.078-23.671,30.297-30.672,65.294c-3.065,15.34-7.653,38.267-11.786,42.656
			c-18.603-3.014-40.881-110.865-40.881-164.489c0-38.772,17.913-68.007,41.673-68.007c5.468,0,11.568,2.884,18.019,5.943
			c7.496,3.55,15.241,7.219,23.675,7.219s16.183-3.669,23.675-7.219c6.451-3.058,12.551-5.946,18.019-5.946
			c23.76,0,41.673,29.239,41.673,68.007C294.994,230.543,272.787,338.135,254.201,341.48z"/>
	</g>
</g>
<g>
	<g>
		<path d="M177.493,116.053c-22.586,0-40.96,18.374-40.96,40.96c0,3.768,3.055,6.827,6.827,6.827s6.827-3.058,6.827-6.827
			c0-15.056,12.247-27.307,27.307-27.307c3.772,0,6.827-3.058,6.827-6.827C184.32,119.112,181.265,116.053,177.493,116.053z"/>
	</g>
</g>
<g>
	<g>
		<path d="M395.599,99.226l-57.921-57.924c-2.666-2.666-6.987-2.666-9.653,0s-2.666,6.987,0,9.653l57.921,57.924
			c1.335,1.335,3.079,2,4.826,2s3.495-0.666,4.826-2C398.264,106.213,398.264,101.891,395.599,99.226z"/>
	</g>
</g>
<g>
</g>
<g>
</g>
<g>
</g>
<g>
</g>
<g>
</g>
<g>
</g>
<g>
</g>
<g>
</g>
<g>
</g>
<g>
</g>
<g>
</g>
<g>
</g>
<g>
</g>
<g>
</g>
<g>
</g>
</svg>
