<?xml version="1.0" encoding="iso-8859-1"?>
<!-- Generator: Adobe Illustrator 19.0.0, SVG Export Plug-In . SVG Version: 6.00 Build 0)  -->
<svg version="1.1" id="Capa_1" xmlns="http://www.w3.org/2000/svg" xmlns:xlink="http://www.w3.org/1999/xlink" x="0px" y="0px"
	 viewBox="0 0 402.548 402.548" style="enable-background:new 0 0 402.548 402.548;" xml:space="preserve">
<g>
	<g>
		<path d="M289.906,0c-52.698,0-95.573,42.875-95.573,95.573c0,52.698,42.875,95.573,95.573,95.573s95.573-42.875,95.573-95.573
			C385.48,42.875,342.605,0,289.906,0z M289.906,177.493c-45.172,0-81.92-36.751-81.92-81.92s36.748-81.92,81.92-81.92
			s81.92,36.751,81.92,81.92S335.078,177.493,289.906,177.493z"/>
	</g>
</g>
<g>
	<g>
		<path d="M289.906,29.194c-22.586,0-40.96,18.374-40.96,40.96c0,3.768,3.055,6.827,6.827,6.827c3.772,0,6.827-3.058,6.827-6.827
			c0-15.056,12.247-27.307,27.307-27.307s27.307,12.25,27.307,27.307s-12.247,27.307-27.307,27.307
			c-3.772,0-6.827,3.058-6.827,6.827v18.865c0,3.768,3.055,6.827,6.827,6.827s6.827-3.055,6.827-6.827v-12.609
			c19.347-3.26,34.133-20.128,34.133-40.39C330.866,47.568,312.492,29.194,289.906,29.194z"/>
	</g>
</g>
<g>
	<g>
		<path d="M201.699,179.613c-1.427-3.359-5.315-4.905-8.66-3.488c-3.352,1.43-4.912,5.304-3.485,8.656
			c4.874,11.448,7.448,25.283,7.448,40.011c0,53.484-22.17,160.915-40.735,164.465c-3.478-4.529-6.632-25.057-8.745-38.84
			c-5.212-33.925-10.598-69.011-31.478-69.082c-17.507,0.079-24.221,30.232-31.993,65.147c-3.441,15.456-8.585,38.567-12.858,42.81
			c-18.609-2.836-40.926-110.824-40.926-164.495c0-38.772,17.917-68.007,41.673-68.007c5.55,0,12.588,3.116,19.391,6.134
			c8.059,3.574,16.394,7.267,24.74,7.267c8.581,0,16.091-3.97,22.709-7.465c5.779-3.052,11.233-5.936,16.548-5.936
			c1.847,0,3.673,0.164,5.434,0.492c3.594,0.642,7.021-1.707,7.687-5.291c0.666-3.584-1.707-7.028-5.287-7.69
			c-2.546-0.471-5.188-0.71-7.834-0.71c-8.585,0-16.094,3.97-22.712,7.468c-5.779,3.048-11.233,5.932-16.544,5.932
			c-5.55,0-12.588-3.116-19.391-6.134c-8.059-3.574-16.394-7.267-24.74-7.267c-31.795,0-54.873,34.154-54.873,81.207
			c0,26.368,15.124,177.753,54.873,177.753c13.148,0,17.862-21.163,24.992-53.197c3.652-16.398,12.199-54.787,19.115-54.818
			c9.54,0.034,15.322,37.666,18.425,57.887c4.635,30.184,7.697,50.128,20.852,50.128c39.748,0,54.873-151.385,54.873-177.76
			C210.198,208.299,207.259,192.676,201.699,179.613z"/>
	</g>
</g>
<g>
	<g>
		<path d="M218.912,161.676l-22.781-12.459l-12.466-22.787c-2.386-4.372-9.588-4.372-11.974,0l-12.465,22.787l-22.784,12.459
			c-2.188,1.198-3.55,3.492-3.55,5.99s1.359,4.792,3.55,5.99l22.784,12.462l12.465,22.784c1.195,2.191,3.495,3.55,5.987,3.55
			s4.792-1.358,5.987-3.55l12.466-22.784l22.781-12.462c2.195-1.198,3.553-3.492,3.553-5.99
			C222.466,165.168,221.107,162.874,218.912,161.676z M187.827,175.101c-1.147,0.628-2.086,1.57-2.714,2.714l-7.434,13.585
			l-7.434-13.585c-0.628-1.143-1.567-2.086-2.714-2.714l-13.585-7.434l13.585-7.431c1.147-0.628,2.086-1.57,2.714-2.714
			l7.434-13.589l7.434,13.589c0.628,1.143,1.567,2.086,2.714,2.714l13.585,7.431L187.827,175.101z"/>
	</g>
</g>
<g>
	<g>
		<path d="M153.646,204.134l-14.927-8.165l-8.165-14.93c-2.393-4.372-9.588-4.372-11.981,0l-8.165,14.93l-14.93,8.165
			c-2.188,1.198-3.55,3.492-3.55,5.99s1.362,4.792,3.55,5.99l14.93,8.165l8.165,14.93c1.198,2.188,3.495,3.55,5.99,3.55
			c2.499,0,4.796-1.362,5.99-3.55l8.165-14.93l14.927-8.165c2.195-1.198,3.553-3.492,3.553-5.99S155.841,205.333,153.646,204.134z
			 M130.415,213.262c-1.143,0.628-2.086,1.57-2.714,2.714l-3.133,5.734l-3.133-5.734c-0.628-1.143-1.57-2.086-2.714-2.714
			l-5.734-3.133l5.734-3.133c1.143-0.628,2.086-1.57,2.714-2.714l3.133-5.734l3.133,5.734c0.628,1.143,1.57,2.086,2.714,2.714
			l5.734,3.133L130.415,213.262z"/>
	</g>
</g>
<g>
</g>
<g>
</g>
<g>
</g>
<g>
</g>
<g>
</g>
<g>
</g>
<g>
</g>
<g>
</g>
<g>
</g>
<g>
</g>
<g>
</g>
<g>
</g>
<g>
</g>
<g>
</g>
<g>
</g>
</svg>
