<?xml version="1.0" encoding="iso-8859-1"?>
<!-- Generator: Adobe Illustrator 19.0.0, SVG Export Plug-In . SVG Version: 6.00 Build 0)  -->
<svg version="1.1" id="Capa_1" xmlns="http://www.w3.org/2000/svg" xmlns:xlink="http://www.w3.org/1999/xlink" x="0px" y="0px"
	 viewBox="0 0 389.119 389.119" style="enable-background:new 0 0 389.119 389.119;" xml:space="preserve">
<g>
	<g>
		<path d="M346.818,48.107L196.631,0.32c-1.348-0.427-2.792-0.427-4.14,0L42.304,48.107c-2.836,0.901-4.758,3.533-4.758,6.506
			v163.871c0,36.458,23.6,81.108,53.722,101.646l99.444,67.802c1.161,0.792,2.502,1.188,3.847,1.188s2.686-0.396,3.847-1.188
			l99.444-67.802c30.123-20.538,53.722-65.188,53.722-101.646V54.612C351.573,51.639,349.651,49.008,346.818,48.107z
			 M337.92,218.483c0,31.87-21.425,72.41-47.763,90.365l-95.597,65.181l-95.597-65.178C72.625,290.897,51.2,250.357,51.2,218.483
			V59.606L194.56,13.99l143.36,45.616V218.483z"/>
	</g>
</g>
<g>
	<g>
		<path d="M312.709,78.649L196.655,41.29c-1.362-0.44-2.83-0.44-4.188,0L76.414,78.649c-2.819,0.905-4.734,3.533-4.734,6.496v114.65
			c0,36.485,23.508,81.282,53.514,101.98l65.488,45.175c1.167,0.806,2.526,1.208,3.878,1.208s2.71-0.403,3.878-1.208l65.488-45.175
			c30.01-20.702,53.518-65.498,53.518-101.98V85.145C317.443,82.182,315.528,79.557,312.709,78.649z M303.786,199.795
			c0,31.925-21.361,72.629-47.616,90.74l-61.611,42.503l-61.611-42.503c-26.255-18.111-47.616-58.815-47.616-90.74V90.118
			L194.56,54.957l109.227,35.161V199.795z"/>
	</g>
</g>
<g>
	<g>
		<path d="M220.402,102.399c-5.782,0-11.029,2.488-15.657,4.68c-3.652,1.731-7.107,3.366-9.817,3.366
			c-2.71,0-6.164-1.635-9.817-3.366c-4.635-2.191-9.882-4.68-15.664-4.68c-21.05,0-36.328,22.047-36.328,52.419
			c0,12.803,2.891,39.315,8.25,63.232c9.677,43.192,20.661,48.189,28.078,48.189c10.397,0,13.172-13.862,17.367-34.84
			c1.867-9.325,5.222-26.105,8.53-30.648c3.929,4.055,7.298,23.166,8.967,32.638c3.485,19.78,5.782,32.85,16.09,32.85
			c7.417,0,18.401-4.997,28.078-48.193c5.359-23.914,8.25-50.425,8.25-63.229C256.73,124.446,241.452,102.399,220.402,102.399z
			 M222.146,251.405c-1.601-4.54-3.236-13.827-4.393-20.388c-3.843-21.821-7.817-44.387-22.859-44.442
			c-13.049,0.058-16.951,19.562-21.47,42.144c-1.478,7.404-3.591,17.961-5.53,22.743c-9.414-9.155-21.122-65.84-21.122-96.645
			c0-22.098,9.745-38.765,22.675-38.765c2.71,0,6.161,1.635,9.81,3.366c4.635,2.191,9.882,4.68,15.664,4.68
			c5.782,0,11.032-2.485,15.66-4.68c3.652-1.731,7.107-3.366,9.817-3.366c12.93,0,22.675,16.664,22.675,38.765
			C243.073,185.575,231.403,242.131,222.146,251.405z"/>
	</g>
</g>
<g>
</g>
<g>
</g>
<g>
</g>
<g>
</g>
<g>
</g>
<g>
</g>
<g>
</g>
<g>
</g>
<g>
</g>
<g>
</g>
<g>
</g>
<g>
</g>
<g>
</g>
<g>
</g>
<g>
</g>
</svg>
