<?xml version="1.0" encoding="iso-8859-1"?>
<!-- Generator: Adobe Illustrator 19.0.0, SVG Export Plug-In . SVG Version: 6.00 Build 0)  -->
<svg version="1.1" id="Capa_1" xmlns="http://www.w3.org/2000/svg" xmlns:xlink="http://www.w3.org/1999/xlink" x="0px" y="0px"
	 viewBox="0 0 395.947 395.947" style="enable-background:new 0 0 395.947 395.947;" xml:space="preserve">
<g>
	<g>
		<path d="M343.119,207.421c-4.342-33.847-8.448-65.819-8.448-84.541C334.671,51.681,300.217,0,252.751,0
			c-12.346,0-24.04,5.54-35.345,10.895c-10.407,4.932-20.234,9.585-29.508,9.585c-9.274,0-19.101-4.652-29.501-9.585
			C147.088,5.54,135.391,0,123.048,0c-47.466,0-81.92,51.681-81.92,122.88c0,62.669,105.66,273.067,157.013,273.067
			c3.454,0,6.502-1.427,8.574-4.017c5.492-6.864,2.987-19.381-2.72-44.786c-3.847-17.108-8.202-36.492-9.281-55.013
			c-1.802-31.058,5.977-51.091,13.865-59.484c2.191-2.335,5.625-5.12,9.458-5.137c16.64,0.061,48.439,19.255,64.874,55.139
			c7.328,15.998,12.892,38.417,17.8,58.197c8.533,34.362,13.681,55.101,27.133,55.101c5.953,0,11.254-2.451,15.336-7.083
			C361.998,367.473,355.025,300.169,343.119,207.421z M332.924,379.843c-1.331,1.516-2.673,2.263-4.379,2.42
			c-4.478-4.021-10.298-27.467-14.578-44.708c-5.055-20.36-10.786-43.438-18.64-60.593c-18.043-39.393-53.443-63.02-77.288-63.106
			c-6.926,0.031-13.633,3.294-19.412,9.441c-12.919,13.752-19.316,39.127-17.541,69.625c1.14,19.63,5.82,40.472,9.588,57.214
			c2.673,11.892,5.926,26.378,5.478,31.99C157.035,375.784,54.778,189.604,54.778,122.88c0-63.29,28.71-109.227,68.267-109.227
			c9.274,0,19.101,4.652,29.505,9.585c11.308,5.356,23.002,10.895,35.348,10.895c12.346,0,24.04-5.54,35.345-10.895
			c10.407-4.932,20.234-9.585,29.508-9.585c39.554,0,68.267,45.937,68.267,109.227c0,19.596,3.966,50.497,8.561,86.275
			C337.825,273.418,349.123,361.431,332.924,379.843z"/>
	</g>
</g>
<g>
	<g>
		<path d="M291.117,172.073l-33.539-33.539c-2.666-2.666-6.987-2.666-9.653,0c-2.666,2.666-2.666,6.987,0,9.653l33.539,33.539
			c1.335,1.335,3.079,2,4.826,2s3.492-0.666,4.826-2C293.783,179.06,293.783,174.739,291.117,172.073z"/>
	</g>
</g>
<g>
	<g>
		<path d="M291.117,138.534c-2.666-2.666-6.987-2.666-9.653,0l-33.539,33.539c-2.666,2.666-2.666,6.987,0,9.653
			c1.335,1.335,3.079,2,4.826,2s3.492-0.666,4.826-2l33.539-33.539C293.783,145.521,293.783,141.199,291.117,138.534z"/>
	</g>
</g>
<g>
	<g>
		<path d="M181.89,124.286l-33.539-33.539c-2.666-2.666-6.987-2.666-9.653,0c-2.666,2.666-2.666,6.987,0,9.653l33.539,33.539
			c1.335,1.335,3.079,2,4.826,2s3.492-0.666,4.826-2C184.556,131.273,184.556,126.952,181.89,124.286z"/>
	</g>
</g>
<g>
	<g>
		<path d="M181.89,90.747c-2.666-2.666-6.987-2.666-9.653,0l-33.539,33.539c-2.666,2.666-2.666,6.987,0,9.653
			c1.335,1.335,3.079,2,4.826,2c1.748,0,3.492-0.666,4.826-2L181.89,100.4C184.556,97.734,184.556,93.413,181.89,90.747z"/>
	</g>
</g>
<g>
	<g>
		<path d="M136.698,27.307c-37.642,0-68.267,30.624-68.267,68.267c0,3.768,3.058,6.827,6.827,6.827c3.768,0,6.827-3.058,6.827-6.827
			c0-30.112,24.501-54.613,54.613-54.613c3.768,0,6.827-3.058,6.827-6.827C143.525,30.365,140.466,27.307,136.698,27.307z"/>
	</g>
</g>
<g>
</g>
<g>
</g>
<g>
</g>
<g>
</g>
<g>
</g>
<g>
</g>
<g>
</g>
<g>
</g>
<g>
</g>
<g>
</g>
<g>
</g>
<g>
</g>
<g>
</g>
<g>
</g>
<g>
</g>
</svg>
