<?xml version="1.0" encoding="iso-8859-1"?>
<!-- Generator: Adobe Illustrator 19.0.0, SVG Export Plug-In . SVG Version: 6.00 Build 0)  -->
<svg version="1.1" id="Capa_1" xmlns="http://www.w3.org/2000/svg" xmlns:xlink="http://www.w3.org/1999/xlink" x="0px" y="0px"
	 viewBox="0 0 395.947 395.947" style="enable-background:new 0 0 395.947 395.947;" xml:space="preserve">
<g>
	<g>
		<path d="M262.827,0c-12.346,0-24.04,5.54-35.345,10.895c-10.407,4.932-20.234,9.585-29.508,9.585s-19.101-4.652-29.508-9.585
			C157.16,5.54,145.466,0,133.12,0C85.654,0,51.2,51.681,51.2,122.88c0,54.04,26.348,273.067,81.92,273.067
			c16.995,0,23.62-28.979,33.867-80.2c6.567-32.826,17.551-87.76,30.959-87.818c17.913,0.061,27.781,56.057,34.307,93.109
			c7.946,45.111,13.193,74.909,30.573,74.909c55.573,0,81.92-219.027,81.92-273.067C344.747,51.681,310.292,0,262.827,0z
			 M263.045,382.327c-6.625-2.775-13.08-39.414-17.347-63.659c-9.032-51.275-18.374-104.294-47.753-104.397
			c-24.607,0.106-34.191,48.043-44.346,98.795c-4.987,24.921-13.332,66.632-20.48,69.226c-11.892,0-30.713-27.255-47.855-103.752
			C72.492,221.508,64.853,154.607,64.853,122.88c0-63.29,28.713-109.227,68.267-109.227c9.274,0,19.101,4.652,29.508,9.585
			c11.305,5.356,22.999,10.895,35.345,10.895s24.04-5.54,35.345-10.895c10.407-4.932,20.234-9.585,29.508-9.585
			c39.554,0,68.267,45.937,68.267,109.227c0,31.727-7.639,98.628-20.415,155.662C293.54,355.034,274.719,382.29,263.045,382.327z"/>
	</g>
</g>
<g>
	<g>
		<path d="M197.973,40.96c-47.053,0-85.333,38.281-85.333,85.333s38.281,85.333,85.333,85.333s85.333-38.281,85.333-85.333
			S245.026,40.96,197.973,40.96z M197.973,197.973c-39.526,0-71.68-32.157-71.68-71.68s32.154-71.68,71.68-71.68
			s71.68,32.157,71.68,71.68S237.5,197.973,197.973,197.973z"/>
	</g>
</g>
<g>
	<g>
		<path d="M197.973,68.267c-31.993,0-58.027,26.03-58.027,58.027s26.034,58.027,58.027,58.027S256,158.29,256,126.293
			S229.967,68.267,197.973,68.267z M197.973,170.667c-24.467,0-44.373-19.907-44.373-44.373s19.907-44.373,44.373-44.373
			c24.467,0,44.373,19.907,44.373,44.373S222.44,170.667,197.973,170.667z"/>
	</g>
</g>
<g>
	<g>
		<path d="M197.973,102.4c-13.172,0-23.893,10.721-23.893,23.893s10.721,23.893,23.893,23.893s23.893-10.721,23.893-23.893
			S211.145,102.4,197.973,102.4z M197.973,136.533c-5.646,0-10.24-4.594-10.24-10.24c0-5.646,4.594-10.24,10.24-10.24
			s10.24,4.594,10.24,10.24C208.213,131.939,203.619,136.533,197.973,136.533z"/>
	</g>
</g>
<g>
</g>
<g>
</g>
<g>
</g>
<g>
</g>
<g>
</g>
<g>
</g>
<g>
</g>
<g>
</g>
<g>
</g>
<g>
</g>
<g>
</g>
<g>
</g>
<g>
</g>
<g>
</g>
<g>
</g>
</svg>
