<?xml version="1.0" encoding="iso-8859-1"?>
<!-- Generator: Adobe Illustrator 19.0.0, SVG Export Plug-In . SVG Version: 6.00 Build 0)  -->
<svg version="1.1" id="Capa_1" xmlns="http://www.w3.org/2000/svg" xmlns:xlink="http://www.w3.org/1999/xlink" x="0px" y="0px"
	 viewBox="0 0 409.6 409.6" style="enable-background:new 0 0 409.6 409.6;" xml:space="preserve">
<g>
	<g>
		<path d="M263.875,252.546l-2.86-1.884c-17.94-11.844-36.495-24.091-56.214-24.091c-19.729,0-38.294,12.254-56.242,24.108
			l-2.993,1.97c-3.147,2.075-4.017,6.308-1.946,9.458c1.307,1.993,3.488,3.072,5.707,3.072c1.287,0,2.587-0.362,3.744-1.123
			l3.007-1.983c16.265-10.742,33.092-21.849,48.719-21.849c15.623,0,32.434,11.097,48.695,21.832l2.874,1.898
			c3.161,2.072,7.39,1.205,9.455-1.949C267.895,258.854,267.022,254.618,263.875,252.546z"/>
	</g>
</g>
<g>
	<g>
		<path d="M406.675,281.115c-0.56-0.389-14.015-9.639-35.867-14.336c-3.659-0.782-7.311,1.556-8.107,5.24
			c-0.795,3.683,1.553,7.318,5.239,8.107c13.5,2.905,23.381,7.803,28.006,10.421v105.4H13.653V290.533
			c5.175-2.942,16.961-8.748,33.314-11.404c3.721-0.608,6.246-4.113,5.646-7.834c-0.608-3.724-4.134-6.274-7.834-5.646
			c-25.334,4.117-41.195,15.005-41.854,15.469C1.092,282.392,0,284.488,0,286.72v116.053c0,3.768,3.055,6.827,6.827,6.827h395.947
			c3.772,0,6.827-3.058,6.827-6.827V286.72C409.6,284.488,408.508,282.392,406.675,281.115z"/>
	</g>
</g>
<g>
	<g>
		<path d="M230.646,0c-5.779,0-11.032,2.488-15.657,4.68c-3.659,1.731-7.107,3.366-9.82,3.366c-2.714,0-6.161-1.635-9.82-3.366
			C190.72,2.488,185.467,0,179.688,0c-21.047,0-36.328,22.047-36.328,52.419c0,12.803,2.895,39.315,8.253,63.232
			c9.673,43.192,20.654,48.189,28.075,48.189c10.397,0,13.172-13.858,17.364-34.836c1.867-9.329,5.226-26.112,8.533-30.655
			c3.925,4.055,7.294,23.163,8.96,32.635c3.488,19.784,5.792,32.857,16.101,32.857c7.421,0,18.401-4.997,28.075-48.193
			c5.359-23.914,8.253-50.425,8.253-63.229C266.974,22.047,251.692,0,230.646,0z M232.39,149.006
			c-1.608-4.536-3.239-13.831-4.4-20.395c-3.84-21.818-7.813-44.38-22.852-44.435c-13.053,0.055-16.954,19.562-21.473,42.148
			c-1.478,7.4-3.594,17.954-5.526,22.74c-9.417-9.155-21.125-65.84-21.125-96.645c0-22.098,9.745-38.765,22.675-38.765
			c2.714,0,6.158,1.635,9.813,3.366c4.628,2.191,9.882,4.68,15.66,4.68c5.779,0,11.035-2.485,15.66-4.68
			c3.659-1.731,7.107-3.366,9.82-3.366c12.93,0,22.675,16.664,22.675,38.765C253.317,83.18,241.644,139.738,232.39,149.006z"/>
	</g>
</g>
<g>
	<g>
		<path d="M339.876,170.667c-5.779,0-11.035,2.485-15.66,4.68c-3.659,1.731-7.107,3.366-9.82,3.366c-2.714,0-6.161-1.635-9.82-3.366
			c-4.628-2.191-9.882-4.68-15.66-4.68c-21.047,0-36.328,22.047-36.328,52.419c0,12.803,2.894,39.315,8.253,63.232
			c9.673,43.192,20.654,48.189,28.075,48.189c10.397,0,13.172-13.858,17.364-34.836c1.867-9.329,5.226-26.112,8.533-30.655
			c3.925,4.058,7.294,23.163,8.96,32.635c3.488,19.784,5.792,32.857,16.101,32.857c7.421,0,18.401-4.997,28.078-48.193
			c5.359-23.914,8.253-50.425,8.253-63.229C376.204,192.713,360.922,170.667,339.876,170.667z M341.617,319.672
			c-1.608-4.536-3.239-13.831-4.4-20.395c-3.84-21.818-7.813-44.38-22.852-44.435c-13.053,0.058-16.954,19.565-21.473,42.148
			c-1.478,7.4-3.594,17.954-5.526,22.74c-9.417-9.155-21.125-65.84-21.125-96.645c0-22.098,9.745-38.765,22.675-38.765
			c2.714,0,6.158,1.635,9.813,3.365c4.628,2.191,9.882,4.68,15.66,4.68c5.779,0,11.035-2.485,15.66-4.68
			c3.659-1.731,7.107-3.366,9.82-3.366c12.93,0,22.675,16.664,22.675,38.765C362.544,253.846,350.87,310.405,341.617,319.672z"/>
	</g>
</g>
<g>
	<g>
		<path d="M121.419,170.667c-5.779,0-11.032,2.488-15.657,4.68c-3.659,1.731-7.107,3.366-9.82,3.366
			c-2.714,0-6.161-1.635-9.82-3.366c-4.628-2.191-9.882-4.68-15.66-4.68c-21.047,0-36.328,22.047-36.328,52.419
			c0,11.766,2.273,32.031,5.656,50.429c10.039,54.668,22.313,60.993,30.672,60.993c10.397,0,13.172-13.862,17.364-34.84
			c1.867-9.329,5.226-26.112,8.533-30.655c3.925,4.058,7.294,23.166,8.96,32.635c3.488,19.787,5.792,32.86,16.101,32.86
			c7.421,0,18.401-4.997,28.075-48.193c5.359-23.914,8.253-50.425,8.253-63.229C157.747,192.713,142.466,170.667,121.419,170.667z
			 M123.167,319.676c-1.608-4.536-3.239-13.831-4.4-20.395c-3.84-21.821-7.813-44.384-22.852-44.438
			c-13.056,0.058-16.954,19.565-21.473,42.148c-1.461,7.294-3.533,17.654-5.448,22.535c-3.379-3.884-9.946-16.701-15.78-48.48
			c-3.727-20.296-5.427-39.086-5.427-47.961c0-22.098,9.745-38.765,22.675-38.765c2.714,0,6.158,1.635,9.817,3.369
			c4.628,2.191,9.882,4.68,15.66,4.68c5.779,0,11.035-2.485,15.66-4.68c3.659-1.731,7.107-3.366,9.82-3.366
			c12.93,0,22.675,16.664,22.675,38.765C144.094,253.85,132.42,310.409,123.167,319.676z"/>
	</g>
</g>
<g>
	<g>
		<path d="M204.8,177.493c-3.772,0-6.827,3.058-6.827,6.827v102.4c0,3.768,3.055,6.827,6.827,6.827s6.827-3.058,6.827-6.827v-102.4
			C211.627,180.552,208.572,177.493,204.8,177.493z"/>
	</g>
</g>
<g>
	<g>
		<path d="M236.933,261.414c-2.666-2.666-6.987-2.666-9.653,0l-22.48,22.48l-22.48-22.48c-2.666-2.666-6.987-2.666-9.653,0
			s-2.666,6.987,0,9.653l27.307,27.307c1.335,1.335,3.079,2,4.826,2s3.492-0.666,4.826-2l27.307-27.307
			C239.599,268.401,239.599,264.079,236.933,261.414z"/>
	</g>
</g>
<g>
</g>
<g>
</g>
<g>
</g>
<g>
</g>
<g>
</g>
<g>
</g>
<g>
</g>
<g>
</g>
<g>
</g>
<g>
</g>
<g>
</g>
<g>
</g>
<g>
</g>
<g>
</g>
<g>
</g>
</svg>
