<?xml version="1.0" encoding="iso-8859-1"?>
<!-- Generator: Adobe Illustrator 19.0.0, SVG Export Plug-In . SVG Version: 6.00 Build 0)  -->
<svg version="1.1" id="Capa_1" xmlns="http://www.w3.org/2000/svg" xmlns:xlink="http://www.w3.org/1999/xlink" x="0px" y="0px"
	 viewBox="0 0 368.64 368.64" style="enable-background:new 0 0 368.64 368.64;" xml:space="preserve">
<g>
	<g>
		<path d="M329.066,82.207l-81.2-80.237C246.586,0.707,244.859,0,243.067,0H44.373c-3.772,0-6.827,3.058-6.827,6.827v354.987
			c0,3.768,3.055,6.827,6.827,6.827h279.893c3.772,0,6.827-3.058,6.827-6.827V87.064C331.093,85.241,330.359,83.49,329.066,82.207z
			 M317.44,354.987H51.2V13.653h189.061l77.179,76.261V354.987z"/>
	</g>
</g>
<g>
	<g>
		<path d="M213.579,95.573c-5.779,0-11.032,2.488-15.657,4.68c-3.659,1.731-7.107,3.366-9.82,3.366c-2.714,0-6.161-1.635-9.82-3.366
			c-4.628-2.191-9.882-4.68-15.66-4.68c-21.047,0-36.328,22.047-36.328,52.419c0,12.803,2.895,39.315,8.253,63.232
			c9.673,43.192,20.654,48.189,28.075,48.189c10.397,0,13.172-13.858,17.364-34.836c1.867-9.329,5.226-26.112,8.533-30.655
			c3.925,4.058,7.294,23.163,8.96,32.635c3.488,19.784,5.792,32.857,16.101,32.857c7.421,0,18.401-4.997,28.075-48.193
			c5.359-23.914,8.253-50.425,8.253-63.229C249.907,117.62,234.626,95.573,213.579,95.573z M215.323,244.579
			c-1.608-4.536-3.239-13.831-4.4-20.395c-3.84-21.818-7.813-44.38-22.852-44.435c-13.053,0.058-16.954,19.565-21.473,42.148
			c-1.478,7.4-3.594,17.954-5.526,22.74c-9.417-9.155-21.125-65.84-21.125-96.645c0-22.098,9.745-38.765,22.675-38.765
			c2.714,0,6.158,1.635,9.813,3.366c4.628,2.191,9.882,4.68,15.66,4.68c5.779,0,11.035-2.485,15.66-4.68
			c3.659-1.731,7.107-3.366,9.82-3.366c12.93,0,22.675,16.664,22.675,38.765C236.251,178.753,224.577,235.312,215.323,244.579z"/>
	</g>
</g>
<g>
	<g>
		<path d="M328.929,84.081l-81.92-81.92c-1.877-1.891-4.717-2.434-7.192-1.43c-2.464,1.021-4.072,3.427-4.072,6.096v81.92
			c0,3.645,2.956,6.601,6.601,6.601h81.92c2.666,0,5.072-1.611,6.096-4.076C331.383,88.808,330.817,85.968,328.929,84.081z
			 M248.948,82.145V22.76l59.385,59.385H248.948z"/>
	</g>
</g>
<g>
	<g>
		<path d="M235.52,286.72H98.987c-3.772,0-6.827,3.058-6.827,6.827s3.055,6.827,6.827,6.827H235.52c3.772,0,6.827-3.058,6.827-6.827
			S239.292,286.72,235.52,286.72z"/>
	</g>
</g>
<g>
	<g>
		<path d="M160.427,314.027h-61.44c-3.772,0-6.827,3.058-6.827,6.827s3.055,6.827,6.827,6.827h61.44
			c3.772,0,6.827-3.058,6.827-6.827S164.198,314.027,160.427,314.027z"/>
	</g>
</g>
<g>
	<g>
		<path d="M276.48,314.027h-88.747c-3.772,0-6.827,3.058-6.827,6.827s3.055,6.827,6.827,6.827h88.747
			c3.772,0,6.827-3.058,6.827-6.827S280.252,314.027,276.48,314.027z"/>
	</g>
</g>
<g>
</g>
<g>
</g>
<g>
</g>
<g>
</g>
<g>
</g>
<g>
</g>
<g>
</g>
<g>
</g>
<g>
</g>
<g>
</g>
<g>
</g>
<g>
</g>
<g>
</g>
<g>
</g>
<g>
</g>
</svg>
