<?xml version="1.0" encoding="iso-8859-1"?>
<!-- Generator: Adobe Illustrator 19.0.0, SVG Export Plug-In . SVG Version: 6.00 Build 0)  -->
<svg version="1.1" id="Capa_1" xmlns="http://www.w3.org/2000/svg" xmlns:xlink="http://www.w3.org/1999/xlink" x="0px" y="0px"
	 viewBox="0 0 423.028 423.028" style="enable-background:new 0 0 423.028 423.028;" xml:space="preserve">
<g>
	<g>
		<path d="M165.57,164.069c-8.585,0-16.094,3.97-22.712,7.468c-5.775,3.048-11.233,5.932-16.548,5.932
			c-5.547,0-12.582-3.116-19.388-6.134c-8.059-3.57-16.394-7.267-24.74-7.267c-31.792,0-54.873,34.154-54.873,81.207
			c0,26.368,15.124,177.753,54.873,177.753c13.152,0,17.859-21.166,24.992-53.2c3.656-16.394,12.196-54.784,19.108-54.815
			c9.544,0.034,15.326,37.67,18.432,57.89c4.639,30.184,7.697,50.125,20.852,50.125c39.748,0,54.873-151.385,54.876-177.753
			C220.443,198.223,197.362,164.069,165.57,164.069z M166.505,409.737c-3.471-4.529-6.625-25.057-8.745-38.837
			c-5.216-33.929-10.602-69.014-31.481-69.086c-17.507,0.079-24.214,30.229-31.986,65.143c-3.441,15.456-8.588,38.571-12.861,42.813
			c-18.606-2.836-40.926-110.824-40.926-164.495c0-38.772,17.913-68.007,41.673-68.007c5.553,0,12.588,3.116,19.395,6.13
			c8.059,3.574,16.394,7.267,24.733,7.267c8.585,0,16.094-3.97,22.712-7.468c5.775-3.048,11.233-5.932,16.548-5.932
			c23.76,0,41.673,29.239,41.673,68.007C207.24,298.755,185.07,406.183,166.505,409.737z"/>
	</g>
</g>
<g>
	<g>
		<path d="M395.093,165.195c-1.113-2.42-3.533-3.97-6.199-3.97h-37.321l33.741-55.269c1.287-2.109,1.331-4.748,0.126-6.898
			c-1.205-2.15-3.485-3.485-5.953-3.485h-49.801c-2.649,0-5.055,1.529-6.182,3.922l-43.192,91.938
			c-0.993,2.116-0.833,4.591,0.42,6.564c1.249,1.973,3.427,3.168,5.762,3.168h34.331l-27.948,69.352
			c-1.249,3.099-0.068,6.653,2.792,8.387c1.099,0.666,2.324,0.99,3.533,0.99c1.946,0,3.857-0.826,5.198-2.393l89.685-105.015
			C395.813,170.458,396.205,167.612,395.093,165.195z M321.157,236.848l16.108-39.96c0.846-2.103,0.594-4.489-0.672-6.369
			c-1.273-1.881-3.393-3.007-5.659-3.007h-33.693l36.779-78.281h33.3l-33.741,55.269c-1.287,2.109-1.331,4.748-0.126,6.898
			c1.205,2.15,3.485,3.485,5.953,3.485h34.679L321.157,236.848z"/>
	</g>
</g>
<g>
	<g>
		<path d="M313.173,69.622c-1.113-2.42-3.533-3.97-6.199-3.97h-37.321l33.741-55.269c1.287-2.109,1.331-4.748,0.126-6.898
			C302.315,1.335,300.035,0,297.567,0h-49.801c-2.649,0-5.055,1.529-6.182,3.922L198.393,95.86c-0.993,2.116-0.833,4.591,0.42,6.564
			c1.249,1.973,3.427,3.168,5.762,3.168h34.331l-27.948,69.352c-1.249,3.099-0.068,6.653,2.792,8.387
			c1.099,0.666,2.325,0.99,3.533,0.99c1.946,0,3.857-0.826,5.198-2.393l89.685-105.015
			C313.893,74.885,314.285,72.038,313.173,69.622z M239.237,141.274l16.108-39.96c0.846-2.103,0.594-4.489-0.672-6.369
			c-1.273-1.881-3.393-3.007-5.659-3.007h-33.693l36.779-78.281h33.3l-33.741,55.269c-1.287,2.109-1.331,4.748-0.126,6.898
			c1.205,2.15,3.485,3.485,5.953,3.485h34.679L239.237,141.274z"/>
	</g>
</g>
<g>
	<g>
		<path d="M181.5,240.34L147.961,206.8c-2.666-2.666-6.987-2.666-9.653,0c-2.666,2.666-2.666,6.987,0,9.653l33.539,33.539
			c1.335,1.335,3.079,2,4.826,2s3.492-0.666,4.826-2C184.166,247.327,184.166,243.006,181.5,240.34z"/>
	</g>
</g>
<g>
	<g>
		<path d="M181.5,206.8c-2.666-2.666-6.987-2.666-9.653,0l-33.539,33.539c-2.666,2.666-2.666,6.987,0,9.653
			c1.335,1.335,3.079,2,4.826,2c1.748,0,3.492-0.666,4.826-2l33.539-33.539C184.166,213.787,184.166,209.466,181.5,206.8z"/>
	</g>
</g>
<g>
</g>
<g>
</g>
<g>
</g>
<g>
</g>
<g>
</g>
<g>
</g>
<g>
</g>
<g>
</g>
<g>
</g>
<g>
</g>
<g>
</g>
<g>
</g>
<g>
</g>
<g>
</g>
<g>
</g>
</svg>
