<?xml version="1.0" encoding="iso-8859-1"?>
<!-- Generator: Adobe Illustrator 19.0.0, SVG Export Plug-In . SVG Version: 6.00 Build 0)  -->
<svg version="1.1" id="Capa_1" xmlns="http://www.w3.org/2000/svg" xmlns:xlink="http://www.w3.org/1999/xlink" x="0px" y="0px"
	 viewBox="0 0 410.805 410.805" style="enable-background:new 0 0 410.805 410.805;" xml:space="preserve">
<g>
	<g>
		<path d="M347.126,45.232C332.134,21.137,310.685,7.866,286.72,7.866c-12.346,0-24.04,5.54-35.345,10.895
			c-10.407,4.932-20.234,9.585-29.508,9.585c-9.274,0-19.101-4.656-29.508-9.585c-11.305-5.356-22.999-10.895-35.345-10.895
			c-47.466,0-81.92,51.681-81.92,122.88c0,30.406,6.827,94.341,19.487,152.928c0.693,3.198,3.519,5.386,6.666,5.386
			c0.481,0,0.963-0.051,1.444-0.157c3.686-0.795,6.025-4.43,5.233-8.113c-12.459-57.668-19.18-120.347-19.18-150.047
			c0-63.29,28.713-109.227,68.267-109.227c9.274,0,19.101,4.656,29.508,9.585c11.305,5.356,22.999,10.895,35.345,10.895
			s24.04-5.54,35.345-10.895c10.407-4.932,20.234-9.585,29.508-9.585c24.446,0,40.035,16.818,48.807,30.928
			c1.993,3.205,6.219,4.171,9.407,2.191C348.133,52.646,349.112,48.434,347.126,45.232z"/>
	</g>
</g>
<g>
	<g>
		<path d="M362.121,80.355c-1.007-3.635-4.792-5.745-8.4-4.762c-3.635,1.007-5.768,4.768-4.762,8.4
			c4,14.459,6.028,30.188,6.028,46.756c0,31.724-7.639,98.625-20.412,155.662c-17.138,76.493-35.959,103.748-47.633,103.786
			c-6.625-2.775-13.073-39.41-17.347-63.655c-9.032-51.275-18.367-104.298-47.753-104.4c-24.614,0.102-34.198,48.043-44.353,98.796
			c-4.98,24.921-13.326,66.628-20.473,69.222c-4.635,0-21.228-5.25-40.12-72.796c-1.014-3.635-4.813-5.738-8.414-4.734
			c-3.628,1.014-5.748,4.782-4.734,8.414c15.578,55.695,32.997,82.77,53.265,82.77c16.995,0,23.62-28.979,33.86-80.196
			c6.567-32.826,17.558-87.764,30.966-87.822c17.92,0.061,27.781,56.061,34.307,93.116c7.946,45.104,13.193,74.902,30.573,74.902
			c55.572,0,81.92-219.027,81.92-273.06C368.64,112.956,366.449,95.998,362.121,80.355z"/>
	</g>
</g>
<g>
	<g>
		<path d="M157.013,48.826c-22.586,0-40.96,18.374-40.96,40.96c0,22.586,18.374,40.96,40.96,40.96
			c22.586,0,40.96-18.374,40.96-40.96C197.973,67.2,179.599,48.826,157.013,48.826z M157.013,117.093
			c-15.06,0-27.307-12.25-27.307-27.307s12.247-27.307,27.307-27.307s27.307,12.25,27.307,27.307S172.073,117.093,157.013,117.093z"
			/>
	</g>
</g>
<g>
	<g>
		<path d="M252.587,82.959c-15.06,0-27.307,12.25-27.307,27.307s12.247,27.307,27.307,27.307c15.06,0,27.307-12.25,27.307-27.307
			S267.646,82.959,252.587,82.959z M252.587,123.919c-7.526,0-13.653-6.124-13.653-13.653c0-7.53,6.127-13.653,13.653-13.653
			c7.526,0,13.653,6.123,13.653,13.653C266.24,117.796,260.113,123.919,252.587,123.919z"/>
	</g>
</g>
<g>
	<g>
		<path d="M174.08,158.053c-16.94,0-30.72,13.78-30.72,30.72s13.78,30.72,30.72,30.72c3.775,0,6.827-3.062,6.827-6.83
			s-3.055-6.827-6.827-6.827c-9.414,0-17.067-7.656-17.067-17.067c0-9.411,7.653-17.067,17.067-17.067s17.067,7.656,17.067,17.067
			c0,0.676-0.034,1.345-0.113,1.997c-0.461,3.744,2.198,7.151,5.946,7.608c3.796,0.427,7.141-2.208,7.602-5.946
			c0.147-1.198,0.218-2.42,0.218-3.656C204.8,171.832,191.02,158.053,174.08,158.053z"/>
	</g>
</g>
<g>
	<g>
		<path d="M404.845,7.081c-3.854-3.881-8.991-6.025-14.459-6.042c-5.632,0.273-10.619,2.103-14.5,5.96L6.042,374.765
			c-3.881,3.857-6.028,8.994-6.042,14.462c-0.014,5.468,2.099,10.619,5.96,14.5c3.86,3.878,8.991,6.021,14.466,6.038
			c0.02,0,0.041,0,0.061,0c5.448,0,10.568-2.116,14.435-5.96L404.763,36.043c3.881-3.857,6.028-8.991,6.042-14.462
			C410.819,16.109,408.706,10.959,404.845,7.081z M395.141,26.36L25.293,394.126c-1.294,1.29-2.908,2.314-4.833,1.987
			c-1.819-0.007-3.533-0.72-4.82-2.017c-1.287-1.29-1.993-3.007-1.987-4.83c0.007-1.819,0.72-3.533,2.014-4.82L385.516,16.679
			c1.287-1.283,3-1.987,4.813-1.987c2.045-0.14,3.546,0.717,4.84,2.017c1.287,1.29,1.993,3.007,1.987,4.83
			C397.148,23.363,396.435,25.073,395.141,26.36z"/>
	</g>
</g>
<g>
	<g>
		<path d="M404.845,7.081c-3.854-3.881-8.991-6.025-14.459-6.042c-5.632,0.273-10.619,2.103-14.5,5.96L6.042,374.765
			c-3.881,3.857-6.028,8.994-6.042,14.462c-0.014,5.468,2.099,10.619,5.96,14.496c3.854,3.881,8.984,6.025,14.459,6.042
			c0.021,0,0.041,0,0.061,0c5.454,0,10.574-2.113,14.442-5.956L404.763,36.043c3.881-3.857,6.028-8.991,6.042-14.462
			C410.819,16.109,408.706,10.959,404.845,7.081z M395.141,26.36L25.293,394.129c-1.294,1.287-2.908,2.311-4.833,1.983
			c-1.819-0.007-3.533-0.72-4.82-2.017c-1.287-1.29-1.993-3.007-1.987-4.83c0.007-1.819,0.72-3.533,2.014-4.82L385.516,16.679
			c1.287-1.283,3-1.987,4.813-1.987c2.045-0.14,3.546,0.717,4.84,2.017c1.287,1.29,1.993,3.007,1.987,4.83
			C397.148,23.363,396.435,25.073,395.141,26.36z"/>
	</g>
</g>
<g>
</g>
<g>
</g>
<g>
</g>
<g>
</g>
<g>
</g>
<g>
</g>
<g>
</g>
<g>
</g>
<g>
</g>
<g>
</g>
<g>
</g>
<g>
</g>
<g>
</g>
<g>
</g>
<g>
</g>
</svg>
