<?xml version="1.0" encoding="iso-8859-1"?>
<!-- Generator: Adobe Illustrator 19.0.0, SVG Export Plug-In . SVG Version: 6.00 Build 0)  -->
<svg version="1.1" id="Capa_1" xmlns="http://www.w3.org/2000/svg" xmlns:xlink="http://www.w3.org/1999/xlink" x="0px" y="0px"
	 viewBox="0 0 410.805 410.805" style="enable-background:new 0 0 410.805 410.805;" xml:space="preserve">
<g>
	<g>
		<path d="M356.035,83.076c-0.949-3.652-4.656-5.84-8.322-4.908c-3.649,0.942-5.847,4.666-4.908,8.315
			c3.56,13.79,5.359,28.682,5.359,44.261c0,14.746-1.58,36.28-4.448,60.641c-0.44,3.744,2.239,7.137,5.98,7.578
			c0.273,0.034,0.539,0.048,0.806,0.048c3.413,0,6.366-2.557,6.779-6.035c2.925-24.87,4.54-46.971,4.54-62.232
			C361.82,114.01,359.875,97.975,356.035,83.076z"/>
	</g>
</g>
<g>
	<g>
		<path d="M351.294,185.404c-3.768-0.447-7.148,2.236-7.581,5.984c-13.128,111.459-41.155,198.772-63.601,198.81
			c-6.625-2.775-13.073-39.41-17.347-63.655c-9.032-51.275-18.367-104.298-47.753-104.4c-24.614,0.102-34.198,48.043-44.353,98.796
			c-4.98,24.921-13.326,66.628-20.473,69.222c-4.267,0-19.579-4.574-37.386-63.406c-1.092-3.608-4.891-5.659-8.513-4.557
			c-3.608,1.089-5.646,4.902-4.553,8.509c14.886,49.193,31.392,73.107,50.453,73.107c16.995,0,23.62-28.979,33.86-80.196
			c6.567-32.826,17.558-87.764,30.966-87.822c17.92,0.061,27.781,56.061,34.307,93.116c7.946,45.104,13.193,74.902,30.573,74.902
			c50.022,0,73.233-175.626,77.38-210.831C357.714,189.237,355.035,185.844,351.294,185.404z"/>
	</g>
</g>
<g>
	<g>
		<path d="M341.849,47.792c-15.08-25.747-37.079-39.926-61.952-39.926c-12.346,0-24.04,5.54-35.345,10.895
			c-10.407,4.932-20.234,9.585-29.508,9.585s-19.101-4.656-29.508-9.585C174.23,13.406,162.536,7.866,150.19,7.866
			c-47.466,0-81.92,51.681-81.92,122.88c0,34.273,8.277,105.25,22.132,164.7c0.734,3.151,3.54,5.277,6.639,5.277
			c0.512,0,1.034-0.058,1.557-0.181c3.673-0.857,5.96-4.526,5.1-8.199c-13.626-58.494-21.774-128.102-21.774-161.601
			c0-63.29,28.713-109.227,68.267-109.227c9.274,0,19.101,4.656,29.508,9.585c11.305,5.355,22.999,10.895,35.345,10.895
			s24.04-5.54,35.345-10.895c10.407-4.932,20.234-9.585,29.508-9.585c25.412,0,41.305,18.039,50.166,33.174
			c1.905,3.253,6.1,4.352,9.339,2.44C342.654,55.23,343.75,51.045,341.849,47.792z"/>
	</g>
</g>
<g>
	<g>
		<path d="M354.526,200.487l-25.361-35.533c-1.751-2.454-4.912-3.458-7.759-2.492L264.4,181.929l-5.895-5.902
			c-2.666-2.673-7.001-2.669-9.653-0.01c-2.673,2.666-2.673,6.987-0.014,9.656l8.899,8.916c1.85,1.847,4.591,2.482,7.038,1.635
			l56.228-19.2l22.412,31.396c1.328,1.867,3.427,2.86,5.56,2.86c1.372,0,2.758-0.413,3.963-1.27
			C356.007,207.819,356.721,203.556,354.526,200.487z"/>
	</g>
</g>
<g>
	<g>
		<path d="M235.465,152.95l-11.032-11.056c-1.352-1.352-3.198-2.075-5.113-1.997c-1.905,0.075-3.693,0.949-4.925,2.406
			l-25.515,30.099l-23.859-19.787c-2.338-1.935-5.68-2.096-8.178-0.403l-78.667,53.166c-2.157,1.458-3.297,4.011-2.939,6.588
			c3.898,28.378,8.953,56.436,14.619,81.135c0.727,3.161,3.533,5.301,6.646,5.301c0.505,0,1.021-0.055,1.533-0.177
			c3.673-0.843,5.973-4.502,5.127-8.178c-5.294-23.091-10.052-49.196-13.821-75.735l70.898-47.92l25.119,20.832
			c2.881,2.389,7.154,2.01,9.568-0.84l25.081-29.594l5.792,5.806c2.666,2.673,6.987,2.669,9.653,0.01
			C238.124,159.944,238.124,155.619,235.465,152.95z"/>
	</g>
</g>
<g>
	<g>
		<path d="M129.707,219.493c-3.772,0-6.827,3.058-6.827,6.827v34.133c0,3.768,3.055,6.827,6.827,6.827
			c3.775,0,6.827-3.058,6.827-6.827v-34.133C136.533,222.551,133.478,219.493,129.707,219.493z"/>
	</g>
</g>
<g>
	<g>
		<path d="M163.84,185.359c-3.772,0-6.827,3.058-6.827,6.827v34.133c0,3.768,3.055,6.827,6.827,6.827
			c3.775,0,6.827-3.058,6.827-6.827v-34.133C170.667,188.418,167.612,185.359,163.84,185.359z"/>
	</g>
</g>
<g>
	<g>
		<path d="M279.893,246.799c-3.772,0-6.827,3.058-6.827,6.827v34.133c0,3.768,3.055,6.827,6.827,6.827
			c3.775,0,6.827-3.058,6.827-6.827v-34.133C286.72,249.858,283.665,246.799,279.893,246.799z"/>
	</g>
</g>
<g>
	<g>
		<path d="M279.893,212.666c-3.772,0-6.827,3.058-6.827,6.827v13.653c0,3.768,3.055,6.827,6.827,6.827
			c3.775,0,6.827-3.058,6.827-6.827v-13.653C286.72,215.724,283.665,212.666,279.893,212.666z"/>
	</g>
</g>
<g>
	<g>
		<path d="M136.533,315.066c-3.772,0-6.827,3.058-6.827,6.827v13.653c0,3.768,3.055,6.827,6.827,6.827
			c3.775,0,6.827-3.058,6.827-6.827v-13.653C143.36,318.124,140.305,315.066,136.533,315.066z"/>
	</g>
</g>
<g>
	<g>
		<path d="M300.373,226.319c-3.772,0-6.827,3.058-6.827,6.827v34.133c0,3.768,3.055,6.827,6.827,6.827
			c3.775,0,6.827-3.058,6.827-6.827v-34.133C307.2,229.378,304.145,226.319,300.373,226.319z"/>
	</g>
</g>
<g>
	<g>
		<path d="M404.845,7.081c-3.854-3.881-8.991-6.025-14.459-6.042c-0.021,0-0.041,0-0.061,0c-5.451,0-10.578,2.116-14.438,5.96
			L6.042,374.765c-3.881,3.857-6.028,8.994-6.042,14.462c-0.014,5.468,2.099,10.619,5.96,14.5c3.86,3.878,8.991,6.021,14.466,6.038
			c0.02,0,0.041,0,0.061,0c5.448,0,10.568-2.116,14.435-5.96L404.763,36.043c3.881-3.857,6.028-8.991,6.042-14.462
			C410.819,16.109,408.706,10.959,404.845,7.081z M395.141,26.36L25.293,394.126c-1.287,1.283-2.993,1.987-4.813,1.987
			c-1.925,0.218-3.546-0.717-4.84-2.017c-1.287-1.29-1.993-3.007-1.987-4.83c0.007-1.819,0.72-3.533,2.014-4.82L385.516,16.679
			c1.287-1.283,3-1.987,4.813-1.987c0.007,0,0.014,0,0.02,0c1.819,0.007,3.533,0.72,4.82,2.017c1.287,1.29,1.993,3.007,1.987,4.83
			C397.148,23.363,396.435,25.073,395.141,26.36z"/>
	</g>
</g>
<g>
	<g>
		<path d="M404.845,7.081c-3.854-3.881-8.991-6.025-14.459-6.042c-0.021,0-0.041,0-0.061,0c-5.451,0-10.578,2.116-14.438,5.96
			L6.042,374.765c-3.881,3.857-6.028,8.994-6.042,14.462c-0.014,5.468,2.099,10.619,5.96,14.496
			c3.854,3.881,8.984,6.025,14.459,6.042c0.021,0,0.041,0,0.061,0c5.454,0,10.574-2.113,14.442-5.956L404.763,36.043
			c3.881-3.857,6.028-8.991,6.042-14.462C410.819,16.109,408.706,10.959,404.845,7.081z M395.141,26.36L25.293,394.129
			c-1.287,1.28-2.993,1.983-4.813,1.983c-1.925,0.218-3.546-0.717-4.84-2.017c-1.287-1.29-1.993-3.007-1.987-4.83
			c0.007-1.819,0.72-3.533,2.014-4.82L385.516,16.679c1.287-1.283,3-1.987,4.813-1.987c0.007,0,0.014,0,0.02,0
			c1.819,0.007,3.533,0.72,4.82,2.017c1.287,1.29,1.993,3.007,1.987,4.83C397.148,23.363,396.435,25.073,395.141,26.36z"/>
	</g>
</g>
<g>
</g>
<g>
</g>
<g>
</g>
<g>
</g>
<g>
</g>
<g>
</g>
<g>
</g>
<g>
</g>
<g>
</g>
<g>
</g>
<g>
</g>
<g>
</g>
<g>
</g>
<g>
</g>
<g>
</g>
</svg>
