<?xml version="1.0" encoding="iso-8859-1"?>
<!-- Generator: Adobe Illustrator 19.0.0, SVG Export Plug-In . SVG Version: 6.00 Build 0)  -->
<svg version="1.1" id="Capa_1" xmlns="http://www.w3.org/2000/svg" xmlns:xlink="http://www.w3.org/1999/xlink" x="0px" y="0px"
	 viewBox="0 0 409.375 409.375" style="enable-background:new 0 0 409.375 409.375;" xml:space="preserve">
<g>
	<g>
		<path d="M310.033,95.802c-9.926,0-19.193,4.417-28.153,8.687c-7.98,3.809-15.52,7.404-22.467,7.404
			c-6.946,0-14.486-3.594-22.467-7.404c-8.96-4.27-18.227-8.687-28.153-8.687c-37.782,0-65.208,41.12-65.208,97.782
			c0,30.761,18.794,215.791,65.208,215.791c14.292,0,19.32-21.951,27.679-64.017c4.721-23.75,13.507-67.959,22.914-68
			c12.916,0.048,20.815,45.172,25.528,72.134c6.311,36.062,10.479,59.884,25.119,59.884c46.414,0,65.208-185.03,65.208-215.791
			C375.241,136.926,347.812,95.802,310.033,95.802z M310.555,396.155c-4.779-4.045-9.492-30.99-12.633-48.94
			c-7.141-40.789-14.52-82.971-38.533-83.057c-20.255,0.089-27.488,36.485-35.86,78.63c-3.919,19.729-9.813,49.388-15.186,53.374
			c-25.221-1.649-51.555-140.926-51.555-202.578c0-49.009,21.873-84.582,52.006-84.582c6.946,0,14.486,3.594,22.47,7.404
			c8.96,4.27,18.227,8.687,28.153,8.687s19.193-4.417,28.153-8.687c7.98-3.809,15.52-7.404,22.467-7.404
			c30.133,0,52.006,35.574,52.006,84.582C362.042,255.177,335.749,394.257,310.555,396.155z"/>
	</g>
</g>
<g>
	<g>
		<path d="M310.108,219.262c-18.528-9.769-43.387-8.54-65.273-7.468c-27.901,1.379-45.141,1.567-47.688-11.182
			c-1.12-5.646-0.328-10.103,2.512-14.022c10.673-14.749,47.172-19.197,79.38-23.122l2.628-0.321
			c11.527-1.406,20.828-6.574,27.641-15.35c18.418-23.726,12.739-67.567,10.598-84.07l-0.307-2.396
			c-0.457-3.738-3.946-6.424-7.612-5.929c-3.744,0.461-6.4,3.871-5.932,7.615l0.314,2.464c1.751,13.53,7.093,54.705-7.847,73.943
			c-4.56,5.878-10.619,9.206-18.507,10.168l-2.628,0.321c-36.687,4.471-74.622,9.093-88.788,28.672
			c-5.079,7.014-6.707,15.322-4.84,24.692c4.953,24.941,33.826,23.514,61.74,22.156c20.163-0.997,43.022-2.12,58.235,5.909
			c24.385,12.858,16.305,96.806,5.485,146.698c-0.802,3.683,1.539,7.322,5.226,8.117c0.488,0.106,0.973,0.157,1.454,0.157
			c3.14,0,5.973-2.185,6.666-5.383C325.656,366.688,351.573,241.132,310.108,219.262z"/>
	</g>
</g>
<g>
	<g>
		<path d="M333.104,278.234c-0.259-3.765-3.628-6.554-7.287-6.339c-0.894,0.061-22.04,1.768-28.914,23.19
			c-1.154,3.591,0.826,7.438,4.413,8.588c0.693,0.225,1.399,0.331,2.086,0.331c2.888-0.003,5.574-1.847,6.502-4.748
			c3.987-12.421,16.254-13.684,16.906-13.745C330.544,285.228,333.356,281.979,333.104,278.234z"/>
	</g>
</g>
<g>
	<g>
		<path d="M367.961,330.998c-0.894-3.662-4.601-5.939-8.247-5.021c-14.64,3.581-26.859-9.581-26.979-9.714
			c-2.526-2.782-6.833-2.983-9.626-0.478c-2.802,2.526-3.021,6.844-0.495,9.643c0.621,0.686,13.616,14.831,31.894,14.831
			c2.7,0,5.519-0.311,8.431-1.014C366.609,338.353,368.855,334.66,367.961,330.998z"/>
	</g>
</g>
<g>
	<g>
		<path d="M286.72,27.307h-68.267c-3.772,0-6.827,3.058-6.827,6.827s3.055,6.827,6.827,6.827h68.267
			c3.775,0,6.827-3.058,6.827-6.827S290.492,27.307,286.72,27.307z"/>
	</g>
</g>
<g>
	<g>
		<path d="M348.16,0h-61.44c-3.772,0-6.827,3.058-6.827,6.827V61.44c0,3.768,3.055,6.827,6.827,6.827h61.44
			c3.775,0,6.827-3.055,6.827-6.827V6.827C354.987,3.058,351.932,0,348.16,0z M341.333,54.613h-47.787v-40.96h47.787V54.613z"/>
	</g>
</g>
<g>
	<g>
		<path d="M197.946,6.827H40.96c-3.772,0-6.827,3.058-6.827,6.827v40.96c0,3.768,3.055,6.827,6.827,6.827h156.986
			c11.308,0,20.507-9.178,20.507-20.466V27.293C218.453,16.005,209.251,6.827,197.946,6.827z M204.8,40.974
			c0,3.755-3.075,6.813-6.854,6.813H47.787V20.48h150.159c3.782,0,6.854,3.055,6.854,6.813V40.974z"/>
	</g>
</g>
<g>
</g>
<g>
</g>
<g>
</g>
<g>
</g>
<g>
</g>
<g>
</g>
<g>
</g>
<g>
</g>
<g>
</g>
<g>
</g>
<g>
</g>
<g>
</g>
<g>
</g>
<g>
</g>
<g>
</g>
</svg>
