<?xml version="1.0" encoding="iso-8859-1"?>
<!-- Generator: Adobe Illustrator 19.0.0, SVG Export Plug-In . SVG Version: 6.00 Build 0)  -->
<svg version="1.1" id="Capa_1" xmlns="http://www.w3.org/2000/svg" xmlns:xlink="http://www.w3.org/1999/xlink" x="0px" y="0px"
	 viewBox="0 0 436.907 436.907" style="enable-background:new 0 0 436.907 436.907;" xml:space="preserve">
<g>
	<g>
		<path d="M252.587,82.145H184.32c-3.649,0-6.601,2.959-6.601,6.601v20.48c0,3.645,2.956,6.601,6.601,6.601h68.267
			c3.645,0,6.601-2.959,6.601-6.601v-20.48C259.188,85.101,256.232,82.145,252.587,82.145z M245.989,102.625h-55.067v-7.281h55.067
			V102.625z"/>
	</g>
</g>
<g>
	<g>
		<path d="M266.24,0h-95.573c-3.772,0-6.827,3.058-6.827,6.827v81.92c0,3.768,3.055,6.827,6.827,6.827h95.573
			c3.772,0,6.827-3.058,6.827-6.827V6.827C273.067,3.058,270.012,0,266.24,0z M259.413,81.92h-81.92V13.653h81.92V81.92z"/>
	</g>
</g>
<g>
	<g>
		<path d="M191.147,6.827c-3.772,0-6.827,3.058-6.827,6.827V40.96c0,3.768,3.055,6.827,6.827,6.827c3.772,0,6.827-3.058,6.827-6.827
			V13.653C197.973,9.885,194.918,6.827,191.147,6.827z"/>
	</g>
</g>
<g>
	<g>
		<path d="M218.453,6.827c-3.772,0-6.827,3.058-6.827,6.827V40.96c0,3.768,3.055,6.827,6.827,6.827s6.827-3.058,6.827-6.827V13.653
			C225.28,9.885,222.225,6.827,218.453,6.827z"/>
	</g>
</g>
<g>
	<g>
		<path d="M245.76,6.827c-3.772,0-6.827,3.058-6.827,6.827V40.96c0,3.768,3.055,6.827,6.827,6.827c3.772,0,6.827-3.058,6.827-6.827
			V13.653C252.587,9.885,249.532,6.827,245.76,6.827z"/>
	</g>
</g>
<g>
	<g>
		<path d="M327.68,102.4H109.227c-11.295,0-20.48,9.172-20.48,20.439v82.002c0,11.267,9.185,20.439,20.48,20.439H327.68
			c11.295,0,20.48-9.172,20.48-20.442v-81.999C348.16,111.572,338.975,102.4,327.68,102.4z M334.507,204.841
			c0,3.741-3.058,6.786-6.827,6.786H109.227c-3.768,0-6.827-3.045-6.827-6.789v-81.999c0-3.741,3.058-6.786,6.827-6.786H327.68
			c3.768,0,6.827,3.041,6.827,6.786V204.841z"/>
	</g>
</g>
<g>
	<g>
		<path d="M327.68,320.857H109.227c-11.295,0-20.48,9.168-20.48,20.439v75.172c0,11.267,9.185,20.439,20.48,20.439H327.68
			c11.295,0,20.48-9.172,20.48-20.439v-75.172C348.16,330.028,338.975,320.857,327.68,320.857z M334.507,416.464
			c0,3.741-3.058,6.786-6.827,6.786H109.227c-3.768,0-6.827-3.041-6.827-6.786v-75.172c0-3.741,3.058-6.786,6.827-6.786H327.68
			c3.768,0,6.827,3.041,6.827,6.786V416.464z"/>
	</g>
</g>
<g>
	<g>
		<path d="M116.053,211.627v122.88h204.8v-122.88H116.053z M307.2,320.853H129.707V225.28H307.2V320.853z"/>
	</g>
</g>
<g>
	<g>
		<path d="M314.027,232.107H122.88c-3.772,0-6.827,3.058-6.827,6.827V307.2c0,3.768,3.055,6.827,6.827,6.827h191.147
			c3.772,0,6.827-3.058,6.827-6.827v-68.267C320.853,235.165,317.798,232.107,314.027,232.107z M307.2,300.373H129.707V245.76H307.2
			V300.373z"/>
	</g>
</g>
<g>
</g>
<g>
</g>
<g>
</g>
<g>
</g>
<g>
</g>
<g>
</g>
<g>
</g>
<g>
</g>
<g>
</g>
<g>
</g>
<g>
</g>
<g>
</g>
<g>
</g>
<g>
</g>
<g>
</g>
</svg>
