<?xml version="1.0" encoding="iso-8859-1"?>
<!-- Generator: Adobe Illustrator 19.0.0, SVG Export Plug-In . SVG Version: 6.00 Build 0)  -->
<svg version="1.1" id="Capa_1" xmlns="http://www.w3.org/2000/svg" xmlns:xlink="http://www.w3.org/1999/xlink" x="0px" y="0px"
	 viewBox="0 0 424.02 424.02" style="enable-background:new 0 0 424.02 424.02;" xml:space="preserve">
<g>
	<g>
		<path d="M423.736,153.445c-0.532-1.789-1.782-3.28-3.447-4.127C283.4,79.689,229.066,104.774,212.013,118.84
			c-17.073-14.056-71.407-39.144-208.282,30.478c-1.669,0.846-2.915,2.338-3.447,4.127s-0.311,3.717,0.614,5.338
			c0.799,1.403,20.026,34.765,55.566,69.158c47.353,45.824,101.147,71.1,156.081,73.097c54.193-1.993,107.82-27.273,155.088-73.1
			c35.468-34.393,54.688-67.751,55.487-69.154C424.05,157.165,424.268,155.233,423.736,153.445z M212.546,287.391
			c-107.913-3.956-179.18-103.305-195.98-129.242c148.04-73.346,188.515-27.45,190.194-25.436c1.294,1.567,3.219,2.471,5.253,2.471
			c2.034,0,3.96-0.908,5.26-2.475c1.666-2.017,42.107-47.927,190.181,25.44C390.674,184.083,319.533,283.438,212.546,287.391z"/>
	</g>
</g>
<g>
	<g>
		<path d="M340.87,168.702c-1.092-2.816-3.912-4.56-6.905-4.338c-0.819,0.065-82.101,6.506-122.341,6.506
			c-40.24,0-121.521-6.438-122.341-6.506c-2.966-0.212-5.813,1.529-6.905,4.338c-1.085,2.813-0.205,6.007,2.174,7.861
			c2.587,2.01,64.014,49.224,127.075,49.224c63.058,0,124.484-47.213,127.068-49.224C341.078,174.71,341.955,171.511,340.87,168.702
			z M211.624,212.13c-37.141,0-74.865-18.609-97.526-32.246c27.696,1.935,71.182,4.642,97.526,4.639
			c26.361,0,69.867-2.71,97.56-4.642C286.543,193.517,248.829,212.13,211.624,212.13z"/>
	</g>
</g>
<g>
	<g>
		<path d="M266.633,298.187c-2.4-2.912-6.694-3.325-9.612-0.928c-6.315,5.202-22.801,10.448-45.394,10.448
			c-24.112,0-40.926-5.861-46.346-11.308c-2.659-2.679-6.98-2.686-9.653-0.027c-2.673,2.659-2.686,6.984-0.027,9.653
			c9.414,9.458,30.88,15.336,56.026,15.336c23.194,0,43.912-5.198,54.074-13.565C268.606,305.399,269.026,301.102,266.633,298.187z"
			/>
	</g>
</g>
<g>
</g>
<g>
</g>
<g>
</g>
<g>
</g>
<g>
</g>
<g>
</g>
<g>
</g>
<g>
</g>
<g>
</g>
<g>
</g>
<g>
</g>
<g>
</g>
<g>
</g>
<g>
</g>
<g>
</g>
</svg>
