<?xml version="1.0" encoding="iso-8859-1"?>
<!-- Generator: Adobe Illustrator 19.0.0, SVG Export Plug-In . SVG Version: 6.00 Build 0)  -->
<svg version="1.1" id="Capa_1" xmlns="http://www.w3.org/2000/svg" xmlns:xlink="http://www.w3.org/1999/xlink" x="0px" y="0px"
	 viewBox="0 0 395.493 395.493" style="enable-background:new 0 0 395.493 395.493;" xml:space="preserve">
<g>
	<g>
		<path d="M262.006,0c-12.291,0-23.965,5.533-35.253,10.878c-10.428,4.939-20.272,9.602-29.6,9.602
			c-9.329,0-19.173-4.663-29.6-9.602C156.264,5.53,144.594,0,132.299,0C101.521,0,75.72,21.456,61.507,58.87
			c-0.771,2.028-0.502,4.301,0.734,6.089c1.236,1.789,3.267,2.854,5.434,2.854h47.568c20.825,0,37.765,16.944,37.765,37.772
			c0,20.828-16.937,37.772-37.765,37.772H58.39c-1.833,0-3.584,0.761-4.833,2.106c-1.249,1.345-1.881,3.147-1.748,4.977
			c3.799,51.76,28.594,245.05,80.493,245.05c16.818,0,23.419-28.914,33.645-80.019c7.001-35.021,17.589-87.941,31.181-87.999
			c18.104,0.065,27.6,53.951,34.526,93.297c7.929,44.998,13.169,74.725,30.355,74.725c55.419,0,81.691-218.849,81.691-272.838
			C343.701,51.582,309.339,0,262.006,0z M262.149,382.31c-6.687-2.464-13.186-39.397-17.493-63.829
			c-9.015-51.183-18.34-104.107-47.527-104.209c-24.419,0.102-33.993,47.954-44.131,98.615
			c-5.024,25.119-13.431,67.168-20.698,69.41c-20.139,0-55.685-87.695-66.785-225.734h49.729c28.102,0,50.968-22.866,50.968-50.975
			s-22.869-50.975-50.968-50.975H77.642c12.541-26.453,32.102-41.414,54.661-41.414c9.329,0,19.173,4.663,29.6,9.602
			c11.288,5.349,22.961,10.878,35.253,10.878s23.965-5.533,35.253-10.878c10.428-4.939,20.275-9.602,29.6-9.602
			c39.687,0,68.492,46.029,68.492,109.452C330.501,195.372,297.935,382.29,262.149,382.31z"/>
	</g>
</g>
<g>
	<g>
		<path d="M180.089,105.585c-3.772,0-6.827,3.058-6.827,6.827c0,28.232-22.968,51.2-51.2,51.2c-3.772,0-6.827,3.058-6.827,6.827
			s3.055,6.827,6.827,6.827c35.758,0,64.853-29.092,64.853-64.853C186.916,108.643,183.861,105.585,180.089,105.585z"/>
	</g>
</g>
<g>
</g>
<g>
</g>
<g>
</g>
<g>
</g>
<g>
</g>
<g>
</g>
<g>
</g>
<g>
</g>
<g>
</g>
<g>
</g>
<g>
</g>
<g>
</g>
<g>
</g>
<g>
</g>
<g>
</g>
</svg>
