<?xml version="1.0" encoding="iso-8859-1"?>
<!-- Generator: Adobe Illustrator 19.0.0, SVG Export Plug-In . SVG Version: 6.00 Build 0)  -->
<svg version="1.1" id="Capa_1" xmlns="http://www.w3.org/2000/svg" xmlns:xlink="http://www.w3.org/1999/xlink" x="0px" y="0px"
	 viewBox="0 0 395.496 395.496" style="enable-background:new 0 0 395.496 395.496;" xml:space="preserve">
<g>
	<g>
		<path d="M262.601,0c-12.291,0-23.965,5.533-35.253,10.878c-10.428,4.939-20.272,9.602-29.6,9.602s-19.173-4.663-29.6-9.602
			C156.86,5.53,145.19,0,132.895,0C85.559,0,51.2,51.586,51.2,122.655c0,32.01,7.274,98.471,20.743,158.594
			c16.985,75.807,37.492,114.244,60.952,114.244c16.818,0,23.419-28.914,33.645-80.019c7.001-35.021,17.589-87.941,31.181-87.999
			c18.104,0.065,27.6,53.951,34.526,93.297c7.929,44.998,13.169,74.725,30.355,74.725c55.419,0,81.695-218.849,81.695-272.841
			C344.296,51.582,309.934,0,262.601,0z M262.741,382.314c-6.687-2.464-13.186-39.397-17.493-63.829
			c-9.015-51.183-18.34-104.107-47.527-104.209c-24.419,0.102-33.993,47.954-44.128,98.608
			c-5.024,25.119-13.431,67.168-20.698,69.41c-35.925,0-68.492-186.914-68.492-259.639c0-63.423,28.805-109.452,68.492-109.452
			c9.325,0,19.173,4.663,29.6,9.602c11.288,5.349,22.961,10.878,35.253,10.878s23.965-5.533,35.253-10.878
			c10.428-4.939,20.275-9.602,29.6-9.602c39.687,0,68.492,46.029,68.492,109.452C331.093,195.376,298.527,382.293,262.741,382.314z"
			/>
	</g>
</g>
<g>
	<g>
		<path d="M265.776,42.735c-2.666-2.666-6.987-2.666-9.653,0l-52.961,52.961c-2.666,2.666-2.666,6.987,0,9.653
			c1.335,1.335,3.079,2,4.826,2s3.492-0.669,4.826-2l52.961-52.961C268.442,49.722,268.442,45.401,265.776,42.735z"/>
	</g>
</g>
<g>
	<g>
		<path d="M239.302,116.992c-2.666-2.666-6.987-2.666-9.653,0l-40.141,40.144c-2.666,2.666-2.666,6.987,0,9.653
			c1.335,1.335,3.079,2,4.826,2s3.492-0.669,4.826-2l40.141-40.144C241.968,123.979,241.968,119.658,239.302,116.992z"/>
	</g>
</g>
<g>
	<g>
		<path d="M300.742,55.552c-2.666-2.666-6.987-2.666-9.653,0l-27.327,27.331c-2.666,2.666-2.666,6.987,0,9.653
			c1.335,1.335,3.079,2,4.826,2s3.492-0.669,4.826-2l27.327-27.331C303.408,62.539,303.408,58.218,300.742,55.552z"/>
	</g>
</g>
<g>
	<g>
		<path d="M306.736,104.175c-2.666-2.666-6.987-2.666-9.653,0l-52.961,52.961c-2.666,2.666-2.666,6.987,0,9.653
			c1.335,1.335,3.079,2,4.826,2s3.492-0.669,4.826-2l52.961-52.961C309.402,111.162,309.402,106.841,306.736,104.175z"/>
	</g>
</g>
<g>
</g>
<g>
</g>
<g>
</g>
<g>
</g>
<g>
</g>
<g>
</g>
<g>
</g>
<g>
</g>
<g>
</g>
<g>
</g>
<g>
</g>
<g>
</g>
<g>
</g>
<g>
</g>
<g>
</g>
</svg>
