<?xml version="1.0" encoding="iso-8859-1"?>
<!-- Generator: Adobe Illustrator 19.0.0, SVG Export Plug-In . SVG Version: 6.00 Build 0)  -->
<svg version="1.1" id="Capa_1" xmlns="http://www.w3.org/2000/svg" xmlns:xlink="http://www.w3.org/1999/xlink" x="0px" y="0px"
	 viewBox="0 0 436.975 436.975" style="enable-background:new 0 0 436.975 436.975;" xml:space="preserve">
<g>
	<g>
		<path d="M334.428,0c-45.169,0-81.92,36.751-81.92,81.92s36.751,81.92,81.92,81.92c45.169,0,81.92-36.751,81.92-81.92
			S379.597,0,334.428,0z M334.428,150.187c-37.642,0-68.267-30.624-68.267-68.267c0-37.642,30.624-68.267,68.267-68.267
			c37.642,0,68.267,30.624,68.267,68.267C402.695,119.562,372.07,150.187,334.428,150.187z"/>
	</g>
</g>
<g>
	<g>
		<path d="M364.619,40.984c-3.526-1.358-7.475,0.389-8.834,3.901l-24.539,63.379l-28.355-16.725c-3.249-1.915-7.431-0.84-9.349,2.41
			c-1.918,3.25-0.836,7.431,2.41,9.349l35.284,20.815c1.065,0.625,2.263,0.945,3.471,0.945c0.754,0,1.509-0.123,2.239-0.375
			c1.894-0.659,3.403-2.116,4.127-3.983l27.447-70.881C369.879,46.302,368.131,42.346,364.619,40.984z"/>
	</g>
</g>
<g>
	<g>
		<path d="M104.772,217.057c-0.618-3.717-4.11-6.243-7.851-5.618c-0.744,0.119-1.502,0.188-2.28,0.188
			c-7.53,0-13.653-6.124-13.653-13.653c0-6.663,4.755-12.319,11.305-13.452c3.717-0.645,6.205-4.174,5.564-7.892
			c-0.642-3.714-4.14-6.192-7.892-5.564c-13.114,2.266-22.63,13.585-22.63,26.907c0,15.056,12.25,27.307,27.307,27.307
			c1.536,0,3.041-0.126,4.512-0.372C102.874,224.294,105.39,220.778,104.772,217.057z"/>
	</g>
</g>
<g>
	<g>
		<path d="M290.475,171.069c-3.697-0.618-7.25,1.843-7.892,5.564c-0.642,3.714,1.847,7.25,5.564,7.892
			c6.543,1.133,11.295,6.789,11.295,13.448c0,7.53-6.124,13.653-13.653,13.653l-0.891-0.027c-3.772-0.273-7.001,2.632-7.233,6.393
			s2.628,7.004,6.393,7.233c0.573,0.038,1.15,0.055,1.731,0.055c15.056,0,27.307-12.25,27.307-27.307
			C313.095,184.651,303.582,173.339,290.475,171.069z"/>
	</g>
</g>
<g>
	<g>
		<path d="M326.895,310.449l-78.834-9.475c-3.663-0.416-6.902,2.144-7.339,5.765c-0.433,3.615,2.144,6.902,5.765,7.339l78.834,9.475
			c12.247,1.471,22.989,12.715,22.989,24.064v76.155H33.83v-76.155c0-11.861,9.547-22.658,21.282-24.064l78.462-9.434
			c3.618-0.437,6.199-3.721,5.765-7.339c-0.437-3.618-3.683-6.168-7.339-5.765l-78.462,9.434
			c-18.149,2.178-32.911,18.852-32.911,37.171v82.753c0,3.645,2.959,6.601,6.601,6.601h327.68c3.642,0,6.598-2.956,6.605-6.601
			v-82.753C361.513,329.725,345.658,312.702,326.895,310.449z"/>
	</g>
</g>
<g>
	<g>
		<path d="M290.7,145.162c-1.178-3.574-5.042-5.536-8.622-4.338c-3.581,1.181-5.526,5.042-4.338,8.622
			c3.075,9.308,4.635,19.05,4.635,28.952c0,52.661-43.39,119.467-92.16,119.467s-92.16-66.806-92.16-119.467
			c0-11.141,1.963-22.03,5.84-32.358c1.324-3.529-0.468-7.462-3.997-8.789c-3.529-1.307-7.462,0.468-8.789,3.997
			c-4.451,11.868-6.707,24.371-6.707,37.154c0,59.924,48.828,133.12,105.813,133.12s105.813-73.195,105.817-133.12
			C296.032,167.038,294.236,155.856,290.7,145.162z"/>
	</g>
</g>
<g>
	<g>
		<path d="M244.207,276.224c-3.768,0-6.827,3.058-6.827,6.827v52.774c-12.268,4.099-35.553,11.073-47.165,11.073
			c-11.612,0-34.894-6.974-47.165-11.073v-52.169c0-3.768-3.058-6.827-6.827-6.827s-6.827,3.058-6.827,6.827v57.037
			c0,2.888,1.816,5.465,4.536,6.431c1.539,0.553,37.926,13.428,56.282,13.428c18.357,0,54.743-12.875,56.282-13.425
			c2.72-0.966,4.536-3.543,4.536-6.431v-57.644C251.034,279.282,247.975,276.224,244.207,276.224z"/>
	</g>
</g>
<g>
	<g>
		<path d="M274.033,232.107H106.394c-3.768,0-6.827,3.058-6.827,6.827s3.058,6.827,6.827,6.827h167.639
			c3.772,0,6.827-3.058,6.827-6.827S277.801,232.107,274.033,232.107z"/>
	</g>
</g>
<g>
	<g>
		<path d="M286.642,135.564c-2.304,0-4.342,1.14-5.577,2.888c-10.155-6.158-27.522-15.592-47.916-22.088
			c-3.587-1.147-7.438,0.836-8.578,4.431c-1.147,3.594,0.84,7.434,4.43,8.578c29.809,9.496,53.443,26.204,53.675,26.371
			c1.181,0.84,2.57,1.27,3.966,1.27c1.065,0,2.14-0.253,3.127-0.765c2.27-1.167,3.7-3.509,3.7-6.065v-7.793
			C293.468,138.622,290.41,135.564,286.642,135.564z"/>
	</g>
</g>
<g>
	<g>
		<path d="M275.582,24.3c-17.097-3.977-50.807-10.646-84.514-10.646c-48.189,0-95.461,13.346-97.451,13.916
			c-2.929,0.836-4.949,3.516-4.949,6.564v116.053c0,2.557,1.43,4.895,3.7,6.065c0.986,0.509,2.058,0.761,3.127,0.761
			c1.396,0,2.785-0.43,3.963-1.27c0.239-0.167,23.876-16.879,53.682-26.371c3.591-1.143,5.577-4.983,4.43-8.578
			c-1.14-3.587-4.956-5.574-8.578-4.431c-19.582,6.236-36.372,15.179-46.671,21.333V39.383c13.285-3.369,51.227-12.08,88.747-12.08
			c32.345,0,64.894,6.451,81.422,10.295c3.652,0.833,7.339-1.43,8.195-5.103C281.539,28.822,279.255,25.156,275.582,24.3z"/>
	</g>
</g>
<g>
	<g>
		<path d="M191.068,75.093c-22.586,0-40.96,18.374-40.96,40.96c0,22.586,18.374,40.96,40.96,40.96
			c22.586,0,40.96-18.374,40.96-40.96C232.028,93.467,213.654,75.093,191.068,75.093z M191.068,143.36
			c-15.056,0-27.307-12.25-27.307-27.307s12.25-27.307,27.307-27.307s27.307,12.25,27.307,27.307S206.124,143.36,191.068,143.36z"/>
	</g>
</g>
<g>
	<g>
		<path d="M191.068,95.573c-11.295,0-20.48,9.185-20.48,20.48c0,11.295,9.185,20.48,20.48,20.48c11.291,0,20.48-9.185,20.48-20.48
			C211.548,104.759,202.363,95.573,191.068,95.573z M191.068,122.88c-3.765,0-6.827-3.062-6.827-6.827
			c0-3.765,3.062-6.827,6.827-6.827c3.761,0,6.827,3.062,6.827,6.827C197.895,119.818,194.833,122.88,191.068,122.88z"/>
	</g>
</g>
<g>
</g>
<g>
</g>
<g>
</g>
<g>
</g>
<g>
</g>
<g>
</g>
<g>
</g>
<g>
</g>
<g>
</g>
<g>
</g>
<g>
</g>
<g>
</g>
<g>
</g>
<g>
</g>
<g>
</g>
</svg>
