<?xml version="1.0" encoding="iso-8859-1"?>
<!-- Generator: Adobe Illustrator 19.0.0, SVG Export Plug-In . SVG Version: 6.00 Build 0)  -->
<svg version="1.1" id="Capa_1" xmlns="http://www.w3.org/2000/svg" xmlns:xlink="http://www.w3.org/1999/xlink" x="0px" y="0px"
	 viewBox="0 0 436.975 436.975" style="enable-background:new 0 0 436.975 436.975;" xml:space="preserve">
<g>
	<g>
		<path d="M334.428,0c-45.172,0-81.92,36.751-81.92,81.92s36.748,81.92,81.92,81.92c45.172,0,81.92-36.751,81.92-81.92
			S379.6,0,334.428,0z M334.428,150.187c-37.639,0-68.267-30.624-68.267-68.267c0-37.642,30.628-68.267,68.267-68.267
			c37.639,0,68.267,30.624,68.267,68.267C402.695,119.562,372.067,150.187,334.428,150.187z"/>
	</g>
</g>
<g>
	<g>
		<path d="M104.772,217.057c-0.614-3.717-4.089-6.243-7.851-5.618c-0.744,0.119-1.502,0.188-2.28,0.188
			c-7.53,0-13.653-6.124-13.653-13.653c0-6.663,4.755-12.319,11.305-13.452c3.717-0.645,6.205-4.174,5.564-7.892
			c-0.642-3.714-4.154-6.192-7.892-5.564c-13.114,2.266-22.63,13.585-22.63,26.907c0,15.056,12.25,27.307,27.307,27.307
			c1.536,0,3.041-0.126,4.512-0.372C102.874,224.294,105.39,220.778,104.772,217.057z"/>
	</g>
</g>
<g>
	<g>
		<path d="M290.471,171.069c-3.779-0.618-7.25,1.843-7.892,5.564c-0.638,3.714,1.847,7.25,5.56,7.892
			c6.547,1.133,11.302,6.789,11.302,13.448c0,7.53-6.127,13.653-13.653,13.653l-0.894-0.027c-3.905-0.259-7.001,2.632-7.233,6.393
			c-0.232,3.761,2.632,7.004,6.393,7.233c0.573,0.038,1.154,0.055,1.734,0.055c15.06,0,27.307-12.25,27.303-27.307
			C313.091,184.651,303.578,173.336,290.471,171.069z"/>
	</g>
</g>
<g>
	<g>
		<path d="M326.892,310.449l-78.828-9.475c-3.652-0.416-6.898,2.144-7.339,5.765c-0.434,3.615,2.144,6.902,5.765,7.339l78.828,9.475
			c12.247,1.471,22.992,12.715,22.992,24.064v76.155H33.83v-76.155c0-11.861,9.547-22.658,21.282-24.064l78.462-9.434
			c3.618-0.437,6.199-3.721,5.765-7.339c-0.433-3.618-3.714-6.168-7.339-5.765l-78.462,9.434
			c-18.149,2.178-32.911,18.852-32.911,37.171v82.753c0,3.645,2.959,6.601,6.601,6.601h327.68c3.645,0,6.598-2.956,6.605-6.601
			v-82.753C361.513,329.725,345.658,312.702,326.892,310.449z"/>
	</g>
</g>
<g>
	<g>
		<path d="M290.693,145.162c-1.178-3.577-5.052-5.54-8.619-4.338c-3.577,1.181-5.526,5.042-4.338,8.622
			c3.079,9.315,4.639,19.057,4.639,28.952c0,52.661-43.394,119.467-92.16,119.467c-48.77,0-92.16-66.806-92.16-119.467
			c0-11.141,1.963-22.03,5.84-32.358c1.324-3.529-0.468-7.462-3.997-8.789c-3.519-1.307-7.458,0.468-8.789,3.997
			c-4.451,11.868-6.707,24.371-6.707,37.154c0,59.924,48.828,133.12,105.813,133.12s105.813-73.195,105.81-133.12
			C296.025,167.048,294.233,155.863,290.693,145.162z"/>
	</g>
</g>
<g>
	<g>
		<path d="M244.207,276.224c-3.772,0-6.827,3.058-6.827,6.827v52.774c-12.264,4.099-35.546,11.073-47.165,11.073
			c-11.612,0-34.894-6.974-47.165-11.073v-52.169c0-3.768-3.058-6.827-6.827-6.827s-6.827,3.058-6.827,6.827v57.037
			c0,2.888,1.816,5.465,4.536,6.431c1.539,0.553,37.926,13.428,56.282,13.428c18.36,0,54.74-12.875,56.279-13.425
			c2.72-0.966,4.54-3.543,4.54-6.431v-57.644C251.034,279.282,247.979,276.224,244.207,276.224z"/>
	</g>
</g>
<g>
	<g>
		<path d="M274.033,232.107H106.394c-3.768,0-6.827,3.058-6.827,6.827s3.058,6.827,6.827,6.827h167.639
			c3.775,0,6.827-3.058,6.827-6.827S277.804,232.107,274.033,232.107z"/>
	</g>
</g>
<g>
	<g>
		<path d="M286.642,135.564c-2.301,0-4.342,1.14-5.574,2.888c-10.155-6.158-27.525-15.592-47.92-22.088
			c-3.622-1.143-7.434,0.836-8.581,4.431c-1.14,3.594,0.84,7.434,4.434,8.578c29.802,9.496,53.443,26.204,53.675,26.371
			c1.181,0.84,2.574,1.27,3.966,1.27c1.065,0,2.14-0.253,3.127-0.765c2.273-1.167,3.7-3.509,3.7-6.065v-7.793
			C293.468,138.622,290.413,135.564,286.642,135.564z"/>
	</g>
</g>
<g>
	<g>
		<path d="M275.582,24.3c-17.094-3.977-50.807-10.646-84.514-10.646c-48.189,0-95.461,13.346-97.451,13.916
			c-2.929,0.836-4.949,3.516-4.949,6.564v116.053c0,2.557,1.43,4.895,3.7,6.065c0.986,0.509,2.058,0.761,3.127,0.761
			c1.396,0,2.785-0.43,3.963-1.27c0.239-0.167,23.876-16.879,53.682-26.371c3.591-1.143,5.577-4.983,4.43-8.578
			c-1.143-3.594-4.983-5.581-8.578-4.431c-19.582,6.236-36.372,15.179-46.671,21.333V39.383c13.285-3.369,51.227-12.08,88.747-12.08
			c32.341,0,64.894,6.451,81.422,10.295c3.652,0.833,7.332-1.43,8.192-5.103S279.255,25.156,275.582,24.3z"/>
	</g>
</g>
<g>
	<g>
		<path d="M191.068,75.093c-22.586,0-40.96,18.374-40.96,40.96c0,22.586,18.374,40.96,40.96,40.96
			c22.586,0,40.96-18.374,40.96-40.96C232.028,93.467,213.654,75.093,191.068,75.093z M191.068,143.36
			c-15.056,0-27.307-12.25-27.307-27.307s12.25-27.307,27.307-27.307c15.06,0,27.307,12.25,27.307,27.307
			S206.128,143.36,191.068,143.36z"/>
	</g>
</g>
<g>
	<g>
		<path d="M191.068,95.573c-11.295,0-20.48,9.185-20.48,20.48c0,11.295,9.185,20.48,20.48,20.48c11.291,0,20.48-9.185,20.48-20.48
			C211.548,104.759,202.363,95.573,191.068,95.573z M191.068,122.88c-3.768,0-6.827-3.062-6.827-6.827
			c0-3.765,3.058-6.827,6.827-6.827c3.765,0,6.827,3.062,6.827,6.827C197.895,119.818,194.836,122.88,191.068,122.88z"/>
	</g>
</g>
<g>
	<g>
		<path d="M370.992,47.79c-2.666-2.666-6.987-2.666-9.653,0l-58.126,58.126c-2.666,2.666-2.666,6.987,0,9.653
			c1.335,1.335,3.079,2,4.826,2c1.748,0,3.495-0.669,4.826-2l58.126-58.126C373.658,54.777,373.658,50.456,370.992,47.79z"/>
	</g>
</g>
<g>
	<g>
		<path d="M370.995,105.916l-58.129-58.129c-2.666-2.666-6.987-2.666-9.653,0c-2.666,2.666-2.666,6.987,0,9.653l58.129,58.129
			c1.335,1.335,3.079,2,4.826,2c1.744,0,3.492-0.669,4.826-2C373.661,112.903,373.661,108.582,370.995,105.916z"/>
	</g>
</g>
<g>
</g>
<g>
</g>
<g>
</g>
<g>
</g>
<g>
</g>
<g>
</g>
<g>
</g>
<g>
</g>
<g>
</g>
<g>
</g>
<g>
</g>
<g>
</g>
<g>
</g>
<g>
</g>
<g>
</g>
</svg>
