<?xml version="1.0" encoding="iso-8859-1"?>
<!-- Generator: Adobe Illustrator 19.0.0, SVG Export Plug-In . SVG Version: 6.00 Build 0)  -->
<svg version="1.1" id="Capa_1" xmlns="http://www.w3.org/2000/svg" xmlns:xlink="http://www.w3.org/1999/xlink" x="0px" y="0px"
	 viewBox="0 0 424.02 424.02" style="enable-background:new 0 0 424.02 424.02;" xml:space="preserve">
<g>
	<g>
		<path d="M423.736,104.082c-0.532-1.789-1.782-3.28-3.447-4.127C283.4,30.326,229.066,55.407,212.013,69.477
			c-17.067-14.056-71.4-39.144-208.282,30.478c-1.669,0.847-2.915,2.338-3.447,4.127c-0.532,1.789-0.311,3.717,0.614,5.338
			c0.799,1.403,20.026,34.765,55.566,69.158c47.353,45.824,101.147,71.1,156.081,73.097c54.193-1.997,107.82-27.273,155.088-73.1
			c35.468-34.393,54.688-67.751,55.487-69.154C424.05,107.802,424.268,105.87,423.736,104.082z M212.546,238.028
			c-107.913-3.956-179.18-103.305-195.98-129.242c148.04-73.349,188.515-27.45,190.194-25.436c1.294,1.567,3.219,2.471,5.253,2.471
			c2.034,0,3.96-0.908,5.26-2.475c1.666-2.021,42.107-47.93,190.181,25.44C390.674,134.72,319.533,234.075,212.546,238.028z"/>
	</g>
</g>
<g>
	<g>
		<path d="M340.87,119.336c-1.092-2.816-3.925-4.574-6.905-4.338c-0.819,0.065-82.101,6.506-122.341,6.506
			c-40.24,0-121.521-6.438-122.341-6.506c-2.98-0.229-5.813,1.529-6.905,4.338c-1.085,2.813-0.205,6.007,2.174,7.861
			c2.587,2.01,64.014,49.224,127.075,49.224c63.058,0,124.484-47.213,127.068-49.224
			C341.078,125.343,341.955,122.145,340.87,119.336z M211.624,162.767c-37.141,0-74.865-18.609-97.526-32.246
			c27.696,1.935,71.182,4.639,97.526,4.639c26.361,0,69.867-2.71,97.56-4.642C286.543,144.154,248.829,162.767,211.624,162.767z"/>
	</g>
</g>
<g>
	<g>
		<path d="M81.921,224.207c-15.06,0-27.307,12.25-27.307,27.307c0,13.015,18.282,36.867,21.948,41.516
			c1.294,1.645,3.267,2.601,5.359,2.601c2.092,0,4.065-0.956,5.359-2.601c3.669-4.649,21.948-28.501,21.948-41.516
			C109.228,236.457,96.98,224.207,81.921,224.207z M81.921,277.39c-7.26-10.25-13.653-21.439-13.653-25.876
			c0-7.53,6.127-13.653,13.653-13.653c7.526,0,13.653,6.124,13.653,13.653C95.574,255.951,89.181,267.14,81.921,277.39z"/>
	</g>
</g>
<g>
	<g>
		<path d="M150.188,299.3c-15.06,0-27.307,12.25-27.307,27.307c0,13.015,18.282,36.867,21.948,41.516
			c1.294,1.645,3.267,2.601,5.359,2.601c2.092,0,4.065-0.956,5.359-2.601c3.669-4.649,21.948-28.501,21.948-41.516
			C177.494,311.551,165.247,299.3,150.188,299.3z M150.188,352.484c-7.26-10.25-13.653-21.439-13.653-25.877
			c0-7.53,6.127-13.653,13.653-13.653c7.526,0,13.653,6.124,13.653,13.653C163.841,331.044,157.448,342.233,150.188,352.484z"/>
	</g>
</g>
<g>
	<g>
		<path d="M225.281,271.994c-15.06,0-27.307,12.25-27.307,27.307c0,13.015,18.282,36.867,21.948,41.516
			c1.294,1.645,3.267,2.601,5.359,2.601c2.092,0,4.065-0.956,5.359-2.601c3.669-4.649,21.948-28.501,21.948-41.516
			C252.588,284.244,240.341,271.994,225.281,271.994z M225.281,325.177c-7.26-10.25-13.653-21.439-13.653-25.876
			c0-7.53,6.127-13.653,13.653-13.653c7.526,0,13.653,6.123,13.653,13.653C238.934,303.738,232.541,314.927,225.281,325.177z"/>
	</g>
</g>
<g>
	<g>
		<path d="M334.508,231.034c-15.06,0-27.307,12.25-27.307,27.307c0,13.015,18.282,36.867,21.948,41.516
			c1.294,1.645,3.267,2.601,5.359,2.601c2.092,0,4.065-0.956,5.359-2.601c3.669-4.649,21.948-28.501,21.948-41.516
			C361.814,243.284,349.567,231.034,334.508,231.034z M334.508,284.217c-7.26-10.25-13.653-21.439-13.653-25.877
			c0-7.53,6.127-13.653,13.653-13.653c7.526,0,13.653,6.124,13.653,13.653C348.161,262.778,341.768,273.967,334.508,284.217z"/>
	</g>
</g>
<g>
</g>
<g>
</g>
<g>
</g>
<g>
</g>
<g>
</g>
<g>
</g>
<g>
</g>
<g>
</g>
<g>
</g>
<g>
</g>
<g>
</g>
<g>
</g>
<g>
</g>
<g>
</g>
<g>
</g>
</svg>
