<?xml version="1.0" encoding="iso-8859-1"?>
<!-- Generator: Adobe Illustrator 19.0.0, SVG Export Plug-In . SVG Version: 6.00 Build 0)  -->
<svg version="1.1" id="Capa_1" xmlns="http://www.w3.org/2000/svg" xmlns:xlink="http://www.w3.org/1999/xlink" x="0px" y="0px"
	 viewBox="0 0 423.253 423.253" style="enable-background:new 0 0 423.253 423.253;" xml:space="preserve">
<g>
	<g>
		<path d="M300.373,20.48c-33.686,0-65.608,13.718-88.747,37.888c-23.139-24.17-55.06-37.888-88.747-37.888
			C48.234,20.48,0,68.714,0,143.36c0,81.381,177.654,259.413,211.627,259.413S423.253,224.741,423.253,143.36
			C423.253,68.714,375.02,20.48,300.373,20.48z M211.627,389.12c-20.313,0-197.973-166.919-197.973-245.76
			c0-80.534,56.419-109.227,109.227-109.227c32.259,0,62.706,14.155,83.524,38.84c2.601,3.079,7.84,3.079,10.441,0
			c20.821-24.685,51.268-38.84,83.528-38.84c52.808,0,109.227,28.693,109.227,109.227C409.6,222.201,231.939,389.12,211.627,389.12z
			"/>
	</g>
</g>
<g>
	<g>
		<path d="M237.476,123.109c-5.734,0-10.953,2.475-15.568,4.659c-3.673,1.744-7.154,3.386-9.912,3.386
			c-2.758,0-6.24-1.642-9.912-3.386c-4.615-2.181-9.834-4.659-15.568-4.659c-20.92,0-36.099,21.951-36.099,52.193
			c0,11.332,7.861,111.193,36.099,111.193c10.213,0,12.964-13.786,17.145-34.652c1.901-9.513,5.349-26.723,8.735-30.966
			c4.038,3.625,7.499,23.265,9.206,32.949c3.465,19.671,5.751,32.669,15.872,32.669c28.242,0,36.099-99.86,36.103-111.193
			C273.575,145.06,258.396,123.109,237.476,123.109z M239.114,272.271c-1.645-4.451-3.331-14.015-4.512-20.736
			c-3.826-21.726-7.786-44.192-22.634-44.247c-12.868,0.058-16.756,19.477-21.255,41.967c-1.512,7.574-3.686,18.432-5.666,23.095
			c-9.339-8.489-21.432-66.475-21.432-97.048c0-22.231,9.847-38.994,22.9-38.994c2.758,0,6.24,1.642,9.912,3.386
			c4.615,2.181,9.834,4.659,15.568,4.659s10.953-2.475,15.568-4.659c3.673-1.744,7.151-3.386,9.912-3.386
			c13.053,0,22.9,16.763,22.9,38.994C260.376,205.797,248.34,263.567,239.114,272.271z"/>
	</g>
</g>
<g>
	<g>
		<path d="M122.88,47.787c-52.698,0-95.573,42.875-95.573,95.573c0,3.768,3.055,6.827,6.827,6.827s6.827-3.058,6.827-6.827
			c0-45.169,36.748-81.92,81.92-81.92c3.772,0,6.827-3.058,6.827-6.827C129.707,50.845,126.652,47.787,122.88,47.787z"/>
	</g>
</g>
<g>
</g>
<g>
</g>
<g>
</g>
<g>
</g>
<g>
</g>
<g>
</g>
<g>
</g>
<g>
</g>
<g>
</g>
<g>
</g>
<g>
</g>
<g>
</g>
<g>
</g>
<g>
</g>
<g>
</g>
</svg>
