<?xml version="1.0" encoding="iso-8859-1"?>
<!-- Generator: Adobe Illustrator 19.0.0, SVG Export Plug-In . SVG Version: 6.00 Build 0)  -->
<svg version="1.1" id="Capa_1" xmlns="http://www.w3.org/2000/svg" xmlns:xlink="http://www.w3.org/1999/xlink" x="0px" y="0px"
	 viewBox="0 0 395.947 395.947" style="enable-background:new 0 0 395.947 395.947;" xml:space="preserve">
<g>
	<g>
		<path d="M262.827,0c-12.346,0-24.04,5.54-35.345,10.895c-10.407,4.932-20.234,9.585-29.508,9.585s-19.101-4.652-29.508-9.585
			C157.16,5.54,145.466,0,133.12,0C85.654,0,51.2,51.681,51.2,122.88c0,54.04,26.348,273.067,81.92,273.067
			c16.995,0,23.62-28.979,33.867-80.2c6.567-32.826,17.551-87.76,30.959-87.818c17.913,0.061,27.781,56.057,34.307,93.109
			c7.946,45.111,13.193,74.909,30.573,74.909c55.573,0,81.92-219.027,81.92-273.067C344.747,51.681,310.292,0,262.827,0z
			 M263.045,382.327c-6.625-2.775-13.08-39.414-17.347-63.659c-9.032-51.275-18.374-104.294-47.753-104.397
			c-24.607,0.106-34.191,48.043-44.346,98.795c-4.987,24.921-13.332,66.632-20.48,69.226c-11.892,0-30.713-27.255-47.855-103.752
			C72.492,221.508,64.853,154.607,64.853,122.88c0-63.29,28.713-109.227,68.267-109.227c9.274,0,19.101,4.652,29.508,9.585
			c11.305,5.356,22.999,10.895,35.345,10.895s24.04-5.54,35.345-10.895c10.407-4.932,20.234-9.585,29.508-9.585
			c39.554,0,68.267,45.937,68.267,109.227c0,31.727-7.639,98.628-20.415,155.662C293.54,355.034,274.719,382.29,263.045,382.327z"/>
	</g>
</g>
<g>
	<g>
		<path d="M269.653,102.4h-47.787V54.613c0-3.768-3.055-6.827-6.827-6.827h-34.133c-3.772,0-6.827,3.058-6.827,6.827V102.4h-47.787
			c-3.772,0-6.827,3.058-6.827,6.827v34.133c0,3.768,3.055,6.827,6.827,6.827h47.787v47.787c0,3.768,3.055,6.827,6.827,6.827h34.133
			c3.772,0,6.827-3.058,6.827-6.827v-47.787h47.787c3.772,0,6.827-3.058,6.827-6.827v-34.133
			C276.48,105.458,273.425,102.4,269.653,102.4z M262.827,136.533H215.04c-3.772,0-6.827,3.058-6.827,6.827v47.787h-20.48V143.36
			c0-3.768-3.055-6.827-6.827-6.827H133.12v-20.48h47.787c3.772,0,6.827-3.058,6.827-6.827V61.44h20.48v47.787
			c0,3.768,3.055,6.827,6.827,6.827h47.787V136.533z"/>
	</g>
</g>
<g>
	<g>
		<path d="M146.773,27.307c-33.881,0-61.44,27.563-61.44,61.44c0,3.768,3.055,6.827,6.827,6.827s6.827-3.058,6.827-6.827
			c0-26.351,21.439-47.787,47.787-47.787c3.772,0,6.827-3.058,6.827-6.827C153.6,30.365,150.545,27.307,146.773,27.307z"/>
	</g>
</g>
<g>
</g>
<g>
</g>
<g>
</g>
<g>
</g>
<g>
</g>
<g>
</g>
<g>
</g>
<g>
</g>
<g>
</g>
<g>
</g>
<g>
</g>
<g>
</g>
<g>
</g>
<g>
</g>
<g>
</g>
</svg>
