<?xml version="1.0" encoding="iso-8859-1"?>
<!-- Generator: Adobe Illustrator 19.0.0, SVG Export Plug-In . SVG Version: 6.00 Build 0)  -->
<svg version="1.1" id="Capa_1" xmlns="http://www.w3.org/2000/svg" xmlns:xlink="http://www.w3.org/1999/xlink" x="0px" y="0px"
	 viewBox="0 0 402.548 402.548" style="enable-background:new 0 0 402.548 402.548;" xml:space="preserve">
<g>
	<g>
		<path d="M339.709,161.744c-3.543-0.283-6.84,2.348-7.168,5.98c-9.479,104.824-39.086,221.621-66.273,221.641
			c-6.68-2.464-13.186-39.393-17.493-63.826c-9.015-51.183-18.333-104.11-47.527-104.213c-24.429,0.106-33.993,47.957-44.128,98.618
			c-5.024,25.115-13.431,67.161-20.698,69.403c-22.118,0-54.88-91.532-66.526-222.874c-0.328-3.628-3.553-6.246-7.154-5.99
			c-3.635,0.324-6.315,3.529-5.994,7.158c0.208,2.348,22.429,234.902,79.674,234.902c16.818,0,23.419-28.911,33.638-80.015
			c7.008-35.021,17.596-87.945,31.188-88.003c18.108,0.065,27.6,53.955,34.533,93.303c7.922,44.995,13.162,74.718,30.348,74.718
			c57.76,0,79.346-231.298,79.561-233.636C346.016,165.281,343.34,162.075,339.709,161.744z"/>
	</g>
</g>
<g>
	<g>
		<path d="M266.127,0c-16.961,0-31.389,6.837-44.121,12.868c-7.526,3.567-16.06,7.612-20.733,7.612s-13.206-4.041-20.739-7.612
			C167.806,6.837,153.382,0,136.421,0c-59.334,0-102.4,60.29-102.4,143.36c0,15.056,12.247,27.307,27.307,27.307
			s27.307-12.25,27.307-27.307c0-49.763,20.992-88.747,47.787-88.747c4.673,0,13.206,4.041,20.739,7.612
			c12.728,6.031,27.153,12.868,44.114,12.868s31.389-6.837,44.121-12.868c7.526-3.567,16.06-7.612,20.733-7.612
			c26.795,0,47.787,38.984,47.787,88.747c0,15.056,12.247,27.307,27.307,27.307s27.307-12.25,27.307-27.307
			C368.527,60.29,325.461,0,266.127,0z M341.221,157.013c-7.526,0-13.653-6.124-13.653-13.653c0-58.378-26.412-102.4-61.44-102.4
			c-7.748,0-17.326,4.54-26.58,8.926c-11.435,5.417-24.388,11.554-38.274,11.554s-26.839-6.137-38.267-11.554
			c-9.26-4.386-18.838-8.926-26.586-8.926c-35.028,0-61.44,44.022-61.44,102.4c0,7.53-6.127,13.653-13.653,13.653
			s-13.653-6.124-13.653-13.653c0-75.158,37.328-129.707,88.747-129.707c13.885,0,26.839,6.137,38.267,11.554
			c9.26,4.386,18.842,8.926,26.586,8.926s17.326-4.54,26.58-8.926c11.435-5.417,24.388-11.554,38.274-11.554
			c51.418,0,88.747,54.548,88.747,129.707C354.874,150.89,348.747,157.013,341.221,157.013z"/>
	</g>
</g>
<g>
</g>
<g>
</g>
<g>
</g>
<g>
</g>
<g>
</g>
<g>
</g>
<g>
</g>
<g>
</g>
<g>
</g>
<g>
</g>
<g>
</g>
<g>
</g>
<g>
</g>
<g>
</g>
<g>
</g>
</svg>
