<?xml version="1.0" encoding="iso-8859-1"?>
<!-- Generator: Adobe Illustrator 19.0.0, SVG Export Plug-In . SVG Version: 6.00 Build 0)  -->
<svg version="1.1" id="Capa_1" xmlns="http://www.w3.org/2000/svg" xmlns:xlink="http://www.w3.org/1999/xlink" x="0px" y="0px"
	 viewBox="0 0 436.975 436.975" style="enable-background:new 0 0 436.975 436.975;" xml:space="preserve">
<g>
	<g>
		<path d="M331.015,0c-45.169,0-81.92,36.751-81.92,81.92s36.751,81.92,81.92,81.92c45.169,0,81.92-36.751,81.92-81.92
			S376.184,0,331.015,0z M331.015,150.187c-37.642,0-68.267-30.624-68.267-68.267c0-37.642,30.624-68.267,68.267-68.267
			c37.642,0,68.267,30.624,68.267,68.267C399.282,119.562,368.657,150.187,331.015,150.187z"/>
	</g>
</g>
<g>
	<g>
		<path d="M361.206,40.984c-3.526-1.358-7.475,0.389-8.834,3.901l-24.539,63.379l-28.355-16.725c-3.249-1.915-7.431-0.84-9.349,2.41
			c-1.918,3.25-0.836,7.431,2.41,9.349l35.284,20.815c1.065,0.625,2.263,0.945,3.471,0.945c0.754,0,1.509-0.123,2.239-0.375
			c1.894-0.659,3.403-2.116,4.127-3.983l27.447-70.881C366.466,46.302,364.718,42.346,361.206,40.984z"/>
	</g>
</g>
<g>
	<g>
		<path d="M303.708,150.187c-3.768,0-6.827,3.058-6.827,6.827V307.2c0,3.768,3.058,6.827,6.827,6.827s6.827-3.055,6.827-6.827
			V157.013C310.535,153.245,307.476,150.187,303.708,150.187z"/>
	</g>
</g>
<g>
	<g>
		<path d="M85.265,122.146c-3.768,0-6.827,3.058-6.827,6.827V309.48c0,3.768,3.058,6.827,6.827,6.827s6.827-3.055,6.827-6.827
			V128.973C92.092,125.204,89.033,122.146,85.265,122.146z"/>
	</g>
</g>
<g>
	<g>
		<path d="M330.308,310.449l-91.146-10.957c-3.656-0.437-6.905,2.15-7.339,5.765c-0.434,3.615,2.144,6.902,5.765,7.339
			l91.146,10.957c12.247,1.471,22.989,12.715,22.989,24.064v76.155H37.243v-76.155c0-11.865,9.547-22.658,21.282-24.064
			l93.532-11.244c3.618-0.437,6.199-3.721,5.765-7.339c-0.437-3.618-3.68-6.182-7.339-5.765l-93.532,11.244
			c-18.149,2.178-32.911,18.852-32.911,37.171v82.753c0,3.645,2.959,6.601,6.601,6.601h327.68c3.642,0,6.598-2.956,6.605-6.601
			v-82.753C364.926,329.725,349.071,312.702,330.308,310.449z"/>
	</g>
</g>
<g>
	<g>
		<path d="M293.151,142.38c-1.287-3.547-5.195-5.376-8.745-4.096c-3.543,1.283-5.379,5.198-4.096,8.745
			c3.632,10.039,5.475,20.596,5.475,31.372c0,38.717-23.108,84.333-53.757,106.11c-1.806,1.28-2.874,3.355-2.874,5.564v46.148
			c-9.568,4.055-26.972,10.67-35.529,10.67c-8.557,0-25.962-6.615-35.529-10.67v-46.152c0-2.212-1.072-4.284-2.874-5.564
			c-30.645-21.777-53.757-67.393-53.757-106.11c0-9.885,1.556-19.606,4.622-28.904c1.181-3.577-0.761-7.438-4.345-8.619
			c-3.574-1.184-7.438,0.761-8.619,4.345c-3.523,10.677-5.308,21.839-5.308,33.178c0,42.22,23.644,89.986,56.631,115.125v47.172
			c0,2.679,1.567,5.11,4.007,6.216c3.075,1.396,30.478,13.64,45.175,13.64c14.694,0,42.1-12.244,45.175-13.64
			c2.441-1.106,4.007-3.536,4.007-6.216v-47.169c32.986-25.143,56.631-72.909,56.631-115.125
			C299.441,166.035,297.325,153.917,293.151,142.38z"/>
	</g>
</g>
<g>
	<g>
		<path d="M283.235,235.315c-1.246-1.997-3.437-3.208-5.789-3.208H109.807c-2.352,0-4.54,1.212-5.789,3.208
			c-1.249,1.997-1.379,4.499-0.345,6.615c16.428,33.642,48.684,69.591,89.955,69.591c41.271,0,73.527-35.949,89.952-69.591
			C284.611,239.811,284.481,237.312,283.235,235.315z M193.628,297.868c-31.171,0-56.863-25.395-72.434-52.108h144.869
			C250.487,272.476,224.799,297.868,193.628,297.868z"/>
	</g>
</g>
<g>
	<g>
		<path d="M285.71,133.769c-12.667-5.782-32.031-13.776-52.34-18.995c-3.656-0.915-7.376,1.266-8.315,4.912
			c-0.939,3.656,1.263,7.376,4.912,8.315c19.343,4.97,37.905,12.633,50.067,18.19c0.918,0.42,1.884,0.618,2.833,0.618
			c2.591,0,5.069-1.481,6.216-3.994C290.649,139.387,289.14,135.335,285.71,133.769z"/>
	</g>
</g>
<g>
	<g>
		<path d="M276.733,22.026c-22.132-3.82-54.364-8.373-82.251-8.373c-47.985,0-108.172,13.254-110.708,13.817
			c-3.123,0.693-5.345,3.461-5.345,6.663v116.053c0,2.42,1.28,4.659,3.362,5.885c1.072,0.628,2.266,0.942,3.464,0.942
			c1.14,0,2.284-0.287,3.321-0.86c0.334-0.188,34.208-18.879,70.38-28.153c3.649-0.939,5.85-4.659,4.915-8.311
			c-0.935-3.649-4.642-5.854-8.311-4.915c-25.993,6.666-50.319,17.681-63.478,24.19v-99.29c15.875-3.239,63.993-12.367,102.4-12.367
			c26.921,0,58.324,4.444,79.93,8.175c3.724,0.652,7.246-1.853,7.888-5.567C282.941,26.201,280.45,22.668,276.733,22.026z"/>
	</g>
</g>
<g>
	<g>
		<path d="M194.481,75.093c-22.586,0-40.96,18.374-40.96,40.96c0,22.586,18.374,40.96,40.96,40.96
			c22.586,0,40.96-18.374,40.96-40.96C235.441,93.467,217.068,75.093,194.481,75.093z M194.481,143.36
			c-15.056,0-27.307-12.25-27.307-27.307s12.25-27.307,27.307-27.307s27.307,12.25,27.307,27.307S209.538,143.36,194.481,143.36z"/>
	</g>
</g>
<g>
	<g>
		<path d="M194.481,95.573c-11.295,0-20.48,9.185-20.48,20.48c0,11.295,9.185,20.48,20.48,20.48c11.291,0,20.48-9.185,20.48-20.48
			C214.962,104.759,205.776,95.573,194.481,95.573z M194.481,122.88c-3.765,0-6.827-3.062-6.827-6.827
			c0-3.765,3.062-6.827,6.827-6.827c3.762,0,6.827,3.062,6.827,6.827C201.308,119.818,198.246,122.88,194.481,122.88z"/>
	</g>
</g>
<g>
</g>
<g>
</g>
<g>
</g>
<g>
</g>
<g>
</g>
<g>
</g>
<g>
</g>
<g>
</g>
<g>
</g>
<g>
</g>
<g>
</g>
<g>
</g>
<g>
</g>
<g>
</g>
<g>
</g>
</svg>
