<?xml version="1.0" encoding="iso-8859-1"?>
<!-- Generator: Adobe Illustrator 19.0.0, SVG Export Plug-In . SVG Version: 6.00 Build 0)  -->
<svg version="1.1" id="Capa_1" xmlns="http://www.w3.org/2000/svg" xmlns:xlink="http://www.w3.org/1999/xlink" x="0px" y="0px"
	 viewBox="0 0 436.975 436.975" style="enable-background:new 0 0 436.975 436.975;" xml:space="preserve">
<g>
	<g>
		<path d="M331.015,0c-45.172,0-81.92,36.751-81.92,81.92s36.748,81.92,81.92,81.92c45.172,0,81.92-36.751,81.92-81.92
			S376.187,0,331.015,0z M331.015,150.187c-37.639,0-68.267-30.624-68.267-68.267c0-37.642,30.628-68.267,68.267-68.267
			c37.639,0,68.267,30.624,68.267,68.267C399.282,119.562,368.654,150.187,331.015,150.187z"/>
	</g>
</g>
<g>
	<g>
		<path d="M303.708,150.187c-3.772,0-6.827,3.058-6.827,6.827V307.2c0,3.768,3.055,6.827,6.827,6.827s6.827-3.055,6.827-6.827
			V157.013C310.535,153.245,307.48,150.187,303.708,150.187z"/>
	</g>
</g>
<g>
	<g>
		<path d="M85.262,122.146c-3.772,0-6.827,3.058-6.827,6.827V309.48c0,3.768,3.055,6.827,6.827,6.827s6.827-3.055,6.827-6.827
			V128.973C92.088,125.204,89.033,122.146,85.262,122.146z"/>
	</g>
</g>
<g>
	<g>
		<path d="M330.305,310.449l-91.146-10.957c-3.639-0.437-6.898,2.147-7.339,5.765c-0.433,3.615,2.144,6.902,5.765,7.339
			l91.146,10.957c12.247,1.471,22.992,12.715,22.992,24.064v76.155H37.243v-76.155c0-11.861,9.547-22.658,21.286-24.064
			l93.532-11.244c3.618-0.437,6.199-3.721,5.765-7.339c-0.44-3.618-3.714-6.182-7.339-5.765l-93.532,11.244
			c-18.149,2.178-32.915,18.855-32.915,37.171v82.753c0,3.645,2.956,6.601,6.601,6.601h327.68c3.645,0,6.598-2.956,6.605-6.601
			v-82.753C364.926,329.725,349.071,312.702,330.305,310.449z"/>
	</g>
</g>
<g>
	<g>
		<path d="M293.144,142.377c-1.283-3.546-5.205-5.369-8.745-4.089c-3.546,1.283-5.373,5.202-4.093,8.745
			c3.639,10.025,5.478,20.582,5.478,31.369c0,38.717-23.112,84.333-53.76,106.107c-1.802,1.283-2.874,3.359-2.874,5.567v46.148
			c-9.568,4.055-26.972,10.67-35.526,10.67c-8.554,0-25.958-6.615-35.526-10.67v-46.152c0-2.212-1.075-4.284-2.874-5.567
			c-30.648-21.774-53.76-67.389-53.76-106.107c0-9.899,1.556-19.616,4.622-28.897c1.188-3.577-0.761-7.441-4.338-8.625
			c-3.577-1.184-7.438,0.761-8.619,4.338c-3.529,10.667-5.315,21.832-5.315,33.184c0,42.223,23.648,89.989,56.634,115.125v47.172
			c0,2.679,1.567,5.11,4.007,6.216c3.072,1.396,30.478,13.64,45.172,13.64c14.691,0,42.1-12.244,45.169-13.64
			c2.441-1.106,4.007-3.536,4.007-6.216v-47.169c32.986-25.139,56.634-72.905,56.634-115.125
			C299.438,166.021,297.318,153.9,293.144,142.377z"/>
	</g>
</g>
<g>
	<g>
		<path d="M283.238,235.315c-1.253-1.997-3.441-3.208-5.792-3.208H109.807c-2.352,0-4.54,1.212-5.792,3.208
			c-1.249,1.997-1.376,4.499-0.341,6.615c16.428,33.642,48.688,69.591,89.955,69.591c41.267,0,73.527-35.949,89.952-69.591
			C284.611,239.811,284.484,237.312,283.238,235.315z M193.628,297.868c-31.16,0-56.863-25.399-72.434-52.108h144.869
			C250.487,272.473,224.788,297.868,193.628,297.868z"/>
	</g>
</g>
<g>
	<g>
		<path d="M285.71,133.769c-12.681-5.786-32.055-13.78-52.34-18.995c-3.635-0.901-7.369,1.26-8.315,4.912
			c-0.942,3.656,1.26,7.376,4.912,8.315c19.326,4.963,37.895,12.633,50.074,18.19c0.918,0.42,1.881,0.618,2.826,0.618
			c2.594,0,5.076-1.481,6.222-3.997C290.649,139.383,289.143,135.335,285.71,133.769z"/>
	</g>
</g>
<g>
	<g>
		<path d="M276.736,22.026c-22.142-3.82-54.381-8.373-82.255-8.373c-47.988,0-108.169,13.254-110.708,13.817
			c-3.127,0.693-5.345,3.461-5.345,6.663v116.053c0,2.42,1.28,4.659,3.366,5.885c1.068,0.628,2.26,0.942,3.461,0.942
			c1.14,0,2.287-0.287,3.318-0.86c0.338-0.188,34.212-18.879,70.38-28.153c3.652-0.939,5.85-4.659,4.919-8.311
			c-0.942-3.649-4.663-5.868-8.308-4.915c-25.996,6.666-50.323,17.681-63.481,24.19v-99.29c15.872-3.239,63.993-12.367,102.4-12.367
			c26.907,0,58.32,4.448,79.933,8.175c3.721,0.676,7.247-1.847,7.888-5.567C282.941,26.201,280.45,22.668,276.736,22.026z"/>
	</g>
</g>
<g>
	<g>
		<path d="M194.481,75.093c-22.586,0-40.96,18.374-40.96,40.96c0,22.586,18.374,40.96,40.96,40.96
			c22.586,0,40.96-18.374,40.96-40.96C235.441,93.467,217.068,75.093,194.481,75.093z M194.481,143.36
			c-15.06,0-27.307-12.25-27.307-27.307s12.247-27.307,27.307-27.307c15.06,0,27.307,12.25,27.307,27.307
			S209.541,143.36,194.481,143.36z"/>
	</g>
</g>
<g>
	<g>
		<path d="M194.481,95.573c-11.295,0-20.48,9.185-20.48,20.48c0,11.295,9.185,20.48,20.48,20.48c11.291,0,20.48-9.185,20.48-20.48
			C214.962,104.759,205.776,95.573,194.481,95.573z M194.481,122.88c-3.768,0-6.827-3.062-6.827-6.827
			c0-3.765,3.058-6.827,6.827-6.827c3.765,0,6.827,3.062,6.827,6.827C201.308,119.818,198.25,122.88,194.481,122.88z"/>
	</g>
</g>
<g>
	<g>
		<path d="M366.66,107.916L308.535,49.79c-2.666-2.666-6.987-2.666-9.653,0c-2.666,2.666-2.666,6.987,0,9.653l58.126,58.129
			c1.335,1.335,3.079,2,4.826,2s3.495-0.669,4.826-2.004C369.326,114.903,369.326,110.582,366.66,107.916z"/>
	</g>
</g>
<g>
	<g>
		<path d="M367.578,47.79c-2.666-2.666-6.987-2.666-9.653,0L299.8,105.916c-2.666,2.666-2.666,6.987,0,9.653
			c1.335,1.335,3.079,2,4.826,2c1.748,0,3.495-0.669,4.826-2l58.126-58.126C370.244,54.777,370.244,50.456,367.578,47.79z"/>
	</g>
</g>
<g>
</g>
<g>
</g>
<g>
</g>
<g>
</g>
<g>
</g>
<g>
</g>
<g>
</g>
<g>
</g>
<g>
</g>
<g>
</g>
<g>
</g>
<g>
</g>
<g>
</g>
<g>
</g>
<g>
</g>
</svg>
