<?xml version="1.0" encoding="iso-8859-1"?>
<!-- Generator: Adobe Illustrator 19.0.0, SVG Export Plug-In . SVG Version: 6.00 Build 0)  -->
<svg version="1.1" id="Capa_1" xmlns="http://www.w3.org/2000/svg" xmlns:xlink="http://www.w3.org/1999/xlink" x="0px" y="0px"
	 viewBox="0 0 409.6 409.6" style="enable-background:new 0 0 409.6 409.6;" xml:space="preserve">
<g>
	<g>
		<path d="M406.675,257.225c-0.594-0.416-14.899-10.25-38.001-14.78c-3.755-0.724-7.287,1.686-8.015,5.386
			c-0.727,3.7,1.686,7.287,5.386,8.014c14.479,2.836,25.068,8.069,29.901,10.807v105.4H13.653V266.639
			c5.175-2.942,16.961-8.748,33.314-11.404c3.721-0.608,6.246-4.113,5.646-7.834c-0.608-3.724-4.113-6.274-7.834-5.646
			c-25.334,4.117-41.195,15.005-41.854,15.469C1.092,258.498,0,260.594,0,262.826V378.88c0,3.768,3.055,6.827,6.827,6.827h395.947
			c3.772,0,6.827-3.058,6.827-6.827V262.826C409.6,260.594,408.508,258.502,406.675,257.225z"/>
	</g>
</g>
<g>
	<g>
		<path d="M230.646,174.08c-5.779,0-11.032,2.488-15.657,4.68c-3.659,1.731-7.107,3.366-9.82,3.366c-2.714,0-6.161-1.635-9.82-3.366
			c-4.628-2.191-9.882-4.68-15.66-4.68c-21.047,0-36.328,22.047-36.328,52.419c0,12.803,2.895,39.315,8.253,63.232
			c9.673,43.192,20.654,48.189,28.075,48.189c10.397,0,13.172-13.858,17.364-34.836c1.867-9.329,5.226-26.112,8.533-30.655
			c3.925,4.055,7.294,23.163,8.96,32.635c3.488,19.784,5.792,32.857,16.101,32.857c7.421,0,18.401-4.997,28.075-48.193
			c5.359-23.914,8.253-50.425,8.253-63.229C266.974,196.126,251.692,174.08,230.646,174.08z M232.39,323.085
			c-1.608-4.536-3.239-13.831-4.4-20.395c-3.84-21.818-7.813-44.38-22.852-44.435c-13.053,0.055-16.954,19.562-21.473,42.148
			c-1.478,7.4-3.594,17.954-5.526,22.74c-9.417-9.155-21.125-65.84-21.125-96.645c0-22.098,9.745-38.765,22.675-38.765
			c2.714,0,6.158,1.635,9.813,3.366c4.628,2.191,9.882,4.68,15.66,4.68c5.779,0,11.035-2.485,15.66-4.68
			c3.659-1.731,7.107-3.366,9.82-3.366c12.93,0,22.675,16.664,22.675,38.765C253.317,257.259,241.644,313.818,232.39,323.085z"/>
	</g>
</g>
<g>
	<g>
		<path d="M339.876,146.773c-5.779,0-11.035,2.485-15.66,4.68c-3.659,1.731-7.107,3.366-9.82,3.366c-2.714,0-6.161-1.635-9.82-3.366
			c-4.628-2.191-9.882-4.68-15.66-4.68c-21.047,0-36.328,22.047-36.328,52.419c0,12.803,2.894,39.315,8.253,63.232
			c9.673,43.192,20.654,48.189,28.075,48.189c10.397,0,13.172-13.858,17.364-34.836c1.867-9.329,5.226-26.112,8.533-30.655
			c3.925,4.058,7.294,23.163,8.96,32.635c3.488,19.784,5.792,32.857,16.101,32.857c7.421,0,18.401-4.997,28.078-48.193
			c5.359-23.914,8.253-50.425,8.253-63.229C376.204,168.82,360.922,146.773,339.876,146.773z M341.617,295.779
			c-1.608-4.536-3.239-13.831-4.4-20.395c-3.84-21.818-7.813-44.38-22.852-44.435c-13.053,0.058-16.954,19.565-21.473,42.148
			c-1.478,7.4-3.594,17.954-5.526,22.74c-9.417-9.155-21.125-65.84-21.125-96.645c0-22.098,9.745-38.765,22.675-38.765
			c2.714,0,6.158,1.635,9.813,3.366c4.628,2.191,9.882,4.68,15.66,4.68c5.779,0,11.035-2.485,15.66-4.68
			c3.659-1.731,7.107-3.366,9.82-3.366c12.93,0,22.675,16.664,22.675,38.765C362.544,229.952,350.87,286.511,341.617,295.779z"/>
	</g>
</g>
<g>
	<g>
		<path d="M121.419,146.773c-5.779,0-11.032,2.488-15.657,4.68c-3.659,1.731-7.107,3.366-9.82,3.366
			c-2.714,0-6.161-1.635-9.82-3.366c-4.628-2.191-9.882-4.68-15.66-4.68c-21.047,0-36.328,22.047-36.328,52.419
			c0,12.803,2.895,39.315,8.253,63.232c9.673,43.192,20.654,48.189,28.075,48.189c10.397,0,13.172-13.862,17.364-34.84
			c1.867-9.329,5.226-26.112,8.533-30.655c3.925,4.058,7.294,23.166,8.96,32.635c3.488,19.787,5.792,32.86,16.101,32.86
			c7.421,0,18.401-4.997,28.075-48.193c5.359-23.914,8.253-50.425,8.253-63.229C157.747,168.82,142.466,146.773,121.419,146.773z
			 M123.163,295.779c-1.608-4.536-3.239-13.831-4.4-20.395c-3.84-21.821-7.813-44.384-22.852-44.438
			c-13.053,0.058-16.954,19.565-21.473,42.151c-1.478,7.4-3.594,17.954-5.526,22.74c-9.417-9.155-21.125-65.84-21.125-96.645
			c0-22.098,9.745-38.765,22.675-38.765c2.714,0,6.158,1.635,9.813,3.366c4.628,2.191,9.882,4.68,15.66,4.68
			c5.779,0,11.035-2.485,15.66-4.68c3.659-1.731,7.107-3.366,9.82-3.366c12.93,0,22.675,16.664,22.675,38.765
			C144.09,229.952,132.417,286.511,123.163,295.779z"/>
	</g>
</g>
<g>
	<g>
		<path d="M204.8,30.72c-3.772,0-6.827,3.058-6.827,6.827v102.4c0,3.768,3.055,6.827,6.827,6.827s6.827-3.058,6.827-6.827v-102.4
			C211.627,33.778,208.572,30.72,204.8,30.72z"/>
	</g>
</g>
<g>
	<g>
		<path d="M236.933,53.2l-27.307-27.307c-2.666-2.666-6.987-2.666-9.653,0L172.667,53.2c-2.666,2.666-2.666,6.987,0,9.653
			c2.666,2.666,6.987,2.666,9.653,0l22.48-22.48l22.48,22.48c1.335,1.335,3.079,2,4.826,2c1.748,0,3.492-0.666,4.826-2
			C239.599,60.187,239.599,55.866,236.933,53.2z"/>
	</g>
</g>
<g>
</g>
<g>
</g>
<g>
</g>
<g>
</g>
<g>
</g>
<g>
</g>
<g>
</g>
<g>
</g>
<g>
</g>
<g>
</g>
<g>
</g>
<g>
</g>
<g>
</g>
<g>
</g>
<g>
</g>
</svg>
