<?xml version="1.0" encoding="iso-8859-1"?>
<!-- Generator: Adobe Illustrator 19.0.0, SVG Export Plug-In . SVG Version: 6.00 Build 0)  -->
<svg version="1.1" id="Capa_1" xmlns="http://www.w3.org/2000/svg" xmlns:xlink="http://www.w3.org/1999/xlink" x="0px" y="0px"
	 viewBox="0 0 382.181 382.181" style="enable-background:new 0 0 382.181 382.181;" xml:space="preserve">
<g>
	<g>
		<path d="M197.869,98.062v-9.428c0-3.768-3.055-6.827-6.827-6.827h-40.96c-3.772,0-6.827,3.058-6.827,6.827v9.428
			C76.689,110.937,27.202,170.424,27.202,238.821v68.332c0,41.37,33.659,75.029,75.032,75.029h136.653
			c41.373,0,75.032-33.659,75.035-75.029v-68.332C313.923,170.428,264.436,110.937,197.869,98.062z M300.262,307.152
			c0,33.843-27.532,61.375-61.379,61.375H102.231c-33.847,0-61.379-27.532-61.379-61.375v-68.332
			c0-63.669,47.394-118.805,110.24-128.256c3.338-0.502,5.813-3.372,5.813-6.752v-8.352h27.303v8.352
			c0,3.379,2.471,6.253,5.813,6.752c62.846,9.448,110.24,64.587,110.24,128.256V307.152z"/>
	</g>
</g>
<g>
	<g>
		<path d="M170.559,143.247c-52.698,0-95.573,42.875-95.573,95.573c0,52.698,42.875,95.573,95.573,95.573
			c52.702,0,95.573-42.875,95.573-95.573C266.132,186.122,223.258,143.247,170.559,143.247z M170.559,320.741
			c-45.172,0-81.92-36.751-81.92-81.92s36.748-81.92,81.92-81.92c45.175,0,81.92,36.751,81.92,81.92
			S215.731,320.741,170.559,320.741z"/>
	</g>
</g>
<g>
	<g>
		<path d="M170.559,170.554c-37.639,0-68.267,30.624-68.267,68.267c0,37.642,30.628,68.267,68.267,68.267
			c37.642,0,68.267-30.624,68.267-68.267C238.826,201.178,208.198,170.554,170.559,170.554z M170.559,293.434
			c-30.112,0-54.613-24.501-54.613-54.613s24.501-54.613,54.613-54.613c30.116,0,54.613,24.501,54.613,54.613
			S200.672,293.434,170.559,293.434z"/>
	</g>
</g>
<g>
	<g>
		<path d="M170.559,197.861c-22.586,0-40.96,18.374-40.96,40.96c0,22.586,18.374,40.96,40.96,40.96
			c22.589,0,40.96-18.374,40.96-40.96C211.519,216.235,193.145,197.861,170.559,197.861z M170.559,266.127
			c-15.06,0-27.307-12.25-27.307-27.307s12.247-27.307,27.307-27.307s27.307,12.25,27.307,27.307S185.619,266.127,170.559,266.127z"
			/>
	</g>
</g>
<g>
	<g>
		<path d="M348.179,75.264l-34.205-0.123c-11.339-0.038-20.558-9.271-20.558-20.576V34.133C293.415,15.312,278.089,0,259.248,0
			h-61.293c-18.842,0-34.167,15.319-34.167,34.154v115.282c0,3.768,3.055,6.827,6.827,6.827c3.772,0,6.827-3.058,6.827-6.83V34.154
			c0-11.305,9.202-20.5,20.514-20.5h61.29c11.315,0,20.514,9.185,20.514,20.48v20.432c0,18.807,15.326,34.161,34.161,34.229
			l34.205,0.123c0.014,0,0.021,0,0.027,0c3.761,0,6.813-3.038,6.827-6.803C354.992,78.343,351.947,75.278,348.179,75.264z"/>
	</g>
</g>
<g>
</g>
<g>
</g>
<g>
</g>
<g>
</g>
<g>
</g>
<g>
</g>
<g>
</g>
<g>
</g>
<g>
</g>
<g>
</g>
<g>
</g>
<g>
</g>
<g>
</g>
<g>
</g>
<g>
</g>
</svg>
