<?xml version="1.0" encoding="iso-8859-1"?>
<!-- Generator: Adobe Illustrator 19.0.0, SVG Export Plug-In . SVG Version: 6.00 Build 0)  -->
<svg version="1.1" id="Capa_1" xmlns="http://www.w3.org/2000/svg" xmlns:xlink="http://www.w3.org/1999/xlink" x="0px" y="0px"
	 viewBox="0 0 436.907 436.907" style="enable-background:new 0 0 436.907 436.907;" xml:space="preserve">
<g>
	<g>
		<path d="M337.934,40.96h-45.8c-3.772,0-6.827,3.058-6.827,6.827c0,3.768,3.055,6.827,6.827,6.827h45.8
			c7.52,0,13.64,6.096,13.64,13.592v341.453c0,7.496-6.12,13.592-13.64,13.592H98.973c-7.52,0-13.64-6.096-13.64-13.592V68.205
			c0-7.496,6.12-13.592,13.64-13.592h47.8c3.772,0,6.827-3.058,6.827-6.827c0-3.768-3.055-6.827-6.827-6.827h-47.8
			c-15.046,0-27.293,12.223-27.293,27.245v341.456c0,15.022,12.247,27.245,27.293,27.245h238.961
			c15.046,0,27.293-12.223,27.293-27.249V68.205C365.227,53.183,352.98,40.96,337.934,40.96z"/>
	</g>
</g>
<g>
	<g>
		<path d="M218.453,0c-13.172,0-23.893,10.721-23.893,23.893c0,3.768,3.055,6.827,6.827,6.827s6.827-3.058,6.827-6.827
			c0-5.646,4.594-10.24,10.24-10.24s10.24,4.594,10.24,10.24c0,3.768,3.055,6.827,6.827,6.827c3.772,0,6.827-3.058,6.827-6.827
			C242.347,10.721,231.625,0,218.453,0z"/>
	</g>
</g>
<g>
	<g>
		<path d="M331.093,68.492h-40.96c-3.649,0-6.601,2.956-6.601,6.601s2.956,6.601,6.601,6.601h34.362v314.481H112.415V81.695h34.359
			c3.645,0,6.601-2.956,6.601-6.601s-2.956-6.601-6.601-6.601h-40.96c-3.649,0-6.601,2.959-6.601,6.601v327.68
			c0,3.645,2.956,6.601,6.601,6.601h225.28c3.645,0,6.601-2.959,6.601-6.601V75.093C337.695,71.448,334.739,68.492,331.093,68.492z"
			/>
	</g>
</g>
<g>
	<g>
		<path d="M240.886,157.013c-5.779,0-11.032,2.488-15.657,4.68c-3.659,1.731-7.107,3.366-9.82,3.366
			c-2.714,0-6.161-1.635-9.82-3.366c-4.628-2.191-9.882-4.68-15.66-4.68c-21.047,0-36.328,22.047-36.328,52.419
			c0,12.803,2.895,39.315,8.253,63.232c9.673,43.192,20.654,48.189,28.075,48.189c10.397,0,13.172-13.858,17.364-34.836
			c1.867-9.329,5.226-26.112,8.533-30.655c3.925,4.058,7.294,23.163,8.96,32.635c3.488,19.784,5.792,32.857,16.101,32.857
			c7.421,0,18.401-4.997,28.075-48.193c5.359-23.914,8.253-50.425,8.253-63.229C277.214,179.06,261.932,157.013,240.886,157.013z
			 M242.63,306.019c-1.608-4.536-3.239-13.831-4.4-20.395c-3.84-21.818-7.813-44.38-22.852-44.435
			c-13.053,0.058-16.954,19.565-21.473,42.148c-1.478,7.4-3.594,17.954-5.526,22.74c-9.417-9.155-21.125-65.84-21.125-96.645
			c0-22.098,9.745-38.765,22.675-38.765c2.714,0,6.158,1.635,9.813,3.366c4.628,2.191,9.882,4.68,15.66,4.68
			c5.779,0,11.035-2.485,15.66-4.68c3.659-1.731,7.107-3.366,9.82-3.366c12.93,0,22.675,16.664,22.675,38.765
			C263.557,240.193,251.884,296.752,242.63,306.019z"/>
	</g>
</g>
<g>
	<g>
		<path d="M249.385,102.4H139.947c-3.772,0-6.827,3.058-6.827,6.827c0,3.768,3.055,6.827,6.827,6.827h109.438
			c3.775,0,6.827-3.058,6.827-6.827C256.212,105.458,253.157,102.4,249.385,102.4z"/>
	</g>
</g>
<g>
	<g>
		<path d="M249.385,334.507H139.947c-3.772,0-6.827,3.058-6.827,6.827s3.055,6.827,6.827,6.827h109.438
			c3.775,0,6.827-3.058,6.827-6.827S253.157,334.507,249.385,334.507z"/>
	</g>
</g>
<g>
	<g>
		<path d="M194.56,362.783h-54.613c-3.772,0-6.827,3.058-6.827,6.827s3.055,6.827,6.827,6.827h54.613
			c3.772,0,6.827-3.058,6.827-6.827S198.332,362.783,194.56,362.783z"/>
	</g>
</g>
<g>
	<g>
		<path d="M262.834,20.48h-88.76c-18.821,0-34.127,15.312-34.127,34.133V81.92c0,3.768,3.055,6.827,6.827,6.827h143.36
			c3.772,0,6.827-3.058,6.827-6.827V54.613C296.96,35.792,281.655,20.48,262.834,20.48z M283.307,75.093H153.6v-20.48
			c0-11.295,9.185-20.48,20.473-20.48h88.76c11.288,0,20.473,9.185,20.473,20.48V75.093z"/>
	</g>
</g>
<g>
	<g>
		<path d="M296.96,129.707H139.947c-3.772,0-6.827,3.058-6.827,6.827s3.055,6.827,6.827,6.827H296.96
			c3.772,0,6.827-3.058,6.827-6.827S300.732,129.707,296.96,129.707z"/>
	</g>
</g>
<g>
</g>
<g>
</g>
<g>
</g>
<g>
</g>
<g>
</g>
<g>
</g>
<g>
</g>
<g>
</g>
<g>
</g>
<g>
</g>
<g>
</g>
<g>
</g>
<g>
</g>
<g>
</g>
<g>
</g>
</svg>
