<?xml version="1.0" encoding="iso-8859-1"?>
<!-- Generator: Adobe Illustrator 19.0.0, SVG Export Plug-In . SVG Version: 6.00 Build 0)  -->
<svg version="1.1" id="Capa_1" xmlns="http://www.w3.org/2000/svg" xmlns:xlink="http://www.w3.org/1999/xlink" x="0px" y="0px"
	 viewBox="0 0 423.322 423.322" style="enable-background:new 0 0 423.322 423.322;" xml:space="preserve">
<g>
	<g>
		<path d="M125.363,203.404c-0.618-3.717-4.116-6.26-7.851-5.618c-0.744,0.119-1.502,0.188-2.28,0.188
			c-7.53,0-13.653-6.124-13.653-13.653c0-6.663,4.755-12.319,11.305-13.452c3.717-0.645,6.205-4.174,5.564-7.892
			c-0.645-3.714-4.137-6.205-7.892-5.564c-13.114,2.266-22.63,13.585-22.63,26.907c0,15.056,12.25,27.307,27.307,27.307
			c1.536,0,3.045-0.126,4.512-0.372C123.465,210.64,125.981,207.125,125.363,203.404z"/>
	</g>
</g>
<g>
	<g>
		<path d="M311.066,157.416c-3.703-0.621-7.25,1.847-7.892,5.564c-0.642,3.714,1.847,7.25,5.564,7.892
			c6.543,1.133,11.295,6.789,11.295,13.448c0,7.53-6.124,13.653-13.653,13.653l-0.891-0.027c-3.799-0.229-7.001,2.632-7.233,6.393
			c-0.232,3.761,2.628,7.004,6.393,7.233c0.573,0.038,1.15,0.055,1.731,0.055c15.056,0,27.307-12.25,27.307-27.307
			C333.686,170.998,324.173,159.686,311.066,157.416z"/>
	</g>
</g>
<g>
	<g>
		<path d="M347.486,296.796l-78.834-9.475c-3.649-0.403-6.905,2.15-7.339,5.765c-0.433,3.615,2.144,6.902,5.765,7.339l78.834,9.475
			c12.247,1.471,22.989,12.715,22.989,24.064v76.155H54.421v-76.155c0-11.861,9.547-22.658,21.282-24.064l78.462-9.434
			c3.618-0.437,6.199-3.721,5.765-7.339c-0.437-3.615-3.714-6.158-7.339-5.765l-78.462,9.434
			c-18.149,2.178-32.911,18.852-32.911,37.171v82.753c0,3.645,2.959,6.601,6.601,6.601h327.68c3.642,0,6.601-2.956,6.605-6.601
			v-82.753C382.104,316.071,366.249,299.049,347.486,296.796z"/>
	</g>
</g>
<g>
	<g>
		<path d="M311.291,131.509c-1.178-3.574-5.042-5.519-8.622-4.338c-3.581,1.181-5.526,5.042-4.338,8.622
			c3.075,9.308,4.635,19.05,4.635,28.952c0,52.661-43.39,119.467-92.16,119.467c-48.77,0-92.16-66.806-92.16-119.467
			c0-11.141,1.963-22.03,5.84-32.358c1.324-3.529-0.468-7.462-3.997-8.789c-3.526-1.3-7.458,0.468-8.789,3.997
			c-4.451,11.868-6.707,24.371-6.707,37.154c0,59.924,48.828,133.12,105.813,133.12s105.813-73.196,105.817-133.12
			C316.623,153.385,314.827,142.203,311.291,131.509z"/>
	</g>
</g>
<g>
	<g>
		<path d="M264.798,262.571c-3.768,0-6.827,3.058-6.827,6.827v52.774c-12.268,4.099-35.553,11.073-47.165,11.073
			s-34.894-6.974-47.165-11.073v-52.169c0-3.768-3.058-6.827-6.827-6.827c-3.768,0-6.827,3.058-6.827,6.827v57.037
			c0,2.888,1.816,5.465,4.536,6.431c1.539,0.553,37.926,13.428,56.282,13.428c18.357,0,54.743-12.875,56.282-13.425
			c2.72-0.966,4.536-3.543,4.536-6.431v-57.644C271.625,265.629,268.566,262.571,264.798,262.571z"/>
	</g>
</g>
<g>
	<g>
		<path d="M294.624,218.453H126.985c-3.768,0-6.827,3.058-6.827,6.827s3.058,6.827,6.827,6.827h167.642
			c3.768,0,6.823-3.058,6.823-6.827S298.392,218.453,294.624,218.453z"/>
	</g>
</g>
<g>
	<g>
		<path d="M309.11,13.916C307.12,13.346,259.849,0,211.659,0s-95.461,13.346-97.451,13.916c-2.929,0.836-4.949,3.516-4.949,6.564
			v116.053c0,2.557,1.43,4.898,3.7,6.069c2.277,1.167,5.014,0.976,7.089-0.509c0.239-0.167,23.876-16.879,53.682-26.371
			c3.591-1.143,5.577-4.983,4.43-8.578c-1.14-3.587-4.953-5.584-8.578-4.431c-19.582,6.236-36.372,15.179-46.67,21.333V25.733
			c13.285-3.369,51.227-12.08,88.747-12.08c37.472,0,75.452,8.711,88.747,12.083v98.307c-10.295-6.154-27.088-15.097-46.667-21.333
			c-3.594-1.15-7.434,0.833-8.578,4.431c-1.147,3.594,0.84,7.434,4.43,8.578c29.809,9.496,53.443,26.204,53.675,26.371
			c1.181,0.84,2.57,1.27,3.966,1.27c1.065,0,2.14-0.253,3.127-0.761c2.27-1.167,3.7-3.509,3.7-6.065V20.48
			C314.059,17.432,312.038,14.752,309.11,13.916z"/>
	</g>
</g>
<g>
	<g>
		<path d="M211.659,61.44c-22.586,0-40.96,18.374-40.96,40.96c0,22.586,18.374,40.96,40.96,40.96s40.96-18.374,40.96-40.96
			C252.619,79.814,234.245,61.44,211.659,61.44z M211.659,129.707c-15.056,0-27.307-12.25-27.307-27.307s12.25-27.307,27.307-27.307
			s27.307,12.25,27.307,27.307S226.715,129.707,211.659,129.707z"/>
	</g>
</g>
<g>
	<g>
		<path d="M211.659,81.92c-11.295,0-20.48,9.185-20.48,20.48s9.185,20.48,20.48,20.48c11.295,0,20.48-9.185,20.48-20.48
			S222.954,81.92,211.659,81.92z M211.659,109.227c-3.765,0-6.827-3.062-6.827-6.827s3.062-6.827,6.827-6.827
			s6.827,3.062,6.827,6.827S215.424,109.227,211.659,109.227z"/>
	</g>
</g>
<g>
</g>
<g>
</g>
<g>
</g>
<g>
</g>
<g>
</g>
<g>
</g>
<g>
</g>
<g>
</g>
<g>
</g>
<g>
</g>
<g>
</g>
<g>
</g>
<g>
</g>
<g>
</g>
<g>
</g>
</svg>
