<?xml version="1.0" encoding="iso-8859-1"?>
<!-- Generator: Adobe Illustrator 19.0.0, SVG Export Plug-In . SVG Version: 6.00 Build 0)  -->
<svg version="1.1" id="Capa_1" xmlns="http://www.w3.org/2000/svg" xmlns:xlink="http://www.w3.org/1999/xlink" x="0px" y="0px"
	 viewBox="0 0 423.322 423.322" style="enable-background:new 0 0 423.322 423.322;" xml:space="preserve">
<g>
	<g>
		<path d="M320.886,129.707c-3.768,0-6.827,3.058-6.827,6.827v163.84c0,3.768,3.058,6.827,6.827,6.827s6.827-3.055,6.827-6.827
			v-163.84C327.712,132.765,324.654,129.707,320.886,129.707z"/>
	</g>
</g>
<g>
	<g>
		<path d="M102.443,108.493c-3.768,0-6.827,3.058-6.827,6.827v180.507c0,3.768,3.058,6.827,6.827,6.827s6.827-3.055,6.827-6.827
			V115.32C109.269,111.551,106.211,108.493,102.443,108.493z"/>
	</g>
</g>
<g>
	<g>
		<path d="M347.486,296.796l-91.146-10.957c-3.642-0.423-6.905,2.144-7.339,5.765c-0.433,3.615,2.144,6.902,5.765,7.339
			l91.146,10.957c12.247,1.471,22.989,12.715,22.989,24.064v76.155H54.421v-76.155c0-11.865,9.547-22.658,21.282-24.064
			l93.532-11.244c3.618-0.437,6.199-3.721,5.765-7.339s-3.71-6.168-7.339-5.765l-93.532,11.244
			c-18.149,2.178-32.911,18.852-32.911,37.171v82.753c0,3.645,2.959,6.601,6.601,6.601h327.68c3.642,0,6.601-2.956,6.605-6.601
			v-82.753C382.104,316.071,366.249,299.049,347.486,296.796z"/>
	</g>
</g>
<g>
	<g>
		<path d="M310.328,128.727c-1.287-3.543-5.198-5.379-8.745-4.096c-3.543,1.283-5.379,5.198-4.096,8.745
			c3.632,10.039,5.475,20.596,5.475,31.372c0,38.717-23.108,84.333-53.757,106.11c-1.806,1.28-2.874,3.355-2.874,5.564v46.152
			c-9.568,4.055-26.972,10.67-35.529,10.67c-8.557,0-25.962-6.615-35.529-10.67v-46.152c0-2.212-1.072-4.284-2.874-5.564
			c-30.645-21.777-53.757-67.393-53.757-106.11c0-9.885,1.556-19.606,4.622-28.904c1.181-3.577-0.761-7.438-4.345-8.619
			c-3.577-1.188-7.438,0.765-8.619,4.345c-3.523,10.677-5.308,21.839-5.308,33.178c0,42.216,23.644,89.982,56.631,115.122v47.172
			c0,2.679,1.567,5.11,4.007,6.216c3.075,1.396,30.478,13.64,45.175,13.64s42.1-12.244,45.175-13.64
			c2.441-1.106,4.007-3.536,4.007-6.216v-47.169c32.986-25.143,56.631-72.909,56.631-115.125
			C316.619,152.381,314.503,140.264,310.328,128.727z"/>
	</g>
</g>
<g>
	<g>
		<path d="M300.413,221.662c-1.246-1.997-3.437-3.209-5.789-3.209H126.985c-2.352,0-4.54,1.212-5.789,3.209
			s-1.379,4.499-0.345,6.615c16.428,33.642,48.684,69.591,89.955,69.591s73.527-35.949,89.952-69.591
			C301.788,226.157,301.658,223.659,300.413,221.662z M210.806,284.215c-31.171,0-56.863-25.395-72.434-52.108H283.24
			C267.665,258.823,241.976,284.215,210.806,284.215z"/>
	</g>
</g>
<g>
	<g>
		<path d="M322.104,13.817C319.578,13.254,259.647,0,211.659,0c-47.985,0-108.169,13.254-110.708,13.817
			c-3.123,0.693-5.345,3.461-5.345,6.663v116.053c0,2.42,1.28,4.656,3.362,5.885c1.072,0.628,2.266,0.942,3.465,0.942
			c1.14,0,2.284-0.287,3.321-0.86c0.335-0.188,34.208-18.879,70.38-28.153c3.649-0.939,5.854-4.659,4.915-8.311
			s-4.656-5.847-8.311-4.915c-25.992,6.666-50.319,17.681-63.478,24.19V26.02c15.875-3.239,63.993-12.366,102.4-12.366
			c38.393,0,86.31,9.12,102.134,12.363v99.273c-13.121-6.513-37.335-17.51-63.246-24.17c-3.669-0.908-7.373,1.27-8.315,4.912
			c-0.939,3.656,1.263,7.376,4.912,8.315c36.028,9.254,69.81,27.959,70.151,28.15c2.113,1.178,4.693,1.154,6.779-0.075
			c2.086-1.229,3.369-3.468,3.369-5.888V20.48C327.443,17.285,325.224,14.514,322.104,13.817z"/>
	</g>
</g>
<g>
	<g>
		<path d="M211.659,61.44c-22.586,0-40.96,18.374-40.96,40.96c0,22.586,18.374,40.96,40.96,40.96s40.96-18.374,40.96-40.96
			C252.619,79.814,234.245,61.44,211.659,61.44z M211.659,129.707c-15.056,0-27.307-12.25-27.307-27.307s12.25-27.307,27.307-27.307
			s27.307,12.25,27.307,27.307S226.715,129.707,211.659,129.707z"/>
	</g>
</g>
<g>
	<g>
		<path d="M211.659,81.92c-11.295,0-20.48,9.185-20.48,20.48s9.185,20.48,20.48,20.48c11.295,0,20.48-9.185,20.48-20.48
			S222.954,81.92,211.659,81.92z M211.659,109.227c-3.765,0-6.827-3.062-6.827-6.827s3.062-6.827,6.827-6.827
			s6.827,3.062,6.827,6.827S215.424,109.227,211.659,109.227z"/>
	</g>
</g>
<g>
</g>
<g>
</g>
<g>
</g>
<g>
</g>
<g>
</g>
<g>
</g>
<g>
</g>
<g>
</g>
<g>
</g>
<g>
</g>
<g>
</g>
<g>
</g>
<g>
</g>
<g>
</g>
<g>
</g>
</svg>
