<?xml version="1.0" encoding="iso-8859-1"?>
<!-- Generator: Adobe Illustrator 19.0.0, SVG Export Plug-In . SVG Version: 6.00 Build 0)  -->
<svg version="1.1" id="Capa_1" xmlns="http://www.w3.org/2000/svg" xmlns:xlink="http://www.w3.org/1999/xlink" x="0px" y="0px"
	 viewBox="0 0 423.253 423.253" style="enable-background:new 0 0 423.253 423.253;" xml:space="preserve">
<g>
	<g>
		<path d="M395.974,17.067H27.279C12.24,17.067,0,29.331,0,44.407v266.172c0,15.077,12.24,27.341,27.279,27.341h368.695
			c15.039,0,27.279-12.264,27.279-27.341V44.407C423.253,29.331,411.013,17.067,395.974,17.067z M409.6,310.579
			c0,7.547-6.113,13.687-13.626,13.687H27.279c-7.513,0-13.626-6.141-13.626-13.687V44.407c0-7.547,6.113-13.688,13.626-13.688
			h368.695c7.513,0,13.626,6.141,13.626,13.688V310.579z"/>
	</g>
</g>
<g>
	<g>
		<path d="M259.506,377.894l-6.827-47.787c-0.492-3.444-3.437-6.001-6.919-6.001h-68.267c-3.478,0-6.424,2.557-6.919,6.001
			l-6.827,47.787c-0.287,2.004,0.311,4.035,1.638,5.564c1.328,1.529,3.253,2.41,5.28,2.41h81.92c2.028,0,3.956-0.881,5.28-2.41
			C259.191,381.928,259.792,379.897,259.506,377.894z M178.719,371.893l4.833-33.812h56.146l4.833,33.812H178.719z"/>
	</g>
</g>
<g>
	<g>
		<path d="M395.947,37.547H27.307c-3.772,0-6.827,3.058-6.827,6.827v266.24c0,3.768,3.055,6.827,6.827,6.827h368.64
			c3.772,0,6.827-3.058,6.827-6.827V44.373C402.773,40.605,399.718,37.547,395.947,37.547z M389.12,303.787H34.133V51.2H389.12
			V303.787z"/>
	</g>
</g>
<g>
	<g>
		<path d="M240.101,98.987c-6.134,0-11.854,2.427-16.899,4.564c-4.229,1.795-8.212,3.485-11.575,3.485
			c-3.362,0-7.349-1.693-11.575-3.485c-5.045-2.137-10.766-4.564-16.899-4.564c-23.06,0-39.793,22.047-39.793,52.419
			c0,10.848,9.185,111.421,39.793,111.421c10.841,0,14.087-14.551,18.596-34.69c2.28-10.196,6.519-29.167,9.861-31.321
			c4.772,0.017,9.704,25.064,11.325,33.294c3.738,18.992,6.438,32.717,17.166,32.717c30.607,0,39.793-100.574,39.793-111.421
			C279.893,121.033,263.161,98.987,240.101,98.987z M241.589,248.644c-1.881-4.021-3.881-14.159-5.26-21.176
			c-4.28-21.757-8.714-44.25-24.726-44.305c-13.8,0.058-18.36,20.429-23.18,41.994c-1.775,7.922-4.355,19.466-6.608,23.583
			c-8.66-5.27-24.801-57.515-24.801-97.335c0-19.261,8.98-38.765,26.139-38.765c3.362,0,7.349,1.69,11.575,3.485
			c5.045,2.137,10.766,4.564,16.899,4.564s11.851-2.427,16.899-4.564c4.229-1.795,8.216-3.485,11.575-3.485
			c17.159,0,26.139,19.504,26.139,38.765C266.24,191.007,250.279,242.889,241.589,248.644z"/>
	</g>
</g>
<g>
	<g>
		<path d="M273.067,372.053H143.36c-3.772,0-6.827,3.058-6.827,6.827v20.48c0,3.768,3.055,6.827,6.827,6.827h129.707
			c3.772,0,6.827-3.058,6.827-6.827v-20.48C279.893,375.112,276.838,372.053,273.067,372.053z M266.24,392.533H150.187v-6.827
			H266.24V392.533z"/>
	</g>
</g>
<g>
</g>
<g>
</g>
<g>
</g>
<g>
</g>
<g>
</g>
<g>
</g>
<g>
</g>
<g>
</g>
<g>
</g>
<g>
</g>
<g>
</g>
<g>
</g>
<g>
</g>
<g>
</g>
<g>
</g>
</svg>
