<?xml version="1.0" encoding="iso-8859-1"?>
<!-- Generator: Adobe Illustrator 19.0.0, SVG Export Plug-In . SVG Version: 6.00 Build 0)  -->
<svg version="1.1" id="Capa_1" xmlns="http://www.w3.org/2000/svg" xmlns:xlink="http://www.w3.org/1999/xlink" x="0px" y="0px"
	 viewBox="0 0 402.773 402.773" style="enable-background:new 0 0 402.773 402.773;" xml:space="preserve">
<g>
	<g>
		<path d="M240.889,10.353c-8.434,0-16.183,3.669-23.675,7.219c-6.458,3.058-12.558,5.946-18.019,5.946
			c-5.465,0-11.564-2.888-18.019-5.946c-7.496-3.55-15.241-7.219-23.675-7.219c-31.792,0-54.873,34.154-54.873,81.207
			c0,26.368,15.124,177.753,54.873,177.753c13.264,0,17.51-21.214,23.941-53.333c2.987-14.947,10.926-54.654,17.725-54.682
			c9.673,0.034,16.319,37.765,19.886,58.034c5.297,30.099,8.806,49.981,21.832,49.981c39.748,0,54.873-151.381,54.876-177.753
			C295.762,44.506,272.681,10.353,240.889,10.353z M241.77,256.031c-3.622-4.386-7.267-25.098-9.714-38.991
			c-5.966-33.86-12.134-68.871-32.887-68.943c-17.626,0.078-23.671,30.297-30.672,65.294c-3.065,15.34-7.653,38.267-11.786,42.656
			c-18.603-3.014-40.881-110.865-40.881-164.488c0-38.772,17.913-68.007,41.673-68.007c5.465,0,11.564,2.888,18.019,5.943
			c7.496,3.55,15.24,7.219,23.675,7.219c8.427,0,16.176-3.669,23.668-7.216c6.458-3.058,12.558-5.949,18.026-5.949
			c23.76,0,41.673,29.239,41.673,68.007C282.563,145.094,260.355,252.686,241.77,256.031z"/>
	</g>
</g>
<g>
	<g>
		<path d="M165.059,30.607c-22.586,0-40.96,18.374-40.96,40.96c0,3.768,3.055,6.827,6.827,6.827c3.775,0,6.827-3.058,6.827-6.827
			c0-15.056,12.247-27.307,27.307-27.307c3.772,0,6.827-3.058,6.827-6.827S168.83,30.607,165.059,30.607z"/>
	</g>
</g>
<g>
	<g>
		<path d="M346.542,198.721l-26.279-15.797c-3.28-1.969-4.308-6.083-2.335-9.363c1.966-3.277,6.072-4.311,9.366-2.342l13.039,7.837
			c3.219,1.939,7.421,0.894,9.366-2.335c1.939-3.232,0.891-7.427-2.341-9.366l-13.039-7.837c-9.653-5.82-22.279-2.676-28.099,7.011
			c-5.813,9.677-2.666,22.286,7.014,28.095l26.279,15.794c1.099,0.662,2.304,0.976,3.505,0.976c2.321,0,4.581-1.181,5.864-3.308
			C350.822,204.855,349.774,200.66,346.542,198.721z"/>
	</g>
</g>
<g>
	<g>
		<path d="M388.393,220.727l-7.659-57.894c-0.109-0.823-0.362-1.615-0.754-2.342l-17.473-32.481
			c-4.891-9.097-15.705-13.029-25.119-9.588c-0.519,0.133-1.038,0.334-1.533,0.601l-1.041,0.55c-0.014,0.01-0.027,0.017-0.041,0.024
			c-0.505,0.27-0.959,0.594-1.365,0.959c-8.076,5.912-10.82,17.07-6.021,26.177l11.325,21.466l-0.881,48.831l-2.84,4.509
			c-5.748-9.479-14.906-21.77-24.774-23.989c-4.584-1.024-9.025,0-12.759,3.011c-15.36,12.39,8.199,61.665,24.327,91.085
			l-0.932,52.869c-0.065,3.768,2.935,6.878,6.707,6.946c3.434,0.01,6.874-2.939,6.946-6.707l0.963-54.685
			c0.02-1.195-0.273-2.372-0.853-3.42c-18.872-34.178-32.133-69.54-28.587-75.459c0.522-0.423,0.727-0.423,1.195-0.314
			c5.926,1.324,16.121,16.596,21.207,27.109c1.079,2.232,3.284,3.707,5.765,3.843c2.495,0.181,4.833-1.075,6.161-3.178
			l10.045-15.957c0.662-1.051,1.021-2.27,1.048-3.512l0.945-52.49c0.021-1.154-0.253-2.29-0.785-3.311l-12.148-23.019
			c-1.645-3.113-0.58-7.09,2.307-8.994c3.232-1.369,7.014-0.041,8.707,3.11l16.879,31.379l7.653,57.846
			c0.116,0.857,0.502,1.874,0.922,2.628c0.126,0.232,12.626,24.047-5.526,117.21c-0.72,3.703,1.693,7.287,5.393,8.008
			c0.44,0.085,0.881,0.126,1.314,0.126c3.202,0,6.062-2.26,6.694-5.516C401.101,257.396,391.745,227.813,388.393,220.727z"/>
	</g>
</g>
<g>
	<g>
		<path d="M395.947,337.807H307.2c-3.772,0-6.827,3.058-6.827,6.827v40.96c0,3.768,3.055,6.827,6.827,6.827h88.747
			c3.772,0,6.827-3.058,6.827-6.827v-40.96C402.773,340.866,399.718,337.807,395.947,337.807z M389.12,378.767h-75.093v-27.307
			h75.093V378.767z"/>
	</g>
</g>
<g>
	<g>
		<path d="M96.556,166.523c-5.82-9.68-18.418-12.827-28.105-7.008l-12.24,7.356c-3.229,1.939-4.273,6.134-2.335,9.366
			s6.127,4.273,9.373,2.335l12.233-7.356c3.28-1.969,7.393-0.942,9.366,2.338c1.973,3.284,0.945,7.397-2.335,9.37l-26.279,15.793
			c-3.236,1.939-4.28,6.134-2.342,9.366c1.28,2.13,3.54,3.311,5.861,3.311c1.198,0,2.406-0.314,3.509-0.98l26.279-15.79
			C99.222,188.812,102.369,176.207,96.556,166.523z"/>
	</g>
</g>
<g>
	<g>
		<path d="M105.315,200.557c-3.727-3.011-8.158-4.041-12.759-3.011c-9.868,2.219-19.026,14.51-24.774,23.989l-2.84-4.509
			l-0.881-48.831l11.325-21.466c4.799-9.107,2.051-20.265-6.021-26.177c-0.406-0.365-0.86-0.689-1.365-0.959
			c-0.014-0.007-0.027-0.014-0.041-0.024l-1.041-0.549c-0.492-0.266-1.014-0.468-1.533-0.601
			c-9.417-3.441-20.224,0.492-25.119,9.588l-17.473,32.481c-0.396,0.727-0.649,1.522-0.754,2.342l-7.659,57.894
			c-3.352,7.086-12.704,36.669,4.588,125.43c0.635,3.26,3.492,5.519,6.694,5.519c0.433,0,0.87-0.038,1.307-0.13
			c3.7-0.72,6.113-4.304,5.393-8.008c-18.152-93.164-5.653-116.978-5.646-117.013c0.553-0.85,0.908-1.816,1.041-2.823l7.653-57.846
			l16.879-31.379c1.693-3.151,5.468-4.478,8.707-3.11c2.888,1.905,3.953,5.881,2.307,8.994l-12.148,23.02
			c-0.532,1.021-0.806,2.157-0.785,3.311l0.945,52.49c0.027,1.242,0.389,2.458,1.048,3.512l10.045,15.957
			c1.335,2.106,3.615,3.308,6.168,3.181c2.475-0.14,4.683-1.615,5.762-3.85c5.072-10.506,15.261-25.767,21.207-27.105
			c0.481-0.106,0.679-0.106,0.986,0.096c3.755,6.137-9.506,41.496-28.378,75.677c-0.58,1.048-0.874,2.226-0.853,3.42l0.966,54.685
			c0.065,3.772,2.973,6.615,6.946,6.707c3.775-0.065,6.776-3.178,6.707-6.946l-0.932-52.873
			C97.116,262.219,120.675,212.948,105.315,200.557z"/>
	</g>
</g>
<g>
	<g>
		<path d="M95.573,337.807H6.827c-3.772,0-6.827,3.058-6.827,6.827v40.96c0,3.768,3.055,6.827,6.827,6.827h88.747
			c3.772,0,6.827-3.058,6.827-6.827v-40.96C102.4,340.866,99.345,337.807,95.573,337.807z M88.747,378.767H13.653v-27.307h75.093
			V378.767z"/>
	</g>
</g>
<g>
</g>
<g>
</g>
<g>
</g>
<g>
</g>
<g>
</g>
<g>
</g>
<g>
</g>
<g>
</g>
<g>
</g>
<g>
</g>
<g>
</g>
<g>
</g>
<g>
</g>
<g>
</g>
<g>
</g>
</svg>
