<?xml version="1.0" encoding="iso-8859-1"?>
<!-- Generator: Adobe Illustrator 19.0.0, SVG Export Plug-In . SVG Version: 6.00 Build 0)  -->
<svg version="1.1" id="Capa_1" xmlns="http://www.w3.org/2000/svg" xmlns:xlink="http://www.w3.org/1999/xlink" x="0px" y="0px"
	 viewBox="0 0 409.6 409.6" style="enable-background:new 0 0 409.6 409.6;" xml:space="preserve">
<g>
	<g>
		<path d="M406.675,234.919c-1.676-1.167-41.636-28.378-96.915-11.629c-5.96,1.795-12.708,0.942-21.221-2.69
			c-3.468-1.475-7.472,0.116-8.967,3.594c-1.478,3.468,0.126,7.475,3.594,8.96c11.472,4.898,21.453,5.96,30.553,3.202
			c40.786-12.346,72.694,2.642,82.227,8.001v107.216H13.653V244.361c9.554-5.369,41.458-20.344,82.227-8.001
			c10.107,3.062,20.985,1.505,34.266-4.891c3.393-1.642,4.82-5.721,3.181-9.117c-1.628-3.396-5.693-4.813-9.114-3.185
			c-9.987,4.823-17.742,6.144-24.375,4.123c-55.31-16.742-95.242,10.465-96.915,11.629C1.092,236.192,0,238.288,0,240.521V358.4
			c0,3.768,3.055,6.827,6.827,6.827h395.947c3.772,0,6.827-3.058,6.827-6.827v-117.88
			C409.6,238.285,408.508,236.196,406.675,234.919z"/>
	</g>
</g>
<g>
	<g>
		<path d="M68.267,262.827c-15.06,0-27.307,12.25-27.307,27.307c0,15.056,12.247,27.307,27.307,27.307s27.307-12.25,27.307-27.307
			C95.573,275.077,83.326,262.827,68.267,262.827z M68.267,303.787c-7.526,0-13.653-6.124-13.653-13.653
			c0-7.53,6.127-13.653,13.653-13.653s13.653,6.124,13.653,13.653C81.92,297.663,75.793,303.787,68.267,303.787z"/>
	</g>
</g>
<g>
	<g>
		<path d="M194.56,303.787c-13.172,0-23.893,10.721-23.893,23.893s10.721,23.893,23.893,23.893s23.893-10.721,23.893-23.893
			S207.732,303.787,194.56,303.787z M194.56,337.92c-5.646,0-10.24-4.594-10.24-10.24s4.594-10.24,10.24-10.24
			s10.24,4.594,10.24,10.24S200.206,337.92,194.56,337.92z"/>
	</g>
</g>
<g>
	<g>
		<path d="M344.747,269.653c-16.94,0-30.72,13.78-30.72,30.72s13.78,30.72,30.72,30.72s30.72-13.78,30.72-30.72
			S361.687,269.653,344.747,269.653z M344.747,317.44c-9.414,0-17.067-7.656-17.067-17.067c0-9.411,7.653-17.067,17.067-17.067
			c9.414,0,17.067,7.656,17.067,17.067C361.813,309.784,354.161,317.44,344.747,317.44z"/>
	</g>
</g>
<g>
	<g>
		<path d="M247.712,44.373c-8.486,0-16.258,3.68-23.77,7.24c-6.434,3.048-12.506,5.926-17.92,5.926s-11.493-2.877-17.927-5.926
			c-7.513-3.56-15.281-7.24-23.767-7.24c-31.928,0-55.101,34.246-55.101,81.432c0,26.406,15.193,177.981,55.101,177.981
			c13.452,0,17.712-21.289,24.156-53.511c2.98-14.899,10.892-54.473,17.507-54.501c9.482,0.031,16.101,37.635,19.661,57.836
			c5.321,30.215,8.841,50.176,22.06,50.176c39.909,0,55.101-151.576,55.101-177.981C302.814,78.619,279.641,44.373,247.712,44.373z
			 M248.695,290.031c-3.567-4.57-7.175-25.04-9.595-38.792c-5.98-33.942-12.158-69.048-33.106-69.12
			c-17.814,0.078-23.873,30.385-30.894,65.475c-3.041,15.196-7.574,37.867-11.66,42.458c-18.473-3.369-40.561-110.79-40.561-164.246
			c0-38.639,17.821-67.779,41.448-67.779c5.414,0,11.493,2.881,17.923,5.926c7.513,3.56,15.281,7.24,23.767,7.24
			c8.479,0,16.254-3.68,23.767-7.24c6.434-3.045,12.513-5.926,17.927-5.926c23.627,0,41.448,29.14,41.448,67.779
			C289.161,179.169,267.155,286.307,248.695,290.031z"/>
	</g>
</g>
<g>
	<g>
		<path d="M171.885,64.853c-22.586,0-40.96,18.374-40.96,40.96c0,3.768,3.055,6.827,6.827,6.827c3.775,0,6.827-3.058,6.827-6.827
			c0-15.056,12.247-27.307,27.307-27.307c3.772,0,6.827-3.058,6.827-6.827S175.657,64.853,171.885,64.853z"/>
	</g>
</g>
<g>
</g>
<g>
</g>
<g>
</g>
<g>
</g>
<g>
</g>
<g>
</g>
<g>
</g>
<g>
</g>
<g>
</g>
<g>
</g>
<g>
</g>
<g>
</g>
<g>
</g>
<g>
</g>
<g>
</g>
</svg>
