<?xml version="1.0" encoding="iso-8859-1"?>
<!-- Generator: Adobe Illustrator 19.0.0, SVG Export Plug-In . SVG Version: 6.00 Build 0)  -->
<svg version="1.1" id="Capa_1" xmlns="http://www.w3.org/2000/svg" xmlns:xlink="http://www.w3.org/1999/xlink" x="0px" y="0px"
	 viewBox="0 0 402.545 402.545" style="enable-background:new 0 0 402.545 402.545;" xml:space="preserve">
<g>
	<g>
		<path d="M344.612,94.392c-0.652-3.587-4.099-5.973-7.673-5.315c-3.587,0.649-5.966,4.086-5.315,7.673
			c1.915,10.523,2.881,21.613,2.881,32.952c0,72.721-32.567,259.639-68.352,259.659c-6.687-2.464-13.452-40.878-17.493-63.829
			c-9.015-51.18-18.34-104.103-47.527-104.209c-24.419,0.106-33.993,47.954-44.131,98.608c-5.018,25.119-13.431,67.168-20.698,69.41
			c-35.925,0-68.492-186.914-68.492-259.639c0-63.423,28.809-109.452,68.499-109.452c9.329,0,19.173,4.663,29.6,9.602
			c11.288,5.349,22.958,10.878,35.253,10.878c4.386,0,8.953-0.7,13.947-2.14c3.499-1.007,5.519-4.666,4.512-8.168
			c-1.007-3.499-4.622-5.536-8.168-4.512c-3.796,1.092-7.161,1.621-10.295,1.621c-9.329,0-19.173-4.663-29.6-9.602
			c-11.288-5.349-22.958-10.878-35.253-10.878c-47.333,0-81.695,51.582-81.691,122.648c0,32.01,7.274,98.475,20.739,158.601
			c16.985,75.803,37.492,114.241,60.952,114.241c16.818,0,23.419-28.914,33.645-80.019c7.001-35.021,17.589-87.941,31.181-87.999
			c18.104,0.065,27.6,53.955,34.526,93.3c7.929,44.995,13.169,74.721,30.355,74.721c55.419,0,81.691-218.846,81.691-272.838
			C347.704,117.576,346.667,105.697,344.612,94.392z"/>
	</g>
</g>
<g>
	<g>
		<path d="M149.96,34.13c-33.881,0-61.44,27.563-61.44,61.44c0,3.768,3.055,6.827,6.827,6.827s6.827-3.055,6.827-6.827
			c0-26.351,21.439-47.787,47.787-47.787c3.772,0,6.827-3.058,6.827-6.827S153.731,34.13,149.96,34.13z"/>
	</g>
</g>
<g>
	<g>
		<path d="M320.678,0h-82.026C223.626,0,211.4,12.264,211.4,27.341v13.735c0,3.768,3.055,6.827,6.827,6.827h47.828v34.075
			c0,15.022,12.247,27.245,27.293,27.245h27.286c15.053,0,27.3-12.261,27.296-27.324V27.327C347.93,12.261,335.703,0,320.678,0z
			 M334.28,81.893c0,7.54-6.12,13.674-13.646,13.674h-27.286c-7.52,0-13.64-6.096-13.64-13.592V41.073
			c0-3.768-3.055-6.827-6.827-6.827h-47.828v-6.909c0-7.547,6.1-13.687,13.599-13.687h82.029c7.499,0,13.599,6.134,13.599,13.674
			V81.893z"/>
	</g>
</g>
<g>
	<g>
		<path d="M279.666,122.877c-3.772,0-6.827,3.058-6.827,6.827v27.307c0,3.768,3.055,6.827,6.827,6.827s6.827-3.055,6.827-6.827
			v-27.307C286.493,125.935,283.438,122.877,279.666,122.877z"/>
	</g>
</g>
<g>
</g>
<g>
</g>
<g>
</g>
<g>
</g>
<g>
</g>
<g>
</g>
<g>
</g>
<g>
</g>
<g>
</g>
<g>
</g>
<g>
</g>
<g>
</g>
<g>
</g>
<g>
</g>
<g>
</g>
</svg>
