<?xml version="1.0" encoding="iso-8859-1"?>
<!-- Generator: Adobe Illustrator 19.0.0, SVG Export Plug-In . SVG Version: 6.00 Build 0)  -->
<svg version="1.1" id="Capa_1" xmlns="http://www.w3.org/2000/svg" xmlns:xlink="http://www.w3.org/1999/xlink" x="0px" y="0px"
	 viewBox="0 0 416.485 416.485" style="enable-background:new 0 0 416.485 416.485;" xml:space="preserve">
<g>
	<g>
		<path d="M191.048,71.709H157.01c-3.768,0-6.827,3.058-6.827,6.827s3.058,6.827,6.827,6.827h27.211v141.281
			c0,3.768,3.058,6.827,6.827,6.827c3.772,0,6.827-3.058,6.827-6.827V78.536C197.874,74.767,194.816,71.709,191.048,71.709z"/>
	</g>
</g>
<g>
	<g>
		<path d="M225.28,167.282h-27.307c-3.768,0-6.827,3.058-6.827,6.827s3.058,6.827,6.827,6.827h27.307
			c3.768,0,6.827-3.058,6.827-6.827C232.107,170.341,229.048,167.282,225.28,167.282z"/>
	</g>
</g>
<g>
	<g>
		<path d="M122.88,37.576c-22.586,0-40.96,18.374-40.96,40.96c0,22.586,18.374,40.96,40.96,40.96c22.586,0,40.96-18.374,40.96-40.96
			C163.84,55.95,145.466,37.576,122.88,37.576z M122.88,105.842c-15.056,0-27.307-12.25-27.307-27.307s12.25-27.307,27.307-27.307
			s27.307,12.25,27.307,27.307S137.936,105.842,122.88,105.842z"/>
	</g>
</g>
<g>
	<g>
		<path d="M395.261,317.797c-1.635-5.219-5.205-9.489-10.083-12.039l-160.28-82.835c-0.966-0.505-2.045-0.765-3.133-0.765h-81.848
			L65.597,114.413c-6.468-9.257-19.255-11.554-28.512-5.082c-9.264,6.461-11.547,19.251-5.086,28.515l85.18,122.242
			c1.277,1.83,3.369,2.922,5.601,2.922h91.31l152.143,79.06c2.97,1.56,6.202,2.345,9.462,2.345c2.058,0,4.123-0.314,6.144-0.952
			c5.219-1.632,9.492-5.205,12.025-10.052C396.401,328.562,396.896,323.016,395.261,317.797z M381.764,327.091
			c-0.843,1.615-2.266,2.806-4.007,3.349c-1.737,0.553-3.581,0.379-5.199-0.464c-0.007-0.003-0.014-0.007-0.02-0.01l-153.634-79.838
			c-0.969-0.509-2.051-0.771-3.147-0.771h-89.412L43.199,130.039c-2.154-3.089-1.393-7.352,1.696-9.506
			c3.082-2.167,7.342-1.393,9.479,1.666l76.339,110.674c1.273,1.847,3.376,2.949,5.618,2.949h83.773l158.778,82.057
			c1.615,0.843,2.802,2.27,3.348,4.007C382.778,323.623,382.611,325.473,381.764,327.091z"/>
	</g>
</g>
<g>
	<g>
		<path d="M293.547,146.802H225.28c-3.768,0-6.827,3.058-6.827,6.827v40.96c0,3.768,3.058,6.827,6.827,6.827h68.267
			c3.768,0,6.827-3.058,6.827-6.827v-40.96C300.373,149.861,297.315,146.802,293.547,146.802z M286.72,187.762h-54.613v-27.307
			h54.613V187.762z"/>
	</g>
</g>
<g>
	<g>
		<path d="M245.76,167.282c-3.768,0-6.827,3.058-6.827,6.827v34.133c0,3.768,3.058,6.827,6.827,6.827
			c3.768,0,6.827-3.058,6.827-6.827v-34.133C252.587,170.341,249.528,167.282,245.76,167.282z"/>
	</g>
</g>
<g>
	<g>
		<path d="M273.067,167.282c-3.768,0-6.827,3.058-6.827,6.827v34.133c0,3.768,3.058,6.827,6.827,6.827s6.827-3.058,6.827-6.827
			v-34.133C279.893,170.341,276.835,167.282,273.067,167.282z"/>
	</g>
</g>
<g>
	<g>
		<path d="M210.316,320.671l-23.986-36.43l23.18-23.579c1.864-1.898,2.406-4.727,1.379-7.178c-1.031-2.454-3.427-4.052-6.086-4.052
			h-81.92c-2.287,0-4.41,1.188-5.615,3.13c-1.205,1.946-1.314,4.376-0.29,6.42l34.133,68.267c1.12,2.236,3.403,3.649,5.902,3.649
			H204.8c2.427,0,4.656-1.335,5.813-3.468C211.763,325.292,211.651,322.698,210.316,320.671z M161.092,317.694l-27.535-55.064
			h55.501l-15.882,16.155c-2.178,2.219-2.516,5.656-0.806,8.257l20.183,30.652H161.092z"/>
	</g>
</g>
<g>
	<g>
		<path d="M204.8,317.466h-81.92c-1.519,0-2.993,0.509-4.192,1.437l-61.44,47.787c-2.304,1.795-3.212,4.847-2.266,7.608
			c0.949,2.758,3.543,4.611,6.458,4.611H204.8c3.768,0,6.827-3.058,6.827-6.83v-47.787
			C211.627,320.524,208.568,317.466,204.8,317.466z M197.973,365.256H81.336l43.885-34.133h72.752V365.256z"/>
	</g>
</g>
<g>
	<g>
		<path d="M409.658,365.256H6.827c-3.768,0-6.827,3.058-6.827,6.827s3.058,6.827,6.827,6.827h402.828c3.772,0,6.83-3.058,6.83-6.827
			S413.426,365.256,409.658,365.256z"/>
	</g>
</g>
<g>
</g>
<g>
</g>
<g>
</g>
<g>
</g>
<g>
</g>
<g>
</g>
<g>
</g>
<g>
</g>
<g>
</g>
<g>
</g>
<g>
</g>
<g>
</g>
<g>
</g>
<g>
</g>
<g>
</g>
</svg>
