<?xml version="1.0" encoding="iso-8859-1"?>
<!-- Generator: Adobe Illustrator 19.0.0, SVG Export Plug-In . SVG Version: 6.00 Build 0)  -->
<svg version="1.1" id="Capa_1" xmlns="http://www.w3.org/2000/svg" xmlns:xlink="http://www.w3.org/1999/xlink" x="0px" y="0px"
	 viewBox="0 0 389.12 389.12" style="enable-background:new 0 0 389.12 389.12;" xml:space="preserve">
<g>
	<g>
		<path d="M102.4,0H54.613c-3.772,0-6.827,3.058-6.827,6.827V360.67c0,3.768,3.055,6.827,6.827,6.827s6.827-3.055,6.827-6.827
			V13.653h34.133v318.013c0,3.768,3.055,6.827,6.827,6.827s6.827-3.058,6.827-6.827V6.827C109.227,3.058,106.172,0,102.4,0z"/>
	</g>
</g>
<g>
	<g>
		<path d="M320.853,0H102.4c-3.772,0-6.827,3.058-6.827,6.827v324.84c0,3.768,3.055,6.827,6.827,6.827s6.827-3.058,6.827-6.827
			V13.653h211.627c3.768,0,6.827,3.062,6.827,6.827v347.017c0,3.768,3.055,6.827,6.827,6.827c3.772,0,6.827-3.055,6.827-6.827V20.48
			C341.333,9.185,332.148,0,320.853,0z"/>
	</g>
</g>
<g>
	<g>
		<path d="M241.613,75.093c-6.359,0-12.22,2.775-17.391,5.226c-4.253,2.01-8.267,3.915-11.561,3.915
			c-3.287,0-7.301-1.898-11.554-3.912c-5.175-2.454-11.035-5.229-17.394-5.229c-23.378,0-40.352,24.661-40.352,58.638
			c0,14.5,3.28,44.537,9.353,71.649c10.854,48.432,22.886,54.033,31,54.033c11.056,0,14.148-15.452,18.821-38.844
			c2.273-11.346,6.427-32.137,10.513-36.011c4.898,2.563,9.452,28.402,11.199,38.294c3.874,22.016,6.441,36.56,17.367,36.56
			c8.114,0,20.149-5.601,31-54.033c6.072-27.112,9.352-57.149,9.352-71.649C281.965,99.755,264.994,75.093,241.613,75.093z
			 M243.221,245.084c-2.021-4.673-4.093-16.445-5.526-24.603c-4.308-24.419-8.755-49.671-25.068-49.732
			c-14.06,0.065-18.429,21.883-23.48,47.145c-1.833,9.161-4.492,22.484-6.898,27.293c-10.069-6.844-25.235-72.339-25.235-111.456
			c0-25.644,11.479-44.984,26.699-44.984c3.287,0,7.301,1.901,11.554,3.908c5.175,2.454,11.032,5.229,17.394,5.229
			c6.362,0,12.227-2.778,17.408-5.229c4.246-2.01,8.26-3.912,11.547-3.912c15.22,0,26.699,19.34,26.699,44.984
			C268.315,172.667,253.28,237.749,243.221,245.084z"/>
	</g>
</g>
<g>
	<g>
		<path d="M334.507,327.68H78.479c-16.927,0-30.693,13.78-30.693,30.72s13.766,30.72,30.693,30.72h256.027
			c3.772,0,6.827-3.058,6.827-6.827v-47.787C341.333,330.738,338.278,327.68,334.507,327.68z M327.68,375.467H78.479
			c-9.393,0-17.039-7.656-17.039-17.067s7.646-17.067,17.039-17.067H327.68V375.467z"/>
	</g>
</g>
<g>
</g>
<g>
</g>
<g>
</g>
<g>
</g>
<g>
</g>
<g>
</g>
<g>
</g>
<g>
</g>
<g>
</g>
<g>
</g>
<g>
</g>
<g>
</g>
<g>
</g>
<g>
</g>
<g>
</g>
</svg>
