<?xml version="1.0" encoding="iso-8859-1"?>
<!-- Generator: Adobe Illustrator 19.0.0, SVG Export Plug-In . SVG Version: 6.00 Build 0)  -->
<svg version="1.1" id="Capa_1" xmlns="http://www.w3.org/2000/svg" xmlns:xlink="http://www.w3.org/1999/xlink" x="0px" y="0px"
	 viewBox="0 0 395.947 395.947" style="enable-background:new 0 0 395.947 395.947;" xml:space="preserve">
<g>
	<g>
		<path d="M262.827,0c-12.346,0-24.04,5.54-35.345,10.895c-10.407,4.932-20.234,9.585-29.508,9.585s-19.101-4.652-29.508-9.585
			C157.16,5.54,145.466,0,133.12,0C85.654,0,51.2,51.681,51.2,122.88c0,54.04,26.348,273.067,81.92,273.067
			c16.995,0,23.62-28.979,33.867-80.2c6.567-32.826,17.551-87.76,30.959-87.818c17.913,0.061,27.781,56.057,34.307,93.109
			c7.946,45.111,13.193,74.909,30.573,74.909c55.573,0,81.92-219.027,81.92-273.067C344.747,51.681,310.292,0,262.827,0z
			 M263.045,382.327c-6.625-2.775-13.08-39.414-17.347-63.659c-9.032-51.275-18.374-104.294-47.753-104.397
			c-24.607,0.106-34.191,48.043-44.346,98.795c-4.987,24.921-13.332,66.632-20.48,69.226c-11.892,0-30.713-27.255-47.855-103.752
			C72.492,221.508,64.853,154.607,64.853,122.88c0-63.29,28.713-109.227,68.267-109.227c9.274,0,19.101,4.652,29.508,9.585
			c11.305,5.356,22.999,10.895,35.345,10.895s24.04-5.54,35.345-10.895c10.407-4.932,20.234-9.585,29.508-9.585
			c39.554,0,68.267,45.937,68.267,109.227c0,31.727-7.639,98.628-20.415,155.662C293.54,355.034,274.719,382.29,263.045,382.327z"/>
	</g>
</g>
<g>
	<g>
		<path d="M155.15,32.543l-8.602-13.78c-1.993-3.205-6.212-4.185-9.407-2.178c-3.202,1.993-4.174,6.205-2.181,9.404l6.813,10.912
			l-8.359,22.125c-1.335,3.526,0.447,7.465,3.973,8.8c0.792,0.3,1.615,0.444,2.413,0.444c2.755,0,5.352-1.683,6.39-4.413
			l9.554-25.286C156.498,36.577,156.276,34.348,155.15,32.543z"/>
	</g>
</g>
<g>
	<g>
		<path d="M209.514,128.457l-9.834-25.146c-0.522-1.314-1.427-2.437-2.615-3.215l-22.641-14.879
			c-3.133-2.065-7.376-1.195-9.455,1.952c-2.068,3.151-1.195,7.386,1.959,9.455l20.821,13.688l9.039,23.122
			c1.051,2.693,3.632,4.342,6.359,4.342c0.826,0,1.666-0.154,2.492-0.474C209.155,135.926,210.886,131.97,209.514,128.457z"/>
	</g>
</g>
<g>
	<g>
		<path d="M231.226,94.785c-1.079-3.615-4.826-5.69-8.492-4.601l-31.573,9.38c-3.615,1.072-5.673,4.871-4.601,8.486
			c0.887,2.97,3.601,4.888,6.547,4.888c0.642,0,1.294-0.092,1.946-0.287l31.573-9.38C230.24,102.199,232.298,98.4,231.226,94.785z"
			/>
	</g>
</g>
<g>
	<g>
		<path d="M140.739,171.971l-26.061-24.723l8.486-14.002c1.959-3.222,0.932-7.421-2.294-9.376c-3.219-1.956-7.421-0.925-9.373,2.297
			l-11.346,18.702c-1.666,2.744-1.195,6.281,1.133,8.492l30.054,28.515c1.321,1.253,3.014,1.874,4.7,1.874
			c1.809,0,3.615-0.713,4.953-2.127C143.585,178.886,143.473,174.568,140.739,171.971z"/>
	</g>
</g>
<g>
	<g>
		<path d="M97.754,84.654l-15.534-6.67c-3.191-1.376-6.96-0.106-8.666,2.963l-9.199,16.596c-1.826,3.297-0.635,7.455,2.666,9.281
			c1.048,0.584,2.181,0.857,3.301,0.857c2.4,0,4.731-1.266,5.98-3.516l6.205-11.199l9.861,4.236
			c3.475,1.488,7.472-0.113,8.967-3.581C102.82,90.156,101.222,86.142,97.754,84.654z"/>
	</g>
</g>
<g>
	<g>
		<path d="M229.782,166.902l-64.642-13.78l-12.701-28.785c-1.522-3.441-5.553-5-9.001-3.488c-3.451,1.526-5.011,5.553-3.492,9.004
			l14.107,31.979c0.888,2,2.68,3.461,4.826,3.919l68.058,14.507c0.481,0.102,0.952,0.15,1.427,0.15c3.154,0,5.987-2.198,6.676-5.407
			C235.824,171.315,233.475,167.687,229.782,166.902z"/>
	</g>
</g>
<g>
	<g>
		<path d="M133.12,54.613c-22.586,0-40.96,18.374-40.96,40.96c0,22.586,18.374,40.96,40.96,40.96c22.586,0,40.96-18.374,40.96-40.96
			C174.08,72.987,155.706,54.613,133.12,54.613z M133.12,122.88c-15.06,0-27.307-12.25-27.307-27.307s12.247-27.307,27.307-27.307
			s27.307,12.25,27.307,27.307S148.18,122.88,133.12,122.88z"/>
	</g>
</g>
<g>
</g>
<g>
</g>
<g>
</g>
<g>
</g>
<g>
</g>
<g>
</g>
<g>
</g>
<g>
</g>
<g>
</g>
<g>
</g>
<g>
</g>
<g>
</g>
<g>
</g>
<g>
</g>
<g>
</g>
</svg>
