<?xml version="1.0" encoding="iso-8859-1"?>
<!-- Generator: Adobe Illustrator 19.0.0, SVG Export Plug-In . SVG Version: 6.00 Build 0)  -->
<svg version="1.1" id="Capa_1" xmlns="http://www.w3.org/2000/svg" xmlns:xlink="http://www.w3.org/1999/xlink" x="0px" y="0px"
	 viewBox="0 0 436.907 436.907" style="enable-background:new 0 0 436.907 436.907;" xml:space="preserve">
<g>
	<g>
		<path d="M401.466,131.652c-1.669-3.376-5.748-4.768-9.148-3.096c-3.379,1.673-4.765,5.765-3.092,9.144
			c13.52,27.365,20.374,56.832,20.374,87.579c0,109.162-88.815,197.973-197.973,197.973S13.653,334.442,13.653,225.28
			S102.468,27.307,211.627,27.307c30.525,0,59.802,6.758,86.999,20.091c3.393,1.666,7.482,0.256,9.141-3.127
			c1.652-3.383,0.253-7.475-3.127-9.134c-29.092-14.258-60.385-21.484-93.013-21.484C94.932,13.653,0,108.588,0,225.28
			s94.932,211.627,211.627,211.627s211.627-94.935,211.627-211.627C423.253,192.416,415.928,160.918,401.466,131.652z"/>
	</g>
</g>
<g>
	<g>
		<path d="M361.813,0c-41.407,0-75.093,33.686-75.093,75.093s33.686,75.093,75.093,75.093c41.407,0,75.093-33.686,75.093-75.093
			S403.22,0,361.813,0z M361.813,136.533c-33.881,0-61.44-27.563-61.44-61.44s27.559-61.44,61.44-61.44
			c33.881,0,61.44,27.563,61.44,61.44S395.694,136.533,361.813,136.533z"/>
	</g>
</g>
<g>
	<g>
		<path d="M396.5,35.144c-3.406-1.601-7.485-0.106-9.066,3.304l-29.146,62.56l-24.6-19.698c-2.956-2.365-7.243-1.87-9.595,1.062
			c-2.359,2.942-1.884,7.24,1.062,9.595l31.379,25.136c1.219,0.98,2.734,1.498,4.267,1.498c0.519,0,1.041-0.058,1.556-0.181
			c2.038-0.478,3.744-1.864,4.632-3.765l32.819-70.441C401.401,40.796,399.92,36.734,396.5,35.144z"/>
	</g>
</g>
<g>
	<g>
		<path d="M253.32,95.802c-8.434,0-16.183,3.669-23.675,7.219c-6.451,3.058-12.554,5.946-18.019,5.946s-11.564-2.888-18.019-5.946
			c-7.496-3.55-15.241-7.219-23.675-7.219c-31.792,0-54.873,34.154-54.873,81.207c0,26.368,15.124,177.753,54.873,177.753
			c13.268,0,17.514-21.217,23.941-53.333c2.987-14.947,10.926-54.654,17.729-54.682c9.673,0.034,16.319,37.765,19.886,58.033
			c5.297,30.099,8.806,49.981,21.832,49.981c39.745,0,54.873-151.385,54.873-177.753C308.193,129.956,285.112,95.802,253.32,95.802z
			 M254.201,341.48c-3.622-4.386-7.267-25.098-9.714-38.991c-5.966-33.86-12.134-68.871-32.887-68.943
			c-17.626,0.078-23.671,30.297-30.672,65.294c-3.065,15.34-7.653,38.267-11.786,42.656
			c-18.603-3.014-40.881-110.865-40.881-164.489c0-38.772,17.913-68.007,41.673-68.007c5.468,0,11.568,2.884,18.019,5.943
			c7.496,3.55,15.241,7.219,23.675,7.219s16.183-3.669,23.675-7.219c6.451-3.058,12.551-5.946,18.019-5.946
			c23.76,0,41.673,29.239,41.673,68.007C294.994,230.543,272.787,338.135,254.201,341.48z"/>
	</g>
</g>
<g>
	<g>
		<path d="M177.493,116.053c-22.586,0-40.96,18.374-40.96,40.96c0,3.768,3.055,6.827,6.827,6.827s6.827-3.058,6.827-6.827
			c0-15.056,12.247-27.307,27.307-27.307c3.772,0,6.827-3.058,6.827-6.827C184.32,119.112,181.265,116.053,177.493,116.053z"/>
	</g>
</g>
<g>
</g>
<g>
</g>
<g>
</g>
<g>
</g>
<g>
</g>
<g>
</g>
<g>
</g>
<g>
</g>
<g>
</g>
<g>
</g>
<g>
</g>
<g>
</g>
<g>
</g>
<g>
</g>
<g>
</g>
</svg>
