<?xml version="1.0" encoding="iso-8859-1"?>
<!-- Generator: Adobe Illustrator 19.0.0, SVG Export Plug-In . SVG Version: 6.00 Build 0)  -->
<svg version="1.1" id="Capa_1" xmlns="http://www.w3.org/2000/svg" xmlns:xlink="http://www.w3.org/1999/xlink" x="0px" y="0px"
	 viewBox="0 0 402.773 402.773" style="enable-background:new 0 0 402.773 402.773;" xml:space="preserve">
<g>
	<g>
		<path d="M351.58,0H51.193C32.372,0,17.067,15.309,17.067,34.127V307.2c0,3.768,3.055,6.827,6.827,6.827h134.199l37.042,84.657
			c1.085,2.482,3.54,4.089,6.253,4.089c2.714,0,5.168-1.608,6.253-4.089l37.042-84.657H378.88c3.772,0,6.827-3.058,6.827-6.827
			V34.127C385.707,15.309,370.401,0,351.58,0z M372.053,300.373h-131.84c-2.714,0-5.168,1.604-6.253,4.089l-32.573,74.452
			l-32.573-74.452c-1.085-2.482-3.54-4.089-6.253-4.089H30.72V34.127c0-11.291,9.185-20.473,20.473-20.473H351.58
			c11.288,0,20.473,9.182,20.473,20.473V300.373z"/>
	</g>
</g>
<g>
	<g>
		<path d="M231.373,47.787c-6.359,0-12.22,2.775-17.391,5.226c-4.253,2.01-8.267,3.915-11.561,3.915
			c-3.287,0-7.301-1.898-11.554-3.912c-5.175-2.454-11.035-5.229-17.394-5.229c-23.378,0-40.352,24.661-40.352,58.638
			c0,14.5,3.28,44.537,9.353,71.649c10.854,48.432,22.886,54.033,31,54.033c11.056,0,14.148-15.452,18.821-38.844
			c2.273-11.346,6.427-32.137,10.513-36.011c4.898,2.563,9.452,28.402,11.199,38.294c3.874,22.016,6.441,36.56,17.367,36.56
			c8.114,0,20.149-5.601,31-54.033c6.072-27.112,9.353-57.149,9.353-71.649C271.725,72.448,254.754,47.787,231.373,47.787z
			 M232.98,217.777c-2.021-4.673-4.093-16.445-5.526-24.603c-4.308-24.419-8.755-49.671-25.068-49.732
			c-14.06,0.065-18.429,21.883-23.48,47.145c-1.833,9.161-4.492,22.484-6.898,27.293c-10.069-6.844-25.235-72.339-25.235-111.456
			c0-25.644,11.479-44.984,26.699-44.984c3.287,0,7.301,1.901,11.554,3.908c5.175,2.454,11.032,5.229,17.394,5.229
			c6.362,0,12.227-2.778,17.408-5.229c4.246-2.01,8.26-3.912,11.547-3.912c15.22,0,26.699,19.34,26.699,44.984
			C258.075,145.36,243.04,210.442,232.98,217.777z"/>
	</g>
</g>
<g>
	<g>
		<path d="M17.067,266.24v47.787h368.64V266.24H17.067z M372.053,300.373H30.72v-20.48h341.333V300.373z"/>
	</g>
</g>
<g>
</g>
<g>
</g>
<g>
</g>
<g>
</g>
<g>
</g>
<g>
</g>
<g>
</g>
<g>
</g>
<g>
</g>
<g>
</g>
<g>
</g>
<g>
</g>
<g>
</g>
<g>
</g>
<g>
</g>
</svg>
