<?xml version="1.0" encoding="iso-8859-1"?>
<!-- Generator: Adobe Illustrator 19.0.0, SVG Export Plug-In . SVG Version: 6.00 Build 0)  -->
<svg version="1.1" id="Capa_1" xmlns="http://www.w3.org/2000/svg" xmlns:xlink="http://www.w3.org/1999/xlink" x="0px" y="0px"
	 viewBox="0 0 395.718 395.718" style="enable-background:new 0 0 395.718 395.718;" xml:space="preserve">
<g>
	<g>
		<path d="M375.352,123.102H20.366c-3.649,0-6.601,2.959-6.601,6.601v232.148c0,18.674,15.193,33.867,33.867,33.867h300.455
			c18.671,0,33.867-15.193,33.867-33.867V129.703C381.954,126.058,378.998,123.102,375.352,123.102z M368.754,361.851
			c0,11.397-9.274,20.668-20.668,20.668H47.635c-11.394,0-20.668-9.271-20.668-20.668V136.305h341.787V361.851z"/>
	</g>
</g>
<g>
	<g>
		<path d="M223.708,177.493c-5.779,0-11.035,2.485-15.66,4.68c-3.659,1.731-7.107,3.366-9.82,3.366c-2.714,0-6.161-1.635-9.82-3.366
			c-4.628-2.191-9.882-4.68-15.66-4.68c-21.047,0-36.328,22.047-36.328,52.419c0,12.803,2.895,39.311,8.25,63.225
			c9.673,43.192,20.654,48.189,28.075,48.189c10.4,0,13.172-13.855,17.367-34.833c1.867-9.329,5.226-26.112,8.533-30.655
			c3.925,4.058,7.294,23.163,8.96,32.635c3.488,19.784,5.792,32.857,16.101,32.857c7.421,0,18.401-4.997,28.078-48.189
			c5.359-23.914,8.253-50.425,8.253-63.229C260.036,199.54,244.755,177.493,223.708,177.493z M225.449,326.496
			c-1.608-4.536-3.239-13.831-4.4-20.395c-3.84-21.818-7.813-44.38-22.852-44.435c-13.053,0.058-16.954,19.565-21.473,42.148
			c-1.478,7.4-3.594,17.954-5.526,22.74c-9.417-9.154-21.125-65.84-21.125-96.645c0-22.098,9.748-38.765,22.675-38.765
			c2.714,0,6.158,1.638,9.813,3.366c4.628,2.191,9.882,4.68,15.66,4.68c5.779,0,11.035-2.485,15.66-4.68
			c3.659-1.731,7.107-3.366,9.82-3.366c12.93,0,22.675,16.664,22.675,38.765C246.376,260.669,234.703,317.228,225.449,326.496z"/>
	</g>
</g>
<g>
	<g>
		<path d="M375.352,27.303h-61.44c-3.772,0-6.827,3.058-6.827,6.827s3.055,6.827,6.827,6.827h54.613v81.92H27.192v-81.92h54.613
			c3.772,0,6.827-3.058,6.827-6.827s-3.055-6.827-6.827-6.827h-61.44c-3.772,0-6.827,3.058-6.827,6.827v95.573
			c0,3.768,3.055,6.827,6.827,6.827h354.987c3.772,0,6.827-3.055,6.827-6.827V34.13C382.179,30.362,379.124,27.303,375.352,27.303z"
			/>
	</g>
</g>
<g>
	<g>
		<path d="M279.779,27.303h-58.733c-3.772,0-6.827,3.058-6.827,6.827s3.055,6.827,6.827,6.827h58.733
			c3.772,0,6.827-3.058,6.827-6.827S283.551,27.303,279.779,27.303z"/>
	</g>
</g>
<g>
	<g>
		<path d="M182.779,27.303h-63.782c-3.772,0-6.827,3.058-6.827,6.827s3.055,6.827,6.827,6.827h63.782
			c3.775,0,6.827-3.058,6.827-6.827S186.551,27.303,182.779,27.303z"/>
	</g>
</g>
<g>
	<g>
		<path d="M102.252,0h-6.758C84.178,0,74.979,9.161,74.979,20.425v47.892c0,11.261,9.202,20.425,20.514,20.425h6.758
			c11.315,0,20.514-9.161,20.514-20.425V20.425C122.766,9.165,113.563,0,102.252,0z M109.112,68.314
			c0,3.731-3.082,6.772-6.861,6.772h-6.758c-3.782,0-6.861-3.038-6.861-6.772V20.422c0-3.731,3.082-6.772,6.861-6.772v0.003h6.758
			c3.782,0,6.861,3.038,6.861,6.772V68.314z"/>
	</g>
</g>
<g>
	<g>
		<path d="M204.652,0h-6.758c-11.315,0-20.514,9.161-20.514,20.425v47.892c0,11.261,9.202,20.425,20.514,20.425h6.758
			c11.315,0,20.514-9.161,20.514-20.425V20.425C225.166,9.165,215.963,0,204.652,0z M211.512,68.314
			c0,3.731-3.082,6.772-6.861,6.772h-6.758c-3.782,0-6.861-3.038-6.861-6.772V20.422c0-3.731,3.082-6.772,6.861-6.772v0.003h6.758
			c3.782,0,6.861,3.038,6.861,6.772V68.314z"/>
	</g>
</g>
<g>
	<g>
		<path d="M300.225,0h-6.758c-11.315,0-20.514,9.161-20.514,20.425v47.892c0,11.261,9.202,20.425,20.514,20.425h6.758
			c11.315,0,20.514-9.161,20.514-20.425V20.425C320.739,9.165,311.537,0,300.225,0z M307.086,68.314
			c0,3.731-3.082,6.772-6.861,6.772h-6.758c-3.782,0-6.861-3.038-6.861-6.772V20.422c0-3.731,3.082-6.772,6.861-6.772v0.003h6.758
			c3.782,0,6.861,3.038,6.861,6.772V68.314z"/>
	</g>
</g>
<g>
</g>
<g>
</g>
<g>
</g>
<g>
</g>
<g>
</g>
<g>
</g>
<g>
</g>
<g>
</g>
<g>
</g>
<g>
</g>
<g>
</g>
<g>
</g>
<g>
</g>
<g>
</g>
<g>
</g>
</svg>
