<?xml version="1.0" encoding="iso-8859-1"?>
<!-- Generator: Adobe Illustrator 19.0.0, SVG Export Plug-In . SVG Version: 6.00 Build 0)  -->
<svg version="1.1" id="Capa_1" xmlns="http://www.w3.org/2000/svg" xmlns:xlink="http://www.w3.org/1999/xlink" x="0px" y="0px"
	 viewBox="0 0 409.375 409.375" style="enable-background:new 0 0 409.375 409.375;" xml:space="preserve">
<g>
	<g>
		<path d="M295.74,146.432c-3.772,0-6.827,3.058-6.827,6.827v228.806c0,7.53-6.12,13.657-13.64,13.657H36.313
			c-7.52,0-13.64-6.127-13.64-13.657V95.348h57.44c3.772,0,6.827-3.058,6.827-6.827s-3.055-6.827-6.827-6.827H15.846
			c-3.772,0-6.827,3.058-6.827,6.827v293.543c0,15.06,12.247,27.31,27.293,27.31h238.961c15.046,0,27.293-12.25,27.293-27.31
			V153.259C302.566,149.49,299.512,146.432,295.74,146.432z"/>
	</g>
</g>
<g>
	<g>
		<path d="M184.526,81.695h-66.28c-3.772,0-6.827,3.058-6.827,6.827s3.055,6.827,6.827,6.827h66.28c3.772,0,6.827-3.058,6.827-6.827
			S188.298,81.695,184.526,81.695z"/>
	</g>
</g>
<g>
	<g>
		<g>
			<rect x="36.326" y="204.575" width="47.787" height="20.48"/>
			<rect x="131.9" y="204.575" width="47.787" height="20.48"/>
			<rect x="220.66" y="204.575" width="13.653" height="20.48"/>
			<rect x="36.326" y="272.852" width="47.787" height="20.48"/>
			<rect x="131.9" y="272.852" width="47.787" height="20.48"/>
			<rect x="220.66" y="272.852" width="47.787" height="20.48"/>
			<rect x="36.326" y="341.118" width="47.787" height="20.48"/>
			<rect x="131.9" y="341.118" width="47.787" height="20.48"/>
			<rect x="220.66" y="341.118" width="47.787" height="20.48"/>
		</g>
	</g>
</g>
<g>
	<g>
		<path d="M210.427,121.733c-1.055,0.608-2.222,0.918-3.468,0.918h-6.758c-3.782,0-6.861-3.038-6.861-6.772V67.987
			c0-3.731,3.082-6.772,6.861-6.772h6.758c1.215,0,2.406,0.317,3.454,0.928c3.26,1.894,7.438,0.792,9.332-2.468
			c1.891-3.256,0.792-7.434-2.468-9.332c-3.127-1.819-6.694-2.782-10.318-2.782h-6.758c-11.315,0-20.514,9.161-20.514,20.425v47.896
			c0,11.261,9.202,20.425,20.514,20.425h6.758c3.622,0,7.182-0.952,10.295-2.758c3.267-1.881,4.386-6.059,2.499-9.322
			C217.861,120.958,213.68,119.832,210.427,121.733z"/>
	</g>
</g>
<g>
	<g>
		<path d="M345.482,0c-8.584,0-16.094,3.97-22.712,7.468c-5.775,3.048-11.233,5.932-16.548,5.932
			c-5.547,0-12.582-3.116-19.388-6.134C278.776,3.697,270.44,0,262.095,0c-31.792,0-54.873,34.154-54.873,81.207
			c0,26.368,15.125,177.753,54.873,177.753c13.152,0,17.859-21.166,24.992-53.2c3.656-16.394,12.196-54.784,19.108-54.815
			c9.544,0.034,15.326,37.67,18.432,57.89c4.639,30.184,7.697,50.125,20.852,50.125c39.748,0,54.873-151.381,54.876-177.753
			C400.355,34.154,377.274,0,345.482,0z M346.417,245.668c-3.471-4.529-6.625-25.057-8.745-38.837
			c-5.216-33.928-10.602-69.014-31.481-69.086c-17.507,0.078-24.214,30.228-31.986,65.143c-3.441,15.456-8.588,38.571-12.861,42.813
			c-18.606-2.836-40.926-110.824-40.926-164.495c0-38.772,17.913-68.007,41.673-68.007c5.553,0,12.588,3.116,19.395,6.13
			c8.059,3.574,16.394,7.267,24.733,7.267c8.585,0,16.094-3.97,22.712-7.468c5.775-3.048,11.233-5.932,16.548-5.932
			c23.76,0,41.673,29.239,41.673,68.007C387.152,134.687,364.983,242.115,346.417,245.668z"/>
	</g>
</g>
<g>
	<g>
		<path d="M269.652,20.255c-22.586,0-40.96,18.374-40.96,40.96c0,3.768,3.055,6.827,6.827,6.827c3.775,0,6.827-3.058,6.827-6.827
			c0-15.056,12.247-27.307,27.307-27.307c3.772,0,6.827-3.058,6.827-6.827S273.423,20.255,269.652,20.255z"/>
	</g>
</g>
<g>
	<g>
		<path d="M104.559,47.561h-6.758c-11.315,0-20.514,9.161-20.514,20.425v47.896c0,11.261,9.202,20.425,20.514,20.425h6.758
			c11.312,0,20.514-9.165,20.514-20.429V67.987C125.073,56.726,115.871,47.561,104.559,47.561z M111.42,115.879
			c0,3.731-3.082,6.772-6.861,6.772h-6.758c-3.782,0-6.861-3.038-6.861-6.772V67.987c0-3.731,3.082-6.772,6.861-6.772h6.758
			c3.782,0,6.861,3.038,6.861,6.772V115.879z"/>
	</g>
</g>
<g>
</g>
<g>
</g>
<g>
</g>
<g>
</g>
<g>
</g>
<g>
</g>
<g>
</g>
<g>
</g>
<g>
</g>
<g>
</g>
<g>
</g>
<g>
</g>
<g>
</g>
<g>
</g>
<g>
</g>
</svg>
