<?xml version="1.0" encoding="iso-8859-1"?>
<!-- Generator: Adobe Illustrator 19.0.0, SVG Export Plug-In . SVG Version: 6.00 Build 0)  -->
<svg version="1.1" id="Capa_1" xmlns="http://www.w3.org/2000/svg" xmlns:xlink="http://www.w3.org/1999/xlink" x="0px" y="0px"
	 viewBox="0 0 395.947 395.947" style="enable-background:new 0 0 395.947 395.947;" xml:space="preserve">
<g>
	<g>
		<path d="M262.827,0c-12.346,0-24.04,5.54-35.345,10.895c-10.407,4.932-20.234,9.585-29.508,9.585s-19.101-4.656-29.508-9.585
			C157.157,5.54,145.463,0,133.12,0C85.654,0,51.2,51.681,51.2,122.88c0,54.04,26.348,273.067,81.92,273.067
			c16.995,0,23.62-28.979,33.864-80.196c6.571-32.826,17.555-87.764,30.962-87.822c17.913,0.061,27.781,56.057,34.307,93.109
			c7.946,45.111,13.193,74.909,30.573,74.909c55.573,0,81.92-219.027,81.92-273.067C344.747,51.681,310.292,0,262.827,0z
			 M263.045,382.327c-6.625-2.775-13.08-39.414-17.347-63.659c-9.032-51.275-18.374-104.294-47.753-104.397
			c-24.607,0.106-34.195,48.046-44.349,98.799c-4.983,24.921-13.326,66.628-20.477,69.222c-35.809,0-68.267-186.754-68.267-259.413
			c0-63.29,28.71-109.227,68.267-109.227c9.274,0,19.101,4.652,29.505,9.585c11.308,5.356,23.003,10.895,35.349,10.895
			s24.04-5.54,35.345-10.895c10.407-4.932,20.234-9.585,29.508-9.585c39.554,0,68.267,45.937,68.267,109.227
			c0,31.727-7.639,98.628-20.415,155.662C293.54,355.034,274.719,382.29,263.045,382.327z"/>
	</g>
</g>
<g>
	<g>
		<g>
			<rect x="98.987" y="34.133" width="13.653" height="13.653"/>
			<rect x="85.333" y="116.053" width="13.653" height="13.653"/>
			<rect x="85.333" y="61.44" width="13.653" height="13.653"/>
			<rect x="71.68" y="143.36" width="13.653" height="13.653"/>
			<rect x="98.987" y="88.747" width="13.653" height="13.653"/>
			<rect x="71.68" y="88.747" width="13.653" height="13.653"/>
			<rect x="85.333" y="170.667" width="13.653" height="13.653"/>
			<rect x="126.293" y="34.133" width="13.653" height="13.653"/>
			<rect x="112.64" y="116.053" width="13.653" height="13.653"/>
			<rect x="112.64" y="61.44" width="13.653" height="13.653"/>
			<rect x="167.253" y="61.44" width="13.653" height="13.653"/>
			<rect x="139.947" y="61.44" width="13.653" height="13.653"/>
			<rect x="98.987" y="143.36" width="13.653" height="13.653"/>
			<rect x="126.293" y="88.747" width="13.653" height="13.653"/>
			<rect x="112.64" y="170.667" width="13.653" height="13.653"/>
		</g>
	</g>
</g>
<g>
</g>
<g>
</g>
<g>
</g>
<g>
</g>
<g>
</g>
<g>
</g>
<g>
</g>
<g>
</g>
<g>
</g>
<g>
</g>
<g>
</g>
<g>
</g>
<g>
</g>
<g>
</g>
<g>
</g>
</svg>
