<?xml version="1.0" encoding="iso-8859-1"?>
<!-- Generator: Adobe Illustrator 19.0.0, SVG Export Plug-In . SVG Version: 6.00 Build 0)  -->
<svg version="1.1" id="Capa_1" xmlns="http://www.w3.org/2000/svg" xmlns:xlink="http://www.w3.org/1999/xlink" x="0px" y="0px"
	 viewBox="0 0 430.083 430.083" style="enable-background:new 0 0 430.083 430.083;" xml:space="preserve">
<g>
	<g>
		<path d="M421.775,353.127c-5.345-4.663-12.38-6.646-19.92-5.608l-106.281,17.575H20.487C9.192,365.094,0,374.28,0,385.574
			s9.195,20.48,20.5,20.48h382.266c15.06,0,27.314-12.278,27.317-27.365v-6.707C430.083,364.49,427.127,357.793,421.775,353.127z
			 M416.427,378.686c0,7.561-6.127,13.715-13.66,13.715H20.501c-3.84,0-6.847-3-6.847-6.827c0-3.765,3.065-6.827,6.833-6.827v-0.003
			h275.647c0.372,0,0.747-0.027,1.113-0.089l106.653-17.64c3.427-0.468,6.577,0.375,8.905,2.4c2.335,2.038,3.622,5.079,3.622,8.564
			V378.686z"/>
	</g>
</g>
<g>
	<g>
		<path d="M27.307,316.745c-3.772,0-6.827,3.058-6.827,6.827v41.523c0,3.768,3.055,6.827,6.827,6.827s6.827-3.058,6.827-6.827
			v-41.523C34.133,319.803,31.078,316.745,27.307,316.745z"/>
	</g>
</g>
<g>
	<g>
		<path d="M54.613,316.745c-3.772,0-6.827,3.058-6.827,6.827v41.523c0,3.768,3.055,6.827,6.827,6.827
			c3.772,0,6.827-3.058,6.827-6.827v-41.523C61.44,319.803,58.385,316.745,54.613,316.745z"/>
	</g>
</g>
<g>
	<g>
		<path d="M81.92,316.745c-3.772,0-6.827,3.058-6.827,6.827v41.523c0,3.768,3.055,6.827,6.827,6.827s6.827-3.058,6.827-6.827
			v-41.523C88.747,319.803,85.692,316.745,81.92,316.745z"/>
	</g>
</g>
<g>
	<g>
		<path d="M109.227,316.745c-3.772,0-6.827,3.058-6.827,6.827v41.523c0,3.768,3.055,6.827,6.827,6.827s6.827-3.058,6.827-6.827
			v-41.523C116.053,319.803,112.998,316.745,109.227,316.745z"/>
	</g>
</g>
<g>
	<g>
		<path d="M136.533,316.745c-3.772,0-6.827,3.058-6.827,6.827v41.523c0,3.768,3.055,6.827,6.827,6.827s6.827-3.058,6.827-6.827
			v-41.523C143.36,319.803,140.305,316.745,136.533,316.745z"/>
	</g>
</g>
<g>
	<g>
		<path d="M157.013,262.694H37.499c-13.145,0-23.846,10.721-23.846,23.893v17.067c0,3.768,3.055,6.827,6.827,6.827h119.514
			c13.145,0,23.846-10.721,23.846-23.893v-17.067C163.84,265.753,160.785,262.694,157.013,262.694z M150.187,286.588
			c0,5.646-4.574,10.24-10.192,10.24H27.307v-10.24c0-5.646,4.574-10.24,10.192-10.24h112.688V286.588z"/>
	</g>
</g>
<g>
	<g>
		<path d="M383.754,82.757c-1.348-3.396-5.195-5.062-8.561-3.721c-3.393,1.338-5.055,5.171-3.721,8.561
			c4.359,11.046,6.659,24.211,6.659,38.076c0,53.484-22.17,160.915-40.742,164.465c-3.471-4.526-6.625-25.061-8.745-38.851
			c-5.209-33.918-10.595-69.001-31.468-69.072c-17.507,0.078-24.221,30.235-31.993,65.15c-3.441,15.452-8.588,38.564-12.861,42.807
			c-18.606-2.836-40.926-110.824-40.926-164.495c0-38.772,17.913-68.007,41.673-68.007c5.554,0,12.588,3.116,19.395,6.134
			c8.059,3.574,16.394,7.267,24.74,7.267c8.578,0,16.087-3.97,22.706-7.465c5.775-3.052,11.233-5.936,16.548-5.936
			c2.103,0,4.174,0.215,6.161,0.635c3.56,0.754,7.072-1.522,7.82-5.089c0.761-3.567-1.519-7.069-5.086-7.823
			c-2.884-0.611-5.878-0.922-8.892-0.922c-8.585,0-16.094,3.97-22.712,7.468c-5.775,3.052-11.233,5.932-16.541,5.932
			c-5.553,0-12.588-3.116-19.395-6.134c-8.059-3.574-16.394-7.267-24.74-7.267c-31.792,0-54.873,34.154-54.873,81.207
			c0,26.368,15.124,177.753,54.873,177.753c13.152,0,17.859-21.163,24.992-53.197c3.656-16.394,12.203-54.787,19.115-54.818
			c9.537,0.034,15.319,37.663,18.425,57.877c4.632,30.188,7.697,50.135,20.852,50.135c39.748,0,54.873-151.381,54.876-177.753
			C391.335,110.17,388.714,95.332,383.754,82.757z"/>
	</g>
</g>
<g>
	<g>
		<path d="M260.632,64.721c-22.586,0-40.96,18.374-40.96,40.96c0,3.768,3.055,6.827,6.827,6.827c3.775,0,6.827-3.058,6.827-6.827
			c0-15.056,12.247-27.307,27.307-27.307c3.772,0,6.827-3.058,6.827-6.827S264.404,64.721,260.632,64.721z"/>
	</g>
</g>
<g>
	<g>
		<path d="M400.053,62.56l-22.787-12.462L364.8,27.311c-2.386-4.379-9.588-4.372-11.974,0l-12.465,22.787L317.58,62.56
			c-2.195,1.198-3.553,3.492-3.553,5.99c0,2.499,1.359,4.792,3.553,5.99L340.367,87l12.459,22.784
			c1.195,2.188,3.495,3.55,5.987,3.55c2.495,0,4.792-1.359,5.987-3.55L377.266,87l22.781-12.459c2.195-1.198,3.553-3.495,3.553-5.99
			C403.599,66.056,402.241,63.762,400.053,62.56z M368.968,75.982c-1.147,0.628-2.086,1.567-2.714,2.714l-7.441,13.588
			l-7.434-13.588c-0.628-1.143-1.567-2.086-2.714-2.714l-13.585-7.431l13.589-7.434c1.147-0.628,2.086-1.57,2.714-2.714
			l7.434-13.588l7.441,13.588c0.628,1.143,1.567,2.086,2.707,2.714l13.585,7.434L368.968,75.982z"/>
	</g>
</g>
<g>
	<g>
		<path d="M334.783,105.015l-14.927-8.165l-8.168-14.93c-2.386-4.379-9.581-4.376-11.981,0.003l-8.161,14.927l-14.927,8.165
			c-2.195,1.198-3.553,3.492-3.553,5.99s1.359,4.796,3.553,5.99l14.927,8.168l8.161,14.927c1.201,2.191,3.502,3.553,5.994,3.553
			c2.492,0,4.792-1.362,5.987-3.55l8.168-14.93l14.933-8.168c2.188-1.202,3.546-3.499,3.546-5.99
			C338.336,108.507,336.978,106.214,334.783,105.015z M311.549,114.143c-1.14,0.628-2.079,1.57-2.707,2.714l-3.14,5.734
			l-3.127-5.731c-0.628-1.147-1.574-2.089-2.72-2.717l-5.734-3.137l5.734-3.133c1.147-0.628,2.092-1.57,2.72-2.717l3.127-5.731
			l3.14,5.734c0.628,1.143,1.567,2.086,2.714,2.714l5.728,3.133L311.549,114.143z"/>
	</g>
</g>
<g>
</g>
<g>
</g>
<g>
</g>
<g>
</g>
<g>
</g>
<g>
</g>
<g>
</g>
<g>
</g>
<g>
</g>
<g>
</g>
<g>
</g>
<g>
</g>
<g>
</g>
<g>
</g>
<g>
</g>
</svg>
