<?xml version="1.0" encoding="iso-8859-1"?>
<!-- Generator: Adobe Illustrator 19.0.0, SVG Export Plug-In . SVG Version: 6.00 Build 0)  -->
<svg version="1.1" id="Capa_1" xmlns="http://www.w3.org/2000/svg" xmlns:xlink="http://www.w3.org/1999/xlink" x="0px" y="0px"
	 viewBox="0 0 314.027 314.027" style="enable-background:new 0 0 314.027 314.027;" xml:space="preserve">
<g>
	<g>
		<path d="M270.796,118.238c-1.212-1.386-2.932-2.222-4.772-2.321l-22.494-1.208l-1.826-20.603
			c-0.273-3.116-2.642-5.646-5.728-6.141l-10.267-1.632l1.628-37.004c0.15-3.468-2.321-6.499-5.755-7.042l-25.146-3.98l5.212-27.471
			c0.461-2.417-0.42-4.891-2.294-6.482c-1.877-1.594-4.478-2.048-6.772-1.195c-4.311,1.587-8.54,3.604-12.626,5.554
			c-7.953,3.792-15.466,7.376-22.361,7.376s-14.414-3.584-22.374-7.38C126.245,4.427,116.957,0,106.977,0
			C69.061,0,41.543,41.219,41.543,98.01c0,30.792,18.859,216.016,65.434,216.016c14.479,0,19.524-22.016,27.911-64.215
			c4.369-21.992,13.462-67.761,22.682-67.802c12.718,0.044,20.599,45.049,25.3,71.936c6.335,36.181,10.513,60.081,25.347,60.081
			c47.718,0,64.092-188.846,64.246-190.747C272.609,121.44,272.005,119.624,270.796,118.238z M208.807,300.339
			c-4.714-4.291-9.38-30.962-12.486-48.746c-7.154-40.881-14.555-83.152-38.755-83.238c-20.432,0.089-27.679,36.564-36.072,78.797
			c-3.884,19.562-9.725,48.944-15.039,53.193c-8.373-0.857-22.432-22.241-35.359-80.34C61.142,175.288,55.196,122.86,55.196,98.01
			c0-48.879,21.774-84.357,51.78-84.357c6.892,0,14.411,3.584,22.364,7.383c8.977,4.284,18.265,8.711,28.245,8.711
			c9.974,0,19.248-4.42,28.221-8.697l-4.106,21.63c-0.348,1.813,0.061,3.69,1.126,5.199c1.058,1.512,2.686,2.526,4.512,2.816
			l26.081,4.127l-1.628,37.001c-0.154,3.465,2.321,6.496,5.748,7.042l11.022,1.751l1.881,21.197c0.3,3.383,3.041,6.028,6.434,6.212
			l21.381,1.147C249.76,224.963,225.273,298.585,208.807,300.339z"/>
	</g>
</g>
<g>
</g>
<g>
</g>
<g>
</g>
<g>
</g>
<g>
</g>
<g>
</g>
<g>
</g>
<g>
</g>
<g>
</g>
<g>
</g>
<g>
</g>
<g>
</g>
<g>
</g>
<g>
</g>
<g>
</g>
</svg>
