<?xml version="1.0" encoding="iso-8859-1"?>
<!-- Generator: Adobe Illustrator 19.0.0, SVG Export Plug-In . SVG Version: 6.00 Build 0)  -->
<svg version="1.1" id="Capa_1" xmlns="http://www.w3.org/2000/svg" xmlns:xlink="http://www.w3.org/1999/xlink" x="0px" y="0px"
	 viewBox="0 0 395.496 395.496" style="enable-background:new 0 0 395.496 395.496;" xml:space="preserve">
<g>
	<g>
		<path d="M262.601,0c-12.291,0-23.965,5.533-35.253,10.878c-10.428,4.939-20.272,9.602-29.6,9.602s-19.173-4.663-29.6-9.602
			C156.86,5.53,145.19,0,132.895,0C85.559,0,51.2,51.586,51.2,122.655c0,32.01,7.274,98.475,20.743,158.597
			c16.985,75.803,37.492,114.241,60.952,114.241c16.818,0,23.419-28.914,33.645-80.019c7.001-35.021,17.589-87.941,31.181-87.999
			c18.104,0.065,27.6,53.955,34.526,93.3c7.929,44.995,13.169,74.721,30.355,74.721c55.419,0,81.695-218.849,81.695-272.841
			C344.296,51.582,309.934,0,262.601,0z M262.741,382.314c-6.687-2.464-13.452-40.878-17.493-63.829
			c-9.015-51.18-18.34-104.103-47.527-104.209c-24.419,0.106-33.993,47.954-44.128,98.608c-5.018,25.119-13.431,67.168-20.698,69.41
			c-35.925,0-68.492-186.914-68.492-259.639c0-63.423,28.805-109.452,68.492-109.452c9.325,0,19.173,4.663,29.6,9.602
			c11.288,5.349,22.961,10.878,35.253,10.878s23.965-5.533,35.253-10.878c10.428-4.939,20.275-9.602,29.6-9.602
			c39.687,0,68.492,46.029,68.492,109.452C331.093,195.376,298.527,382.293,262.741,382.314z"/>
	</g>
</g>
<g>
	<g>
		<path d="M269.428,272.841H132.895c-3.772,0-6.827,3.058-6.827,6.827s3.055,6.827,6.827,6.827h136.533
			c3.772,0,6.827-3.058,6.827-6.827S273.2,272.841,269.428,272.841z"/>
	</g>
</g>
<g>
	<g>
		<path d="M269.428,300.148H132.895c-3.772,0-6.827,3.058-6.827,6.827s3.055,6.827,6.827,6.827h136.533
			c3.772,0,6.827-3.058,6.827-6.827S273.2,300.148,269.428,300.148z"/>
	</g>
</g>
<g>
	<g>
		<path d="M269.428,327.455H132.895c-3.772,0-6.827,3.058-6.827,6.827s3.055,6.827,6.827,6.827h136.533
			c3.772,0,6.827-3.058,6.827-6.827S273.2,327.455,269.428,327.455z"/>
	</g>
</g>
<g>
</g>
<g>
</g>
<g>
</g>
<g>
</g>
<g>
</g>
<g>
</g>
<g>
</g>
<g>
</g>
<g>
</g>
<g>
</g>
<g>
</g>
<g>
</g>
<g>
</g>
<g>
</g>
<g>
</g>
</svg>
