<?xml version="1.0" encoding="iso-8859-1"?>
<!-- Generator: Adobe Illustrator 19.0.0, SVG Export Plug-In . SVG Version: 6.00 Build 0)  -->
<svg version="1.1" id="Capa_1" xmlns="http://www.w3.org/2000/svg" xmlns:xlink="http://www.w3.org/1999/xlink" x="0px" y="0px"
	 viewBox="0 0 412.529 412.529" style="enable-background:new 0 0 412.529 412.529;" xml:space="preserve">
<g>
	<g>
		<path d="M267.124,0c-9.926,0-19.193,4.417-28.153,8.687c-7.98,3.809-15.52,7.404-22.467,7.404c-6.946,0-14.486-3.594-22.467-7.404
			C185.078,4.417,175.811,0,165.885,0c-37.782,0-65.208,41.12-65.208,97.782c0,30.761,18.794,215.791,65.208,215.791
			c14.292,0,19.319-21.951,27.679-64.017c4.721-23.75,13.507-67.959,22.914-68c12.916,0.048,20.815,45.172,25.528,72.134
			c6.311,36.062,10.479,59.884,25.119,59.884c46.414,0,65.208-185.03,65.208-215.791C332.332,41.124,304.903,0,267.124,0z
			 M267.646,300.353c-4.779-4.045-9.492-30.99-12.633-48.94c-7.141-40.789-14.52-82.971-38.533-83.057
			c-20.255,0.089-27.488,36.485-35.86,78.63c-3.919,19.729-9.813,49.388-15.186,53.374c-25.221-1.649-51.555-140.926-51.555-202.578
			c0-49.009,21.873-84.582,52.005-84.582c6.946,0,14.486,3.594,22.47,7.404c8.96,4.27,18.227,8.687,28.153,8.687
			c9.926,0,19.193-4.417,28.153-8.687c7.98-3.809,15.52-7.404,22.467-7.404c30.133,0,52.005,35.574,52.005,84.582
			C319.133,159.375,292.84,298.455,267.646,300.353z"/>
	</g>
</g>
<g>
	<g>
		<path d="M161.109,27.477c-1.857-3.144-5.912-4.185-9.039-2.321c-14.633,8.663-24.088,28.17-24.088,49.708
			c0,3.645,2.956,6.601,6.601,6.601s6.601-2.956,6.598-6.601c0-16.701,7.072-32.116,17.606-38.349
			C161.929,34.659,162.963,30.611,161.109,27.477z"/>
	</g>
</g>
<g>
	<g>
		<path d="M79.971,266.011c-15.06,0-27.307,12.25-27.307,27.307c0,13.015,18.282,36.867,21.948,41.516
			c1.294,1.645,3.267,2.601,5.359,2.601s4.065-0.956,5.359-2.601c3.669-4.649,21.948-28.501,21.948-41.516
			C107.278,278.262,95.031,266.011,79.971,266.011z M79.971,319.194c-7.26-10.25-13.653-21.439-13.653-25.876
			c0-7.53,6.127-13.653,13.653-13.653s13.653,6.124,13.653,13.653C93.624,297.755,87.231,308.944,79.971,319.194z"/>
	</g>
</g>
<g>
	<g>
		<path d="M148.238,341.105c-15.06,0-27.307,12.25-27.307,27.307c0,13.015,18.282,36.867,21.948,41.516
			c1.294,1.645,3.267,2.601,5.359,2.601c2.092,0,4.065-0.956,5.359-2.601c3.669-4.649,21.948-28.501,21.948-41.516
			C175.544,353.355,163.297,341.105,148.238,341.105z M148.238,394.288c-7.26-10.25-13.653-21.439-13.653-25.876
			c0-7.53,6.127-13.653,13.653-13.653c7.526,0,13.653,6.124,13.653,13.653C161.891,372.849,155.498,384.038,148.238,394.288z"/>
	</g>
</g>
<g>
	<g>
		<path d="M223.331,313.798c-15.06,0-27.307,12.25-27.307,27.307c0,13.015,18.282,36.867,21.948,41.516
			c1.294,1.645,3.267,2.601,5.359,2.601c2.092,0,4.065-0.956,5.359-2.601c3.669-4.649,21.948-28.501,21.948-41.516
			C250.638,326.048,238.391,313.798,223.331,313.798z M223.331,366.981c-7.26-10.25-13.653-21.439-13.653-25.876
			c0-7.53,6.127-13.653,13.653-13.653c7.526,0,13.653,6.123,13.653,13.653C236.984,345.542,230.591,356.731,223.331,366.981z"/>
	</g>
</g>
<g>
	<g>
		<path d="M332.558,272.838c-15.06,0-27.307,12.25-27.307,27.307c0,13.015,18.282,36.867,21.948,41.516
			c1.294,1.645,3.267,2.601,5.359,2.601c2.092,0,4.065-0.956,5.359-2.601c3.669-4.649,21.948-28.501,21.948-41.516
			C359.864,285.088,347.617,272.838,332.558,272.838z M332.558,326.021c-7.26-10.25-13.653-21.439-13.653-25.877
			c0-7.53,6.127-13.653,13.653-13.653s13.653,6.124,13.653,13.653C346.211,304.582,339.818,315.771,332.558,326.021z"/>
	</g>
</g>
<g>
</g>
<g>
</g>
<g>
</g>
<g>
</g>
<g>
</g>
<g>
</g>
<g>
</g>
<g>
</g>
<g>
</g>
<g>
</g>
<g>
</g>
<g>
</g>
<g>
</g>
<g>
</g>
<g>
</g>
</svg>
