<?xml version="1.0" encoding="iso-8859-1"?>
<!-- Generator: Adobe Illustrator 19.0.0, SVG Export Plug-In . SVG Version: 6.00 Build 0)  -->
<svg version="1.1" id="Capa_1" xmlns="http://www.w3.org/2000/svg" xmlns:xlink="http://www.w3.org/1999/xlink" x="0px" y="0px"
	 viewBox="0 0 395.947 395.947" style="enable-background:new 0 0 395.947 395.947;" xml:space="preserve">
<g>
	<g>
		<path d="M262.827,0c-12.346,0-24.04,5.54-35.345,10.895c-10.407,4.932-20.234,9.585-29.508,9.585s-19.101-4.652-29.508-9.585
			C157.16,5.54,145.466,0,133.12,0C85.654,0,51.2,51.681,51.2,122.88c0,18.156,2.28,45.851,6.26,75.984
			c0.451,3.434,3.386,5.932,6.758,5.932c0.294,0,0.601-0.02,0.901-0.061c3.741-0.492,6.369-3.922,5.874-7.66
			c-3.901-29.566-6.141-56.61-6.141-74.196c0-63.29,28.713-109.227,68.267-109.227c9.274,0,19.101,4.652,29.508,9.585
			c11.305,5.356,22.999,10.895,35.345,10.895s24.04-5.54,35.345-10.895c10.407-4.932,20.234-9.585,29.508-9.585
			c39.554,0,68.267,45.937,68.267,109.227c0,15.978-1.915,40.506-5.25,67.294c-0.468,3.738,2.185,7.148,5.926,7.615
			c3.765,0.492,7.158-2.185,7.619-5.929c3.406-27.32,5.359-52.463,5.359-68.98C344.747,51.681,310.292,0,262.827,0z"/>
	</g>
</g>
<g>
	<g>
		<path d="M337.449,192.621l-25.361-35.533c-1.758-2.458-4.919-3.454-7.758-2.492l-57.006,19.466l-39.96-40.032
			c-1.352-1.352-3.195-2.031-5.113-1.997c-1.905,0.075-3.693,0.949-4.925,2.406L171.81,164.54l-23.859-19.787
			c-2.338-1.935-5.68-2.096-8.178-0.403l-78.667,53.166c-2.157,1.457-3.297,4.011-2.939,6.588
			c7.919,57.678,31.078,191.843,74.953,191.843c16.995,0,23.62-28.979,33.86-80.196c6.567-32.826,17.558-87.764,30.966-87.822
			c17.92,0.061,27.781,56.061,34.307,93.116c7.946,45.104,13.193,74.902,30.573,74.902c46.326,0,69.762-151.917,75.834-198.475
			C338.889,195.761,338.456,194.028,337.449,192.621z M263.045,382.327c-6.625-2.775-13.073-39.41-17.347-63.655
			c-9.032-51.275-18.367-104.298-47.753-104.4c-24.614,0.106-34.198,48.046-44.353,98.799c-4.98,24.921-13.326,66.628-20.473,69.222
			c-20.978,0-46.408-73.697-60.846-175.848l70.898-47.916l25.119,20.832c2.881,2.389,7.154,2.01,9.568-0.84l25.088-29.594
			l37.721,37.796c1.85,1.843,4.584,2.475,7.038,1.635l56.228-19.203l20.845,29.208C310.579,305.097,284.631,382.29,263.045,382.327z
			"/>
	</g>
</g>
<g>
	<g>
		<path d="M112.64,211.627c-3.772,0-6.827,3.058-6.827,6.827v34.133c0,3.768,3.055,6.827,6.827,6.827s6.827-3.058,6.827-6.827
			v-34.133C119.467,214.685,116.412,211.627,112.64,211.627z"/>
	</g>
</g>
<g>
	<g>
		<path d="M146.773,177.493c-3.772,0-6.827,3.058-6.827,6.827v34.133c0,3.768,3.055,6.827,6.827,6.827s6.827-3.058,6.827-6.827
			V184.32C153.6,180.552,150.545,177.493,146.773,177.493z"/>
	</g>
</g>
<g>
	<g>
		<path d="M262.827,238.933c-3.772,0-6.827,3.058-6.827,6.827v34.133c0,3.768,3.055,6.827,6.827,6.827s6.827-3.058,6.827-6.827
			V245.76C269.653,241.992,266.598,238.933,262.827,238.933z"/>
	</g>
</g>
<g>
	<g>
		<path d="M262.827,204.8c-3.772,0-6.827,3.058-6.827,6.827v13.653c0,3.768,3.055,6.827,6.827,6.827s6.827-3.058,6.827-6.827
			v-13.653C269.653,207.858,266.598,204.8,262.827,204.8z"/>
	</g>
</g>
<g>
	<g>
		<path d="M119.467,307.2c-3.772,0-6.827,3.058-6.827,6.827v13.653c0,3.768,3.055,6.827,6.827,6.827s6.827-3.058,6.827-6.827
			v-13.653C126.293,310.258,123.238,307.2,119.467,307.2z"/>
	</g>
</g>
<g>
	<g>
		<path d="M283.307,218.453c-3.772,0-6.827,3.058-6.827,6.827v34.133c0,3.768,3.055,6.827,6.827,6.827
			c3.772,0,6.827-3.058,6.827-6.827V225.28C290.133,221.512,287.078,218.453,283.307,218.453z"/>
	</g>
</g>
<g>
</g>
<g>
</g>
<g>
</g>
<g>
</g>
<g>
</g>
<g>
</g>
<g>
</g>
<g>
</g>
<g>
</g>
<g>
</g>
<g>
</g>
<g>
</g>
<g>
</g>
<g>
</g>
<g>
</g>
</svg>
