<?xml version="1.0" encoding="iso-8859-1"?>
<!-- Generator: Adobe Illustrator 19.0.0, SVG Export Plug-In . SVG Version: 6.00 Build 0)  -->
<svg version="1.1" id="Capa_1" xmlns="http://www.w3.org/2000/svg" xmlns:xlink="http://www.w3.org/1999/xlink" x="0px" y="0px"
	 viewBox="0 0 402.548 402.548" style="enable-background:new 0 0 402.548 402.548;" xml:space="preserve">
<g>
	<g>
		<path d="M225.403,257.734c-3.601-0.56-6.973,1.908-7.526,5.509c-13.213,85.429-31.98,124.989-44.087,126.082
			c-4.779-4.058-9.492-30.996-12.633-48.944c-7.141-40.786-14.513-82.964-38.526-83.05c-20.248,0.089-27.481,36.478-35.854,78.612
			c-3.919,19.739-9.813,49.411-15.193,53.391c-25.221-1.649-51.555-140.926-51.555-202.578c0-49.009,21.873-84.582,52.006-84.582
			c6.946,0,14.486,3.594,22.467,7.404c11.339,5.407,22.886,10.735,36.413,7.731c3.56-0.795,5.799-4.318,5.007-7.878
			c-0.795-3.553-4.335-5.803-7.875-5.004c-1.908,0.427-3.721,0.638-5.393,0.638c-6.946,0-14.486-3.594-22.467-7.404
			c-8.96-4.27-18.227-8.687-28.153-8.687c-37.782,0-65.208,41.12-65.208,97.782c0,30.761,18.794,215.791,65.208,215.791
			c14.298,0,19.326-21.958,27.686-64.031c4.721-23.747,13.5-67.946,22.907-67.987c12.916,0.048,20.808,45.169,25.528,72.124
			c6.304,36.069,10.479,59.894,25.119,59.894c16.606,0,40.093-23.822,57.641-137.284
			C231.475,261.659,229.011,258.29,225.403,257.734z"/>
	</g>
</g>
<g>
	<g>
		<path d="M259.188,0C183.9,0,122.655,61.249,122.655,136.533S183.9,273.067,259.188,273.067
			c75.284,0,136.533-61.249,136.533-136.533S334.476,0,259.188,0z M259.188,259.413c-67.755,0-122.88-55.122-122.88-122.88
			s55.125-122.88,122.88-122.88c67.751,0,122.88,55.122,122.88,122.88S326.943,259.413,259.188,259.413z"/>
	</g>
</g>
<g>
	<g>
		<path d="M310.026,144.087c-18.193-9.093-27.208-5.018-34.441-1.731c-4.68,2.116-7.769,3.523-14.24,1.358
			c-7.605-2.533-13.213-8.905-19.152-15.65c-7.772-8.827-16.579-18.835-30.792-18.835c-21.965,0-36.693,19.128-39.386,22.907
			l-13.227,13.227c-1.553,1.553-6.287,6.287-5.007,12.199c1.28,5.891,7.035,8.045,12.114,9.946
			c8.393,3.14,11.373,5.123,11.373,9.987c0,26.511,26.651,34.137,58.853,40.748c13.872,2.847,26.32,4.656,38.345,4.656
			c16.346,0,31.921-3.348,49.213-11.988c16.234-8.117,18.661-19.903,18.661-26.208C342.34,169.847,329.653,153.9,310.026,144.087z
			 M317.577,198.694c-26.607,13.309-48.196,12.442-78.708,6.178c-36.748-7.543-47.947-13.937-47.947-27.378
			c0-15.196-13.169-20.128-20.241-22.774c-0.44-0.167-0.925-0.345-1.413-0.532l12.827-12.824c0.307-0.307,0.601-0.666,0.84-1.024
			c0.119-0.174,11.981-17.456,28.467-17.456c7.656,0,12.797,5.396,20.548,14.203c6.554,7.441,13.981,15.879,25.081,19.579
			c11.554,3.843,18.569,0.679,24.201-1.881c5.99-2.707,10.305-4.683,22.692,1.509c14.582,7.287,24.767,18.968,24.767,28.406
			C328.69,190.3,324.949,195.007,317.577,198.694z"/>
	</g>
</g>
<g>
	<g>
		<path d="M270.841,124.88c-2.666-2.666-6.987-2.666-9.653,0l-13.653,13.653c-2.666,2.666-2.666,6.987,0,9.653
			c1.335,1.335,3.079,2,4.826,2c1.748,0,3.492-0.666,4.826-2l13.653-13.653C273.507,131.867,273.507,127.546,270.841,124.88z"/>
	</g>
</g>
<g>
	<g>
		<path d="M231.881,95.573c-3.772,0-6.827,3.058-6.827,6.827v20.48c0,3.768,3.055,6.827,6.827,6.827s6.827-3.055,6.827-6.827V102.4
			C238.708,98.632,235.653,95.573,231.881,95.573z"/>
	</g>
</g>
<g>
	<g>
		<path d="M216.228,111.227l-13.653-13.653c-2.666-2.666-6.987-2.666-9.653,0c-2.666,2.666-2.666,6.987,0,9.653l13.653,13.653
			c1.335,1.335,3.079,2,4.826,2s3.492-0.666,4.826-2C218.894,118.214,218.894,113.893,216.228,111.227z"/>
	</g>
</g>
<g>
	<g>
		<path d="M180.32,123.597l-13.653-6.827c-3.369-1.683-7.468-0.317-9.161,3.055c-1.686,3.376-0.317,7.475,3.055,9.161l13.653,6.827
			c0.983,0.492,2.021,0.72,3.048,0.72c2.505,0,4.912-1.379,6.113-3.775C185.061,129.382,183.692,125.283,180.32,123.597z"/>
	</g>
</g>
<g>
	<g>
		<path d="M189.775,166.881c-2.086-3.137-6.318-3.994-9.465-1.894l-20.48,13.653c-3.14,2.089-3.987,6.328-1.894,9.465
			c1.314,1.976,3.482,3.041,5.687,3.041c1.3,0,2.611-0.369,3.779-1.147l20.48-13.653
			C191.02,174.257,191.867,170.018,189.775,166.881z"/>
	</g>
</g>
<g>
	<g>
		<path d="M204.575,197.973c-3.772,0-6.827,3.058-6.827,6.827v13.653c0,3.768,3.055,6.827,6.827,6.827s6.827-3.055,6.827-6.827
			V204.8C211.401,201.032,208.346,197.973,204.575,197.973z"/>
	</g>
</g>
<g>
	<g>
		<path d="M238.708,204.8c-3.772,0-6.827,3.058-6.827,6.827v20.48c0,3.768,3.055,6.827,6.827,6.827s6.827-3.055,6.827-6.827v-20.48
			C245.535,207.858,242.48,204.8,238.708,204.8z"/>
	</g>
</g>
<g>
	<g>
		<path d="M291.321,227.28l-13.653-13.653c-2.666-2.666-6.987-2.666-9.653,0c-2.666,2.666-2.666,6.987,0,9.653l13.653,13.653
			c1.335,1.335,3.079,2,4.826,2s3.492-0.666,4.826-2C293.987,234.267,293.987,229.946,291.321,227.28z"/>
	</g>
</g>
<g>
	<g>
		<path d="M331.24,219.6l-20.48-13.653c-3.151-2.096-7.38-1.246-9.465,1.894c-2.092,3.137-1.246,7.376,1.894,9.465l20.48,13.653
			c1.164,0.778,2.478,1.147,3.779,1.147c2.205,0,4.372-1.065,5.687-3.041C335.227,225.929,334.38,221.689,331.24,219.6z"/>
	</g>
</g>
<g>
	<g>
		<path d="M368.063,175.336c-1.191-3.574-5.024-5.516-8.632-4.318l-20.48,6.827c-3.574,1.191-5.509,5.059-4.314,8.636
			c0.952,2.86,3.611,4.669,6.472,4.669c0.713,0,1.44-0.113,2.161-0.352l20.48-6.827
			C367.322,182.781,369.258,178.913,368.063,175.336z"/>
	</g>
</g>
<g>
	<g>
		<path d="M330.506,137.25c-3.383-1.686-7.468-0.317-9.161,3.055l-6.827,13.653c-1.686,3.376-0.317,7.475,3.055,9.161
			c0.983,0.492,2.021,0.72,3.048,0.72c2.505,0,4.912-1.379,6.113-3.775l6.827-13.653
			C335.247,143.036,333.879,138.936,330.506,137.25z"/>
	</g>
</g>
<g>
	<g>
		<path d="M309.132,116.402c-3.604-1.198-7.438,0.747-8.632,4.318l-6.827,20.48c-1.191,3.577,0.741,7.441,4.314,8.636
			c0.72,0.242,1.447,0.355,2.161,0.355c2.86,0,5.519-1.809,6.472-4.673l6.827-20.48C314.638,121.46,312.706,117.596,309.132,116.402
			z"/>
	</g>
</g>
<g>
	<g>
		<path d="M306.258,92.522c-1.693-3.379-5.789-4.745-9.161-3.055l-13.653,6.827c-3.376,1.69-4.741,5.789-3.055,9.161
			c1.201,2.393,3.608,3.772,6.113,3.772c1.027,0,2.065-0.229,3.048-0.717l13.653-6.827
			C306.579,99.994,307.944,95.894,306.258,92.522z"/>
	</g>
</g>
<g>
	<g>
		<path d="M275.893,75.81l-13.653-6.827c-3.369-1.686-7.468-0.317-9.161,3.055c-1.686,3.376-0.317,7.475,3.055,9.161l13.653,6.827
			c0.983,0.492,2.021,0.72,3.048,0.72c2.505,0,4.912-1.379,6.113-3.775C280.634,81.596,279.265,77.496,275.893,75.81z"/>
	</g>
</g>
<g>
	<g>
		<path d="M236.708,49.787c-2.666-2.666-6.987-2.666-9.653,0l-6.827,6.827c-2.666,2.666-2.666,6.987,0,9.653
			c1.335,1.335,3.079,2,4.826,2s3.492-0.666,4.826-2l6.827-6.827C239.374,56.774,239.374,52.453,236.708,49.787z"/>
	</g>
</g>
<g>
	<g>
		<path d="M313.801,47.787h-34.133c-3.772,0-6.827,3.058-6.827,6.827s3.055,6.827,6.827,6.827h34.133
			c3.772,0,6.827-3.058,6.827-6.827S317.573,47.787,313.801,47.787z"/>
	</g>
</g>
<g>
	<g>
		<path d="M352.761,97.574L339.108,83.92c-2.666-2.666-6.987-2.666-9.653,0c-2.666,2.666-2.666,6.987,0,9.653l13.653,13.653
			c1.335,1.335,3.079,2,4.826,2s3.492-0.666,4.826-2C355.427,104.561,355.427,100.239,352.761,97.574z"/>
	</g>
</g>
<g>
	<g>
		<path d="M67.26,116.453c-1.857-3.14-5.905-4.178-9.039-2.321c-14.633,8.663-24.088,28.17-24.088,49.708
			c0,3.645,2.956,6.601,6.601,6.601s6.598-2.956,6.598-6.601c0-16.701,7.076-32.116,17.606-38.349
			C68.079,123.634,69.113,119.586,67.26,116.453z"/>
	</g>
</g>
<g>
</g>
<g>
</g>
<g>
</g>
<g>
</g>
<g>
</g>
<g>
</g>
<g>
</g>
<g>
</g>
<g>
</g>
<g>
</g>
<g>
</g>
<g>
</g>
<g>
</g>
<g>
</g>
<g>
</g>
</svg>
