<?xml version="1.0" encoding="iso-8859-1"?>
<!-- Generator: Adobe Illustrator 19.0.0, SVG Export Plug-In . SVG Version: 6.00 Build 0)  -->
<svg version="1.1" id="Capa_1" xmlns="http://www.w3.org/2000/svg" xmlns:xlink="http://www.w3.org/1999/xlink" x="0px" y="0px"
	 viewBox="0 0 402.552 402.552" style="enable-background:new 0 0 402.552 402.552;" xml:space="preserve">
<g>
	<g>
		<path d="M341.953,143.142c-8.643,0-16.176,3.98-22.822,7.489c-5.751,3.038-11.179,5.908-16.439,5.908
			c-5.499,0-12.513-3.106-19.292-6.113c-8.079-3.584-16.439-7.287-24.832-7.287c-31.928,0-55.101,34.246-55.101,81.432
			c0,26.406,15.196,177.981,55.101,177.981c13.336,0,18.06-21.238,25.221-53.378c3.318-14.937,12.151-54.607,18.879-54.637
			c9.353,0.031,15.114,37.547,18.214,57.699c4.652,30.297,7.728,50.313,21.074,50.313c39.905,0,55.098-151.576,55.098-177.975
			C397.054,177.387,373.881,143.142,341.953,143.142z M342.994,388.779c-3.413-4.714-6.526-24.986-8.619-38.618
			c-5.226-34.024-10.633-69.209-31.706-69.28c-17.688,0.079-24.422,30.31-32.215,65.324c-3.406,15.309-8.496,38.175-12.721,42.615
			c-18.493-3.178-40.612-110.746-40.612-164.253c0-38.639,17.821-67.779,41.448-67.779c5.506,0,12.52,3.11,19.299,6.113
			c8.079,3.581,16.432,7.284,24.825,7.284c8.643,0,16.176-3.98,22.822-7.489c5.752-3.038,11.179-5.908,16.439-5.908
			c23.627,0,41.448,29.14,41.448,67.779C383.401,277.869,361.44,384.829,342.994,388.779z"/>
	</g>
</g>
<g>
	<g>
		<path d="M266.129,163.615c-22.586,0-40.96,18.374-40.96,40.96c0,3.768,3.055,6.827,6.827,6.827c3.772,0,6.827-3.058,6.827-6.827
			c0-15.056,12.247-27.307,27.307-27.307c3.772,0,6.827-3.058,6.827-6.827S269.901,163.615,266.129,163.615z"/>
	</g>
</g>
<g>
	<g>
		<path d="M121.55,0H19.15C11.75,0,5.722,6.018,5.722,13.414v184.344c0,7.397,6.028,13.414,13.428,13.414h102.4
			c7.4,0,13.425-6.014,13.428-13.411V13.414C134.979,6.018,128.951,0,121.55,0z M121.55,197.97l-102.625-0.212V13.411l0.225-0.212
			l102.625,0.212L121.55,197.97z"/>
	</g>
</g>
<g>
	<g>
		<path d="M128.377,20.255H12.324c-3.772,0-6.827,3.058-6.827,6.827v143.36c0,3.768,3.055,6.827,6.827,6.827h116.053
			c3.772,0,6.827-3.058,6.827-6.827V27.081C135.204,23.313,132.149,20.255,128.377,20.255z M121.55,163.615H19.15V33.908h102.4
			V163.615z"/>
	</g>
</g>
<g>
	<g>
		<circle cx="70.35" cy="187.508" r="10.24"/>
	</g>
</g>
<g>
	<g>
		<path d="M298.989,74.868H148.857c-3.772,0-6.827,3.058-6.827,6.827c0,3.768,3.055,6.827,6.827,6.827h143.305v47.654
			c0,3.768,3.055,6.827,6.827,6.827s6.827-3.058,6.827-6.827v-54.48C305.816,77.926,302.761,74.868,298.989,74.868z"/>
	</g>
</g>
<g>
</g>
<g>
</g>
<g>
</g>
<g>
</g>
<g>
</g>
<g>
</g>
<g>
</g>
<g>
</g>
<g>
</g>
<g>
</g>
<g>
</g>
<g>
</g>
<g>
</g>
<g>
</g>
<g>
</g>
</svg>
