<?xml version="1.0" encoding="iso-8859-1"?>
<!-- Generator: Adobe Illustrator 19.0.0, SVG Export Plug-In . SVG Version: 6.00 Build 0)  -->
<svg version="1.1" id="Capa_1" xmlns="http://www.w3.org/2000/svg" xmlns:xlink="http://www.w3.org/1999/xlink" x="0px" y="0px"
	 viewBox="0 0 430.08 430.08" style="enable-background:new 0 0 430.08 430.08;" xml:space="preserve">
<g>
	<g>
		<path d="M341.299,0H88.781C77.466,0,68.267,9.172,68.267,20.446v389.188c0,11.271,9.202,20.446,20.514,20.446h252.518
			c11.315,0,20.514-9.175,20.514-20.446V20.446C361.813,9.175,352.611,0,341.299,0z M348.16,409.634
			c0,3.744-3.082,6.793-6.861,6.793H88.781c-3.847,0-6.861-2.983-6.861-6.793V20.446c0-3.744,3.079-6.793,6.861-6.793h252.518
			c3.847,0,6.861,2.983,6.861,6.793V409.634z"/>
	</g>
</g>
<g>
	<g>
		<path d="M215.04,368.64c-13.172,0-23.893,10.721-23.893,23.893s10.721,23.893,23.893,23.893s23.893-10.721,23.893-23.893
			S228.212,368.64,215.04,368.64z M215.04,402.773c-5.646,0-10.24-4.594-10.24-10.24s4.594-10.24,10.24-10.24
			s10.24,4.594,10.24,10.24S220.686,402.773,215.04,402.773z"/>
	</g>
</g>
<g>
	<g>
		<path d="M347.351,34.133H82.726c-7.974,0-14.459,6.137-14.459,13.677v307.152c0,7.54,6.485,13.677,14.459,13.677h264.629
			c7.974,0,14.459-6.137,14.459-13.677V47.811C361.813,40.271,355.328,34.133,347.351,34.133z M347.354,354.987H82.729
			c-0.382,0-0.628-0.113-0.741-0.113c-0.041,0-0.061,0.014-0.068,0.044L81.852,48.056c0.048-0.058,0.321-0.27,0.874-0.27h264.629
			c0.519,0,0.785,0.188,0.806,0.068l0.068,306.862C348.181,354.775,347.907,354.987,347.354,354.987z"/>
	</g>
</g>
<g>
	<g>
		<path d="M241.934,116.053c-5.946,0-11.421,2.458-16.247,4.622c-3.925,1.761-7.625,3.424-10.646,3.424
			c-3.021,0-6.721-1.662-10.646-3.424c-4.826-2.164-10.301-4.622-16.247-4.622c-21.992,0-37.96,22.047-37.96,52.419
			c0,11.36,8.26,111.421,37.96,111.421c10.609,0,13.527-13.834,17.951-34.768c2.038-9.656,5.751-27.255,9.339-31.017
			c4.284,2.836,8.192,23.842,9.892,32.993c3.54,19.036,6.1,32.792,16.606,32.792c29.699,0,37.96-100.062,37.96-111.421
			C279.893,138.1,263.926,116.053,241.934,116.053z M243.555,265.424c-1.741-4.301-3.546-14.025-4.806-20.821
			c-4.052-21.787-8.24-44.315-23.74-44.373c-13.404,0.055-17.517,19.531-22.279,42.073c-1.618,7.687-3.959,18.777-6.059,23.235
			c-9.165-7.059-22.832-63.737-22.832-97.065c0-22.098,10.448-38.765,24.306-38.765c3.021,0,6.734,1.662,10.653,3.427
			c4.826,2.167,10.301,4.622,16.241,4.622s11.414-2.454,16.241-4.622c3.918-1.765,7.632-3.427,10.653-3.427
			c13.858,0,24.306,16.667,24.306,38.765C266.24,201.629,252.713,257.905,243.555,265.424z"/>
	</g>
</g>
<g>
</g>
<g>
</g>
<g>
</g>
<g>
</g>
<g>
</g>
<g>
</g>
<g>
</g>
<g>
</g>
<g>
</g>
<g>
</g>
<g>
</g>
<g>
</g>
<g>
</g>
<g>
</g>
<g>
</g>
</svg>
