<?xml version="1.0" encoding="iso-8859-1"?>
<!-- Generator: Adobe Illustrator 19.0.0, SVG Export Plug-In . SVG Version: 6.00 Build 0)  -->
<svg version="1.1" id="Capa_1" xmlns="http://www.w3.org/2000/svg" xmlns:xlink="http://www.w3.org/1999/xlink" x="0px" y="0px"
	 viewBox="0 0 406.998 406.998" style="enable-background:new 0 0 406.998 406.998;" xml:space="preserve">
<g>
	<g>
		<path d="M167.98,240.127c-2.666-2.666-6.987-2.666-9.653,0l-26.621,26.624c-2.666,2.666-2.666,6.99,0,9.653
			c1.335,1.335,3.079,2,4.826,2s3.495-0.666,4.826-2l26.621-26.624C170.646,247.114,170.646,242.79,167.98,240.127z"/>
	</g>
</g>
<g>
	<g>
		<path d="M351.901,114.141l-57.928-57.928c-2.666-2.666-6.987-2.666-9.653,0L163.154,177.376c-1.28,1.28-2,3.017-2,4.826
			s0.72,3.546,2,4.826l57.928,57.924c1.335,1.335,3.079,2,4.826,2c1.748,0,3.492-0.666,4.826-1.997l121.167-121.163
			c1.28-1.28,2-3.017,2-4.826S353.181,115.421,351.901,114.141z M225.908,230.478l-48.275-48.275l111.514-111.51l48.275,48.275
			L225.908,230.478z"/>
	</g>
</g>
<g>
	<g>
		<path d="M235.561,143.584l-9.653-9.653c-2.666-2.666-6.987-2.666-9.653,0c-2.666,2.666-2.666,6.987,0,9.653l9.653,9.653
			c1.335,1.335,3.079,2,4.826,2s3.492-0.666,4.826-2C238.227,150.572,238.227,146.25,235.561,143.584z"/>
	</g>
</g>
<g>
	<g>
		<path d="M259.697,119.449l-9.653-9.653c-2.666-2.666-6.987-2.666-9.653,0c-2.666,2.666-2.666,6.987,0,9.653l9.653,9.653
			c1.335,1.335,3.079,2,4.826,2c1.748,0,3.495-0.666,4.826-2C262.362,126.436,262.362,122.115,259.697,119.449z"/>
	</g>
</g>
<g>
	<g>
		<path d="M283.836,95.316l-9.653-9.656c-2.666-2.666-6.987-2.666-9.653,0c-2.666,2.662-2.666,6.987,0,9.653l9.653,9.656
			c1.335,1.335,3.079,2,4.826,2c1.744,0,3.492-0.669,4.826-2C286.502,102.307,286.502,97.982,283.836,95.316z"/>
	</g>
</g>
<g>
	<g>
		<path d="M390.359,66.027l-48.275-48.271c-2.577-2.574-6.752-2.574-9.332,0L289.307,61.2c-2.577,2.577-2.577,6.755,0,9.332
			l48.271,48.275c1.236,1.236,2.915,1.932,4.666,1.932s3.43-0.696,4.666-1.932l43.448-43.448c1.236-1.236,1.932-2.915,1.932-4.666
			S391.595,67.262,390.359,66.027z M342.245,104.806l-38.936-38.939l34.109-34.109l38.939,38.936L342.245,104.806z"/>
	</g>
</g>
<g>
	<g>
		<path d="M404.999,80.349L327.765,3.112c-2.666-2.666-6.987-2.666-9.653,0c-2.666,2.666-2.666,6.987,0,9.653l77.234,77.237
			c1.335,1.335,3.079,2,4.826,2c1.744,0,3.492-0.666,4.826-2C407.665,87.336,407.665,83.015,404.999,80.349z"/>
	</g>
</g>
<g>
	<g>
		<path d="M245.217,211.168l-48.275-48.271c-2.666-2.666-6.987-2.666-9.653,0c-2.666,2.666-2.666,6.987,0,9.653l48.275,48.268
			c1.335,1.335,3.079,2,4.826,2s3.495-0.666,4.826-1.997C247.883,218.156,247.883,213.834,245.217,211.168z"/>
	</g>
</g>
<g>
	<g>
		<path d="M216.091,220.985l-28.962-28.962c-2.577-2.574-6.752-2.574-9.332,0l-33.789,33.789c-2.577,2.577-2.577,6.755,0,9.332
			l28.962,28.962c1.29,1.287,2.976,1.932,4.666,1.932c1.69,0,3.379-0.645,4.666-1.932l33.789-33.789
			C218.668,227.74,218.668,223.562,216.091,220.985z M177.637,250.104l-19.63-19.63l24.457-24.457l19.63,19.63L177.637,250.104z"/>
	</g>
</g>
<g>
	<g>
		<path d="M87.286,242.049c-5.782,0-11.032,2.485-15.66,4.68c-3.652,1.731-7.107,3.366-9.817,3.366c-2.71,0-6.164-1.635-9.817-3.366
			c-4.635-2.191-9.882-4.68-15.664-4.68C15.278,242.049,0,264.096,0,294.467c0,12.803,2.891,39.311,8.25,63.229
			c9.677,43.192,20.661,48.189,28.078,48.189c10.4,0,13.175-13.862,17.37-34.84c1.867-9.325,5.222-26.105,8.53-30.648
			c3.929,4.055,7.298,23.166,8.967,32.638c3.485,19.78,5.782,32.85,16.09,32.85c7.414,0,18.398-4.997,28.078-48.189
			c5.359-23.914,8.25-50.425,8.25-63.229C123.614,264.096,108.336,242.049,87.286,242.049z M89.027,391.051
			c-1.601-4.54-3.236-13.827-4.393-20.388c-3.843-21.821-7.817-44.387-22.859-44.442c-13.049,0.058-16.951,19.562-21.47,42.144
			c-1.478,7.404-3.591,17.961-5.53,22.743c-9.414-9.155-21.122-65.84-21.122-96.645c0-22.098,9.748-38.765,22.675-38.765
			c2.71,0,6.164,1.635,9.81,3.366c4.635,2.191,9.882,4.68,15.664,4.68c5.782,0,11.032-2.485,15.66-4.68
			c3.652-1.731,7.107-3.366,9.817-3.366c12.93,0,22.675,16.664,22.675,38.765C109.954,325.222,98.284,381.777,89.027,391.051z"/>
	</g>
</g>
<g>
</g>
<g>
</g>
<g>
</g>
<g>
</g>
<g>
</g>
<g>
</g>
<g>
</g>
<g>
</g>
<g>
</g>
<g>
</g>
<g>
</g>
<g>
</g>
<g>
</g>
<g>
</g>
<g>
</g>
</svg>
