<?xml version="1.0" encoding="iso-8859-1"?>
<!-- Generator: Adobe Illustrator 19.0.0, SVG Export Plug-In . SVG Version: 6.00 Build 0)  -->
<svg version="1.1" id="Capa_1" xmlns="http://www.w3.org/2000/svg" xmlns:xlink="http://www.w3.org/1999/xlink" x="0px" y="0px"
	 viewBox="0 0 436.907 436.907" style="enable-background:new 0 0 436.907 436.907;" xml:space="preserve">
<g>
	<g>
		<path d="M401.432,131.577c-1.676-3.372-5.755-4.765-9.148-3.092c-3.379,1.673-4.765,5.768-3.092,9.148
			c13.541,27.389,20.408,56.876,20.408,87.648c0,109.162-88.815,197.973-197.973,197.973S13.653,334.442,13.653,225.28
			S102.468,27.307,211.627,27.307c29.153,0,57.221,6.185,83.429,18.384c3.441,1.597,7.479,0.102,9.066-3.311
			c1.594-3.417,0.113-7.475-3.308-9.069c-28.027-13.042-58.033-19.657-89.187-19.657C94.932,13.653,0,108.588,0,225.28
			s94.932,211.627,211.627,211.627s211.627-94.935,211.627-211.627C423.253,192.393,415.915,160.867,401.432,131.577z"/>
	</g>
</g>
<g>
	<g>
		<path d="M253.32,95.802c-8.434,0-16.183,3.669-23.675,7.219c-6.451,3.058-12.554,5.946-18.019,5.946s-11.564-2.888-18.019-5.946
			c-7.496-3.55-15.241-7.219-23.675-7.219c-31.792,0-54.873,34.154-54.873,81.207c0,26.368,15.124,177.753,54.873,177.753
			c13.268,0,17.514-21.217,23.941-53.333c2.987-14.947,10.926-54.654,17.729-54.682c9.673,0.034,16.319,37.765,19.886,58.033
			c5.297,30.099,8.806,49.981,21.832,49.981c39.745,0,54.873-151.385,54.873-177.753C308.193,129.956,285.112,95.802,253.32,95.802z
			 M254.201,341.48c-3.622-4.386-7.267-25.098-9.714-38.991c-5.966-33.86-12.134-68.871-32.887-68.943
			c-17.626,0.078-23.671,30.297-30.672,65.294c-3.065,15.34-7.653,38.267-11.786,42.656
			c-18.603-3.014-40.881-110.865-40.881-164.489c0-38.772,17.913-68.007,41.673-68.007c5.468,0,11.568,2.884,18.019,5.943
			c7.496,3.55,15.241,7.219,23.675,7.219s16.183-3.669,23.675-7.219c6.451-3.058,12.551-5.946,18.019-5.946
			c23.76,0,41.673,29.239,41.673,68.007C294.994,230.543,272.787,338.135,254.201,341.48z"/>
	</g>
</g>
<g>
	<g>
		<path d="M177.493,116.053c-22.586,0-40.96,18.374-40.96,40.96c0,3.768,3.055,6.827,6.827,6.827s6.827-3.058,6.827-6.827
			c0-15.056,12.247-27.307,27.307-27.307c3.772,0,6.827-3.058,6.827-6.827C184.32,119.112,181.265,116.053,177.493,116.053z"/>
	</g>
</g>
<g>
	<g>
		<path d="M361.813,0c-41.407,0-75.093,33.686-75.093,75.093s33.686,75.093,75.093,75.093c41.407,0,75.093-33.686,75.093-75.093
			S403.22,0,361.813,0z M361.813,136.533c-33.881,0-61.44-27.563-61.44-61.44s27.559-61.44,61.44-61.44
			c33.881,0,61.44,27.563,61.44,61.44S395.694,136.533,361.813,136.533z"/>
	</g>
</g>
<g>
	<g>
		<path d="M361.813,27.307c-3.772,0-6.827,3.058-6.827,6.827v81.92c0,3.768,3.055,6.827,6.827,6.827
			c3.772,0,6.827-3.058,6.827-6.827v-81.92C368.64,30.365,365.585,27.307,361.813,27.307z"/>
	</g>
</g>
<g>
	<g>
		<path d="M402.773,68.267h-81.92c-3.772,0-6.827,3.058-6.827,6.827s3.055,6.827,6.827,6.827h81.92c3.772,0,6.827-3.058,6.827-6.827
			S406.545,68.267,402.773,68.267z"/>
	</g>
</g>
<g>
</g>
<g>
</g>
<g>
</g>
<g>
</g>
<g>
</g>
<g>
</g>
<g>
</g>
<g>
</g>
<g>
</g>
<g>
</g>
<g>
</g>
<g>
</g>
<g>
</g>
<g>
</g>
<g>
</g>
</svg>
